<svg width="36" height="36" viewBox="0 0 36 36" fill="none" xmlns="http://www.w3.org/2000/svg">
<rect width="36" height="36" rx="8" fill="#E7E9EE"/>
<path d="M27.75 25.5C27.75 25.6989 27.671 25.8897 27.5303 26.0303C27.3897 26.171 27.1989 26.25 27 26.25H9C8.80109 26.25 8.61032 26.171 8.46967 26.0303C8.32902 25.8897 8.25 25.6989 8.25 25.5V10.5C8.25 10.3011 8.32902 10.1103 8.46967 9.96967C8.61032 9.82902 8.80109 9.75 9 9.75C9.19891 9.75 9.38968 9.82902 9.53033 9.96967C9.67098 10.1103 9.75 10.3011 9.75 10.5V19.3472L14.5059 15.1875C14.6354 15.0742 14.7998 15.0088 14.9717 15.0024C15.1435 14.9959 15.3124 15.0487 15.45 15.1519L20.9634 19.2872L26.5059 14.4375C26.5786 14.3656 26.6652 14.3092 26.7605 14.272C26.8557 14.2348 26.9575 14.2174 27.0597 14.221C27.1619 14.2245 27.2623 14.249 27.3547 14.2927C27.4471 14.3365 27.5296 14.3987 27.5971 14.4756C27.6645 14.5524 27.7156 14.6422 27.7471 14.7395C27.7786 14.8368 27.7899 14.9395 27.7802 15.0413C27.7706 15.1431 27.7402 15.2418 27.691 15.3315C27.6418 15.4211 27.5748 15.4997 27.4941 15.5625L21.4941 20.8125C21.3646 20.9258 21.2002 20.9912 21.0283 20.9976C20.8565 21.0041 20.6876 20.9513 20.55 20.8481L15.0366 16.7147L9.75 21.3403V24.75H27C27.1989 24.75 27.3897 24.829 27.5303 24.9697C27.671 25.1103 27.75 25.3011 27.75 25.5Z" fill="#8A2BE2"/>
</svg>
