<svg width="36" height="36" viewBox="0 0 36 36" fill="none" xmlns="http://www.w3.org/2000/svg">
<path d="M24.9278 0C25.0116 0 25.0954 0 25.1839 0C25.3894 2.5388 24.4204 4.43578 23.2427 5.80951C22.0871 7.17376 20.5047 8.49691 17.9453 8.29614C17.7746 5.7937 18.7452 4.03741 19.9214 2.66684C21.0121 1.38954 23.0119 0.252931 24.9278 0Z" fill="#D2D2D2"/>
<path d="M32.6754 26.4251C32.6754 26.4504 32.6754 26.4725 32.6754 26.4962C31.9561 28.6746 30.9302 30.5415 29.6782 32.2741C28.5353 33.847 27.1346 35.9637 24.6338 35.9637C22.4728 35.9637 21.0374 34.5742 18.8227 34.5362C16.4799 34.4983 15.1916 35.6981 13.0495 36.0001C12.8045 36.0001 12.5595 36.0001 12.3192 36.0001C10.7463 35.7724 9.4769 34.5268 8.55212 33.4044C5.8252 30.0878 3.71797 25.8038 3.32593 20.3215C3.32593 19.784 3.32593 19.2481 3.32593 18.7107C3.49191 14.7871 5.39838 11.597 7.93244 10.0509C9.26981 9.22891 11.1083 8.52861 13.1555 8.84161C14.0328 8.97756 14.9291 9.27792 15.7148 9.57511C16.4594 9.86124 17.3905 10.3687 18.2726 10.3418C18.8701 10.3244 19.4645 10.013 20.0668 9.79326C21.831 9.15619 23.5604 8.42585 25.84 8.76889C28.5795 9.18307 30.5239 10.4003 31.7253 12.2783C29.4079 13.7532 27.5757 15.9758 27.8887 19.7714C28.1669 23.2192 30.1714 25.2363 32.6754 26.4251Z" fill="#D2D2D2"/>
</svg>
