<svg width="36" height="36" viewBox="0 0 36 36" fill="none" xmlns="http://www.w3.org/2000/svg">
<g clip-path="url(#clip0_343_4602)">
<path d="M27.8191 19.1445C27.8551 16.3395 29.3251 13.749 31.7146 12.2805C30.2011 10.1175 27.7546 8.79605 25.1161 8.71355C22.3396 8.42255 19.6486 10.374 18.2341 10.374C16.7926 10.374 14.6146 8.74205 12.2686 8.79005C9.18305 8.89055 6.37505 10.602 4.87355 13.3005C1.67705 18.8355 4.06055 26.9715 7.12355 31.446C8.65655 33.6375 10.4461 36.084 12.7906 35.9985C15.0841 35.904 15.9406 34.536 18.7081 34.536C21.4501 34.536 22.2541 35.9985 24.6451 35.943C27.1051 35.9025 28.6561 33.7425 30.1351 31.53C31.2361 29.9685 32.0836 28.2435 32.6446 26.418C29.7226 25.182 27.8221 22.3185 27.8191 19.1445Z" fill="white"/>
<path d="M23.3025 5.7705C24.6435 4.1595 25.305 2.0895 25.1445 0C23.0955 0.216 21.201 1.1955 19.842 2.7435C18.4995 4.272 17.8185 6.27 17.9505 8.301C20.028 8.322 22.0005 7.389 23.3025 5.7705Z" fill="white"/>
</g>
<defs>
<clipPath id="clip0_343_4602">
<rect width="36" height="36" fill="white"/>
</clipPath>
</defs>
</svg>
