<svg width="34" height="34" viewBox="0 0 34 34" fill="none" xmlns="http://www.w3.org/2000/svg">
<path opacity="0.2" d="M29.75 17C29.75 19.5217 29.0022 21.9868 27.6012 24.0835C26.2003 26.1802 24.209 27.8144 21.8792 28.7795C19.5495 29.7445 16.9859 29.997 14.5126 29.505C12.0393 29.013 9.76751 27.7987 7.98439 26.0156C6.20127 24.2325 4.98695 21.9607 4.49499 19.4874C4.00303 17.0141 4.25552 14.4505 5.22054 12.1208C6.18556 9.79103 7.81976 7.79975 9.91649 6.39876C12.0132 4.99777 14.4783 4.25 17 4.25C20.3815 4.25 23.6245 5.5933 26.0156 7.98439C28.4067 10.3755 29.75 13.6185 29.75 17Z" fill="black"/>
<path d="M17 3.1875C14.2682 3.1875 11.5976 3.99759 9.32619 5.51533C7.05474 7.03306 5.28436 9.19028 4.23892 11.7142C3.19348 14.2381 2.91995 17.0153 3.45291 19.6947C3.98587 22.374 5.30138 24.8352 7.23309 26.7669C9.16481 28.6986 11.626 30.0141 14.3053 30.5471C16.9847 31.0801 19.7619 30.8065 22.2858 29.7611C24.8097 28.7157 26.9669 26.9453 28.4847 24.6738C30.0024 22.4024 30.8125 19.7319 30.8125 17C30.8086 13.3379 29.3522 9.82687 26.7626 7.23736C24.1731 4.64785 20.6621 3.19137 17 3.1875ZM28.6875 17C28.6902 19.7327 27.7305 22.379 25.9768 24.4747L9.52532 8.02188C11.232 6.60208 13.3077 5.69771 15.5096 5.4146C17.7114 5.13149 19.9484 5.48136 21.9587 6.42325C23.969 7.36514 25.6695 8.86009 26.8611 10.7332C28.0527 12.6063 28.6862 14.78 28.6875 17ZM5.31251 17C5.30979 14.2673 6.26948 11.621 8.02321 9.52531L24.4747 25.9781C22.7681 27.3979 20.6923 28.3023 18.4905 28.5854C16.2886 28.8685 14.0516 28.5186 12.0413 27.5768C10.031 26.6349 8.33056 25.1399 7.13893 23.2668C5.94729 21.3937 5.31377 19.22 5.31251 17Z" fill="#8A2BE2"/>
</svg>
