<svg width="300" height="300" viewBox="0 0 300 300" fill="none" xmlns="http://www.w3.org/2000/svg">
<path d="M150 281.358C231.014 281.358 296.688 243.441 296.688 196.668C296.688 149.895 231.014 111.978 150 111.978C68.9865 111.978 3.31201 149.895 3.31201 196.668C3.31201 243.441 68.9865 281.358 150 281.358Z" fill="#F5F5F5"/>
<path d="M120.924 156.348L176.7 190.212L203.172 197.334L238.44 184.26L269.94 184.344L285.678 164.562L269.94 111.288L258.594 105.912L247.668 54.4922L205.074 55.9862L197.172 83.8562L184.482 87.6662L172.248 111.864L143.706 118.866L120.924 156.348Z" fill="#37474F"/>
<path d="M237.066 156.03L200.04 169.128L156.252 148.236L201.006 160.218L237.066 156.03Z" fill="#455A64"/>
<path d="M203.172 197.334L200.04 169.128L237.066 156.03L238.44 184.26L203.172 197.334Z" fill="#263238"/>
<path d="M261.018 130.836L269.94 184.344L285.678 164.562L269.94 111.288L261.018 130.836Z" fill="#263238"/>
<path d="M205.074 55.9862L241.944 66.6062L247.668 54.4922L205.074 55.9862Z" fill="#8A2BE2"/>
<path opacity="0.35" d="M205.074 55.9862L241.944 66.6062L247.668 54.4922L205.074 55.9862Z" fill="white"/>
<path d="M258.594 105.912L249.204 125.94L196.266 135.654L261.018 130.836L269.94 111.288L258.594 105.912Z" fill="#455A64"/>
<path d="M258.594 105.912L249.204 125.94L241.944 66.6062L247.668 54.4922L258.594 105.912Z" fill="#263238"/>
<path d="M143.706 118.866L172.248 111.864L184.188 129.21L143.706 118.866Z" fill="#455A64"/>
<path d="M197.172 83.8564L206.478 97.9864L240.828 101.43L198.966 105.438L184.482 87.6664L197.172 83.8564Z" fill="#455A64"/>
<path d="M100.866 186.75L141.168 203.448L176.7 190.212L176.034 170.76L158.01 158.028L142.23 152.472L126.366 147.372L112.056 150.93L100.866 186.75Z" fill="#37474F"/>
<path d="M158.01 158.028L151.518 173.628L130.572 176.748L107.22 170.64L142.794 186.234L168.876 179.778L176.034 170.76L158.01 158.028Z" fill="#455A64"/>
<path d="M141.167 203.448L142.793 186.234L168.875 179.778L176.033 170.76L176.699 190.212L141.167 203.448Z" fill="#263238"/>
<path d="M126.366 147.372L112.056 150.93L127.998 156.804L142.23 152.472L126.366 147.372Z" fill="#455A64"/>
<path d="M237.006 207.474L250.956 214.11V202.878L241.77 197.436L237.006 207.474Z" fill="#263238"/>
<path d="M257.082 199.308L250.956 202.878V214.11L260.142 209.688L257.082 199.308Z" fill="#37474F"/>
<path d="M241.77 197.436L250.11 196.584L257.082 199.308L250.956 202.878L241.77 197.436Z" fill="#455A64"/>
<path d="M256.572 206.094L259.194 207.798L263.52 206.946L260.61 205.596H258.624L256.572 206.094Z" fill="#455A64"/>
<path d="M258.486 213.468L259.194 207.798L263.52 206.946L264.654 209.784L258.486 213.468Z" fill="#37474F"/>
<path d="M256.572 206.094L254.37 212.478L258.486 213.468L259.194 207.798L256.572 206.094Z" fill="#263238"/>
<path d="M237.006 207.474L250.956 214.11V202.878L241.77 197.436L237.006 207.474Z" fill="#263238"/>
<path d="M257.082 199.308L250.956 202.878V214.11L260.142 209.688L257.082 199.308Z" fill="#37474F"/>
<path d="M241.77 197.436L250.11 196.584L257.082 199.308L250.956 202.878L241.77 197.436Z" fill="#455A64"/>
<path d="M256.572 206.094L259.194 207.798L263.52 206.946L260.61 205.596H258.624L256.572 206.094Z" fill="#455A64"/>
<path d="M258.486 213.468L259.194 207.798L263.52 206.946L264.654 209.784L258.486 213.468Z" fill="#37474F"/>
<path d="M256.572 206.094L254.37 212.478L258.486 213.468L259.194 207.798L256.572 206.094Z" fill="#263238"/>
<path d="M241.8 59.8623C226.362 65.5143 223.62 70.0623 222.282 97.7763C222.151 101.489 221.587 105.174 220.602 108.756C217.848 118.308 211.818 123.96 202.23 129.21C181.65 140.496 180.972 154.128 180.816 163.518C180.468 184.344 180.576 201.192 151.476 223.308C126.876 241.998 99.1379 256.092 87.9779 286.71C67.3559 282 48.0299 274.8 31.3439 265.2C25.7867 262.014 20.4524 258.454 15.3779 254.544C28.5779 228.804 72.3239 213.174 93.2039 206.886C114.942 200.334 146.31 191.142 151.962 163.812C156.114 143.724 155.652 133.506 189.066 116.772C196.554 113.022 201.474 109.116 204.828 105.12C213.828 94.4283 211.518 83.0883 217.164 72.2643C222.654 61.7403 232.326 59.8923 232.326 59.8923L241.8 59.8623Z" fill="#8A2BE2"/>
<path opacity="0.35" d="M241.8 59.8623C226.362 65.5143 223.62 70.0623 222.282 97.7763C222.151 101.489 221.587 105.174 220.602 108.756C217.848 118.308 211.818 123.96 202.23 129.21C181.65 140.496 180.972 154.128 180.816 163.518C180.468 184.344 180.576 201.192 151.476 223.308C126.876 241.998 99.1379 256.092 87.9779 286.71C67.3559 282 48.0299 274.8 31.3439 265.2C25.7867 262.014 20.4524 258.454 15.3779 254.544C28.5779 228.804 72.3239 213.174 93.2039 206.886C114.942 200.334 146.31 191.142 151.962 163.812C156.114 143.724 155.652 133.506 189.066 116.772C196.554 113.022 201.474 109.116 204.828 105.12C213.828 94.4283 211.518 83.0883 217.164 72.2643C222.654 61.7403 232.326 59.8923 232.326 59.8923L241.8 59.8623Z" fill="white"/>
<path d="M186.834 51.792L186.792 88.14C186.792 88.524 187.77 88.542 187.788 88.14L187.8 51.894L186.834 51.792Z" fill="#37474F"/>
<path d="M187.986 51.984C187.959 52.1145 187.894 52.2341 187.799 52.3275C187.704 52.421 187.584 52.4842 187.453 52.509C187.322 52.5338 187.187 52.5192 187.064 52.4669C186.942 52.4147 186.837 52.3272 186.765 52.2156C186.692 52.104 186.654 51.9733 186.656 51.8401C186.658 51.7069 186.699 51.5772 186.774 51.4675C186.85 51.3578 186.956 51.273 187.08 51.224C187.204 51.1749 187.34 51.1638 187.47 51.192C187.643 51.2295 187.794 51.3336 187.891 51.4819C187.987 51.6302 188.022 51.8106 187.986 51.984Z" fill="#37474F"/>
<path d="M186.828 52.2656C183.774 55.9076 179.442 54.2816 175.872 54.0656C172.002 53.8316 169.644 55.0796 168.474 56.7776C169.59 56.4836 172.722 56.7776 173.712 57.5816C173.712 57.5816 169.77 60.1616 169.764 64.3856C170.91 62.5856 172.908 61.2476 176.772 62.0396C180.162 62.7416 184.458 64.3016 186.816 61.6856L186.828 52.2656Z" fill="#8A2BE2"/>
<path opacity="0.1" d="M183.054 61.6976C179.94 62.6456 171.438 58.4996 169.764 64.3916C170.91 62.5916 172.908 61.2536 176.772 62.0456C180.162 62.7476 184.458 64.3076 186.816 61.6916V52.2656C186.816 55.9796 186.174 60.7556 183.054 61.6976Z" fill="black"/>
<path d="M152.898 74.2744L152.85 119.4C152.85 119.874 154.05 119.892 154.08 119.4L154.134 74.4004L152.898 74.2744Z" fill="#37474F"/>
<path d="M154.332 74.5082C154.311 74.6163 154.269 74.7191 154.208 74.8108C154.148 74.9024 154.069 74.981 153.977 75.0419C153.886 75.1029 153.783 75.1449 153.675 75.1656C153.567 75.1864 153.456 75.1853 153.348 75.1626C153.24 75.1398 153.138 75.0959 153.048 75.0332C152.957 74.9706 152.88 74.8906 152.821 74.7978C152.762 74.705 152.722 74.6014 152.703 74.4929C152.684 74.3845 152.687 74.2734 152.712 74.1662C152.734 74.06 152.777 73.9593 152.838 73.8698C152.9 73.7803 152.978 73.7037 153.069 73.6446C153.16 73.5855 153.261 73.545 153.368 73.5253C153.475 73.5057 153.584 73.5073 153.69 73.5302C153.905 73.5749 154.093 73.703 154.213 73.8864C154.334 74.0698 154.376 74.2934 154.332 74.5082Z" fill="#37474F"/>
<path d="M152.892 74.8623C149.106 79.3863 143.73 77.3643 139.296 77.1003C134.496 76.8123 131.568 78.3663 130.116 80.4723C131.502 80.1003 135.39 80.4723 136.62 81.4683C136.62 81.4683 131.724 84.6663 131.718 89.9103C133.14 87.6903 135.618 86.0163 140.412 87.0003C144.612 87.8703 149.958 89.8023 152.88 86.5623L152.892 74.8623Z" fill="#8A2BE2"/>
<path opacity="0.1" d="M148.2 86.5683C144.33 87.7683 133.8 82.6023 131.706 89.9103C133.128 87.6903 135.606 86.0163 140.4 87.0003C144.6 87.8703 149.946 89.8023 152.868 86.5623V74.8623C152.88 79.4703 152.082 85.3983 148.2 86.5683Z" fill="black"/>
<path d="M117.444 97.3262L117.384 151.206C117.384 151.764 118.836 151.806 118.854 151.206L118.914 97.4642L117.444 97.3262Z" fill="#37474F"/>
<path d="M119.148 97.6083C119.103 97.7974 119.003 97.9691 118.861 98.1017C118.718 98.2344 118.54 98.3222 118.348 98.3542C118.156 98.3862 117.959 98.361 117.782 98.2817C117.604 98.2024 117.454 98.0726 117.35 97.9084C117.245 97.7442 117.192 97.5529 117.195 97.3585C117.199 97.164 117.26 96.9749 117.371 96.8149C117.481 96.6549 117.637 96.531 117.817 96.4587C117.998 96.3864 118.196 96.3688 118.386 96.4083C118.516 96.4352 118.639 96.4878 118.748 96.5632C118.857 96.6386 118.95 96.7351 119.021 96.847C119.092 96.9589 119.14 97.084 119.162 97.2147C119.184 97.3455 119.179 97.4793 119.148 97.6083Z" fill="#37474F"/>
<path d="M117.438 98.0283C112.908 103.428 106.488 101.028 101.196 100.698C95.46 100.356 91.968 102.21 90.228 104.724C91.884 104.286 96.534 104.724 98.028 105.924C98.028 105.924 92.184 109.746 92.178 116.004C93.876 113.352 96.834 111.354 102.558 112.53C107.592 113.568 113.958 115.878 117.45 112.008L117.438 98.0283Z" fill="#8A2BE2"/>
<path opacity="0.1" d="M111.846 112.008C107.226 113.412 94.6259 107.268 92.1479 115.998C93.8459 113.346 96.804 111.348 102.528 112.524C107.562 113.562 113.928 115.872 117.42 112.002V98.0283C117.414 103.53 116.466 110.61 111.846 112.008Z" fill="black"/>
<path opacity="0.6" d="M66.354 269.322C83.867 269.322 98.064 261.124 98.064 251.01C98.064 240.897 83.867 232.698 66.354 232.698C48.8411 232.698 34.644 240.897 34.644 251.01C34.644 261.124 48.8411 269.322 66.354 269.322Z" fill="#8A2BE2"/>
<path d="M43.842 162.6L48.6 150.534L47.868 135.726C44.868 135.972 42.756 137.064 41.172 140.784C39.588 144.504 36.402 156.474 35.772 159.264C35.2304 161.686 35.0465 164.174 35.226 166.65C35.37 169.806 36.756 175.512 37.278 178.62C37.524 180.06 37.65 181.446 37.794 182.91C38.0359 184.415 38.3848 185.9 38.838 187.356C39.0254 188.061 39.3984 188.703 39.918 189.216C40.242 189.546 40.716 189.618 41.022 189.93C41.328 190.242 41.376 190.734 41.82 191.004C42.264 191.274 42.918 191.19 43.344 191.49C43.7598 191.857 44.1987 192.198 44.658 192.51C45.0901 192.674 45.4753 192.942 45.78 193.29C46.05 193.638 46.272 194.382 46.806 194.37C47.34 194.358 47.55 193.77 47.622 193.302C47.6815 192.329 47.427 191.364 46.896 190.548C46.4427 189.651 45.9378 188.782 45.384 187.944C44.8397 187.161 44.4769 186.268 44.322 185.328C44.184 184.698 44.322 183.918 45.072 184.338C45.972 184.842 46.872 185.808 48.018 185.712C48.804 185.64 48.9 185.034 48.486 184.512C47.8182 183.608 47.2167 182.658 46.686 181.668C46.14 180.66 45.708 179.598 45.132 178.608C44.8205 178.092 44.4757 177.597 44.1 177.126C43.068 175.794 43.254 174.126 43.254 172.536C43.242 170.31 43.644 165.39 43.842 162.6Z" fill="#FFA8A7"/>
<path d="M47.9341 134.892C43.5601 135.276 41.3881 138.054 39.9061 142.434C38.3881 146.922 36.1621 154.974 35.7061 157.11C35.0541 159.688 34.7494 162.341 34.8001 165C35.0137 167.819 35.3883 170.623 35.9221 173.4C35.9221 173.4 37.0681 174.09 39.5221 174.054C42.9241 174 43.6021 172.968 43.6021 172.968L44.2021 162.636L49.0021 150.696L47.9341 134.892Z" fill="#37474F"/>
<path d="M44.502 248.214C44.502 248.988 44.358 249.288 45.306 249.984C46.254 250.68 48.306 251.004 49.866 250.584C50.8634 250.395 51.7598 249.854 52.392 249.06C52.9249 248.355 53.4139 247.617 53.856 246.852C54.126 246.504 55.398 245.838 56.622 245.292C57.846 244.746 60.39 243.576 61.272 241.482C61.8116 240.359 61.9101 239.074 61.548 237.882L44.502 248.214Z" fill="#263238"/>
<path d="M52.746 237.6C50.25 239.232 48.144 243.33 44.73 242.082C44.556 244.092 44.022 246.252 44.502 248.226C45.96 250.026 49.146 250.374 50.982 249.078C51.912 248.292 52.428 247.362 53.322 246.534C54.0544 245.903 54.8854 245.396 55.782 245.034C56.8173 244.553 57.8195 244.004 58.782 243.39C64.278 239.304 61.536 231.846 52.746 237.6Z" fill="#455A64"/>
<path d="M61.5601 257.611C61.5601 258.445 61.6141 259.075 62.1241 259.411C62.6341 259.747 66.4681 260.401 67.4881 260.515C68.5081 260.629 68.6881 259.963 69.3721 260.203C70.0561 260.443 71.7721 261.661 74.2501 262.213C76.7281 262.765 78.7921 263.353 82.2601 262.213C85.7281 261.073 86.0701 259.723 86.0221 258.553C85.9741 257.383 61.5601 257.611 61.5601 257.611Z" fill="#263238"/>
<path d="M62.0581 249.78C61.5001 252.18 60.9061 255.78 61.5601 257.61C62.2561 258.3 64.6021 258.708 66.6421 258.984C68.5285 259.215 70.3579 259.784 72.0421 260.664C76.0021 262.32 82.9741 262.92 85.7521 259.194C88.5241 254.208 74.0941 255.438 72.3241 249.672C71.6881 247.572 64.6801 250.35 62.0581 249.78Z" fill="#455A64"/>
<path d="M43.392 221.448C45.324 201 44.328 184.608 46.2 168.12C46.2 168.12 74.958 167.4 75.666 177.168C75.666 177.168 76.104 211.998 75.876 216.3C75.774 220.656 73.164 247.848 73.164 250.92C66.018 254.466 61.59 251.79 61.59 251.79C61.632 247.818 58.53 232.404 60.216 222.732L59.04 206.31C59.04 206.31 54.138 235.71 53.31 243.654C51.198 246.78 45.216 246.054 44.214 244.158C44.214 244.158 42.714 227.478 43.392 221.448Z" fill="#37474F"/>
<path d="M59.0401 206.31L57.7741 190.494C57.7741 190.494 52.3741 189.498 49.2241 185.58C50.0761 188.718 53.4781 191.436 55.6381 192.18L57.7861 205.602L56.8981 218.01L59.0401 206.31Z" fill="#263238"/>
<path d="M55.2 203.208C55.0271 206.973 54.6385 210.725 54.036 214.446C53.298 218.574 51.21 240.312 50.718 245.454C50.8831 245.405 51.0453 245.347 51.204 245.28C51.726 239.772 53.766 218.586 54.492 214.53C55.1085 210.792 55.5092 207.022 55.692 203.238C55.95 199.146 56.19 195.282 56.454 193.272L55.998 193.212C55.716 195.234 55.476 199.11 55.2 203.208Z" fill="#263238"/>
<path d="M69.5038 252.294C70.1038 243.018 71.6038 221.964 71.4838 212.58C71.3398 201.378 70.9618 183.948 70.0558 176.712L69.5998 176.766C70.4998 183.966 70.8778 201.396 71.0218 212.586C71.1418 222 69.6418 243.24 69.0298 252.408L69.5038 252.294Z" fill="#263238"/>
<path d="M70.5059 188.227C73.0379 185.677 72.6839 180.337 72.4619 177.007C72.4379 176.727 72.4199 176.463 72.4079 176.215L72.8699 176.185C72.8699 176.431 72.8699 176.695 72.9239 176.971C73.1579 180.523 73.5239 186.307 70.5239 188.875L70.5059 188.227Z" fill="#263238"/>
<path d="M64.6441 132.06L63.4861 139.008L53.2681 139.098L54.8881 131.61L64.6441 132.06Z" fill="#FFA8A7"/>
<path d="M67.7339 119.7C68.4899 120.606 70.8419 123.354 70.9379 123.9L69.1379 125.1L67.7339 119.7Z" fill="#F28F8F"/>
<path d="M62.2499 112.8C65.1839 112.404 67.1519 114.444 68.1659 120.678C68.2079 120.924 68.5799 121.278 68.8799 122.232C70.1639 126.216 69.6059 130.062 68.9519 131.1C67.2839 132.516 65.4059 133.074 62.6519 132.9C60.5579 132.78 55.1999 132.3 52.4519 129.528C49.1819 126.288 47.4419 121.32 49.6379 118.662C52.6919 114.924 60.6359 113.004 62.2499 112.8Z" fill="#FFA8A7"/>
<path d="M68.9518 131.088C68.5918 131.688 66.5098 132.924 64.4878 132.978L64.6438 131.874C66.1108 131.827 67.5627 131.562 68.9518 131.088Z" fill="#F28F8F"/>
<path d="M63.042 123.954C63.0182 124.054 62.9662 124.144 62.8922 124.215C62.8182 124.286 62.7254 124.334 62.6249 124.354C62.5243 124.373 62.4202 124.364 62.325 124.326C62.2298 124.288 62.1476 124.223 62.088 124.14C61.7755 123.7 61.4131 123.297 61.008 122.94C60.4968 122.539 59.8562 122.341 59.208 122.382C56.808 122.634 57.474 125.796 58.686 126.87C60.672 128.628 61.686 127.038 61.686 127.038C61.686 127.038 63.156 130.074 61.176 131.922C61.176 131.922 57.576 132.96 54.78 132.18C52.668 130.02 51.42 129.222 49.98 127.38C46.584 122.952 46.008 117.294 48.072 115.98C47.916 114.384 48.72 111.948 51.972 110.472C55.074 109.062 57.174 109.14 59.448 109.206C61.722 109.272 64.536 110.232 66.594 108.42C66.8679 109.049 66.9884 109.733 66.9456 110.418C66.9029 111.102 66.698 111.766 66.348 112.356C66.681 112.213 67.0558 112.202 67.3967 112.325C67.7376 112.448 68.0189 112.696 68.1837 113.018C68.3485 113.341 68.3844 113.715 68.2842 114.063C68.184 114.411 67.9552 114.708 67.644 114.894C67.8737 115.015 68.0539 115.213 68.1536 115.453C68.2533 115.692 68.2662 115.96 68.19 116.208C68.1053 116.453 67.9515 116.669 67.7471 116.828C67.5427 116.988 67.2964 117.085 67.038 117.108C66.5616 117.15 66.0819 117.132 65.61 117.054C65.01 118.926 62.922 119.628 61.68 119.58C63.126 121.2 63.342 123.078 63.042 123.954Z" fill="#263238"/>
<path d="M66.3661 139.254C64.2361 137.334 64.8841 137.232 63.4981 136.098C61.7821 134.682 54.2581 132.924 53.6521 133.536C53.0093 134.205 52.2589 134.76 51.4321 135.18C51.4321 135.18 51.7861 136.338 56.3281 137.436C60.6661 138.486 62.4001 138.342 66.3661 139.254Z" fill="#F0F0F0"/>
<path d="M52.8 134.304C55.302 134.724 59.814 135.936 62.184 136.584C64.554 137.232 67.8 139.38 67.8 139.38C67.8 139.38 72.36 141.366 72.918 141.99C73.476 142.614 74.628 145.488 75.084 151.734C75.54 157.98 75.912 181.668 75.912 181.668C74.9249 181.962 73.9236 182.206 72.912 182.4L72.048 175.296L71.082 182.748C71.082 182.748 62.508 183.348 55.326 181.83C48.144 180.312 44.958 175.71 44.958 175.71C44.958 175.71 46.032 163.11 45.744 160.536C45.456 157.962 43.212 147.174 43.464 142.926C43.716 138.678 45.33 135.282 47.952 134.892C51.126 134.4 52.8 134.304 52.8 134.304Z" fill="#455A64"/>
<path d="M51.6001 135.6C52.2481 135.852 52.9141 136.05 53.5801 136.242C54.2461 136.434 54.9181 136.632 55.5901 136.842C56.9341 137.208 58.2721 137.574 59.6221 137.904C60.9721 138.234 62.3221 138.504 63.6961 138.738L67.8001 139.38C66.4081 139.314 65.0161 139.182 63.6361 139.008C62.2453 138.848 60.8663 138.597 59.5081 138.258C58.1521 137.916 56.8081 137.538 55.4821 137.106C54.1518 136.703 52.8541 136.199 51.6001 135.6Z" fill="#37474F"/>
<path d="M54.168 144.264C54.768 147.072 55.194 149.91 55.494 152.766C55.8218 155.631 55.9242 158.518 55.8 161.4L55.32 169.986L55.044 174.282L54.726 178.572L54.852 174.27L55.014 169.974L55.41 161.382C55.5449 158.518 55.4747 155.649 55.2 152.796C55.086 151.368 54.93 149.946 54.756 148.524C54.582 147.102 54.372 145.68 54.168 144.264Z" fill="#37474F"/>
<path d="M72.3662 172.746C74.8322 172.35 75.6662 171.546 75.6662 171.546V173.346C74.6363 173.881 73.5185 174.227 72.3662 174.366V172.746Z" fill="#37474F"/>
<path d="M64.05 199.758L63.978 221.88C63.978 222.954 64.728 223.578 65.658 224.124L67.98 225.48C68.2372 225.664 68.5308 225.792 68.8412 225.854C69.1516 225.916 69.4717 225.911 69.78 225.84C70.2176 225.731 70.6378 225.562 71.028 225.336H71.076L71.202 225.264L95.028 211.614C95.8834 211.124 96.5945 210.418 97.0896 209.565C97.5848 208.713 97.8464 207.745 97.848 206.76L97.92 186.618C97.9063 186.367 97.834 186.123 97.7089 185.905C97.5839 185.688 97.4096 185.502 97.2 185.364L93.234 183.06C93.0111 182.946 92.7643 182.887 92.514 182.887C92.2637 182.887 92.017 182.946 91.794 183.06L64.794 198.546C64.5779 198.675 64.3999 198.859 64.278 199.08C64.1474 199.284 64.069 199.516 64.05 199.758Z" fill="#37474F"/>
<path d="M64.05 199.758L63.978 221.88C63.978 222.954 64.728 223.578 65.658 224.124L67.98 225.48C68.2372 225.664 68.5308 225.792 68.8412 225.854C69.1516 225.916 69.4717 225.911 69.78 225.84C70.2176 225.731 70.6378 225.561 71.028 225.336C70.098 225.762 69.366 225.282 69.372 224.184L69.444 203.34C69.4556 202.958 69.5674 202.585 69.768 202.26L64.254 199.056C64.128 199.269 64.0578 199.51 64.05 199.758Z" fill="#263238"/>
<path d="M69.4562 203.334C69.4765 202.955 69.5867 202.586 69.7776 202.257C69.9685 201.928 70.2346 201.65 70.5542 201.444L96.0962 186.81C97.1042 186.21 97.9322 186.708 97.9262 187.872L97.8662 206.736C97.8621 207.722 97.5988 208.689 97.1028 209.541C96.6068 210.393 95.8955 211.1 95.0402 211.59L71.2142 225.24C70.2002 225.84 69.3782 225.342 69.4142 224.178L69.4562 203.334Z" fill="#455A64"/>
<path d="M94.5301 183.78L67.4581 199.446C67.0766 199.669 66.7593 199.986 66.5374 200.368C66.3155 200.75 66.1965 201.183 66.1921 201.624L66.1201 224.4L66.5281 224.64L66.6061 201.636C66.6112 201.27 66.7111 200.912 66.8963 200.597C67.0814 200.281 67.3453 200.019 67.6621 199.836L94.9441 184.05L94.5301 183.78Z" fill="#8A2BE2"/>
<path d="M84.9238 186.6V190.026L86.2618 190.806V186.258C86.2618 186.018 86.0998 185.928 85.8958 186.042L84.9238 186.6Z" fill="#8A2BE2"/>
<path opacity="0.3" d="M84.9238 186.6V190.026L86.2618 190.806V186.258C86.2618 186.018 86.0998 185.928 85.8958 186.042L84.9238 186.6Z" fill="black"/>
<path d="M75.498 189.93V195.474L76.77 196.224L77.634 195.726V191.178C77.6412 191.051 77.678 190.927 77.7415 190.816C77.8051 190.706 77.8936 190.612 78 190.542L84.54 186.798L85.896 186.018C86.1 185.904 86.268 186.018 86.262 186.234V190.782L87.126 190.284V184.74C87.129 184.716 87.129 184.692 87.126 184.668C87.1097 184.554 87.0691 184.444 87.007 184.347C86.9449 184.25 86.8628 184.167 86.766 184.104L86.22 183.786C86.107 183.727 85.9815 183.696 85.854 183.696C85.7266 183.696 85.6011 183.727 85.488 183.786L75.888 189.294C75.7768 189.361 75.6833 189.454 75.6155 189.564C75.5476 189.675 75.5073 189.8 75.498 189.93Z" fill="#8A2BE2"/>
<path opacity="0.2" d="M76.7998 190.674V196.224L77.6638 195.726V191.178C77.6709 191.051 77.7077 190.927 77.7713 190.816C77.8348 190.706 77.9234 190.612 78.0298 190.542L84.5698 186.798L85.9258 186.018C86.1298 185.904 86.2978 186.018 86.2918 186.234V190.782L87.1558 190.284V184.74C87.1588 184.716 87.1588 184.692 87.1558 184.668C87.1258 184.488 86.9758 184.422 86.7958 184.53L77.1958 190.038C77.0835 190.104 76.9888 190.197 76.9198 190.307C76.8509 190.418 76.8097 190.544 76.7998 190.674Z" fill="black"/>
<path d="M85.4522 185.399C84.9418 183.668 84.541 181.907 84.2522 180.125C83.9282 178.259 84.0242 176.369 83.8442 172.871L75.8462 174.917C76.3544 176.606 76.7749 178.321 77.1062 180.053C77.4482 181.919 76.7762 183.611 76.7882 185.453C76.7691 186.286 76.9944 187.105 77.4362 187.811C77.6882 188.183 78.0362 188.495 78.2582 188.861C78.7442 189.587 78.7262 190.103 78.0002 190.517C77.8651 190.613 77.7594 190.745 77.6947 190.897C77.6301 191.05 77.6091 191.217 77.6342 191.381C77.8618 191.647 78.162 191.841 78.4982 191.939C78.6409 191.979 78.788 192.001 78.9362 192.005C79.0862 192.005 79.2602 191.927 79.4042 191.939C79.5482 191.951 79.6922 192.059 79.8602 192.071C80.0277 192.071 80.1946 192.053 80.3582 192.017C80.6782 191.989 80.9818 191.863 81.2282 191.657C81.4562 191.435 81.5462 191.057 81.8282 190.913C82.1942 190.673 82.6802 190.865 83.1122 190.841C83.3272 190.824 83.534 190.751 83.7127 190.63C83.8914 190.509 84.0359 190.344 84.1322 190.151C84.1899 189.928 84.3011 189.722 84.4562 189.551C84.6362 189.407 84.8942 189.419 85.1102 189.329C85.2349 189.271 85.3461 189.188 85.437 189.084C85.5279 188.981 85.5964 188.86 85.6382 188.729C86.0342 187.703 85.7462 186.485 85.4522 185.399Z" fill="#FFA8A7"/>
<path d="M75.1319 142.763C77.2439 143.825 77.7719 144.263 78.9299 146.615C80.0879 148.967 81.6179 155.429 82.0679 159.317C82.5179 163.205 83.6579 166.931 83.9339 170.885C84.2099 174.839 84.1859 178.031 84.1859 178.031C83.0444 178.611 81.8015 178.963 80.5259 179.069C79.2557 179.269 77.9621 179.269 76.6919 179.069C76.6919 179.069 73.7339 168.155 72.9659 165.173C72.1979 162.191 69.4319 154.091 69.4319 154.091C68.5019 148.823 69.7919 142.895 71.2319 140.981C71.2379 140.999 73.0199 141.695 75.1319 142.763Z" fill="#37474F"/>
<path d="M220.122 18.8458C222.876 17.2498 226.68 17.4778 230.892 19.9078C239.292 24.7618 246.114 36.5758 246.114 46.3078C246.114 51.1798 244.398 54.5998 241.626 56.1778C240.9 56.5918 237.984 58.3498 237.258 58.7698C234.504 60.3658 230.7 60.1378 226.494 57.7078C218.094 52.8538 211.266 41.0458 211.266 31.3078C211.266 26.4598 212.97 23.0458 215.724 21.4558" fill="#8A2BE2"/>
<path opacity="0.65" d="M246.114 46.2842C246.114 51.1562 244.398 54.5762 241.626 56.1542C240.9 56.5682 237.984 58.3262 237.258 58.7462C234.504 60.3422 230.7 60.1142 226.494 57.6902L246.114 46.2842Z" fill="black"/>
<path opacity="0.55" d="M243.894 35.8496C245.29 39.1552 246.043 42.6962 246.114 46.2836L226.494 57.6836C223.423 55.8308 220.734 53.4072 218.574 50.5436L243.894 35.8496Z" fill="black"/>
<path opacity="0.4" d="M218.574 50.5438C214.194 44.9278 211.266 37.6678 211.266 31.3078C211.266 26.4598 212.97 23.0458 215.724 21.4558L220.122 18.8458C222.876 17.2498 226.68 17.4778 230.892 19.9078C236.4 23.0878 241.218 29.2498 243.894 35.8498L218.574 50.5438Z" fill="black"/>
<path d="M226.494 22.5179C234.894 27.3779 241.722 39.1859 241.722 48.9179C241.722 58.6499 234.9 62.5679 226.494 57.7079C218.088 52.8479 211.26 41.0459 211.266 31.3079C211.272 21.5699 218.094 17.6639 226.494 22.5179Z" fill="#8A2BE2"/>
<path opacity="0.2" d="M226.494 22.5179C234.894 27.3779 241.722 39.1859 241.722 48.9179C241.722 58.6499 234.9 62.5679 226.494 57.7079C218.088 52.8479 211.26 41.0459 211.266 31.3079C211.272 21.5699 218.094 17.6639 226.494 22.5179Z" fill="black"/>
<path d="M226.494 26.9097C232.806 30.5517 237.894 39.4137 237.894 46.7097C237.894 54.0057 232.776 56.9457 226.494 53.3097C220.212 49.6737 215.094 40.8117 215.094 33.5097C215.094 26.2077 220.164 23.2677 226.494 26.9097Z" fill="#FAFAFA"/>
<path d="M226.494 30.9114C230.892 33.4494 234.456 39.6234 234.456 44.7114C234.456 49.7994 230.892 51.8454 226.494 49.3074C222.096 46.7694 218.532 40.5954 218.532 35.5074C218.532 30.4194 222.096 28.3734 226.494 30.9114Z" fill="#8A2BE2"/>
<path opacity="0.2" d="M226.494 30.9114C230.892 33.4494 234.456 39.6234 234.456 44.7114C234.456 49.7994 230.892 51.8454 226.494 49.3074C222.096 46.7694 218.532 40.5954 218.532 35.5074C218.532 30.4194 222.096 28.3734 226.494 30.9114Z" fill="black"/>
<path d="M226.494 35.0155C227.778 35.8509 228.846 36.9776 229.611 38.3038C230.376 39.6301 230.817 41.1184 230.898 42.6475C230.898 45.4555 228.93 46.5955 226.494 45.1915C225.212 44.3555 224.144 43.2286 223.379 41.9025C222.614 40.5764 222.172 39.0884 222.09 37.5595C222.09 34.7455 224.064 33.5995 226.494 35.0155Z" fill="#FAFAFA"/>
<path d="M226.494 37.9559C227.035 38.3092 227.486 38.785 227.809 39.3448C228.132 39.9045 228.319 40.5325 228.354 41.1779C228.354 42.3779 227.52 42.8399 226.494 42.2459C225.953 41.8939 225.503 41.4192 225.18 40.8604C224.856 40.3016 224.67 39.6745 224.634 39.0299C224.634 37.8419 225.468 37.3619 226.494 37.9559Z" fill="#455A64"/>
<path d="M196.764 57.4561C196.764 57.4561 196.41 61.9201 194.364 63.1141C192.318 64.3081 191.178 60.7141 192.516 59.9161L196.764 57.4561Z" fill="#8A2BE2"/>
<path d="M196.764 57.4561C196.764 57.4561 192.72 55.5301 190.656 56.7181C188.592 57.9061 191.16 60.6901 192.498 59.9161L196.764 57.4561Z" fill="#8A2BE2"/>
<path opacity="0.5" d="M196.764 57.4561C196.764 57.4561 192.72 55.5301 190.656 56.7181C188.592 57.9061 191.16 60.6901 192.498 59.9161L196.764 57.4561Z" fill="white"/>
<path d="M221.202 43.842L189.432 62.19L188.982 61.398L221.268 42.75L221.202 43.842Z" fill="#37474F"/>
<path d="M189.984 60.5103C190.215 60.6398 190.402 60.8352 190.521 61.0713C190.64 61.3075 190.686 61.5739 190.654 61.8365C190.621 62.099 190.511 62.3459 190.337 62.5456C190.164 62.7453 189.935 62.8888 189.679 62.9578C189.424 63.0268 189.154 63.0181 188.903 62.9329C188.653 62.8477 188.433 62.6898 188.273 62.4794C188.112 62.2689 188.018 62.0155 188.002 61.7514C187.987 61.4872 188.05 61.2244 188.184 60.9963C188.361 60.6959 188.648 60.4768 188.985 60.3859C189.321 60.295 189.68 60.3397 189.984 60.5103Z" fill="#263238"/>
<path d="M220.404 43.8006C219.312 45.2406 221.292 47.7366 221.292 47.7366L226.452 40.3086L220.404 43.8006Z" fill="#8A2BE2"/>
<path d="M220.404 43.8006C219.312 45.2406 221.292 47.7366 221.292 47.7366L226.452 40.3086L220.404 43.8006Z" fill="#8A2BE2"/>
<path d="M217.44 41.0342C217.44 41.0342 218.64 43.9982 220.404 43.7762L226.452 40.2842L217.44 41.0342Z" fill="#8A2BE2"/>
<path opacity="0.5" d="M217.44 41.0342C217.44 41.0342 218.64 43.9982 220.404 43.7762L226.452 40.2842L217.44 41.0342Z" fill="white"/>
<path d="M43.5062 77.2359C43.4789 81.7536 45.1714 86.1125 48.2402 89.4279L49.7102 90.8379C53.0984 93.776 57.4707 95.3269 61.9529 95.1808C66.4352 95.0347 70.6972 93.2022 73.8868 90.0497C77.0765 86.8972 78.9587 82.657 79.1574 78.1767C79.356 73.6965 77.8563 69.3063 74.9582 65.8839L73.5542 64.4019C71.0336 62.0129 67.8692 60.4133 64.4508 59.8001C61.0324 59.187 57.5094 59.5872 54.3155 60.9513C51.1217 62.3154 48.3967 64.5839 46.4761 67.4774C44.5554 70.3709 43.5231 73.763 43.5062 77.2359Z" fill="white"/>
<path d="M42.0002 77.2294C41.9811 81.7941 43.5769 86.2185 46.5053 89.7201C49.4337 93.2217 53.5061 95.5748 58.0022 96.3634L60.1442 101.973C60.2257 102.185 60.3693 102.367 60.5562 102.495C60.7431 102.623 60.9645 102.692 61.1912 102.692C61.4179 102.692 61.6392 102.623 61.8261 102.495C62.013 102.367 62.1567 102.185 62.2382 101.973L64.4402 96.3994C68.0771 95.8056 71.4685 94.1843 74.2144 91.7267C76.9604 89.2691 78.9465 86.0776 79.9385 82.5286C80.9305 78.9795 80.8872 75.2208 79.8135 71.6955C78.7399 68.1703 76.6808 65.0255 73.8788 62.6318C71.0769 60.2382 67.6491 58.6956 63.9994 58.1858C60.3497 57.676 56.6303 58.2204 53.2798 59.7546C49.9292 61.2889 47.0872 63.7491 45.0887 66.8452C43.0902 69.9414 42.0186 73.5444 42.0002 77.2294ZM61.4402 59.5174C65.9611 59.5372 70.3035 61.2845 73.5782 64.4014L74.9822 65.8834C77.857 69.3073 79.3383 73.6874 79.1317 78.1533C78.9252 82.6192 77.0458 86.8439 73.8672 89.9877C70.6887 93.1315 66.4435 94.9643 61.9756 95.1217C57.5077 95.2791 53.1442 93.7497 49.7522 90.8374L48.2402 89.4274C45.8751 86.8786 44.3083 83.693 43.7331 80.2639C43.1578 76.8347 43.5994 73.3122 45.0033 70.1312C46.4072 66.9502 48.7119 64.2499 51.6328 62.3637C54.5538 60.4775 57.9633 59.4881 61.4402 59.5174Z" fill="#455A64"/>
<path opacity="0.7" d="M61.4402 59.5172C65.9611 59.537 70.3035 61.2843 73.5782 64.4012L74.9822 65.8832C77.857 69.307 79.3383 73.6872 79.1318 78.1531C78.9252 82.619 77.0459 86.8437 73.8673 89.9875C70.6887 93.1313 66.4436 94.9641 61.9757 95.1215C57.5078 95.2789 53.1442 93.7495 49.7522 90.8372L48.2402 89.4272C45.8752 86.8784 44.3083 83.6928 43.7331 80.2637C43.1579 76.8345 43.5995 73.312 45.0033 70.131C46.4072 66.95 48.7119 64.2497 51.6329 62.3635C54.5539 60.4773 57.9633 59.4879 61.4402 59.5172Z" fill="white"/>
<path d="M53.8323 67.665L54.7023 76.335C54.8972 77.9484 55.6763 79.4344 56.8924 80.5124C58.1084 81.5904 59.6772 82.1856 61.3023 82.1856C62.9273 82.1856 64.4961 81.5904 65.7122 80.5124C66.9282 79.4344 67.7073 77.9484 67.9023 76.335L68.7843 67.665H53.8323ZM61.9443 77.559V78.453H60.8403V77.559C60.3801 77.548 59.9372 77.3812 59.5841 77.0858C59.231 76.7905 58.9885 76.3841 58.8963 75.933L60.2403 75.585C60.2848 75.8617 60.4345 76.1105 60.6581 76.2793C60.8818 76.4481 61.162 76.524 61.4403 76.491C61.9743 76.491 62.3403 76.263 62.3403 75.789C62.3403 75.087 61.5423 75.021 60.6903 74.805C59.8383 74.589 59.0043 74.205 59.0043 73.005C59.0043 71.979 59.6643 71.361 60.7563 71.205V70.335H61.8783V71.247C62.3051 71.2634 62.7155 71.4162 63.0492 71.6829C63.3829 71.9496 63.6223 72.3163 63.7323 72.729L62.4483 73.065C62.3403 72.585 61.9923 72.291 61.3143 72.291C60.6363 72.291 60.3963 72.585 60.3963 72.957C60.3963 73.509 60.8823 73.629 61.7403 73.839C62.5983 74.049 63.7983 74.355 63.7983 75.717C63.7683 76.791 63.0363 77.403 61.9443 77.559Z" fill="#8A2BE2"/>
<path d="M61.3203 82.0957C61.0243 82.0957 60.7313 82.1541 60.4579 82.2675C60.1845 82.381 59.9362 82.5473 59.7272 82.7568C59.5182 82.9664 59.3526 83.2151 59.2399 83.4888C59.1271 83.7625 59.0695 84.0557 59.0703 84.3517H63.5703C63.5711 84.0557 63.5135 83.7625 63.4008 83.4888C63.2881 83.2151 63.1224 82.9664 62.9134 82.7568C62.7044 82.5473 62.4561 82.381 62.1827 82.2675C61.9094 82.1541 61.6163 82.0957 61.3203 82.0957Z" fill="#8A2BE2"/>
<path d="M65.0403 86.1037H57.6183C57.5493 86.1045 57.4808 86.0916 57.4167 86.0657C57.3527 86.0398 57.2944 86.0015 57.2453 85.953C57.1962 85.9044 57.1572 85.8466 57.1306 85.7829C57.104 85.7191 57.0903 85.6508 57.0903 85.5817C57.0903 85.4417 57.146 85.3074 57.245 85.2084C57.344 85.1093 57.4783 85.0537 57.6183 85.0537H65.0403C65.1793 85.0553 65.3121 85.1116 65.4098 85.2105C65.5075 85.3093 65.5623 85.4427 65.5623 85.5817C65.5623 85.7202 65.5073 85.8529 65.4094 85.9508C65.3115 86.0487 65.1788 86.1037 65.0403 86.1037Z" fill="#8A2BE2"/>
<path d="M66.2762 86.8115H56.3702C55.9135 86.8115 55.4755 86.9929 55.1526 87.3159C54.8296 87.6388 54.6482 88.0768 54.6482 88.5335H67.9982C67.9966 88.0773 67.8147 87.6402 67.4921 87.3176C67.1695 86.995 66.7324 86.8131 66.2762 86.8115Z" fill="#8A2BE2"/>
<path d="M55.0683 79.6479H54.7323C53.619 79.6454 52.5372 79.2779 51.6529 78.6016C50.7685 77.9253 50.1304 76.9777 49.8363 75.9039L48.7023 71.7519C48.6332 71.4984 48.6232 71.2324 48.6731 70.9744C48.723 70.7164 48.8316 70.4733 48.9903 70.2639C49.1486 70.0528 49.3544 69.8819 49.591 69.7652C49.8276 69.6484 50.0884 69.5891 50.3523 69.5919H53.3223L53.4723 71.0679H50.3523C50.3168 71.0693 50.2819 71.078 50.2499 71.0935C50.2179 71.1089 50.1894 71.1309 50.1663 71.1579C50.145 71.1869 50.1307 71.2203 50.1245 71.2557C50.1182 71.2911 50.1202 71.3274 50.1303 71.3619L51.2403 75.5439C51.4341 76.2441 51.8353 76.8693 52.3911 77.3373C52.9469 77.8053 53.6313 78.0941 54.3543 78.1659C54.5357 78.6852 54.7752 79.1824 55.0683 79.6479Z" fill="#8A2BE2"/>
<path d="M67.5781 79.6478H67.9141C69.0326 79.6519 70.1212 79.2874 71.0116 78.6106C71.9021 77.9339 72.5447 76.9826 72.8401 75.9038L73.9741 71.7518C74.0433 71.4983 74.0532 71.2323 74.0033 70.9743C73.9534 70.7163 73.8449 70.4733 73.6861 70.2638C73.5272 70.0534 73.3212 69.8831 73.0848 69.7664C72.8483 69.6498 72.5878 69.59 72.3241 69.5918H69.3241L69.1681 71.0678H72.2941C72.3288 71.0693 72.3627 71.0781 72.3937 71.0936C72.4248 71.1091 72.4522 71.131 72.4741 71.1578C72.4964 71.1863 72.5118 71.2195 72.5191 71.2549C72.5264 71.2903 72.5253 71.3269 72.5161 71.3618L71.3821 75.5438C71.1883 76.2441 70.7871 76.8693 70.2313 77.3373C69.6755 77.8052 68.9911 78.0941 68.2681 78.1658C68.0918 78.6831 67.8605 79.18 67.5781 79.6478Z" fill="#8A2BE2"/>
</svg>
