<svg width="16" height="16" viewBox="0 0 16 16" fill="none" xmlns="http://www.w3.org/2000/svg">
<path d="M15.3846 4.09113L15.3802 4.08613L13.8846 2.6155C13.6507 2.3817 13.3337 2.2501 13.0031 2.24951C12.6724 2.24893 12.3549 2.37941 12.1202 2.61238L6.49522 8.16425L4.37897 6.11113C4.14408 5.87878 3.82676 5.74888 3.49638 5.74982C3.16599 5.75076 2.84941 5.88246 2.61585 6.11613L1.11585 7.61613C0.88189 7.85048 0.750488 8.1681 0.750488 8.49925C0.750488 8.8304 0.88189 9.14802 1.11585 9.38238L5.5921 13.8824C5.70818 13.9985 5.846 14.0906 5.99769 14.1535C6.14938 14.2163 6.31196 14.2487 6.47616 14.2487C6.64035 14.2487 6.80294 14.2163 6.95463 14.1535C7.10632 14.0906 7.24414 13.9985 7.36022 13.8824L15.3846 5.85863C15.6189 5.62422 15.7506 5.30633 15.7506 4.97488C15.7506 4.64342 15.6189 4.32554 15.3846 4.09113ZM6.47585 12.6455L2.35272 8.49988L3.50022 7.3505L5.97835 9.74988C6.11914 9.88625 6.30773 9.9621 6.50374 9.96116C6.69975 9.96023 6.88761 9.88259 7.0271 9.74488L13.0002 3.8505L14.1452 4.9755L6.47585 12.6455Z" fill="#8A2BE2"/>
</svg>
