<svg width="300" height="300" viewBox="0 0 300 300" fill="none" xmlns="http://www.w3.org/2000/svg">
<path d="M150 281.358C231.013 281.358 296.688 243.441 296.688 196.668C296.688 149.895 231.013 111.978 150 111.978C68.986 111.978 3.31152 149.895 3.31152 196.668C3.31152 243.441 68.986 281.358 150 281.358Z" fill="#F5F5F5"/>
<path d="M120.924 156.348L176.7 190.212L203.172 197.334L238.44 184.26L269.94 184.344L285.678 164.562L269.94 111.288L258.594 105.912L247.668 54.4922L205.074 55.9862L197.172 83.8562L184.482 87.6662L172.248 111.864L143.706 118.866L120.924 156.348Z" fill="#37474F"/>
<path d="M237.066 156.03L200.04 169.128L156.252 148.236L201.006 160.218L237.066 156.03Z" fill="#455A64"/>
<path d="M203.172 197.334L200.04 169.128L237.066 156.03L238.44 184.26L203.172 197.334Z" fill="#263238"/>
<path d="M261.018 130.836L269.94 184.344L285.678 164.562L269.94 111.288L261.018 130.836Z" fill="#263238"/>
<path d="M205.074 55.9862L241.944 66.6062L247.668 54.4922L205.074 55.9862Z" fill="#8A2BE2"/>
<path opacity="0.35" d="M205.074 55.9862L241.944 66.6062L247.668 54.4922L205.074 55.9862Z" fill="white"/>
<path d="M258.594 105.912L249.204 125.94L196.266 135.654L261.018 130.836L269.94 111.288L258.594 105.912Z" fill="#455A64"/>
<path d="M258.593 105.912L249.203 125.94L241.943 66.6062L247.667 54.4922L258.593 105.912Z" fill="#263238"/>
<path d="M143.706 118.866L172.248 111.864L184.188 129.21L143.706 118.866Z" fill="#455A64"/>
<path d="M197.171 83.8564L206.477 97.9864L240.827 101.43L198.965 105.438L184.481 87.6664L197.171 83.8564Z" fill="#455A64"/>
<path d="M100.866 186.75L141.168 203.448L176.7 190.212L176.034 170.76L158.01 158.028L142.23 152.472L126.366 147.372L112.056 150.93L100.866 186.75Z" fill="#37474F"/>
<path d="M158.01 158.028L151.518 173.628L130.572 176.748L107.22 170.64L142.794 186.234L168.876 179.778L176.034 170.76L158.01 158.028Z" fill="#455A64"/>
<path d="M141.168 203.448L142.794 186.234L168.876 179.778L176.034 170.76L176.7 190.212L141.168 203.448Z" fill="#263238"/>
<path d="M126.367 147.372L112.057 150.93L127.999 156.804L142.231 152.472L126.367 147.372Z" fill="#455A64"/>
<path d="M237.006 207.474L250.956 214.11V202.878L241.77 197.436L237.006 207.474Z" fill="#263238"/>
<path d="M257.082 199.308L250.956 202.878V214.11L260.142 209.688L257.082 199.308Z" fill="#37474F"/>
<path d="M241.77 197.436L250.11 196.584L257.082 199.308L250.956 202.878L241.77 197.436Z" fill="#455A64"/>
<path d="M256.572 206.094L259.194 207.798L263.52 206.946L260.61 205.596H258.624L256.572 206.094Z" fill="#455A64"/>
<path d="M258.486 213.468L259.194 207.798L263.52 206.946L264.654 209.784L258.486 213.468Z" fill="#37474F"/>
<path d="M256.572 206.094L254.37 212.478L258.486 213.468L259.194 207.798L256.572 206.094Z" fill="#263238"/>
<path d="M237.006 207.474L250.956 214.11V202.878L241.77 197.436L237.006 207.474Z" fill="#263238"/>
<path d="M257.082 199.308L250.956 202.878V214.11L260.142 209.688L257.082 199.308Z" fill="#37474F"/>
<path d="M241.77 197.436L250.11 196.584L257.082 199.308L250.956 202.878L241.77 197.436Z" fill="#455A64"/>
<path d="M256.572 206.094L259.194 207.798L263.52 206.946L260.61 205.596H258.624L256.572 206.094Z" fill="#455A64"/>
<path d="M258.486 213.468L259.194 207.798L263.52 206.946L264.654 209.784L258.486 213.468Z" fill="#37474F"/>
<path d="M256.572 206.094L254.37 212.478L258.486 213.468L259.194 207.798L256.572 206.094Z" fill="#263238"/>
<path d="M241.8 59.8623C226.362 65.5143 223.62 70.0623 222.282 97.7763C222.151 101.489 221.587 105.174 220.602 108.756C217.848 118.308 211.818 123.96 202.23 129.21C181.65 140.496 180.972 154.128 180.816 163.518C180.468 184.344 180.576 201.192 151.476 223.308C126.876 241.998 99.1379 256.092 87.9779 286.71C67.3559 282 48.0299 274.8 31.3439 265.2C25.7867 262.014 20.4524 258.454 15.3779 254.544C28.5779 228.804 72.3239 213.174 93.2039 206.886C114.942 200.334 146.31 191.142 151.962 163.812C156.114 143.724 155.652 133.506 189.066 116.772C196.554 113.022 201.474 109.116 204.828 105.12C213.828 94.4283 211.518 83.0883 217.164 72.2643C222.654 61.7403 232.326 59.8923 232.326 59.8923L241.8 59.8623Z" fill="#8A2BE2"/>
<path opacity="0.35" d="M241.8 59.8623C226.362 65.5143 223.62 70.0623 222.282 97.7763C222.151 101.489 221.587 105.174 220.602 108.756C217.848 118.308 211.818 123.96 202.23 129.21C181.65 140.496 180.972 154.128 180.816 163.518C180.468 184.344 180.576 201.192 151.476 223.308C126.876 241.998 99.1379 256.092 87.9779 286.71C67.3559 282 48.0299 274.8 31.3439 265.2C25.7867 262.014 20.4524 258.454 15.3779 254.544C28.5779 228.804 72.3239 213.174 93.2039 206.886C114.942 200.334 146.31 191.142 151.962 163.812C156.114 143.724 155.652 133.506 189.066 116.772C196.554 113.022 201.474 109.116 204.828 105.12C213.828 94.4283 211.518 83.0883 217.164 72.2643C222.654 61.7403 232.326 59.8923 232.326 59.8923L241.8 59.8623Z" fill="white"/>
<path d="M186.834 51.792L186.792 88.14C186.792 88.524 187.77 88.542 187.788 88.14L187.8 51.894L186.834 51.792Z" fill="#37474F"/>
<path d="M187.986 51.984C187.959 52.1145 187.894 52.2341 187.799 52.3275C187.704 52.421 187.583 52.4842 187.452 52.509C187.322 52.5338 187.186 52.5192 187.064 52.4669C186.941 52.4147 186.837 52.3272 186.764 52.2156C186.692 52.104 186.654 51.9733 186.655 51.8401C186.657 51.7069 186.698 51.5772 186.774 51.4675C186.849 51.3578 186.956 51.273 187.08 51.224C187.204 51.1749 187.339 51.1638 187.47 51.192C187.642 51.2295 187.794 51.3336 187.89 51.4819C187.987 51.6302 188.021 51.8106 187.986 51.984Z" fill="#37474F"/>
<path d="M186.828 52.2656C183.774 55.9076 179.442 54.2816 175.872 54.0656C172.002 53.8316 169.644 55.0796 168.474 56.7776C169.59 56.4836 172.722 56.7776 173.712 57.5816C173.712 57.5816 169.77 60.1616 169.764 64.3856C170.91 62.5856 172.908 61.2476 176.772 62.0396C180.162 62.7416 184.458 64.3016 186.816 61.6856L186.828 52.2656Z" fill="#8A2BE2"/>
<path opacity="0.1" d="M183.054 61.6976C179.94 62.6456 171.438 58.4996 169.764 64.3916C170.91 62.5916 172.908 61.2536 176.772 62.0456C180.162 62.7476 184.458 64.3076 186.816 61.6916V52.2656C186.816 55.9796 186.174 60.7556 183.054 61.6976Z" fill="black"/>
<path d="M152.898 74.2744L152.85 119.4C152.85 119.874 154.05 119.892 154.08 119.4L154.134 74.4004L152.898 74.2744Z" fill="#37474F"/>
<path d="M154.332 74.5082C154.311 74.6163 154.269 74.7191 154.208 74.8108C154.147 74.9024 154.069 74.981 153.977 75.0419C153.885 75.1029 153.782 75.1449 153.674 75.1656C153.566 75.1864 153.455 75.1853 153.347 75.1626C153.24 75.1398 153.138 75.0959 153.047 75.0332C152.957 74.9706 152.88 74.8906 152.82 74.7978C152.761 74.705 152.721 74.6014 152.702 74.4929C152.684 74.3845 152.687 74.2734 152.712 74.1662C152.734 74.06 152.777 73.9593 152.838 73.8698C152.899 73.7803 152.977 73.7037 153.068 73.6446C153.159 73.5855 153.261 73.545 153.368 73.5253C153.474 73.5057 153.584 73.5073 153.69 73.5302C153.904 73.5749 154.093 73.703 154.213 73.8864C154.333 74.0698 154.376 74.2934 154.332 74.5082Z" fill="#37474F"/>
<path d="M152.891 74.8623C149.105 79.3863 143.729 77.3643 139.295 77.1003C134.495 76.8123 131.567 78.3663 130.115 80.4723C131.501 80.1003 135.389 80.4723 136.619 81.4683C136.619 81.4683 131.723 84.6663 131.717 89.9103C133.139 87.6903 135.617 86.0163 140.411 87.0003C144.611 87.8703 149.957 89.8023 152.879 86.5623L152.891 74.8623Z" fill="#8A2BE2"/>
<path opacity="0.1" d="M148.199 86.5683C144.329 87.7683 133.799 82.6023 131.705 89.9103C133.127 87.6903 135.605 86.0163 140.399 87.0003C144.599 87.8703 149.945 89.8023 152.867 86.5623V74.8623C152.879 79.4703 152.081 85.3983 148.199 86.5683Z" fill="black"/>
<path d="M117.444 97.3262L117.384 151.206C117.384 151.764 118.836 151.806 118.854 151.206L118.914 97.4642L117.444 97.3262Z" fill="#37474F"/>
<path d="M119.147 97.6083C119.102 97.7974 119.002 97.9691 118.86 98.1017C118.717 98.2344 118.539 98.3222 118.347 98.3542C118.155 98.3862 117.958 98.361 117.781 98.2817C117.603 98.2024 117.453 98.0726 117.349 97.9084C117.244 97.7442 117.191 97.5529 117.195 97.3585C117.198 97.164 117.259 96.9749 117.37 96.8149C117.48 96.6549 117.636 96.531 117.816 96.4587C117.997 96.3864 118.195 96.3688 118.385 96.4083C118.515 96.4352 118.638 96.4878 118.747 96.5632C118.856 96.6386 118.949 96.7351 119.02 96.847C119.091 96.9589 119.139 97.084 119.161 97.2147C119.183 97.3455 119.178 97.4793 119.147 97.6083Z" fill="#37474F"/>
<path d="M117.438 98.0283C112.908 103.428 106.488 101.028 101.196 100.698C95.4595 100.356 91.9675 102.21 90.2275 104.724C91.8835 104.286 96.5335 104.724 98.0275 105.924C98.0275 105.924 92.1835 109.746 92.1775 116.004C93.8755 113.352 96.8335 111.354 102.558 112.53C107.592 113.568 113.958 115.878 117.45 112.008L117.438 98.0283Z" fill="#8A2BE2"/>
<path opacity="0.1" d="M111.845 112.008C107.225 113.412 94.6255 107.268 92.1475 115.998C93.8455 113.346 96.8035 111.348 102.527 112.524C107.561 113.562 113.927 115.872 117.419 112.002V98.0283C117.413 103.53 116.465 110.61 111.845 112.008Z" fill="black"/>
<path opacity="0.6" d="M66.3536 269.322C83.8665 269.322 98.0636 261.124 98.0636 251.01C98.0636 240.897 83.8665 232.698 66.3536 232.698C48.8406 232.698 34.6436 240.897 34.6436 251.01C34.6436 261.124 48.8406 269.322 66.3536 269.322Z" fill="#8A2BE2"/>
<path d="M43.8427 162.6L48.6007 150.534L47.8687 135.726C44.8687 135.972 42.7567 137.064 41.1727 140.784C39.5887 144.504 36.4027 156.474 35.7727 159.264C35.2312 161.686 35.0472 164.174 35.2267 166.65C35.3707 169.806 36.7567 175.512 37.2787 178.62C37.5247 180.06 37.6507 181.446 37.7947 182.91C38.0366 184.415 38.3855 185.9 38.8387 187.356C39.0262 188.061 39.3991 188.703 39.9187 189.216C40.2427 189.546 40.7167 189.618 41.0227 189.93C41.3287 190.242 41.3767 190.734 41.8207 191.004C42.2647 191.274 42.9187 191.19 43.3447 191.49C43.7605 191.857 44.1994 192.198 44.6587 192.51C45.0908 192.674 45.476 192.942 45.7807 193.29C46.0507 193.638 46.2727 194.382 46.8067 194.37C47.3407 194.358 47.5507 193.77 47.6227 193.302C47.6823 192.329 47.4278 191.364 46.8967 190.548C46.4434 189.651 45.9386 188.782 45.3847 187.944C44.8405 187.161 44.4777 186.268 44.3227 185.328C44.1847 184.698 44.3227 183.918 45.0727 184.338C45.9727 184.842 46.8727 185.808 48.0187 185.712C48.8047 185.64 48.9007 185.034 48.4867 184.512C47.819 183.608 47.2174 182.658 46.6867 181.668C46.1407 180.66 45.7087 179.598 45.1327 178.608C44.8212 178.092 44.4765 177.597 44.1007 177.126C43.0687 175.794 43.2547 174.126 43.2547 172.536C43.2427 170.31 43.6447 165.39 43.8427 162.6Z" fill="#FFA8A7"/>
<path d="M47.9344 134.892C43.5604 135.276 41.3884 138.054 39.9064 142.434C38.3884 146.922 36.1623 154.974 35.7063 157.11C35.0543 159.688 34.7496 162.341 34.8004 165C35.014 167.819 35.3886 170.623 35.9223 173.4C35.9223 173.4 37.0684 174.09 39.5224 174.054C42.9244 174 43.6023 172.968 43.6023 172.968L44.2023 162.636L49.0024 150.696L47.9344 134.892Z" fill="#37474F"/>
<path d="M44.5029 248.214C44.5029 248.988 44.3589 249.288 45.3069 249.984C46.2549 250.68 48.3069 251.004 49.8669 250.584C50.8643 250.395 51.7607 249.854 52.3929 249.06C52.9259 248.355 53.4148 247.617 53.8569 246.852C54.1269 246.504 55.3989 245.838 56.6229 245.292C57.8469 244.746 60.3909 243.576 61.2729 241.482C61.8126 240.359 61.9111 239.074 61.5489 237.882L44.5029 248.214Z" fill="#263238"/>
<path d="M52.747 237.6C50.251 239.232 48.145 243.33 44.731 242.082C44.557 244.092 44.023 246.252 44.503 248.226C45.961 250.026 49.147 250.374 50.983 249.078C51.913 248.292 52.429 247.362 53.323 246.534C54.0553 245.903 54.8864 245.396 55.783 245.034C56.8182 244.553 57.8204 244.004 58.783 243.39C64.279 239.304 61.537 231.846 52.747 237.6Z" fill="#455A64"/>
<path d="M61.5605 257.611C61.5605 258.445 61.6145 259.075 62.1245 259.411C62.6345 259.747 66.4685 260.401 67.4885 260.515C68.5085 260.629 68.6885 259.963 69.3725 260.203C70.0565 260.443 71.7725 261.661 74.2505 262.213C76.7285 262.765 78.7926 263.353 82.2605 262.213C85.7285 261.073 86.0705 259.723 86.0225 258.553C85.9745 257.383 61.5605 257.611 61.5605 257.611Z" fill="#263238"/>
<path d="M62.0591 249.78C61.5011 252.18 60.9071 255.78 61.5611 257.61C62.2571 258.3 64.6031 258.708 66.6431 258.984C68.5295 259.215 70.3589 259.784 72.0431 260.664C76.0031 262.32 82.9751 262.92 85.7531 259.194C88.5251 254.208 74.0951 255.438 72.3251 249.672C71.6891 247.572 64.6811 250.35 62.0591 249.78Z" fill="#455A64"/>
<path d="M43.3928 221.448C45.3248 201 44.3288 184.608 46.2008 168.12C46.2008 168.12 74.9588 167.4 75.6668 177.168C75.6668 177.168 76.1048 211.998 75.8768 216.3C75.7747 220.656 73.1648 247.848 73.1648 250.92C66.0188 254.466 61.5908 251.79 61.5908 251.79C61.6328 247.818 58.5308 232.404 60.2168 222.732L59.0408 206.31C59.0408 206.31 54.1387 235.71 53.3107 243.654C51.1987 246.78 45.2168 246.054 44.2148 244.158C44.2148 244.158 42.7148 227.478 43.3928 221.448Z" fill="#37474F"/>
<path d="M59.0406 206.31L57.7746 190.494C57.7746 190.494 52.3746 189.498 49.2246 185.58C50.0766 188.718 53.4786 191.436 55.6386 192.18L57.7866 205.602L56.8986 218.01L59.0406 206.31Z" fill="#263238"/>
<path d="M55.2008 203.208C55.0279 206.973 54.6392 210.725 54.0367 214.446C53.2987 218.574 51.2108 240.312 50.7188 245.454C50.8838 245.405 51.0461 245.347 51.2047 245.28C51.7267 239.772 53.7668 218.586 54.4928 214.53C55.1093 210.792 55.5099 207.022 55.6928 203.238C55.9508 199.146 56.1907 195.282 56.4547 193.272L55.9988 193.212C55.7168 195.234 55.4768 199.11 55.2008 203.208Z" fill="#263238"/>
<path d="M69.5043 252.294C70.1043 243.018 71.6043 221.964 71.4843 212.58C71.3403 201.378 70.9623 183.948 70.0563 176.712L69.6003 176.766C70.5003 183.966 70.8783 201.396 71.0223 212.586C71.1423 222 69.6423 243.24 69.0303 252.408L69.5043 252.294Z" fill="#263238"/>
<path d="M70.5068 188.227C73.0388 185.677 72.6848 180.337 72.4628 177.007C72.4388 176.727 72.4208 176.463 72.4088 176.215L72.8708 176.185C72.8708 176.431 72.8708 176.695 72.9248 176.971C73.1588 180.523 73.5248 186.307 70.5248 188.875L70.5068 188.227Z" fill="#263238"/>
<path d="M64.6436 132.06L63.4856 139.008L53.2676 139.098L54.8876 131.61L64.6436 132.06Z" fill="#FFA8A7"/>
<path d="M67.7344 119.7C68.4904 120.606 70.8424 123.354 70.9384 123.9L69.1384 125.1L67.7344 119.7Z" fill="#F28F8F"/>
<path d="M62.2504 112.8C65.1844 112.404 67.1524 114.444 68.1664 120.678C68.2084 120.924 68.5804 121.278 68.8804 122.232C70.1644 126.216 69.6064 130.062 68.9524 131.1C67.2844 132.516 65.4064 133.074 62.6524 132.9C60.5584 132.78 55.2004 132.3 52.4524 129.528C49.1824 126.288 47.4424 121.32 49.6384 118.662C52.6924 114.924 60.6364 113.004 62.2504 112.8Z" fill="#FFA8A7"/>
<path d="M68.9523 131.088C68.5923 131.688 66.5103 132.924 64.4883 132.978L64.6443 131.874C66.1113 131.827 67.5631 131.562 68.9523 131.088Z" fill="#F28F8F"/>
<path d="M63.0418 123.954C63.0179 124.054 62.9659 124.144 62.892 124.215C62.818 124.286 62.7252 124.334 62.6246 124.354C62.524 124.373 62.42 124.364 62.3248 124.326C62.2296 124.288 62.1473 124.223 62.0878 124.14C61.7753 123.7 61.4128 123.297 61.0078 122.94C60.4966 122.539 59.8559 122.341 59.2078 122.382C56.8078 122.634 57.4738 125.796 58.6858 126.87C60.6718 128.628 61.6858 127.038 61.6858 127.038C61.6858 127.038 63.1558 130.074 61.1758 131.922C61.1758 131.922 57.5758 132.96 54.7798 132.18C52.6678 130.02 51.4198 129.222 49.9798 127.38C46.5838 122.952 46.0078 117.294 48.0718 115.98C47.9158 114.384 48.7198 111.948 51.9718 110.472C55.0738 109.062 57.1738 109.14 59.4478 109.206C61.7218 109.272 64.5358 110.232 66.5938 108.42C66.8676 109.049 66.9882 109.733 66.9454 110.418C66.9026 111.102 66.6978 111.766 66.3478 112.356C66.6807 112.213 67.0556 112.202 67.3965 112.325C67.7373 112.448 68.0187 112.696 68.1835 113.018C68.3483 113.341 68.3842 113.715 68.284 114.063C68.1838 114.411 67.9549 114.708 67.6438 114.894C67.8735 115.015 68.0537 115.213 68.1534 115.453C68.253 115.692 68.2659 115.96 68.1898 116.208C68.1051 116.453 67.9513 116.669 67.7468 116.828C67.5424 116.988 67.2962 117.085 67.0378 117.108C66.5614 117.15 66.0816 117.132 65.6098 117.054C65.0098 118.926 62.9218 119.628 61.6798 119.58C63.1258 121.2 63.3418 123.078 63.0418 123.954Z" fill="#263238"/>
<path d="M66.3656 139.254C64.2356 137.334 64.8836 137.232 63.4976 136.098C61.7816 134.682 54.2576 132.924 53.6516 133.536C53.0088 134.205 52.2584 134.76 51.4316 135.18C51.4316 135.18 51.7856 136.338 56.3276 137.436C60.6656 138.486 62.3996 138.342 66.3656 139.254Z" fill="#F0F0F0"/>
<path d="M52.8 134.304C55.302 134.724 59.814 135.936 62.184 136.584C64.554 137.232 67.8 139.38 67.8 139.38C67.8 139.38 72.36 141.366 72.918 141.99C73.476 142.614 74.628 145.488 75.084 151.734C75.54 157.98 75.912 181.668 75.912 181.668C74.9249 181.962 73.9236 182.206 72.912 182.4L72.048 175.296L71.082 182.748C71.082 182.748 62.508 183.348 55.326 181.83C48.144 180.312 44.958 175.71 44.958 175.71C44.958 175.71 46.032 163.11 45.744 160.536C45.456 157.962 43.212 147.174 43.464 142.926C43.716 138.678 45.33 135.282 47.952 134.892C51.126 134.4 52.8 134.304 52.8 134.304Z" fill="#455A64"/>
<path d="M51.5996 135.6C52.2476 135.852 52.9136 136.05 53.5796 136.242C54.2456 136.434 54.9176 136.632 55.5896 136.842C56.9336 137.208 58.2716 137.574 59.6216 137.904C60.9716 138.234 62.3216 138.504 63.6956 138.738L67.7996 139.38C66.4076 139.314 65.0156 139.182 63.6356 139.008C62.2448 138.848 60.8658 138.597 59.5076 138.258C58.1516 137.916 56.8076 137.538 55.4816 137.106C54.1513 136.703 52.8536 136.199 51.5996 135.6Z" fill="#37474F"/>
<path d="M54.168 144.264C54.768 147.072 55.194 149.91 55.494 152.766C55.8218 155.631 55.9242 158.518 55.8 161.4L55.32 169.986L55.044 174.282L54.726 178.572L54.852 174.27L55.014 169.974L55.41 161.382C55.5449 158.518 55.4747 155.649 55.2 152.796C55.086 151.368 54.93 149.946 54.756 148.524C54.582 147.102 54.372 145.68 54.168 144.264Z" fill="#37474F"/>
<path d="M72.3662 172.746C74.8322 172.35 75.6662 171.546 75.6662 171.546V173.346C74.6363 173.881 73.5185 174.227 72.3662 174.366V172.746Z" fill="#37474F"/>
<path d="M64.0505 199.758L63.9785 221.88C63.9785 222.954 64.7285 223.578 65.6585 224.124L67.9805 225.48C68.2377 225.664 68.5313 225.792 68.8417 225.854C69.1521 225.916 69.4721 225.911 69.7805 225.84C70.2181 225.731 70.6383 225.562 71.0285 225.336H71.0765L71.2025 225.264L95.0285 211.614C95.8839 211.124 96.595 210.418 97.0901 209.565C97.5852 208.713 97.8468 207.745 97.8485 206.76L97.9205 186.618C97.9067 186.367 97.8345 186.123 97.7094 185.905C97.5844 185.688 97.4101 185.502 97.2005 185.364L93.2345 183.06C93.0116 182.946 92.7648 182.887 92.5145 182.887C92.2642 182.887 92.0175 182.946 91.7945 183.06L64.7945 198.546C64.5784 198.675 64.4004 198.859 64.2785 199.08C64.1478 199.284 64.0695 199.516 64.0505 199.758Z" fill="#37474F"/>
<path d="M64.0505 199.758L63.9785 221.88C63.9785 222.954 64.7285 223.578 65.6585 224.124L67.9805 225.48C68.2377 225.664 68.5313 225.792 68.8417 225.854C69.1521 225.916 69.4721 225.911 69.7805 225.84C70.2181 225.731 70.6383 225.561 71.0285 225.336C70.0985 225.762 69.3665 225.282 69.3725 224.184L69.4445 203.34C69.4561 202.958 69.5678 202.585 69.7685 202.26L64.2545 199.056C64.1285 199.269 64.0583 199.51 64.0505 199.758Z" fill="#263238"/>
<path d="M69.4562 203.334C69.4765 202.955 69.5867 202.586 69.7776 202.257C69.9685 201.928 70.2346 201.65 70.5542 201.444L96.0962 186.81C97.1042 186.21 97.9322 186.708 97.9262 187.872L97.8662 206.736C97.8621 207.722 97.5988 208.689 97.1028 209.541C96.6068 210.393 95.8955 211.1 95.0402 211.59L71.2142 225.24C70.2002 225.84 69.3782 225.342 69.4142 224.178L69.4562 203.334Z" fill="#455A64"/>
<path d="M94.5301 183.78L67.4581 199.446C67.0766 199.669 66.7593 199.986 66.5374 200.368C66.3155 200.75 66.1965 201.183 66.1921 201.624L66.1201 224.4L66.5281 224.64L66.6061 201.636C66.6112 201.27 66.7111 200.912 66.8963 200.597C67.0814 200.281 67.3453 200.019 67.6621 199.836L94.9441 184.05L94.5301 183.78Z" fill="#8A2BE2"/>
<path d="M84.9248 186.6V190.026L86.2628 190.806V186.258C86.2628 186.018 86.1008 185.928 85.8968 186.042L84.9248 186.6Z" fill="#8A2BE2"/>
<path opacity="0.3" d="M84.9248 186.6V190.026L86.2628 190.806V186.258C86.2628 186.018 86.1008 185.928 85.8968 186.042L84.9248 186.6Z" fill="black"/>
<path d="M75.498 189.93V195.474L76.77 196.224L77.634 195.726V191.178C77.6412 191.051 77.678 190.927 77.7415 190.816C77.8051 190.706 77.8936 190.612 78 190.542L84.54 186.798L85.896 186.018C86.1 185.904 86.268 186.018 86.262 186.234V190.782L87.126 190.284V184.74C87.129 184.716 87.129 184.692 87.126 184.668C87.1097 184.554 87.0691 184.444 87.007 184.347C86.9449 184.25 86.8628 184.167 86.766 184.104L86.22 183.786C86.107 183.727 85.9815 183.696 85.854 183.696C85.7266 183.696 85.6011 183.727 85.488 183.786L75.888 189.294C75.7768 189.361 75.6833 189.454 75.6155 189.564C75.5476 189.675 75.5073 189.8 75.498 189.93Z" fill="#8A2BE2"/>
<path opacity="0.2" d="M76.8008 190.674V196.224L77.6648 195.726V191.178C77.6719 191.051 77.7087 190.927 77.7723 190.816C77.8358 190.706 77.9244 190.612 78.0308 190.542L84.5708 186.798L85.9268 186.018C86.1308 185.904 86.2988 186.018 86.2928 186.234V190.782L87.1568 190.284V184.74C87.1597 184.716 87.1597 184.692 87.1568 184.668C87.1268 184.488 86.9768 184.422 86.7968 184.53L77.1968 190.038C77.0844 190.104 76.9898 190.197 76.9208 190.307C76.8519 190.418 76.8107 190.544 76.8008 190.674Z" fill="black"/>
<path d="M85.4527 185.399C84.9423 183.668 84.5415 181.907 84.2527 180.125C83.9287 178.259 84.0247 176.369 83.8447 172.871L75.8467 174.917C76.3549 176.606 76.7754 178.321 77.1067 180.053C77.4487 181.919 76.7767 183.611 76.7887 185.453C76.7696 186.286 76.9949 187.105 77.4367 187.811C77.6887 188.183 78.0367 188.495 78.2587 188.861C78.7447 189.587 78.7267 190.103 78.0007 190.517C77.8656 190.613 77.7598 190.745 77.6952 190.897C77.6306 191.05 77.6096 191.217 77.6347 191.381C77.8623 191.647 78.1625 191.841 78.4987 191.939C78.6414 191.979 78.7885 192.001 78.9367 192.005C79.0867 192.005 79.2607 191.927 79.4047 191.939C79.5487 191.951 79.6927 192.059 79.8607 192.071C80.0282 192.071 80.1951 192.053 80.3587 192.017C80.6786 191.989 80.9823 191.863 81.2287 191.657C81.4567 191.435 81.5467 191.057 81.8287 190.913C82.1947 190.673 82.6807 190.865 83.1127 190.841C83.3277 190.824 83.5345 190.751 83.7132 190.63C83.8919 190.509 84.0364 190.344 84.1327 190.151C84.1904 189.928 84.3016 189.722 84.4567 189.551C84.6367 189.407 84.8947 189.419 85.1107 189.329C85.2354 189.271 85.3466 189.188 85.4375 189.084C85.5284 188.981 85.5969 188.86 85.6387 188.729C86.0347 187.703 85.7467 186.485 85.4527 185.399Z" fill="#FFA8A7"/>
<path d="M75.1329 142.763C77.2449 143.825 77.7729 144.263 78.9309 146.615C80.0889 148.967 81.6189 155.429 82.0689 159.317C82.5189 163.205 83.6589 166.931 83.9349 170.885C84.2109 174.839 84.1869 178.031 84.1869 178.031C83.0454 178.611 81.8025 178.963 80.5269 179.069C79.2567 179.269 77.9631 179.269 76.6929 179.069C76.6929 179.069 73.7349 168.155 72.9669 165.173C72.1989 162.191 69.4329 154.091 69.4329 154.091C68.5029 148.823 69.7929 142.895 71.2329 140.981C71.2389 140.999 73.0209 141.695 75.1329 142.763Z" fill="#37474F"/>
<path d="M220.122 18.8458C222.876 17.2498 226.68 17.4778 230.892 19.9078C239.292 24.7618 246.114 36.5758 246.114 46.3078C246.114 51.1798 244.398 54.5998 241.626 56.1778C240.9 56.5918 237.984 58.3498 237.258 58.7698C234.504 60.3658 230.7 60.1378 226.494 57.7078C218.094 52.8538 211.266 41.0458 211.266 31.3078C211.266 26.4598 212.97 23.0458 215.724 21.4558" fill="#8A2BE2"/>
<path opacity="0.65" d="M246.113 46.2842C246.113 51.1562 244.397 54.5762 241.625 56.1542C240.899 56.5682 237.983 58.3262 237.257 58.7462C234.503 60.3422 230.699 60.1142 226.493 57.6902L246.113 46.2842Z" fill="black"/>
<path opacity="0.55" d="M243.893 35.8496C245.289 39.1552 246.042 42.6962 246.113 46.2836L226.493 57.6836C223.422 55.8308 220.733 53.4072 218.573 50.5436L243.893 35.8496Z" fill="black"/>
<path opacity="0.4" d="M218.574 50.5438C214.194 44.9278 211.266 37.6678 211.266 31.3078C211.266 26.4598 212.97 23.0458 215.724 21.4558L220.122 18.8458C222.876 17.2498 226.68 17.4778 230.892 19.9078C236.4 23.0878 241.218 29.2498 243.894 35.8498L218.574 50.5438Z" fill="black"/>
<path d="M226.494 22.5179C234.894 27.3779 241.722 39.1859 241.722 48.9179C241.722 58.6499 234.9 62.5679 226.494 57.7079C218.088 52.8479 211.26 41.0459 211.266 31.3079C211.272 21.5699 218.094 17.6639 226.494 22.5179Z" fill="#8A2BE2"/>
<path opacity="0.2" d="M226.494 22.5179C234.894 27.3779 241.722 39.1859 241.722 48.9179C241.722 58.6499 234.9 62.5679 226.494 57.7079C218.088 52.8479 211.26 41.0459 211.266 31.3079C211.272 21.5699 218.094 17.6639 226.494 22.5179Z" fill="black"/>
<path d="M226.494 26.9097C232.806 30.5517 237.894 39.4137 237.894 46.7097C237.894 54.0057 232.776 56.9457 226.494 53.3097C220.212 49.6737 215.094 40.8117 215.094 33.5097C215.094 26.2077 220.164 23.2677 226.494 26.9097Z" fill="#FAFAFA"/>
<path d="M226.493 30.9114C230.891 33.4494 234.455 39.6234 234.455 44.7114C234.455 49.7994 230.891 51.8454 226.493 49.3074C222.095 46.7694 218.531 40.5954 218.531 35.5074C218.531 30.4194 222.095 28.3734 226.493 30.9114Z" fill="#8A2BE2"/>
<path opacity="0.2" d="M226.493 30.9114C230.891 33.4494 234.455 39.6234 234.455 44.7114C234.455 49.7994 230.891 51.8454 226.493 49.3074C222.095 46.7694 218.531 40.5954 218.531 35.5074C218.531 30.4194 222.095 28.3734 226.493 30.9114Z" fill="black"/>
<path d="M226.494 35.0155C227.777 35.8509 228.845 36.9776 229.61 38.3038C230.376 39.6301 230.817 41.1184 230.898 42.6475C230.898 45.4555 228.93 46.5955 226.494 45.1915C225.211 44.3555 224.144 43.2286 223.379 41.9025C222.613 40.5764 222.172 39.0884 222.09 37.5595C222.09 34.7455 224.064 33.5995 226.494 35.0155Z" fill="#FAFAFA"/>
<path d="M226.494 37.9559C227.035 38.3092 227.485 38.785 227.809 39.3448C228.132 39.9045 228.318 40.5325 228.354 41.1779C228.354 42.3779 227.52 42.8399 226.494 42.2459C225.953 41.8939 225.502 41.4192 225.179 40.8604C224.856 40.3016 224.669 39.6745 224.634 39.0299C224.634 37.8419 225.468 37.3619 226.494 37.9559Z" fill="#455A64"/>
<path d="M196.764 57.4561C196.764 57.4561 196.41 61.9201 194.364 63.1141C192.318 64.3081 191.178 60.7141 192.516 59.9161L196.764 57.4561Z" fill="#8A2BE2"/>
<path d="M196.764 57.4561C196.764 57.4561 192.72 55.5301 190.656 56.7181C188.592 57.9061 191.16 60.6901 192.498 59.9161L196.764 57.4561Z" fill="#8A2BE2"/>
<path opacity="0.5" d="M196.764 57.4561C196.764 57.4561 192.72 55.5301 190.656 56.7181C188.592 57.9061 191.16 60.6901 192.498 59.9161L196.764 57.4561Z" fill="white"/>
<path d="M221.202 43.842L189.432 62.19L188.982 61.398L221.268 42.75L221.202 43.842Z" fill="#37474F"/>
<path d="M189.984 60.5103C190.215 60.6398 190.402 60.8352 190.521 61.0713C190.64 61.3075 190.686 61.5739 190.654 61.8365C190.621 62.099 190.511 62.3459 190.337 62.5456C190.164 62.7453 189.935 62.8888 189.679 62.9578C189.424 63.0268 189.154 63.0181 188.903 62.9329C188.653 62.8477 188.433 62.6898 188.273 62.4794C188.112 62.2689 188.018 62.0155 188.002 61.7514C187.987 61.4872 188.05 61.2244 188.184 60.9963C188.361 60.6959 188.648 60.4768 188.985 60.3859C189.321 60.295 189.68 60.3397 189.984 60.5103Z" fill="#263238"/>
<path d="M220.404 43.8006C219.312 45.2406 221.292 47.7366 221.292 47.7366L226.452 40.3086L220.404 43.8006Z" fill="#8A2BE2"/>
<path d="M220.404 43.8006C219.312 45.2406 221.292 47.7366 221.292 47.7366L226.452 40.3086L220.404 43.8006Z" fill="#8A2BE2"/>
<path d="M217.44 41.0342C217.44 41.0342 218.64 43.9982 220.404 43.7762L226.452 40.2842L217.44 41.0342Z" fill="#8A2BE2"/>
<path opacity="0.5" d="M217.44 41.0342C217.44 41.0342 218.64 43.9982 220.404 43.7762L226.452 40.2842L217.44 41.0342Z" fill="white"/>
<path d="M43.5062 77.2359C43.4789 81.7536 45.1714 86.1125 48.2402 89.4279L49.7102 90.8379C53.0984 93.776 57.4707 95.3269 61.9529 95.1808C66.4352 95.0347 70.6972 93.2022 73.8868 90.0497C77.0765 86.8972 78.9587 82.657 79.1574 78.1767C79.356 73.6965 77.8563 69.3063 74.9582 65.8839L73.5542 64.4019C71.0336 62.0129 67.8692 60.4133 64.4508 59.8001C61.0324 59.187 57.5094 59.5872 54.3155 60.9513C51.1217 62.3154 48.3967 64.5839 46.4761 67.4774C44.5554 70.3709 43.5231 73.763 43.5062 77.2359Z" fill="white"/>
<path d="M42.0002 77.2294C41.9811 81.7941 43.5769 86.2185 46.5053 89.7201C49.4337 93.2217 53.5061 95.5748 58.0022 96.3634L60.1442 101.973C60.2257 102.185 60.3693 102.367 60.5562 102.495C60.7431 102.623 60.9645 102.692 61.1912 102.692C61.4179 102.692 61.6392 102.623 61.8261 102.495C62.013 102.367 62.1567 102.185 62.2382 101.973L64.4402 96.3994C68.0771 95.8056 71.4685 94.1843 74.2144 91.7267C76.9604 89.2691 78.9465 86.0776 79.9385 82.5286C80.9305 78.9795 80.8872 75.2208 79.8135 71.6955C78.7399 68.1703 76.6808 65.0255 73.8788 62.6318C71.0769 60.2382 67.6491 58.6956 63.9994 58.1858C60.3497 57.676 56.6303 58.2204 53.2798 59.7546C49.9292 61.2889 47.0872 63.7491 45.0887 66.8452C43.0902 69.9414 42.0186 73.5444 42.0002 77.2294ZM61.4402 59.5174C65.9611 59.5372 70.3035 61.2845 73.5782 64.4014L74.9822 65.8834C77.857 69.3073 79.3383 73.6874 79.1317 78.1533C78.9252 82.6192 77.0458 86.8439 73.8672 89.9877C70.6887 93.1315 66.4435 94.9643 61.9756 95.1217C57.5077 95.2791 53.1442 93.7497 49.7522 90.8374L48.2402 89.4274C45.8751 86.8786 44.3083 83.693 43.7331 80.2639C43.1578 76.8347 43.5994 73.3122 45.0033 70.1312C46.4072 66.9502 48.7119 64.2499 51.6328 62.3637C54.5538 60.4775 57.9633 59.4881 61.4402 59.5174Z" fill="#455A64"/>
<path opacity="0.7" d="M61.4397 59.5172C65.9606 59.537 70.303 61.2843 73.5777 64.4012L74.9817 65.8832C77.8565 69.307 79.3378 73.6872 79.1313 78.1531C78.9247 82.619 77.0454 86.8437 73.8668 89.9875C70.6882 93.1313 66.4431 94.9641 61.9752 95.1215C57.5073 95.2789 53.1437 93.7495 49.7517 90.8372L48.2397 89.4272C45.8747 86.8784 44.3078 83.6928 43.7326 80.2637C43.1574 76.8345 43.599 73.312 45.0028 70.131C46.4067 66.95 48.7114 64.2497 51.6324 62.3635C54.5534 60.4773 57.9628 59.4879 61.4397 59.5172Z" fill="white"/>
<path d="M54.0001 67.9999L54.8701 76.6699C55.0651 78.2833 55.8442 79.7693 57.0602 80.8473C58.2763 81.9253 59.8451 82.5205 61.4701 82.5205C63.0952 82.5205 64.664 81.9253 65.8801 80.8473C67.0961 79.7693 67.8752 78.2833 68.0701 76.6699L68.9521 67.9999H54.0001Z" fill="#8A2BE2"/>
<path d="M61.3203 82.0957C61.0243 82.0957 60.7313 82.1541 60.4579 82.2675C60.1845 82.381 59.9362 82.5473 59.7272 82.7568C59.5182 82.9664 59.3526 83.2151 59.2399 83.4888C59.1271 83.7625 59.0695 84.0557 59.0703 84.3517H63.5703C63.5711 84.0557 63.5135 83.7625 63.4008 83.4888C63.2881 83.2151 63.1224 82.9664 62.9134 82.7568C62.7044 82.5473 62.4561 82.381 62.1827 82.2675C61.9094 82.1541 61.6163 82.0957 61.3203 82.0957Z" fill="#8A2BE2"/>
<path d="M65.0398 86.1037H57.6178C57.5488 86.1045 57.4803 86.0916 57.4162 86.0657C57.3522 86.0398 57.294 86.0015 57.2448 85.953C57.1957 85.9044 57.1568 85.8466 57.1301 85.7829C57.1035 85.7191 57.0898 85.6508 57.0898 85.5817C57.0898 85.4417 57.1455 85.3074 57.2445 85.2084C57.3435 85.1093 57.4778 85.0537 57.6178 85.0537H65.0398C65.1788 85.0553 65.3116 85.1116 65.4093 85.2105C65.507 85.3093 65.5619 85.4427 65.5618 85.5817C65.5618 85.7202 65.5068 85.8529 65.409 85.9508C65.3111 86.0487 65.1783 86.1037 65.0398 86.1037Z" fill="#8A2BE2"/>
<path d="M66.2764 86.8115H56.3704C55.9137 86.8115 55.4757 86.9929 55.1528 87.3159C54.8299 87.6388 54.6484 88.0768 54.6484 88.5335H67.9984C67.9969 88.0773 67.8149 87.6402 67.4923 87.3176C67.1697 86.995 66.7327 86.8131 66.2764 86.8115Z" fill="#8A2BE2"/>
<path d="M55.068 79.6479H54.732C53.6187 79.6454 52.537 79.2779 51.6526 78.6016C50.7683 77.9253 50.1301 76.9777 49.836 75.9039L48.702 71.7519C48.6329 71.4984 48.6229 71.2324 48.6729 70.9744C48.7228 70.7164 48.8313 70.4733 48.99 70.2639C49.1483 70.0528 49.3541 69.8819 49.5908 69.7652C49.8274 69.6484 50.0882 69.5891 50.352 69.5919H53.322L53.472 71.0679H50.352C50.3165 71.0693 50.2817 71.078 50.2496 71.0935C50.2176 71.1089 50.1892 71.1309 50.166 71.1579C50.1448 71.1869 50.1305 71.2203 50.1242 71.2557C50.118 71.2911 50.12 71.3274 50.13 71.3619L51.24 75.5439C51.4339 76.2441 51.8351 76.8693 52.3909 77.3373C52.9466 77.8053 53.631 78.0941 54.354 78.1659C54.5355 78.6852 54.775 79.1824 55.068 79.6479Z" fill="#8A2BE2"/>
<path d="M67.5781 79.6478H67.9141C69.0326 79.6519 70.1212 79.2874 71.0116 78.6106C71.9021 77.9339 72.5447 76.9826 72.8401 75.9038L73.9741 71.7518C74.0433 71.4983 74.0532 71.2323 74.0033 70.9743C73.9534 70.7163 73.8449 70.4733 73.6861 70.2638C73.5272 70.0534 73.3212 69.8831 73.0848 69.7664C72.8483 69.6498 72.5878 69.59 72.3241 69.5918H69.3241L69.1681 71.0678H72.2941C72.3288 71.0693 72.3627 71.0781 72.3937 71.0936C72.4248 71.1091 72.4522 71.131 72.4741 71.1578C72.4964 71.1863 72.5118 71.2195 72.5191 71.2549C72.5264 71.2903 72.5253 71.3269 72.5161 71.3618L71.3821 75.5438C71.1883 76.2441 70.7871 76.8693 70.2313 77.3373C69.6755 77.8052 68.9911 78.0941 68.2681 78.1658C68.0918 78.6831 67.8605 79.18 67.5781 79.6478Z" fill="#8A2BE2"/>
</svg>
