<svg width="246" height="218" viewBox="0 0 246 218" fill="none" xmlns="http://www.w3.org/2000/svg">
<g clip-path="url(#clip0_1839_8126)">
<mask id="mask0_1839_8126" style="mask-type:luminance" maskUnits="userSpaceOnUse" x="-72" y="-20" width="390" height="259">
<path d="M317.21 -19.8281H-71.2109V238.992H317.21V-19.8281Z" fill="white"/>
</mask>
<g mask="url(#mask0_1839_8126)">
<path d="M169.776 133.616C167.989 131.546 167.958 129.299 167.958 129.299L170.522 128.223C170.522 128.223 170.553 130.469 172.339 132.54L169.776 133.616Z" fill="url(#paint0_linear_1839_8126)"/>
<path d="M150.848 160.534C148.579 159.969 147.45 158.427 147.45 158.427L148.704 156.413C148.704 156.413 149.833 157.961 152.101 158.52L150.848 160.534Z" fill="url(#paint1_linear_1839_8126)"/>
<path d="M118.131 156.144C114.863 158.091 111.777 157.594 111.777 157.594L110.917 153.825C110.917 153.825 114.004 154.322 117.272 152.376L118.131 156.144Z" fill="url(#paint2_linear_1839_8126)"/>
<path d="M103.212 142.101C98.9187 141.205 96.6865 138.379 96.6865 138.379L97.7896 136.23C97.7896 136.23 100.022 139.057 104.315 139.952L103.212 142.101Z" fill="url(#paint3_linear_1839_8126)"/>
<path d="M85.1361 140.806C83.0438 143.452 80.3352 144.011 80.3352 144.011L78.4346 141.164C78.4346 141.164 81.1432 140.605 83.2354 137.959L85.1361 140.806Z" fill="url(#paint4_linear_1839_8126)"/>
<path d="M41.5755 111.783C39.7215 113.812 32.6367 115.939 32.6367 115.939L31.2539 113.512C31.2539 113.512 38.3387 111.389 40.1928 109.355L41.5755 111.783Z" fill="url(#paint5_linear_1839_8126)"/>
<path d="M22.2435 76.4898C18.1832 77.111 15.3037 75.3613 15.3037 75.3613L15.9718 71.2461C15.9718 71.2461 18.8513 72.9957 22.9116 72.3745L22.2435 76.4898Z" fill="url(#paint6_linear_1839_8126)"/>
<path d="M9.0889 39.6128C5.54132 40.2754 2.95703 38.8209 2.95703 38.8209L3.42831 35.187C3.42831 35.187 6.00743 36.6416 9.56019 35.979L9.0889 39.6128Z" fill="url(#paint7_linear_1839_8126)"/>
<path d="M89.4031 157.268C85.5034 157.314 72.1572 154.975 72.1572 154.975L73.2811 153.251C73.2811 153.251 86.6272 155.586 90.527 155.544L89.4031 157.268Z" fill="url(#paint8_linear_1839_8126)"/>
<path d="M72.9027 94.6746C68.4696 93.8102 63.6221 89.9279 63.6221 89.9279L64.663 87.9194C64.663 87.9194 69.5105 91.8017 73.9437 92.6662L72.9027 94.6746Z" fill="url(#paint9_linear_1839_8126)"/>
<path d="M109.932 90.989C107.399 91.0097 105.794 89.6846 105.794 89.6846L106.566 87.231C106.566 87.231 108.171 88.5561 110.704 88.5354L109.932 90.989Z" fill="url(#paint10_linear_1839_8126)"/>
<path d="M144.067 128.124C142.913 126.038 143.291 124.118 143.291 124.118L145.668 123.657C145.668 123.657 145.295 125.578 146.445 127.664L144.067 128.124Z" fill="url(#paint11_linear_1839_8126)"/>
<path d="M153.316 103.65C149.018 102.351 146.998 99.2712 146.998 99.2712L149.598 95.5234C149.598 95.5234 151.618 98.6034 155.916 99.9027L153.316 103.65Z" fill="url(#paint12_linear_1839_8126)"/>
<path d="M170.21 74.9319C167.014 72.0745 166.507 68.5908 166.507 68.5908L170.272 66.396C170.272 66.396 170.774 69.8797 173.975 72.7371L170.21 74.9319Z" fill="url(#paint13_linear_1839_8126)"/>
<path d="M212.61 99.1418C210.31 99.6025 208.622 98.6811 208.622 98.6811L208.897 96.3154C208.897 96.3154 210.585 97.2368 212.884 96.7761L212.61 99.1418Z" fill="url(#paint14_linear_1839_8126)"/>
<path d="M97.2397 120.396C95.2821 124.221 92.0349 125.598 92.0349 125.598L88.9482 122.513C88.9482 122.513 92.1954 121.136 94.1531 117.311L97.2397 120.396Z" fill="url(#paint15_linear_1839_8126)"/>
<path d="M135.362 87.929C132.736 90.0461 129.965 89.9892 129.965 89.9892L128.743 86.7902C128.743 86.7902 131.509 86.842 134.14 84.73L135.362 87.929Z" fill="url(#paint16_linear_1839_8126)"/>
<path d="M166.131 97.5419C164.07 94.3791 164.438 91.2991 164.438 91.2991L168.14 90.2949C168.14 90.2949 167.768 93.3697 169.834 96.5377L166.131 97.5419Z" fill="url(#paint17_linear_1839_8126)"/>
<path d="M225.828 73.7826C223.933 76.5312 221.286 77.2611 221.286 77.2611L219.22 74.5694C219.22 74.5694 221.866 73.8395 223.762 71.0908L225.828 73.7826Z" fill="url(#paint18_linear_1839_8126)"/>
<path d="M79.6836 115.934C76.2655 114.184 75.0381 111.28 75.0381 111.28L77.7985 108.526C77.7985 108.526 79.0259 111.43 82.444 113.18L79.6836 115.934Z" fill="url(#paint19_linear_1839_8126)"/>
<path d="M112.409 113.097C108.089 112.89 105.484 110.483 105.484 110.483L107.038 106.378C107.038 106.378 109.643 108.785 113.962 108.993L112.409 113.097Z" fill="url(#paint20_linear_1839_8126)"/>
<path d="M115.159 102.59C112.222 99.3337 112.093 95.7412 112.093 95.7412L116.158 93.9243C116.158 93.9243 116.288 97.5167 119.224 100.773L115.159 102.59Z" fill="url(#paint21_linear_1839_8126)"/>
<path d="M181.264 80.4551C179.006 84.6014 175.396 86.0198 175.396 86.0198L172.092 82.5412C172.092 82.5412 175.702 81.1229 177.96 76.9766L181.264 80.4551Z" fill="url(#paint22_linear_1839_8126)"/>
<path d="M193.004 19.4304C191.388 21.6769 189.187 22.2411 189.187 22.2411L187.52 19.9739C187.52 19.9739 189.721 19.4096 191.336 17.1631L193.004 19.4304Z" fill="url(#paint23_linear_1839_8126)"/>
<path d="M170.263 -4.82642C169.321 -1.46176 166.949 0.158462 166.949 0.158462L163.986 -1.80857C163.986 -1.80857 166.358 -3.42879 167.301 -6.79346L170.263 -4.82642Z" fill="url(#paint24_linear_1839_8126)"/>
<path d="M33.4706 182.963C29.053 182.068 26.7432 179.18 26.7432 179.18L28.9908 175.188C28.9908 175.188 31.3006 178.077 35.7183 178.972L33.4706 182.963Z" fill="url(#paint25_linear_1839_8126)"/>
<path d="M89.5232 185.696C85.8668 183.3 84.8311 179.863 84.8311 179.863L88.2906 177.078C88.2906 177.078 89.3264 180.51 92.9827 182.911L89.5232 185.696Z" fill="url(#paint26_linear_1839_8126)"/>
<path d="M109.684 159.24C107.033 160.514 104.692 159.913 104.692 159.913L104.293 156.952C104.293 156.952 106.634 157.548 109.285 156.279L109.684 159.24Z" fill="url(#paint27_linear_1839_8126)"/>
<path d="M123.273 121.525C121.502 123.424 119.389 123.683 119.389 123.683L118.104 121.38C118.104 121.38 120.218 121.116 121.989 119.221L123.273 121.525Z" fill="url(#paint28_linear_1839_8126)"/>
<path d="M68.1183 121.938C66.2487 125.847 63.0118 127.317 63.0118 127.317L59.8164 124.288C59.8164 124.288 63.0532 122.813 64.9228 118.91L68.1183 121.938Z" fill="url(#paint29_linear_1839_8126)"/>
<path d="M63.9691 153.681C63.2026 156.952 60.9912 158.603 60.9912 158.603L58.0703 156.838C58.0703 156.838 60.2765 155.187 61.0482 151.916L63.9691 153.681Z" fill="url(#paint30_linear_1839_8126)"/>
<path d="M45.7812 152.324C41.7416 151.724 39.5146 149.219 39.5146 149.219L41.3584 145.502C41.3584 145.502 43.5853 148.007 47.6249 148.608L45.7812 152.324Z" fill="url(#paint31_linear_1839_8126)"/>
<path d="M12.4742 174.453C10.9827 176.218 9.11307 176.544 9.11307 176.544L7.87012 174.551C7.87012 174.551 9.73972 174.225 11.2313 172.46L12.4742 174.453Z" fill="url(#paint32_linear_1839_8126)"/>
<path d="M54.5116 65.2825C52.3986 62.2388 52.6783 59.2106 52.6783 59.2106L56.2828 58.1235C56.2828 58.1235 56.0083 61.1517 58.1162 64.1955L54.5116 65.2825Z" fill="url(#paint33_linear_1839_8126)"/>
<path d="M17.0636 26.7443C15.4892 29.8709 12.8479 31.0045 12.8479 31.0045L10.3154 28.5043C10.3154 28.5043 12.9567 27.3707 14.5311 24.2441L17.0636 26.7443Z" fill="url(#paint34_linear_1839_8126)"/>
<path d="M127.319 113.319C123.621 114.184 120.84 112.786 120.84 112.786L121.156 108.945C121.156 108.945 123.937 110.348 127.635 109.478L127.319 113.319Z" fill="url(#paint35_linear_1839_8126)"/>
<path d="M120.752 75.7435C116.391 76.7943 115.475 74.8324 115.475 74.8324L115.651 73.207C115.651 73.207 116.567 75.1689 120.928 74.1181L120.752 75.7435Z" fill="url(#paint36_linear_1839_8126)"/>
<path d="M128.24 61.0791C126.406 58.3045 126.717 55.5921 126.717 55.5921L129.975 54.6914C129.975 54.6914 129.664 57.4038 131.497 60.1784L128.24 61.0791Z" fill="url(#paint37_linear_1839_8126)"/>
<path d="M144.68 40.5182C141.21 38.4424 138.051 33.0641 138.051 33.0641L139.599 32.5879C139.599 32.5879 142.758 37.9662 146.228 40.0419L144.68 40.5182Z" fill="url(#paint38_linear_1839_8126)"/>
<path d="M-4.50195 68.9319C-0.48309 66.939 0.8479 68.6472 0.8479 68.6472L1.03952 70.2726C1.03952 70.2726 -0.291471 68.5644 -4.31033 70.5573L-4.50195 68.9319Z" fill="url(#paint39_linear_1839_8126)"/>
<path d="M83.697 104.665C81.2681 101.129 81.6047 97.6198 81.6047 97.6198L85.7841 96.3774C85.7841 96.3774 85.4475 99.8819 87.8764 103.423L83.697 104.665Z" fill="url(#paint40_linear_1839_8126)"/>
<path d="M128.558 92.7072C125.71 91.5011 124.555 89.2441 124.555 89.2441L126.611 86.8682C126.611 86.8682 127.766 89.1251 130.614 90.3312L128.558 92.7072Z" fill="url(#paint41_linear_1839_8126)"/>
<path d="M152.499 132.457C149.847 136.292 146.155 137.302 146.155 137.302L143.275 133.538C143.275 133.538 146.968 132.524 149.62 128.693L152.499 132.457Z" fill="url(#paint42_linear_1839_8126)"/>
<path d="M204.195 151.128C201.305 152.717 198.654 152.2 198.654 152.2L198.017 148.913C198.017 148.913 200.673 149.43 203.558 147.841L204.195 151.128Z" fill="url(#paint43_linear_1839_8126)"/>
<path d="M205.79 197.002C201.129 197.664 191.683 194.626 191.683 194.626L192.501 189.915C192.501 189.915 201.947 192.954 206.608 192.291L205.79 197.002Z" fill="url(#paint44_linear_1839_8126)"/>
<path d="M222.332 218.209C219.266 217.055 217.95 214.715 217.95 214.715L220.027 212.116C220.027 212.116 221.348 214.456 224.408 215.61L222.332 218.209Z" fill="url(#paint45_linear_1839_8126)"/>
<path d="M217.666 26.8429C214.279 28.0439 211.519 27.0137 211.519 27.0137L211.415 23.3695C211.415 23.3695 214.175 24.3997 217.562 23.1987L217.666 26.8429Z" fill="url(#paint46_linear_1839_8126)"/>
<path d="M163.555 22.2407C161.277 19.0831 161.51 15.8944 161.51 15.8944L165.28 14.6831C165.28 14.6831 165.047 17.8718 167.326 21.0294L163.555 22.2407Z" fill="url(#paint47_linear_1839_8126)"/>
<path d="M141.111 9.77597C139.081 11.0442 137.128 10.775 137.128 10.775L136.538 8.41457C136.538 8.41457 138.485 8.68892 140.521 7.41553L141.111 9.77597Z" fill="url(#paint48_linear_1839_8126)"/>
<path d="M92.8476 57.2228C91.3146 59.0708 89.3777 59.428 89.3777 59.428L88.0674 57.3678C88.0674 57.3678 90.0043 57.0106 91.5373 55.1626L92.8476 57.2228Z" fill="url(#paint49_linear_1839_8126)"/>
<path d="M0.20704 214.581C-3.17999 215.781 -5.94037 214.751 -5.94037 214.751L-6.04395 211.102C-6.04395 211.102 -3.28357 212.132 0.103463 210.931L0.20704 214.581Z" fill="url(#paint50_linear_1839_8126)"/>
<path d="M239.033 123.113C236.174 121.146 234.015 113.738 234.015 113.738L235.413 112.403C235.413 112.403 237.573 119.81 240.431 121.777L239.033 123.113Z" fill="url(#paint51_linear_1839_8126)"/>
<path d="M222.543 59.7491C219.472 61.1727 216.789 60.448 216.789 60.448L216.375 57.0367C216.375 57.0367 219.058 57.7614 222.129 56.3379L222.543 59.7491Z" fill="url(#paint52_linear_1839_8126)"/>
<path d="M163.784 68.1141C162.37 71.6806 157.88 76.417 157.88 76.417L156.378 74.802C156.378 74.802 160.868 70.0656 162.282 66.499L163.784 68.1141Z" fill="url(#paint53_linear_1839_8126)"/>
<path d="M166.212 42.8013C163.374 43.997 160.956 43.2516 160.956 43.2516L160.691 40.1354C160.691 40.1354 163.11 40.8808 165.948 39.6851L166.212 42.8013Z" fill="url(#paint54_linear_1839_8126)"/>
<path d="M134.129 69.2478C133.274 72.2449 131.156 73.6788 131.156 73.6788L128.525 71.9188C128.525 71.9188 130.644 70.4849 131.498 67.4878L134.129 69.2478Z" fill="url(#paint55_linear_1839_8126)"/>
<path d="M113.258 196.189C111.492 198.544 109.136 199.098 109.136 199.098L107.411 196.655C107.411 196.655 109.768 196.106 111.534 193.746L113.258 196.189Z" fill="url(#paint56_linear_1839_8126)"/>
<path d="M169.578 219.214C166.719 217.247 164.56 209.839 164.56 209.839L165.958 208.504C165.958 208.504 168.118 215.911 170.976 217.878L169.578 219.214Z" fill="url(#paint57_linear_1839_8126)"/>
<path d="M182.775 160.239C181.361 163.805 176.871 168.542 176.871 168.542L175.369 166.927C175.369 166.927 179.859 162.19 181.273 158.624L182.775 160.239Z" fill="url(#paint58_linear_1839_8126)"/>
<path d="M112.507 19.1709C111.051 20.1389 106.292 20.8377 106.292 20.8377L106.09 20.1286C106.09 20.1286 110.761 19.114 112.217 18.146L112.507 19.1709Z" fill="url(#paint59_linear_1839_8126)"/>
<path d="M109.699 53.2471C107.835 51.3267 107.68 49.1371 107.68 49.1371L108.902 48.5366C108.902 48.5366 109.062 50.7262 110.922 52.6467L109.699 53.2471Z" fill="url(#paint60_linear_1839_8126)"/>
<path d="M76.1445 58.2735C74.3112 60.1526 72.1619 60.37 72.1619 60.37L70.9189 58.0095C70.9189 58.0095 73.063 57.7921 74.9016 55.9131L76.1445 58.2735Z" fill="url(#paint61_linear_1839_8126)"/>
<path d="M100.016 61.4365L103.656 63.1499L104.811 60.7015L101.171 58.9829L100.016 61.4365Z" fill="url(#paint62_linear_1839_8126)"/>
<path d="M103.791 62.8602C101.461 62.56 100.15 61.1468 100.15 61.1468L101.171 58.9883C101.171 58.9883 102.481 60.4066 104.811 60.7017L103.791 62.8602Z" fill="url(#paint63_linear_1839_8126)"/>
<path d="M145.943 31.3099L150.734 33.2044L152.008 29.9847L147.217 28.085L145.943 31.3099Z" fill="url(#paint64_linear_1839_8126)"/>
<path d="M150.884 32.8214C147.88 32.6298 146.094 30.9268 146.094 30.9268L147.218 28.085C147.218 28.085 149.004 29.788 152.008 29.9795L150.884 32.8214Z" fill="url(#paint65_linear_1839_8126)"/>
<path d="M25.641 96.0775C22.3265 97.5631 19.4626 96.7556 19.4626 96.7556L19.0586 93.0907C19.0586 93.0907 21.9277 93.9034 25.2371 92.4126L25.641 96.0775Z" fill="url(#paint66_linear_1839_8126)"/>
<path d="M23.3828 56.0064C21.363 60.0182 17.976 61.4831 17.976 61.4831L14.7236 58.2789C14.7236 58.2789 18.1107 56.8191 20.1305 52.8022L23.3828 56.0064Z" fill="url(#paint67_linear_1839_8126)"/>
<path d="M147.874 173.863C145.585 171.456 145.414 168.733 145.414 168.733L148.459 167.273C148.459 167.273 148.63 169.996 150.919 172.403L147.874 173.863Z" fill="url(#paint68_linear_1839_8126)"/>
<path d="M223.114 176.203C219.758 175.116 218.22 172.662 218.22 172.662L220.322 169.763C220.322 169.763 221.861 172.217 225.216 173.304L223.114 176.203Z" fill="url(#paint69_linear_1839_8126)"/>
<path d="M247.45 145.615C245.958 142.463 246.683 139.699 246.683 139.699L250.194 139.243C250.194 139.243 249.469 142.013 250.961 145.16L247.45 145.615Z" fill="url(#paint70_linear_1839_8126)"/>
<path d="M92.4076 27.4794C89.4401 25.5744 88.5752 22.8154 88.5752 22.8154L91.3459 20.543C91.3459 20.543 92.2108 23.302 95.1784 25.2069L92.4076 27.4794Z" fill="url(#paint71_linear_1839_8126)"/>
<path d="M117.153 8.87005C116.51 5.44327 117.914 2.94824 117.914 2.94824L121.425 3.39859C121.425 3.39859 120.022 5.89362 120.664 9.3204L117.153 8.87005Z" fill="url(#paint72_linear_1839_8126)"/>
<path d="M123.673 42.7963C121.425 40.498 121.229 37.8683 121.229 37.8683L124.155 36.4189C124.155 36.4189 124.357 39.0486 126.599 41.3469L123.673 42.7963Z" fill="url(#paint73_linear_1839_8126)"/>
<path d="M60.9764 27.5413C57.8379 27.4895 55.8906 25.802 55.8906 25.802L56.9212 22.7842C56.9212 22.7842 58.8685 24.4717 62.007 24.5235L60.9764 27.5413Z" fill="url(#paint74_linear_1839_8126)"/>
<path d="M160.713 193.316C157.197 192.834 155.239 190.676 155.239 190.676L156.803 187.43C156.803 187.43 158.761 189.584 162.277 190.07L160.713 193.316Z" fill="url(#paint75_linear_1839_8126)"/>
<path d="M129.888 207.36C127.764 205.02 127.666 202.426 127.666 202.426L130.592 201.106C130.592 201.106 130.691 203.7 132.814 206.04L129.888 207.36Z" fill="url(#paint76_linear_1839_8126)"/>
<path d="M28.4943 131.442C27.4015 130.899 26.2673 130.433 25.1279 129.998C23.9886 129.563 22.8337 129.154 21.6529 128.838C21.7979 128.88 20.0474 128.429 20.1044 128.642C21.0314 132.099 18.6905 135.676 16.3703 138.037C15.0601 139.367 13.4339 140.356 11.673 140.961C10.9169 141.22 10.109 141.329 9.31143 141.396C8.93854 141.427 8.56048 141.417 8.1876 141.407C8.05294 141.401 7.91829 141.386 7.78364 141.376C7.61273 141.319 7.43665 141.262 7.26574 141.205C6.55105 140.977 5.7017 140.661 4.93522 140.646C4.26713 140.635 5.32882 141.231 5.28221 141.205C6.17299 141.728 7.14145 142.126 8.0892 142.525C13.1335 144.652 18.4523 146.511 23.5432 143.653C27.1063 141.655 30.9335 136.629 29.7786 132.322C29.6751 131.929 28.7584 131.571 28.4943 131.442Z" fill="url(#paint77_linear_1839_8126)"/>
<path d="M125.771 180.996C128.433 180.478 131.928 176.379 131.825 174.696C131.68 174.986 127.459 174.21 127.62 173.992C127.262 175.535 123.078 178.092 120.576 177.662C120.68 177.719 122.658 179.505 122.917 179.583C123.072 179.774 125.475 181.136 125.771 180.996Z" fill="url(#paint78_linear_1839_8126)"/>
<path d="M151.893 81.516C151.556 84.7098 151.215 87.9037 150.878 91.0975C150.914 90.7404 156.595 90.9371 156.642 90.4971C156.979 87.3032 157.321 84.1094 157.657 80.9155C157.621 81.2727 151.94 81.076 151.893 81.516Z" fill="url(#paint79_linear_1839_8126)"/>
<path d="M118.033 28.0226C120.923 29.6635 123.813 31.3044 126.702 32.9453C126.381 32.7642 128.919 27.4583 128.52 27.2358C125.63 25.5948 122.741 23.9539 119.851 22.313C120.172 22.4942 117.634 27.7948 118.033 28.0226Z" fill="url(#paint80_linear_1839_8126)"/>
<path d="M202.47 137.188C202.698 136.847 199.29 132.628 199.036 132.276C198.808 131.955 195.354 127.658 195.504 127.431C192.5 131.924 188.476 135.273 183.51 137.406C184.204 137.105 189.611 147.536 190.47 147.163C195.447 145.03 199.471 141.681 202.47 137.188Z" fill="url(#paint81_linear_1839_8126)"/>
<path d="M31.7729 43.2615C32.0111 43.4168 34.8699 41.0098 35.1133 40.8338C35.3309 40.6733 38.2466 38.2353 38.402 38.3388C35.2635 36.3355 32.9019 33.6127 31.3638 30.2222C31.5813 30.6984 24.4706 34.56 24.7347 35.1501C26.2729 38.5355 28.6345 41.2583 31.7729 43.2615Z" fill="url(#paint82_linear_1839_8126)"/>
<path d="M192.186 100.979C194.086 104.882 196.821 108.174 200.306 110.763C200.513 110.918 201.932 110.804 202.062 110.804C203.476 110.819 204.889 110.819 206.303 110.819C207.717 110.819 207.184 111.611 208.598 111.596C208.639 111.596 210.213 111.451 210.353 111.555C206.868 108.966 204.133 105.674 202.233 101.771C202.01 101.316 198.685 100.917 198.183 100.917C197.732 100.917 192.346 101.305 192.186 100.979Z" fill="url(#paint83_linear_1839_8126)"/>
<path d="M63.6123 199.729C68.8171 197.747 73.3435 194.625 77.0465 190.469C77.2692 190.22 77.2847 188.393 77.3003 188.227C77.4815 186.421 77.6421 184.619 77.8078 182.813C77.9683 181.006 78.1237 179.2 78.2687 177.393C78.2739 177.341 78.2687 175.312 78.4137 175.146C74.7108 179.308 70.1844 182.425 64.9796 184.407C64.3684 184.64 64.2752 191.421 64.2182 192.063C64.1665 192.632 64.0525 199.564 63.6123 199.729Z" fill="url(#paint84_linear_1839_8126)"/>
<path d="M81.1231 40.1096C80.8486 39.8715 79.1913 38.8207 79.1499 38.4531C79.4969 41.5434 77.0006 43.5157 74.6753 45.0479C72.7591 46.3057 70.4545 47.046 68.2793 46.4196L71.019 49.2925C73.5774 50.685 76.2549 49.8205 78.5854 48.3918C80.947 46.9528 83.4018 44.8201 83.06 41.7971C83.0134 41.3778 81.4235 40.3684 81.1231 40.1096Z" fill="url(#paint85_linear_1839_8126)"/>
<path d="M48.1896 136.515C48.7904 136.763 49.039 137.239 49.039 137.239L48.6091 137.741C48.6091 137.741 48.3605 137.265 47.7598 137.017L48.1896 136.515Z" fill="url(#paint86_linear_1839_8126)"/>
<path d="M49.3448 128.771C49.8886 128.647 50.2925 128.859 50.2925 128.859L50.2407 129.423C50.2407 129.423 49.8368 129.216 49.293 129.335L49.3448 128.771Z" fill="url(#paint87_linear_1839_8126)"/>
<path d="M56.7764 126.219C57.2632 125.458 57.9727 125.235 57.9727 125.235L58.5579 125.945C58.5579 125.945 57.8484 126.167 57.3616 126.928L56.7764 126.219Z" fill="url(#paint88_linear_1839_8126)"/>
<path d="M62.2972 127.285C63.3071 127.016 64.0839 127.383 64.0839 127.383L64.027 128.445C64.027 128.445 63.2501 128.082 62.2402 128.346L62.2972 127.285Z" fill="url(#paint89_linear_1839_8126)"/>
<path d="M65.4297 125.965C65.5954 125.178 66.1081 124.77 66.1081 124.77L66.8176 125.173C66.8176 125.173 66.2997 125.582 66.1392 126.369L65.4297 125.965Z" fill="url(#paint90_linear_1839_8126)"/>
<path d="M75.466 123.465C76.1185 123.398 76.5639 123.698 76.5639 123.698L76.4241 124.35C76.4241 124.35 75.9787 124.05 75.3262 124.117L75.466 123.465Z" fill="url(#paint91_linear_1839_8126)"/>
<path d="M85.6738 132.948C86.4714 132.384 87.269 132.446 87.269 132.446L87.5641 133.393C87.5641 133.393 86.7666 133.326 85.969 133.895L85.6738 132.948Z" fill="url(#paint92_linear_1839_8126)"/>
<path d="M92.4072 139.392C93.0908 138.875 93.7952 138.906 93.7952 138.906L94.0852 139.729C94.0852 139.729 93.3809 139.692 92.6972 140.215L92.4072 139.392Z" fill="url(#paint93_linear_1839_8126)"/>
<path d="M212.155 116.141L210.767 117.109L211.414 118.04L212.807 117.078L212.155 116.141Z" fill="url(#paint94_linear_1839_8126)"/>
<path d="M210.845 117.217C211.445 116.431 212.238 116.25 212.238 116.25L212.813 117.073C212.813 117.073 212.02 117.254 211.42 118.041L210.845 117.217Z" fill="url(#paint95_linear_1839_8126)"/>
<path d="M222.922 126.198C223.745 125.505 224.626 125.5 224.626 125.5L225.04 126.509C225.04 126.509 224.16 126.514 223.336 127.208L222.922 126.198Z" fill="url(#paint96_linear_1839_8126)"/>
<path d="M217.531 133.937C217.904 133.466 218.391 133.362 218.391 133.362L218.733 133.87C218.733 133.87 218.246 133.968 217.873 134.444L217.531 133.937Z" fill="url(#paint97_linear_1839_8126)"/>
<path d="M205.552 134.745C206.111 134.843 206.411 135.195 206.411 135.195L206.142 135.708C206.142 135.708 205.842 135.351 205.282 135.258L205.552 134.745Z" fill="url(#paint98_linear_1839_8126)"/>
<path d="M208.722 140.102C209.602 139.497 210.477 139.58 210.477 139.58L210.788 140.62C210.788 140.62 209.913 140.537 209.032 141.143L208.722 140.102Z" fill="url(#paint99_linear_1839_8126)"/>
<path d="M211.54 147.515C212.545 147.349 213.27 147.774 213.27 147.774L213.119 148.799C213.119 148.799 212.4 148.374 211.39 148.54L211.54 147.515Z" fill="url(#paint100_linear_1839_8126)"/>
<path d="M200.73 151.78C200.989 151.283 201.409 151.107 201.409 151.107L201.808 151.511C201.808 151.511 201.383 151.687 201.129 152.184L200.73 151.78Z" fill="url(#paint101_linear_1839_8126)"/>
<path d="M121.581 160.238C121.591 159.213 122.135 158.577 122.135 158.577L123.119 158.903C123.119 158.903 122.575 159.539 122.565 160.564L121.581 160.238Z" fill="url(#paint102_linear_1839_8126)"/>
<path d="M116.93 171.207C117.261 170.477 117.857 170.192 117.857 170.192L118.457 170.741C118.457 170.741 117.862 171.026 117.53 171.756L116.93 171.207Z" fill="url(#paint103_linear_1839_8126)"/>
<path d="M109.358 172.444C110.135 172.9 110.384 173.593 110.384 173.593L109.7 174.204C109.7 174.204 109.452 173.511 108.675 173.055L109.358 172.444Z" fill="url(#paint104_linear_1839_8126)"/>
<path d="M99.1924 183.858C99.3011 183.071 99.788 182.631 99.788 182.631L100.513 182.983C100.513 182.983 100.026 183.418 99.9174 184.21L99.1924 183.858Z" fill="url(#paint105_linear_1839_8126)"/>
<path d="M94.7588 195.686C95.256 194.884 95.9914 194.646 95.9914 194.646L96.6077 195.376C96.6077 195.376 95.8723 195.619 95.3751 196.416L94.7588 195.686Z" fill="url(#paint106_linear_1839_8126)"/>
<path d="M157.995 37.4331C158.912 37.4435 159.482 37.93 159.482 37.93L159.187 38.81C159.187 38.81 158.617 38.3234 157.7 38.3131L157.995 37.4331Z" fill="url(#paint107_linear_1839_8126)"/>
<path d="M151.335 41.5277C152.278 41.1136 153.085 41.3465 153.085 41.3465L153.194 42.387C153.194 42.387 152.381 42.1541 151.444 42.5682L151.335 41.5277Z" fill="url(#paint108_linear_1839_8126)"/>
<path d="M151.87 44.0542C152.843 44.4321 153.252 45.1827 153.252 45.1827L152.579 46.0005C152.579 46.0005 152.17 45.2499 151.196 44.8721L151.87 44.0542Z" fill="url(#paint109_linear_1839_8126)"/>
<path d="M140.164 55.8093C140.2 54.686 140.817 53.9976 140.817 53.9976L141.889 54.3858C141.889 54.3858 141.272 55.0743 141.236 56.1975L140.164 55.8093Z" fill="url(#paint110_linear_1839_8126)"/>
<path d="M144.179 70.0501C144.282 69.3979 144.691 69.0459 144.691 69.0459L145.287 69.3513C145.287 69.3513 144.878 69.7033 144.774 70.3555L144.179 70.0501Z" fill="url(#paint111_linear_1839_8126)"/>
<path d="M151.604 72.7828C151.444 71.9649 151.775 71.3696 151.775 71.3696L152.614 71.4732C152.614 71.4732 152.283 72.0684 152.443 72.8863L151.604 72.7828Z" fill="url(#paint112_linear_1839_8126)"/>
<path d="M100.234 38.5566C101.27 38.277 102.068 38.6446 102.068 38.6446L102.016 39.7316C102.016 39.7316 101.218 39.3641 100.183 39.6436L100.234 38.5566Z" fill="url(#paint113_linear_1839_8126)"/>
<path d="M88.0164 43.9453C89.0522 44.0644 89.6374 44.6855 89.6374 44.6855L89.1972 45.6484C89.1972 45.6484 88.612 45.0272 87.5762 44.9081L88.0164 43.9453Z" fill="url(#paint114_linear_1839_8126)"/>
<path d="M86.5508 51.7252C86.9806 51.1713 87.54 51.0522 87.54 51.0522L87.9387 51.6372C87.9387 51.6372 87.3794 51.7614 86.9496 52.3101L86.5508 51.7252Z" fill="url(#paint115_linear_1839_8126)"/>
<path d="M87.6797 61.1981C87.8558 60.6028 88.2753 60.3232 88.2753 60.3232L88.7932 60.6752C88.7932 60.6752 88.3737 60.9548 88.1976 61.5501L87.6797 61.1981Z" fill="url(#paint116_linear_1839_8126)"/>
<path d="M157.75 157.599C157.729 156.569 158.262 155.911 158.262 155.911L159.267 156.217C159.267 156.217 158.734 156.874 158.754 157.904L157.75 157.599Z" fill="url(#paint117_linear_1839_8126)"/>
<path d="M155.249 150.403C155.063 149.627 155.358 149.037 155.358 149.037L156.166 149.099C156.166 149.099 155.871 149.684 156.057 150.465L155.249 150.403Z" fill="url(#paint118_linear_1839_8126)"/>
<path d="M159.264 148.751C160.186 148.446 160.926 148.746 160.926 148.746L160.931 149.735C160.931 149.735 160.191 149.44 159.269 149.74L159.264 148.751Z" fill="url(#paint119_linear_1839_8126)"/>
<path d="M163.986 140.49C164.116 139.957 164.478 139.688 164.478 139.688L164.955 139.978C164.955 139.978 164.592 140.247 164.463 140.78L163.986 140.49Z" fill="url(#paint120_linear_1839_8126)"/>
<path d="M175.741 139.776C176.244 140.056 176.415 140.496 176.415 140.496L175.985 140.894C175.985 140.894 175.814 140.454 175.312 140.175L175.741 139.776Z" fill="url(#paint121_linear_1839_8126)"/>
<path d="M140.1 126.307C140.871 126.732 141.136 127.405 141.136 127.405L140.483 128.021C140.483 128.021 140.219 127.348 139.447 126.923L140.1 126.307Z" fill="url(#paint122_linear_1839_8126)"/>
<path d="M152.177 130.515C152.177 129.682 152.617 129.159 152.617 129.159L153.42 129.423C153.42 129.423 152.98 129.946 152.98 130.779L152.177 130.515Z" fill="url(#paint123_linear_1839_8126)"/>
<path d="M130.607 109.913C131.301 109.334 132.042 109.339 132.042 109.339L132.384 110.188C132.384 110.188 131.643 110.188 130.949 110.762L130.607 109.913Z" fill="url(#paint124_linear_1839_8126)"/>
<path d="M135.543 117.528C136.356 116.839 137.236 116.839 137.236 116.839L137.646 117.844C137.646 117.844 136.77 117.849 135.952 118.532L135.543 117.528Z" fill="url(#paint125_linear_1839_8126)"/>
<path d="M135.988 121.125C136.672 121.519 136.9 122.13 136.9 122.13L136.304 122.668C136.304 122.668 136.081 122.057 135.393 121.664L135.988 121.125Z" fill="url(#paint126_linear_1839_8126)"/>
<path d="M134.03 127.581C134.988 127.653 135.558 128.202 135.558 128.202L135.19 129.108C135.19 129.108 134.625 128.559 133.662 128.486L134.03 127.581Z" fill="url(#paint127_linear_1839_8126)"/>
<path d="M108.356 78.2695C109.252 78.7613 109.552 79.5429 109.552 79.5429L108.796 80.2521C108.796 80.2521 108.496 79.4705 107.6 78.9787L108.356 78.2695Z" fill="url(#paint128_linear_1839_8126)"/>
<path d="M100.084 85.5945C100.819 85.5479 101.306 85.9051 101.306 85.9051L101.12 86.6298C101.12 86.6298 100.633 86.2726 99.8975 86.3192L100.084 85.5945Z" fill="url(#paint129_linear_1839_8126)"/>
<path d="M90.752 79.6882C90.9073 78.5908 91.5858 77.98 91.5858 77.98L92.6008 78.4717C92.6008 78.4717 91.9224 79.0826 91.767 80.18L90.752 79.6882Z" fill="url(#paint130_linear_1839_8126)"/>
<path d="M77.7578 81.2261C78.2032 80.579 78.8247 80.4082 78.8247 80.4082L79.3115 81.0397C79.3115 81.0397 78.69 81.2105 78.2446 81.8576L77.7578 81.2261Z" fill="url(#paint131_linear_1839_8126)"/>
<path d="M73.9463 71.1936C74.8681 70.5569 75.7848 70.6398 75.7848 70.6398L76.1111 71.7268C76.1111 71.7268 75.1944 71.644 74.2726 72.2807L73.9463 71.1936Z" fill="url(#paint132_linear_1839_8126)"/>
<path d="M66.7419 68.885C67.5187 68.8022 68.047 69.1594 68.047 69.1594L67.8813 69.9358C67.8813 69.9358 67.353 69.5787 66.5762 69.6615L66.7419 68.885Z" fill="url(#paint133_linear_1839_8126)"/>
<path d="M109.483 151.873C110.074 151.257 110.773 151.18 110.773 151.18L111.182 151.946C111.182 151.946 110.483 152.023 109.893 152.639L109.483 151.873Z" fill="url(#paint134_linear_1839_8126)"/>
<path d="M121.489 147.085C122.312 147.515 122.602 148.219 122.602 148.219L121.929 148.876C121.929 148.876 121.639 148.172 120.815 147.743L121.489 147.085Z" fill="url(#paint135_linear_1839_8126)"/>
<path d="M127.594 147.344C127.889 146.858 128.334 146.708 128.334 146.708L128.712 147.148C128.712 147.148 128.267 147.298 127.972 147.784L127.594 147.344Z" fill="url(#paint136_linear_1839_8126)"/>
<path d="M132.804 132.105C132.933 131.546 133.306 131.266 133.306 131.266L133.803 131.566C133.803 131.566 133.43 131.851 133.301 132.405L132.804 132.105Z" fill="url(#paint137_linear_1839_8126)"/>
<path d="M6.13184 82.701C6.25613 82.0125 6.70152 81.645 6.70152 81.645L7.32817 81.9815C7.32817 81.9815 6.88797 82.349 6.75849 83.0375L6.13184 82.701Z" fill="url(#paint138_linear_1839_8126)"/>
<path d="M8.33744 74.4858C9.15571 74.5997 9.61145 75.1018 9.61145 75.1018L9.24375 75.8576C9.24375 75.8576 8.788 75.3555 7.96973 75.2416L8.33744 74.4858Z" fill="url(#paint139_linear_1839_8126)"/>
<path d="M18.6084 86.2106C19.1108 85.5791 19.7581 85.4497 19.7581 85.4497L20.2087 86.133C20.2087 86.133 19.5613 86.2676 19.059 86.8939L18.6084 86.2106Z" fill="url(#paint140_linear_1839_8126)"/>
<path d="M29.5406 76.6393C29.463 75.7283 29.8928 75.1123 29.8928 75.1123L30.7991 75.3194C30.7991 75.3194 30.3693 75.9353 30.447 76.8464L29.5406 76.6393Z" fill="url(#paint141_linear_1839_8126)"/>
<path d="M32.4043 83.8137C32.8808 83.2546 33.4763 83.1562 33.4763 83.1562L33.8648 83.7929C33.8648 83.7929 33.2692 83.8913 32.7927 84.4504L32.4043 83.8137Z" fill="url(#paint142_linear_1839_8126)"/>
<path d="M36.4082 74.7706C36.2684 74.0407 36.5688 73.5127 36.5688 73.5127L37.3145 73.6059C37.3145 73.6059 37.0193 74.139 37.154 74.8637L36.4082 74.7706Z" fill="url(#paint143_linear_1839_8126)"/>
<path d="M171.382 109.499C172.144 109.67 172.532 110.182 172.532 110.182L172.128 110.866C172.128 110.866 171.74 110.353 170.979 110.182L171.382 109.499Z" fill="url(#paint144_linear_1839_8126)"/>
<path d="M181.124 106.259C181.927 106.352 182.377 106.833 182.377 106.833L182.036 107.579C182.036 107.579 181.58 107.097 180.782 107.004L181.124 106.259Z" fill="url(#paint145_linear_1839_8126)"/>
<path d="M173.697 90.4033C173.889 89.808 174.319 89.5337 174.319 89.5337L174.837 89.9012C174.837 89.9012 174.402 90.1756 174.215 90.7709L173.697 90.4033Z" fill="url(#paint146_linear_1839_8126)"/>
<path d="M130.826 131.975L129.868 131.996L129.884 132.643L130.842 132.617L130.826 131.975Z" fill="url(#paint147_linear_1839_8126)"/>
<path d="M129.873 132.073C130.401 131.887 130.831 132.053 130.831 132.053L130.847 132.622C130.847 132.622 130.417 132.462 129.889 132.643L129.873 132.073Z" fill="url(#paint148_linear_1839_8126)"/>
<path d="M124.269 143.28L123.047 143.384L123.119 144.207L124.342 144.098L124.269 143.28Z" fill="url(#paint149_linear_1839_8126)"/>
<path d="M123.058 143.483C123.715 143.203 124.28 143.374 124.28 143.374L124.342 144.099C124.342 144.099 123.778 143.928 123.12 144.207L123.058 143.483Z" fill="url(#paint150_linear_1839_8126)"/>
<path d="M136.108 145.045L135.715 146.174L136.476 146.438L136.865 145.309L136.108 145.045Z" fill="url(#paint151_linear_1839_8126)"/>
<path d="M135.808 146.205C135.823 145.511 136.196 145.082 136.196 145.082L136.864 145.314C136.864 145.314 136.486 145.744 136.476 146.438L135.808 146.205Z" fill="url(#paint152_linear_1839_8126)"/>
<path d="M159.683 86.0757C160.288 86.0757 160.667 86.3914 160.667 86.3914L160.48 86.9764C160.48 86.9764 160.097 86.6606 159.496 86.6606L159.683 86.0757Z" fill="url(#paint153_linear_1839_8126)"/>
<path d="M162.339 97.8263C162.883 97.1585 163.582 97.0239 163.582 97.0239L164.058 97.759C164.058 97.759 163.359 97.8936 162.815 98.5613L162.339 97.8263Z" fill="url(#paint154_linear_1839_8126)"/>
<path d="M162.806 105.917C162.806 104.845 163.37 104.178 163.37 104.178L164.406 104.514C164.406 104.514 163.841 105.187 163.841 106.253L162.806 105.917Z" fill="url(#paint155_linear_1839_8126)"/>
<path d="M78.6942 104.468C79.4399 104.737 79.7662 105.296 79.7662 105.296L79.2742 105.933C79.2742 105.933 78.9479 105.374 78.2021 105.104L78.6942 104.468Z" fill="url(#paint156_linear_1839_8126)"/>
<path d="M62.4308 111.989C63.2595 111.865 63.8499 112.222 63.8499 112.222L63.71 113.066C63.71 113.066 63.1196 112.709 62.291 112.833L62.4308 111.989Z" fill="url(#paint157_linear_1839_8126)"/>
<path d="M60.5156 121.089C61.1681 121.602 61.3079 122.27 61.3079 122.27L60.6088 122.741C60.6088 122.741 60.469 122.073 59.8164 121.56L60.5156 121.089Z" fill="url(#paint158_linear_1839_8126)"/>
<path d="M127.781 138.461C128.506 138.709 128.827 139.248 128.827 139.248L128.361 139.869C128.361 139.869 128.04 139.331 127.314 139.082L127.781 138.461Z" fill="url(#paint159_linear_1839_8126)"/>
<path d="M138.62 135.982C139.2 135.738 139.692 135.894 139.692 135.894L139.744 136.53C139.744 136.53 139.252 136.375 138.672 136.618L138.62 135.982Z" fill="url(#paint160_linear_1839_8126)"/>
<path d="M146.528 144.186C147.202 143.86 147.797 144.015 147.797 144.015L147.901 144.766C147.901 144.766 147.305 144.616 146.632 144.937L146.528 144.186Z" fill="url(#paint161_linear_1839_8126)"/>
<path d="M97.209 82.6231C98.0065 82.3488 98.6539 82.6024 98.6539 82.6024L98.6694 83.4617C98.6694 83.4617 98.0221 83.2133 97.2245 83.4824L97.209 82.6231Z" fill="url(#paint162_linear_1839_8126)"/>
<path d="M102.27 76.3491C102.969 76.6235 103.269 77.1618 103.269 77.1618L102.788 77.7519C102.788 77.7519 102.487 77.2136 101.788 76.9392L102.27 76.3491Z" fill="url(#paint163_linear_1839_8126)"/>
<path d="M107.567 67.4043C107.8 66.7003 108.318 66.3794 108.318 66.3794L108.924 66.8246C108.924 66.8246 108.406 67.1455 108.173 67.8495L107.567 67.4043Z" fill="url(#paint164_linear_1839_8126)"/>
<path d="M111.167 68.3621C111.037 67.4925 111.415 66.8765 111.415 66.8765L112.296 67.0266C112.296 67.0266 111.918 67.6426 112.047 68.5122L111.167 68.3621Z" fill="url(#paint165_linear_1839_8126)"/>
<path d="M46.8539 185.929C46.626 186.182 46.3982 186.446 46.1547 186.685C46.0667 186.767 45.9787 186.845 45.8906 186.923C47.434 186.405 48.9255 185.758 50.3186 184.935C52.2193 183.807 53.9646 182 54.151 179.696C54.1718 179.432 54.1614 179.168 54.1355 178.904C54.12 178.754 51.9655 179.51 51.8516 179.557C51.3337 179.759 50.8158 179.971 50.3134 180.214C50.2772 180.23 49.7075 180.468 49.723 180.602C49.9147 182.787 48.5889 184.728 46.8539 185.929Z" fill="url(#paint166_linear_1839_8126)"/>
<path d="M186.555 50.6904C185.965 56.8658 189.419 62.6375 196.193 62.0215C201.315 61.5557 206.712 60.8154 208.711 55.256C208.514 55.8099 204.661 55.08 204.443 55.6856C203.729 57.6682 202.491 59.1486 200.771 60.3444C199.927 60.9293 198.959 61.3124 197.99 61.6333C197.011 61.8714 197.203 61.8714 198.55 61.6385C197.871 61.6178 197.213 61.4573 196.561 61.2813C191.853 60.0286 190.424 54.4743 190.828 50.2607C190.802 50.504 186.586 50.3798 186.555 50.6904Z" fill="url(#paint167_linear_1839_8126)"/>
<path d="M208.711 55.2559C208.514 55.8097 204.661 55.0799 204.443 55.6855C203.729 57.6681 202.491 59.1485 200.771 60.3443C199.984 60.893 199.083 61.2605 198.177 61.5659C198.451 61.6125 198.752 61.6591 199.068 61.7005C203.216 61.1052 207.09 59.7749 208.711 55.2559Z" fill="url(#paint168_linear_1839_8126)"/>
<path d="M160.34 116.063C160.542 116.534 161.055 117.321 161.314 117.926C161.966 119.448 160.594 120.753 159.615 121.742C158.507 122.854 157.632 123.941 158.056 125.401C157.828 124.941 157.595 124.594 157.311 124.004" fill="url(#paint169_linear_1839_8126)"/>
<path d="M165.96 132.213C165.593 131.608 164.857 131.22 164.484 130.614C164.013 129.838 164.07 129.035 164.464 128.238C164.873 127.415 165.111 126.68 164.546 125.852C164.577 125.888 164.609 125.929 164.645 125.966C164.598 125.914 164.552 125.862 164.505 125.805C164.236 125.505 164.743 126.038 164.779 126.085C165.116 126.447 165.458 126.814 165.784 127.182" fill="url(#paint170_linear_1839_8126)"/>
</g>
<mask id="mask1_1839_8126" style="mask-type:luminance" maskUnits="userSpaceOnUse" x="-72" y="-20" width="390" height="259">
<path d="M317.21 -19.8281H-71.2109V238.992H317.21V-19.8281Z" fill="white"/>
</mask>
<g mask="url(#mask1_1839_8126)">
<path d="M234.29 184.055C234.285 184.055 234.285 184.055 234.29 184.055ZM234.29 184.055C234.285 184.051 234.285 184.051 234.29 184.055Z" stroke="black" stroke-miterlimit="10"/>
<path d="M238.432 184.082C238.428 184.077 238.428 184.077 238.432 184.082V184.082Z" fill="black"/>
<path d="M225.9 160.482C225.905 160.482 225.911 160.482 225.916 160.477C225.905 160.477 225.905 160.482 225.9 160.482Z" fill="url(#paint171_linear_1839_8126)"/>
</g>
<path d="M91.5734 77.7004C91.1798 78.1611 91.1539 78.7668 91.1694 79.3569C91.185 80.1489 91.2264 80.9408 91.2626 81.7328C91.2989 82.5248 91.33 83.3116 91.3248 84.1036C91.3248 84.1399 91.3248 84.1813 91.3248 84.2175C91.1694 83.938 91.0296 83.6429 90.8898 83.3531C90.3615 82.2557 89.7866 81.1841 89.1445 80.1489C88.9891 79.9004 88.8285 79.6519 88.668 79.4034C88.5333 79.1964 88.409 78.9531 88.1915 78.8237C88.0983 78.7668 87.9844 78.7719 87.886 78.7926C87.5183 78.8548 87.1506 78.9842 86.7984 79.1136C86.5653 79.2016 86.296 79.2844 86.094 79.4449C86.0008 79.5173 85.9594 79.6571 85.9283 79.771C85.6331 80.8321 85.5606 81.9606 85.4985 83.0632C85.4622 83.7516 85.4312 84.4453 85.3742 85.1337C85.3586 85.3149 85.3431 85.4961 85.3224 85.6824C85.0065 85.2942 84.7682 84.8439 84.5352 84.3987C84.2711 83.9069 84.0018 83.4152 83.6133 83.0114C83.458 82.8509 83.2456 82.7267 83.0229 82.7319C82.7692 82.7319 82.505 82.8354 82.2668 82.9131C82.0338 82.9907 81.7955 83.0684 81.5677 83.1615C81.4226 83.2185 81.2466 83.2806 81.1223 83.3789C80.9462 83.5187 80.9203 83.7206 80.9047 83.938C80.884 84.2486 80.8788 84.5592 80.884 84.8749C80.8892 85.2632 80.9358 85.641 80.9876 86.0241C80.7338 85.8015 80.4852 85.5634 80.2211 85.3511C79.7706 84.9992 79.2164 84.73 78.6467 84.7714C78.2583 84.8025 77.8647 84.9577 77.5074 85.0923C77.3261 85.1596 77.1448 85.2269 76.9791 85.3149C76.9688 85.3201 76.7875 85.4236 76.9066 85.4133C77.6524 85.3511 78.2738 85.8377 78.8176 86.3191C79.118 86.5831 79.408 86.8627 79.7447 87.0852C80.0761 87.3026 80.4024 87.3544 80.7649 87.2871C80.7908 87.2923 80.8581 87.2768 80.9565 87.2457C81.4226 87.1267 81.8991 86.9765 82.3341 86.7695C82.5102 86.6867 82.6967 86.5987 82.8002 86.4278C83.0022 86.1017 82.8313 85.6255 82.7847 85.2683C82.7795 85.2166 82.7744 85.1596 82.7692 85.1079C82.9038 85.3615 83.0437 85.6203 83.1939 85.8636C83.458 86.2829 83.7842 86.6711 84.2037 86.9351C84.3902 87.0542 84.6077 87.1525 84.8304 87.1525C85.0893 87.1525 85.3535 87.0438 85.5917 86.9714C85.9698 86.8575 86.4048 86.7332 86.7414 86.5107C86.9227 86.3916 86.9952 86.1794 87.0366 85.9723C87.0936 85.6928 87.1247 85.4081 87.1557 85.1286C87.2179 84.5747 87.2541 84.0208 87.2852 83.4618C87.3318 82.6335 87.3629 81.8053 87.4509 80.9874C87.6892 81.3808 87.9222 81.7846 88.1501 82.1884C88.4505 82.7267 88.7301 83.2754 88.9943 83.8293C89.217 84.2952 89.4345 84.761 89.7141 85.1959C89.9783 85.61 90.3201 86.0137 90.7499 86.2518C90.8587 86.3088 90.9778 86.3088 91.0917 86.2933C91.4595 86.2311 91.8271 86.1017 92.1793 85.9723C92.5263 85.8429 92.9199 85.7446 93.0546 85.3563C93.1374 85.1182 93.1219 84.8335 93.1322 84.585C93.1478 84.2745 93.153 83.9639 93.1581 83.6533C93.1633 83.0528 93.1478 82.4575 93.1271 81.8571C93.096 80.9926 93.0442 80.1333 93.0183 79.2689C92.9976 78.5908 92.894 77.7263 93.3601 77.1776C93.4274 77.0999 93.2772 77.1362 93.2462 77.1414C93.0597 77.1724 92.8733 77.2294 92.6869 77.2863C92.4486 77.3588 92.2156 77.4416 91.9877 77.5348C91.8738 77.5503 91.6511 77.6124 91.5734 77.7004Z" fill="url(#paint172_linear_1839_8126)"/>
<path d="M82.3287 86.7538C82.3494 86.7434 82.3701 86.7331 82.3908 86.7227C81.6191 86.7589 80.9925 86.0084 80.9925 86.0084C80.7387 85.7858 80.4901 85.5477 80.226 85.3354C79.7754 84.9834 79.2213 84.7143 78.6516 84.7557C78.2632 84.7867 77.8696 84.942 77.5122 85.0766C77.331 85.1439 77.1497 85.2112 76.984 85.2992C76.9736 85.3044 76.7924 85.4079 76.9115 85.3976C77.6573 85.3354 78.2787 85.822 78.8225 86.3034C79.1229 86.5674 79.4129 86.8469 79.7495 87.0695C80.081 87.2869 80.4073 87.3387 80.7698 87.2714C80.7957 87.2766 80.863 87.2611 80.9614 87.23C81.4223 87.1109 81.8936 86.9608 82.3287 86.7538Z" fill="url(#paint173_linear_1839_8126)"/>
<path d="M85.3843 85.1286C85.3687 85.3097 85.3532 85.4909 85.3325 85.6773C85.0166 85.289 84.7783 84.8387 84.5453 84.3935C84.2812 83.9018 84.0119 83.41 83.6234 83.0062C83.4681 82.8458 83.2557 82.7215 83.033 82.7267C82.7793 82.7267 82.5151 82.8302 82.2769 82.9079C82.0439 82.9855 81.8056 83.0632 81.5778 83.1564C81.469 83.2029 81.3395 83.2444 81.2256 83.3117C81.9092 83.4721 82.6705 84.9215 82.6705 84.9215L82.7689 85.1648C82.7689 85.1389 82.7637 85.1182 82.7585 85.0923C82.8932 85.346 83.033 85.6048 83.1832 85.8481C83.4474 86.2674 83.7736 86.6556 84.1931 86.9196C84.3796 87.0387 84.5971 87.137 84.8198 87.137C84.825 87.137 85.2703 87.1111 85.3843 85.1286Z" fill="url(#paint174_linear_1839_8126)"/>
<path d="M91.3092 84.1966C91.159 83.9223 91.0244 83.6376 90.8897 83.358C90.3615 82.2606 89.7866 81.1891 89.1444 80.1538C88.9891 79.9054 88.8285 79.6569 88.668 79.4085C88.5333 79.2014 88.409 78.9581 88.1915 78.8287C88.0983 78.7717 87.9844 78.7769 87.886 78.7976C87.5183 78.8597 87.1505 78.9892 86.7984 79.1186C86.5653 79.2066 86.296 79.2894 86.094 79.4499C86.0889 79.4499 86.0889 79.455 86.0889 79.455L86.239 79.4292C86.239 79.4292 86.7777 79.512 87.4406 80.9717C87.6788 81.3651 87.9119 81.7689 88.1397 82.1727C88.4401 82.711 88.7198 83.2597 88.9839 83.8136C89.2066 84.2794 89.4241 84.7453 89.7038 85.1801C89.9679 85.5943 90.3097 85.998 90.7396 86.2361C90.7965 86.2672 90.8587 86.2827 90.9208 86.2879C90.983 86.2724 91.2523 86.1274 91.3092 84.1966Z" fill="url(#paint175_linear_1839_8126)"/>
</g>
<defs>
<linearGradient id="paint0_linear_1839_8126" x1="167.961" y1="130.919" x2="172.34" y2="130.919" gradientUnits="userSpaceOnUse">
<stop stop-color="#F8B54A"/>
<stop offset="1" stop-color="#F8A629"/>
</linearGradient>
<linearGradient id="paint1_linear_1839_8126" x1="147.451" y1="158.475" x2="152.099" y2="158.475" gradientUnits="userSpaceOnUse">
<stop stop-color="#B5188D"/>
<stop offset="1" stop-color="#4E69AE"/>
</linearGradient>
<linearGradient id="paint2_linear_1839_8126" x1="110.916" y1="155.012" x2="118.131" y2="155.012" gradientUnits="userSpaceOnUse">
<stop stop-color="#F44274"/>
<stop offset="1" stop-color="#E51F9A"/>
</linearGradient>
<linearGradient id="paint3_linear_1839_8126" x1="98.7643" y1="135.739" x2="102.238" y2="142.594" gradientUnits="userSpaceOnUse">
<stop stop-color="#6DD0E7"/>
<stop offset="1" stop-color="#01A7DB"/>
</linearGradient>
<linearGradient id="paint4_linear_1839_8126" x1="78.4342" y1="140.982" x2="85.1377" y2="140.982" gradientUnits="userSpaceOnUse">
<stop stop-color="#F71873"/>
<stop offset="1" stop-color="#F8A629"/>
</linearGradient>
<linearGradient id="paint5_linear_1839_8126" x1="34.763" y1="116.782" x2="38.0636" y2="108.506" gradientUnits="userSpaceOnUse">
<stop stop-color="#F44274"/>
<stop offset="1" stop-color="#E51F9A"/>
</linearGradient>
<linearGradient id="paint6_linear_1839_8126" x1="15.3029" y1="73.9372" x2="22.9136" y2="73.9372" gradientUnits="userSpaceOnUse">
<stop stop-color="#BE1E68"/>
<stop offset="1" stop-color="#B5188D"/>
</linearGradient>
<linearGradient id="paint7_linear_1839_8126" x1="2.9575" y1="37.4864" x2="9.55889" y2="37.4864" gradientUnits="userSpaceOnUse">
<stop stop-color="#FBE422"/>
<stop offset="1" stop-color="#C8D92B"/>
</linearGradient>
<linearGradient id="paint8_linear_1839_8126" x1="72.1551" y1="155.26" x2="90.5282" y2="155.26" gradientUnits="userSpaceOnUse">
<stop stop-color="#F44274"/>
<stop offset="1" stop-color="#E51F9A"/>
</linearGradient>
<linearGradient id="paint9_linear_1839_8126" x1="63.621" y1="91.296" x2="73.9429" y2="91.296" gradientUnits="userSpaceOnUse">
<stop stop-color="#B4DF86"/>
<stop offset="1" stop-color="#84C743"/>
</linearGradient>
<linearGradient id="paint10_linear_1839_8126" x1="105.791" y1="89.1071" x2="110.705" y2="89.1071" gradientUnits="userSpaceOnUse">
<stop stop-color="#F44274"/>
<stop offset="1" stop-color="#E51F9A"/>
</linearGradient>
<linearGradient id="paint11_linear_1839_8126" x1="143.234" y1="125.89" x2="146.448" y2="125.89" gradientUnits="userSpaceOnUse">
<stop stop-color="#B5188D"/>
<stop offset="1" stop-color="#4E69AE"/>
</linearGradient>
<linearGradient id="paint12_linear_1839_8126" x1="146.997" y1="99.5887" x2="155.914" y2="99.5887" gradientUnits="userSpaceOnUse">
<stop stop-color="#6DD0E7"/>
<stop offset="1" stop-color="#01A7DB"/>
</linearGradient>
<linearGradient id="paint13_linear_1839_8126" x1="166.507" y1="70.6658" x2="173.971" y2="70.6658" gradientUnits="userSpaceOnUse">
<stop stop-color="#B4DF86"/>
<stop offset="1" stop-color="#84C743"/>
</linearGradient>
<linearGradient id="paint14_linear_1839_8126" x1="208.621" y1="97.7963" x2="212.883" y2="97.7963" gradientUnits="userSpaceOnUse">
<stop stop-color="#BE1E68"/>
<stop offset="1" stop-color="#B5188D"/>
</linearGradient>
<linearGradient id="paint15_linear_1839_8126" x1="88.9464" y1="121.453" x2="97.2387" y2="121.453" gradientUnits="userSpaceOnUse">
<stop stop-color="#F44274"/>
<stop offset="1" stop-color="#E51F9A"/>
</linearGradient>
<linearGradient id="paint16_linear_1839_8126" x1="128.745" y1="87.3626" x2="135.364" y2="87.3626" gradientUnits="userSpaceOnUse">
<stop stop-color="#6DD0E7"/>
<stop offset="1" stop-color="#01A7DB"/>
</linearGradient>
<linearGradient id="paint17_linear_1839_8126" x1="164.415" y1="93.9202" x2="169.838" y2="93.9202" gradientUnits="userSpaceOnUse">
<stop stop-color="#BE1E68"/>
<stop offset="1" stop-color="#B5188D"/>
</linearGradient>
<linearGradient id="paint18_linear_1839_8126" x1="219.22" y1="74.1768" x2="225.828" y2="74.1768" gradientUnits="userSpaceOnUse">
<stop stop-color="#B5188D"/>
<stop offset="1" stop-color="#4E69AE"/>
</linearGradient>
<linearGradient id="paint19_linear_1839_8126" x1="75.0404" y1="112.231" x2="82.4473" y2="112.231" gradientUnits="userSpaceOnUse">
<stop stop-color="#B5188D"/>
<stop offset="1" stop-color="#4E69AE"/>
</linearGradient>
<linearGradient id="paint20_linear_1839_8126" x1="105.486" y1="109.736" x2="113.962" y2="109.736" gradientUnits="userSpaceOnUse">
<stop stop-color="#F8B54A"/>
<stop offset="1" stop-color="#F8A629"/>
</linearGradient>
<linearGradient id="paint21_linear_1839_8126" x1="112.093" y1="98.2549" x2="119.225" y2="98.2549" gradientUnits="userSpaceOnUse">
<stop stop-color="#B4DF86"/>
<stop offset="1" stop-color="#84C743"/>
</linearGradient>
<linearGradient id="paint22_linear_1839_8126" x1="172.091" y1="81.4998" x2="181.262" y2="81.4998" gradientUnits="userSpaceOnUse">
<stop stop-color="#F8B54A"/>
<stop offset="1" stop-color="#F8A629"/>
</linearGradient>
<linearGradient id="paint23_linear_1839_8126" x1="187.514" y1="19.7015" x2="193.002" y2="19.7015" gradientUnits="userSpaceOnUse">
<stop stop-color="#6DD0E7"/>
<stop offset="1" stop-color="#01A7DB"/>
</linearGradient>
<linearGradient id="paint24_linear_1839_8126" x1="163.989" y1="-3.31486" x2="170.263" y2="-3.31486" gradientUnits="userSpaceOnUse">
<stop stop-color="#BE1E68"/>
<stop offset="1" stop-color="#B5188D"/>
</linearGradient>
<linearGradient id="paint25_linear_1839_8126" x1="26.7406" y1="179.077" x2="35.7147" y2="179.077" gradientUnits="userSpaceOnUse">
<stop stop-color="#B4DF86"/>
<stop offset="1" stop-color="#84C743"/>
</linearGradient>
<linearGradient id="paint26_linear_1839_8126" x1="84.8333" y1="181.391" x2="92.9875" y2="181.391" gradientUnits="userSpaceOnUse">
<stop stop-color="#FBE422"/>
<stop offset="1" stop-color="#C8D92B"/>
</linearGradient>
<linearGradient id="paint27_linear_1839_8126" x1="104.296" y1="158.167" x2="109.687" y2="158.167" gradientUnits="userSpaceOnUse">
<stop stop-color="#F8B54A"/>
<stop offset="1" stop-color="#F8A629"/>
</linearGradient>
<linearGradient id="paint28_linear_1839_8126" x1="118.108" y1="121.454" x2="123.275" y2="121.454" gradientUnits="userSpaceOnUse">
<stop stop-color="#BE1E68"/>
<stop offset="1" stop-color="#B5188D"/>
</linearGradient>
<linearGradient id="paint29_linear_1839_8126" x1="59.8197" y1="123.114" x2="68.118" y2="123.114" gradientUnits="userSpaceOnUse">
<stop stop-color="#6DD0E7"/>
<stop offset="1" stop-color="#01A7DB"/>
</linearGradient>
<linearGradient id="paint30_linear_1839_8126" x1="58.0688" y1="155.26" x2="63.968" y2="155.26" gradientUnits="userSpaceOnUse">
<stop stop-color="#F44274"/>
<stop offset="1" stop-color="#E51F9A"/>
</linearGradient>
<linearGradient id="paint31_linear_1839_8126" x1="39.515" y1="148.913" x2="47.6232" y2="148.913" gradientUnits="userSpaceOnUse">
<stop stop-color="#B5188D"/>
<stop offset="1" stop-color="#4E69AE"/>
</linearGradient>
<linearGradient id="paint32_linear_1839_8126" x1="7.86918" y1="174.503" x2="12.4734" y2="174.503" gradientUnits="userSpaceOnUse">
<stop stop-color="#BE1E68"/>
<stop offset="1" stop-color="#B5188D"/>
</linearGradient>
<linearGradient id="paint33_linear_1839_8126" x1="52.6643" y1="61.7021" x2="58.1142" y2="61.7021" gradientUnits="userSpaceOnUse">
<stop stop-color="#BE1E68"/>
<stop offset="1" stop-color="#B5188D"/>
</linearGradient>
<linearGradient id="paint34_linear_1839_8126" x1="10.3155" y1="27.6277" x2="17.0619" y2="27.6277" gradientUnits="userSpaceOnUse">
<stop stop-color="#6DD0E7"/>
<stop offset="1" stop-color="#01A7DB"/>
</linearGradient>
<linearGradient id="paint35_linear_1839_8126" x1="120.839" y1="111.274" x2="127.635" y2="111.274" gradientUnits="userSpaceOnUse">
<stop stop-color="#F71873"/>
<stop offset="1" stop-color="#F8A629"/>
</linearGradient>
<linearGradient id="paint36_linear_1839_8126" x1="115.474" y1="74.6302" x2="120.926" y2="74.6302" gradientUnits="userSpaceOnUse">
<stop stop-color="#FBE422"/>
<stop offset="1" stop-color="#C8D92B"/>
</linearGradient>
<linearGradient id="paint37_linear_1839_8126" x1="126.697" y1="57.8849" x2="131.497" y2="57.8849" gradientUnits="userSpaceOnUse">
<stop stop-color="#BE1E68"/>
<stop offset="1" stop-color="#B5188D"/>
</linearGradient>
<linearGradient id="paint38_linear_1839_8126" x1="138.052" y1="36.5506" x2="146.226" y2="36.5506" gradientUnits="userSpaceOnUse">
<stop stop-color="#6DD0E7"/>
<stop offset="1" stop-color="#01A7DB"/>
</linearGradient>
<linearGradient id="paint39_linear_1839_8126" x1="0.892816" y1="68.8486" x2="-4.42205" y2="70.0609" gradientUnits="userSpaceOnUse">
<stop stop-color="#FBE422"/>
<stop offset="1" stop-color="#C8D92B"/>
</linearGradient>
<linearGradient id="paint40_linear_1839_8126" x1="81.589" y1="100.521" x2="87.8807" y2="100.521" gradientUnits="userSpaceOnUse">
<stop stop-color="#FBE422"/>
<stop offset="1" stop-color="#C8D92B"/>
</linearGradient>
<linearGradient id="paint41_linear_1839_8126" x1="124.556" y1="89.7901" x2="130.616" y2="89.7901" gradientUnits="userSpaceOnUse">
<stop stop-color="#BE1E68"/>
<stop offset="1" stop-color="#B5188D"/>
</linearGradient>
<linearGradient id="paint42_linear_1839_8126" x1="143.276" y1="132.996" x2="152.497" y2="132.996" gradientUnits="userSpaceOnUse">
<stop stop-color="#B4DF86"/>
<stop offset="1" stop-color="#84C743"/>
</linearGradient>
<linearGradient id="paint43_linear_1839_8126" x1="198.016" y1="150.062" x2="204.196" y2="150.062" gradientUnits="userSpaceOnUse">
<stop stop-color="#B5188D"/>
<stop offset="1" stop-color="#4E69AE"/>
</linearGradient>
<linearGradient id="paint44_linear_1839_8126" x1="191.682" y1="193.506" x2="206.607" y2="193.506" gradientUnits="userSpaceOnUse">
<stop stop-color="#6DD0E7"/>
<stop offset="1" stop-color="#01A7DB"/>
</linearGradient>
<linearGradient id="paint45_linear_1839_8126" x1="217.949" y1="215.162" x2="224.406" y2="215.162" gradientUnits="userSpaceOnUse">
<stop stop-color="#F71873"/>
<stop offset="1" stop-color="#F8A629"/>
</linearGradient>
<linearGradient id="paint46_linear_1839_8126" x1="211.415" y1="25.3084" x2="217.666" y2="25.3084" gradientUnits="userSpaceOnUse">
<stop stop-color="#FBE422"/>
<stop offset="1" stop-color="#C8D92B"/>
</linearGradient>
<linearGradient id="paint47_linear_1839_8126" x1="161.503" y1="18.4587" x2="167.323" y2="18.4587" gradientUnits="userSpaceOnUse">
<stop stop-color="#F71873"/>
<stop offset="1" stop-color="#C6211B"/>
</linearGradient>
<linearGradient id="paint48_linear_1839_8126" x1="136.539" y1="9.10733" x2="141.111" y2="9.10733" gradientUnits="userSpaceOnUse">
<stop stop-color="#F71873"/>
<stop offset="1" stop-color="#F8A629"/>
</linearGradient>
<linearGradient id="paint49_linear_1839_8126" x1="88.0646" y1="57.2935" x2="92.8458" y2="57.2935" gradientUnits="userSpaceOnUse">
<stop stop-color="#6DD0E7"/>
<stop offset="1" stop-color="#01A7DB"/>
</linearGradient>
<linearGradient id="paint50_linear_1839_8126" x1="-6.04099" y1="213.048" x2="0.209525" y2="213.048" gradientUnits="userSpaceOnUse">
<stop stop-color="#FBE422"/>
<stop offset="1" stop-color="#C8D92B"/>
</linearGradient>
<linearGradient id="paint51_linear_1839_8126" x1="234.014" y1="117.759" x2="240.431" y2="117.759" gradientUnits="userSpaceOnUse">
<stop stop-color="#FBE422"/>
<stop offset="1" stop-color="#C8D92B"/>
</linearGradient>
<linearGradient id="paint52_linear_1839_8126" x1="216.375" y1="58.4847" x2="222.543" y2="58.4847" gradientUnits="userSpaceOnUse">
<stop stop-color="#6DD0E7"/>
<stop offset="1" stop-color="#01A7DB"/>
</linearGradient>
<linearGradient id="paint53_linear_1839_8126" x1="156.377" y1="71.4577" x2="163.785" y2="71.4577" gradientUnits="userSpaceOnUse">
<stop stop-color="#F71873"/>
<stop offset="1" stop-color="#F8A629"/>
</linearGradient>
<linearGradient id="paint54_linear_1839_8126" x1="160.687" y1="41.5837" x2="166.21" y2="41.5837" gradientUnits="userSpaceOnUse">
<stop stop-color="#F8B54A"/>
<stop offset="1" stop-color="#F8A629"/>
</linearGradient>
<linearGradient id="paint55_linear_1839_8126" x1="128.525" y1="70.5804" x2="134.127" y2="70.5804" gradientUnits="userSpaceOnUse">
<stop stop-color="#F71873"/>
<stop offset="1" stop-color="#C6211B"/>
</linearGradient>
<linearGradient id="paint56_linear_1839_8126" x1="107.409" y1="196.42" x2="113.259" y2="196.42" gradientUnits="userSpaceOnUse">
<stop stop-color="#B4DF86"/>
<stop offset="1" stop-color="#84C743"/>
</linearGradient>
<linearGradient id="paint57_linear_1839_8126" x1="164.558" y1="213.858" x2="170.975" y2="213.858" gradientUnits="userSpaceOnUse">
<stop stop-color="#FBE422"/>
<stop offset="1" stop-color="#C8D92B"/>
</linearGradient>
<linearGradient id="paint58_linear_1839_8126" x1="175.369" y1="163.582" x2="182.777" y2="163.582" gradientUnits="userSpaceOnUse">
<stop stop-color="#F71873"/>
<stop offset="1" stop-color="#F8A629"/>
</linearGradient>
<linearGradient id="paint59_linear_1839_8126" x1="108.712" y1="21.5725" x2="109.963" y2="17.4586" gradientUnits="userSpaceOnUse">
<stop stop-color="#F8B54A"/>
<stop offset="1" stop-color="#F8A629"/>
</linearGradient>
<linearGradient id="paint60_linear_1839_8126" x1="107.381" y1="50.4655" x2="111.214" y2="51.315" gradientUnits="userSpaceOnUse">
<stop stop-color="#F71873"/>
<stop offset="1" stop-color="#F8A629"/>
</linearGradient>
<linearGradient id="paint61_linear_1839_8126" x1="70.9205" y1="58.1404" x2="76.1453" y2="58.1404" gradientUnits="userSpaceOnUse">
<stop stop-color="#BE1E68"/>
<stop offset="1" stop-color="#B5188D"/>
</linearGradient>
<linearGradient id="paint62_linear_1839_8126" x1="100.015" y1="61.0669" x2="104.812" y2="61.0669" gradientUnits="userSpaceOnUse">
<stop stop-color="#F71873"/>
<stop offset="1" stop-color="#F8A629"/>
</linearGradient>
<linearGradient id="paint63_linear_1839_8126" x1="100.152" y1="60.9217" x2="104.812" y2="60.9217" gradientUnits="userSpaceOnUse">
<stop stop-color="#F71873"/>
<stop offset="1" stop-color="#F8A629"/>
</linearGradient>
<linearGradient id="paint64_linear_1839_8126" x1="145.942" y1="30.6464" x2="152.009" y2="30.6464" gradientUnits="userSpaceOnUse">
<stop stop-color="#F8B54A"/>
<stop offset="1" stop-color="#F8A629"/>
</linearGradient>
<linearGradient id="paint65_linear_1839_8126" x1="146.094" y1="30.4551" x2="152.009" y2="30.4551" gradientUnits="userSpaceOnUse">
<stop stop-color="#F8B54A"/>
<stop offset="1" stop-color="#F8A629"/>
</linearGradient>
<linearGradient id="paint66_linear_1839_8126" x1="19.0576" y1="94.6942" x2="25.6392" y2="94.6942" gradientUnits="userSpaceOnUse">
<stop stop-color="#6DD0E7"/>
<stop offset="1" stop-color="#01A7DB"/>
</linearGradient>
<linearGradient id="paint67_linear_1839_8126" x1="14.7295" y1="57.1433" x2="23.3852" y2="57.1433" gradientUnits="userSpaceOnUse">
<stop stop-color="#F8B54A"/>
<stop offset="1" stop-color="#F8A629"/>
</linearGradient>
<linearGradient id="paint68_linear_1839_8126" x1="145.411" y1="170.565" x2="150.919" y2="170.565" gradientUnits="userSpaceOnUse">
<stop stop-color="#BE1E68"/>
<stop offset="1" stop-color="#B5188D"/>
</linearGradient>
<linearGradient id="paint69_linear_1839_8126" x1="218.224" y1="172.984" x2="225.217" y2="172.984" gradientUnits="userSpaceOnUse">
<stop stop-color="#F71873"/>
<stop offset="1" stop-color="#F8A629"/>
</linearGradient>
<linearGradient id="paint70_linear_1839_8126" x1="246.507" y1="142.43" x2="250.962" y2="142.43" gradientUnits="userSpaceOnUse">
<stop stop-color="#B4DF86"/>
<stop offset="1" stop-color="#84C743"/>
</linearGradient>
<linearGradient id="paint71_linear_1839_8126" x1="88.4927" y1="23.1235" x2="95.2566" y2="24.897" gradientUnits="userSpaceOnUse">
<stop stop-color="#F71873"/>
<stop offset="1" stop-color="#F8A629"/>
</linearGradient>
<linearGradient id="paint72_linear_1839_8126" x1="117.051" y1="5.54888" x2="121.361" y2="6.67885" gradientUnits="userSpaceOnUse">
<stop stop-color="#B4DF86"/>
<stop offset="1" stop-color="#84C743"/>
</linearGradient>
<linearGradient id="paint73_linear_1839_8126" x1="121.229" y1="39.6053" x2="126.6" y2="39.6053" gradientUnits="userSpaceOnUse">
<stop stop-color="#B4DF86"/>
<stop offset="1" stop-color="#84C743"/>
</linearGradient>
<linearGradient id="paint74_linear_1839_8126" x1="55.8883" y1="25.1653" x2="62.0057" y2="25.1653" gradientUnits="userSpaceOnUse">
<stop stop-color="#FBE422"/>
<stop offset="1" stop-color="#C8D92B"/>
</linearGradient>
<linearGradient id="paint75_linear_1839_8126" x1="155.243" y1="190.372" x2="162.282" y2="190.372" gradientUnits="userSpaceOnUse">
<stop stop-color="#F44274"/>
<stop offset="1" stop-color="#E51F9A"/>
</linearGradient>
<linearGradient id="paint76_linear_1839_8126" x1="127.665" y1="204.237" x2="132.816" y2="204.237" gradientUnits="userSpaceOnUse">
<stop stop-color="#B5188D"/>
<stop offset="1" stop-color="#4E69AE"/>
</linearGradient>
<linearGradient id="paint77_linear_1839_8126" x1="13.4147" y1="148.304" x2="22.5461" y2="124.497" gradientUnits="userSpaceOnUse">
<stop stop-color="#F71873"/>
<stop offset="1" stop-color="#C6211B"/>
</linearGradient>
<linearGradient id="paint78_linear_1839_8126" x1="128.675" y1="172.189" x2="123.955" y2="180.473" gradientUnits="userSpaceOnUse">
<stop stop-color="#6DD0E7"/>
<stop offset="1" stop-color="#01A7DB"/>
</linearGradient>
<linearGradient id="paint79_linear_1839_8126" x1="150.877" y1="86.0089" x2="157.657" y2="86.0089" gradientUnits="userSpaceOnUse">
<stop stop-color="#F71873"/>
<stop offset="1" stop-color="#C6211B"/>
</linearGradient>
<linearGradient id="paint80_linear_1839_8126" x1="118.303" y1="24.4463" x2="129.99" y2="31.9297" gradientUnits="userSpaceOnUse">
<stop stop-color="#F71873"/>
<stop offset="1" stop-color="#F8A629"/>
</linearGradient>
<linearGradient id="paint81_linear_1839_8126" x1="199.958" y1="132.728" x2="186.287" y2="142.479" gradientUnits="userSpaceOnUse">
<stop stop-color="#FBE422"/>
<stop offset="1" stop-color="#C8D92B"/>
</linearGradient>
<linearGradient id="paint82_linear_1839_8126" x1="34.8099" y1="41.4692" x2="27.9124" y2="32.1866" gradientUnits="userSpaceOnUse">
<stop stop-color="#BE1E68"/>
<stop offset="1" stop-color="#B5188D"/>
</linearGradient>
<linearGradient id="paint83_linear_1839_8126" x1="201.269" y1="112.162" x2="201.269" y2="98.0375" gradientUnits="userSpaceOnUse">
<stop stop-color="#B5188D"/>
<stop offset="1" stop-color="#4E69AE"/>
</linearGradient>
<linearGradient id="paint84_linear_1839_8126" x1="78.0571" y1="188.064" x2="60.9957" y2="186.544" gradientUnits="userSpaceOnUse">
<stop stop-color="#F8B54A"/>
<stop offset="1" stop-color="#F8A629"/>
</linearGradient>
<linearGradient id="paint85_linear_1839_8126" x1="70.4589" y1="49.9946" x2="85.8392" y2="37.2094" gradientUnits="userSpaceOnUse">
<stop stop-color="#F71873"/>
<stop offset="1" stop-color="#C6211B"/>
</linearGradient>
<linearGradient id="paint86_linear_1839_8126" x1="48.8624" y1="136.896" x2="47.9307" y2="137.363" gradientUnits="userSpaceOnUse">
<stop stop-color="#F8B54A"/>
<stop offset="1" stop-color="#F8A629"/>
</linearGradient>
<linearGradient id="paint87_linear_1839_8126" x1="50.2869" y1="128.847" x2="49.2983" y2="129.342" gradientUnits="userSpaceOnUse">
<stop stop-color="#B5188D"/>
<stop offset="1" stop-color="#4E69AE"/>
</linearGradient>
<linearGradient id="paint88_linear_1839_8126" x1="58.4304" y1="125.69" x2="56.8954" y2="126.459" gradientUnits="userSpaceOnUse">
<stop stop-color="#F44274"/>
<stop offset="1" stop-color="#E51F9A"/>
</linearGradient>
<linearGradient id="paint89_linear_1839_8126" x1="63.995" y1="128.478" x2="62.3262" y2="127.243" gradientUnits="userSpaceOnUse">
<stop stop-color="#6DD0E7"/>
<stop offset="1" stop-color="#01A7DB"/>
</linearGradient>
<linearGradient id="paint90_linear_1839_8126" x1="66.8378" y1="125.213" x2="65.4117" y2="125.928" gradientUnits="userSpaceOnUse">
<stop stop-color="#F71873"/>
<stop offset="1" stop-color="#F8A629"/>
</linearGradient>
<linearGradient id="paint91_linear_1839_8126" x1="76.5235" y1="123.618" x2="75.37" y2="124.197" gradientUnits="userSpaceOnUse">
<stop stop-color="#F44274"/>
<stop offset="1" stop-color="#E51F9A"/>
</linearGradient>
<linearGradient id="paint92_linear_1839_8126" x1="87.4236" y1="132.75" x2="85.8045" y2="133.562" gradientUnits="userSpaceOnUse">
<stop stop-color="#BE1E68"/>
<stop offset="1" stop-color="#B5188D"/>
</linearGradient>
<linearGradient id="paint93_linear_1839_8126" x1="93.9401" y1="139.19" x2="92.5357" y2="139.894" gradientUnits="userSpaceOnUse">
<stop stop-color="#FBE422"/>
<stop offset="1" stop-color="#C8D92B"/>
</linearGradient>
<linearGradient id="paint94_linear_1839_8126" x1="212.395" y1="116.333" x2="211.178" y2="117.852" gradientUnits="userSpaceOnUse">
<stop stop-color="#F44274"/>
<stop offset="1" stop-color="#E51F9A"/>
</linearGradient>
<linearGradient id="paint95_linear_1839_8126" x1="212.422" y1="116.403" x2="211.228" y2="117.892" gradientUnits="userSpaceOnUse">
<stop stop-color="#F44274"/>
<stop offset="1" stop-color="#E51F9A"/>
</linearGradient>
<linearGradient id="paint96_linear_1839_8126" x1="224.648" y1="125.518" x2="223.31" y2="127.187" gradientUnits="userSpaceOnUse">
<stop stop-color="#B4DF86"/>
<stop offset="1" stop-color="#84C743"/>
</linearGradient>
<linearGradient id="paint97_linear_1839_8126" x1="218.498" y1="133.446" x2="217.766" y2="134.359" gradientUnits="userSpaceOnUse">
<stop stop-color="#F44274"/>
<stop offset="1" stop-color="#E51F9A"/>
</linearGradient>
<linearGradient id="paint98_linear_1839_8126" x1="206.089" y1="134.92" x2="205.611" y2="135.517" gradientUnits="userSpaceOnUse">
<stop stop-color="#B5188D"/>
<stop offset="1" stop-color="#4E69AE"/>
</linearGradient>
<linearGradient id="paint99_linear_1839_8126" x1="210.415" y1="139.534" x2="209.089" y2="141.19" gradientUnits="userSpaceOnUse">
<stop stop-color="#6DD0E7"/>
<stop offset="1" stop-color="#01A7DB"/>
</linearGradient>
<linearGradient id="paint100_linear_1839_8126" x1="212.885" y1="147.461" x2="211.775" y2="148.847" gradientUnits="userSpaceOnUse">
<stop stop-color="#B4DF86"/>
<stop offset="1" stop-color="#84C743"/>
</linearGradient>
<linearGradient id="paint101_linear_1839_8126" x1="201.574" y1="151.239" x2="200.94" y2="152.03" gradientUnits="userSpaceOnUse">
<stop stop-color="#BE1E68"/>
<stop offset="1" stop-color="#B5188D"/>
</linearGradient>
<linearGradient id="paint102_linear_1839_8126" x1="123.232" y1="159.128" x2="121.468" y2="160.013" gradientUnits="userSpaceOnUse">
<stop stop-color="#F44274"/>
<stop offset="1" stop-color="#E51F9A"/>
</linearGradient>
<linearGradient id="paint103_linear_1839_8126" x1="118.4" y1="170.624" x2="116.992" y2="171.33" gradientUnits="userSpaceOnUse">
<stop stop-color="#6DD0E7"/>
<stop offset="1" stop-color="#01A7DB"/>
</linearGradient>
<linearGradient id="paint104_linear_1839_8126" x1="110.111" y1="173.03" x2="108.957" y2="173.609" gradientUnits="userSpaceOnUse">
<stop stop-color="#BE1E68"/>
<stop offset="1" stop-color="#B5188D"/>
</linearGradient>
<linearGradient id="paint105_linear_1839_8126" x1="100.556" y1="183.073" x2="99.1504" y2="183.777" gradientUnits="userSpaceOnUse">
<stop stop-color="#B5188D"/>
<stop offset="1" stop-color="#4E69AE"/>
</linearGradient>
<linearGradient id="paint106_linear_1839_8126" x1="96.4823" y1="195.127" x2="94.8789" y2="195.931" gradientUnits="userSpaceOnUse">
<stop stop-color="#FBE422"/>
<stop offset="1" stop-color="#C8D92B"/>
</linearGradient>
<linearGradient id="paint107_linear_1839_8126" x1="159.379" y1="37.728" x2="157.803" y2="38.518" gradientUnits="userSpaceOnUse">
<stop stop-color="#B5188D"/>
<stop offset="1" stop-color="#4E69AE"/>
</linearGradient>
<linearGradient id="paint108_linear_1839_8126" x1="153.166" y1="41.5038" x2="151.363" y2="42.4079" gradientUnits="userSpaceOnUse">
<stop stop-color="#F8B54A"/>
<stop offset="1" stop-color="#F8A629"/>
</linearGradient>
<linearGradient id="paint109_linear_1839_8126" x1="152.986" y1="44.6515" x2="151.469" y2="45.4122" gradientUnits="userSpaceOnUse">
<stop stop-color="#B4DF86"/>
<stop offset="1" stop-color="#84C743"/>
</linearGradient>
<linearGradient id="paint110_linear_1839_8126" x1="142.006" y1="54.6108" x2="140.055" y2="55.5889" gradientUnits="userSpaceOnUse">
<stop stop-color="#F8B54A"/>
<stop offset="1" stop-color="#F8A629"/>
</linearGradient>
<linearGradient id="paint111_linear_1839_8126" x1="145.319" y1="69.4047" x2="144.151" y2="69.9901" gradientUnits="userSpaceOnUse">
<stop stop-color="#6DD0E7"/>
<stop offset="1" stop-color="#01A7DB"/>
</linearGradient>
<linearGradient id="paint112_linear_1839_8126" x1="152.779" y1="71.7943" x2="151.444" y2="72.4636" gradientUnits="userSpaceOnUse">
<stop stop-color="#BE1E68"/>
<stop offset="1" stop-color="#B5188D"/>
</linearGradient>
<linearGradient id="paint113_linear_1839_8126" x1="102.083" y1="38.6638" x2="100.174" y2="39.6209" gradientUnits="userSpaceOnUse">
<stop stop-color="#B4DF86"/>
<stop offset="1" stop-color="#84C743"/>
</linearGradient>
<linearGradient id="paint114_linear_1839_8126" x1="89.474" y1="44.3631" x2="87.7392" y2="45.2329" gradientUnits="userSpaceOnUse">
<stop stop-color="#FBE422"/>
<stop offset="1" stop-color="#C8D92B"/>
</linearGradient>
<linearGradient id="paint115_linear_1839_8126" x1="87.8103" y1="51.379" x2="86.6635" y2="51.9539" gradientUnits="userSpaceOnUse">
<stop stop-color="#F8B54A"/>
<stop offset="1" stop-color="#F8A629"/>
</linearGradient>
<linearGradient id="paint116_linear_1839_8126" x1="88.7881" y1="60.6631" x2="87.6887" y2="61.2142" gradientUnits="userSpaceOnUse">
<stop stop-color="#BE1E68"/>
<stop offset="1" stop-color="#B5188D"/>
</linearGradient>
<linearGradient id="paint117_linear_1839_8126" x1="159.39" y1="156.463" x2="157.625" y2="157.348" gradientUnits="userSpaceOnUse">
<stop stop-color="#6DD0E7"/>
<stop offset="1" stop-color="#01A7DB"/>
</linearGradient>
<linearGradient id="paint118_linear_1839_8126" x1="156.334" y1="149.436" x2="155.079" y2="150.065" gradientUnits="userSpaceOnUse">
<stop stop-color="#F44274"/>
<stop offset="1" stop-color="#E51F9A"/>
</linearGradient>
<linearGradient id="paint119_linear_1839_8126" x1="160.96" y1="148.809" x2="159.235" y2="149.673" gradientUnits="userSpaceOnUse">
<stop stop-color="#B5188D"/>
<stop offset="1" stop-color="#4E69AE"/>
</linearGradient>
<linearGradient id="paint120_linear_1839_8126" x1="164.963" y1="139.991" x2="163.983" y2="140.482" gradientUnits="userSpaceOnUse">
<stop stop-color="#BE1E68"/>
<stop offset="1" stop-color="#B5188D"/>
</linearGradient>
<linearGradient id="paint121_linear_1839_8126" x1="176.24" y1="140.146" x2="175.488" y2="140.523" gradientUnits="userSpaceOnUse">
<stop stop-color="#F8B54A"/>
<stop offset="1" stop-color="#F8A629"/>
</linearGradient>
<linearGradient id="paint122_linear_1839_8126" x1="140.872" y1="126.87" x2="139.713" y2="127.451" gradientUnits="userSpaceOnUse">
<stop stop-color="#BE1E68"/>
<stop offset="1" stop-color="#B5188D"/>
</linearGradient>
<linearGradient id="paint123_linear_1839_8126" x1="153.519" y1="129.607" x2="152.083" y2="130.326" gradientUnits="userSpaceOnUse">
<stop stop-color="#6DD0E7"/>
<stop offset="1" stop-color="#01A7DB"/>
</linearGradient>
<linearGradient id="paint124_linear_1839_8126" x1="132.206" y1="109.657" x2="130.76" y2="110.382" gradientUnits="userSpaceOnUse">
<stop stop-color="#F71873"/>
<stop offset="1" stop-color="#F8A629"/>
</linearGradient>
<linearGradient id="paint125_linear_1839_8126" x1="137.427" y1="117.222" x2="135.725" y2="118.076" gradientUnits="userSpaceOnUse">
<stop stop-color="#FBE422"/>
<stop offset="1" stop-color="#C8D92B"/>
</linearGradient>
<linearGradient id="paint126_linear_1839_8126" x1="136.655" y1="121.642" x2="135.634" y2="122.154" gradientUnits="userSpaceOnUse">
<stop stop-color="#BE1E68"/>
<stop offset="1" stop-color="#B5188D"/>
</linearGradient>
<linearGradient id="paint127_linear_1839_8126" x1="135.424" y1="127.935" x2="133.796" y2="128.751" gradientUnits="userSpaceOnUse">
<stop stop-color="#6DD0E7"/>
<stop offset="1" stop-color="#01A7DB"/>
</linearGradient>
<linearGradient id="paint128_linear_1839_8126" x1="109.248" y1="78.9275" x2="107.909" y2="79.5986" gradientUnits="userSpaceOnUse">
<stop stop-color="#FBE422"/>
<stop offset="1" stop-color="#C8D92B"/>
</linearGradient>
<linearGradient id="paint129_linear_1839_8126" x1="101.249" y1="85.7906" x2="99.96" y2="86.4369" gradientUnits="userSpaceOnUse">
<stop stop-color="#BE1E68"/>
<stop offset="1" stop-color="#B5188D"/>
</linearGradient>
<linearGradient id="paint130_linear_1839_8126" x1="92.6565" y1="78.5923" x2="90.6948" y2="79.5759" gradientUnits="userSpaceOnUse">
<stop stop-color="#B4DF86"/>
<stop offset="1" stop-color="#84C743"/>
</linearGradient>
<linearGradient id="paint131_linear_1839_8126" x1="79.1878" y1="80.7959" x2="77.8732" y2="81.455" gradientUnits="userSpaceOnUse">
<stop stop-color="#B5188D"/>
<stop offset="1" stop-color="#4E69AE"/>
</linearGradient>
<linearGradient id="paint132_linear_1839_8126" x1="75.9524" y1="70.9784" x2="74.0894" y2="71.9124" gradientUnits="userSpaceOnUse">
<stop stop-color="#6DD0E7"/>
<stop offset="1" stop-color="#01A7DB"/>
</linearGradient>
<linearGradient id="paint133_linear_1839_8126" x1="68.001" y1="69.0677" x2="66.6272" y2="69.7565" gradientUnits="userSpaceOnUse">
<stop stop-color="#F71873"/>
<stop offset="1" stop-color="#F8A629"/>
</linearGradient>
<linearGradient id="paint134_linear_1839_8126" x1="110.978" y1="151.534" x2="109.648" y2="152.201" gradientUnits="userSpaceOnUse">
<stop stop-color="#FBE422"/>
<stop offset="1" stop-color="#C8D92B"/>
</linearGradient>
<linearGradient id="paint135_linear_1839_8126" x1="122.329" y1="147.672" x2="121.091" y2="148.293" gradientUnits="userSpaceOnUse">
<stop stop-color="#F71873"/>
<stop offset="1" stop-color="#C6211B"/>
</linearGradient>
<linearGradient id="paint136_linear_1839_8126" x1="128.638" y1="147.001" x2="127.665" y2="147.488" gradientUnits="userSpaceOnUse">
<stop stop-color="#F71873"/>
<stop offset="1" stop-color="#F8A629"/>
</linearGradient>
<linearGradient id="paint137_linear_1839_8126" x1="133.811" y1="131.581" x2="132.794" y2="132.091" gradientUnits="userSpaceOnUse">
<stop stop-color="#6DD0E7"/>
<stop offset="1" stop-color="#01A7DB"/>
</linearGradient>
<linearGradient id="paint138_linear_1839_8126" x1="7.35334" y1="82.0304" x2="6.10872" y2="82.6544" gradientUnits="userSpaceOnUse">
<stop stop-color="#F87D5E"/>
<stop offset="1" stop-color="#EB622C"/>
</linearGradient>
<linearGradient id="paint139_linear_1839_8126" x1="9.47457" y1="74.8309" x2="8.10923" y2="75.5155" gradientUnits="userSpaceOnUse">
<stop stop-color="#FBE422"/>
<stop offset="1" stop-color="#C8D92B"/>
</linearGradient>
<linearGradient id="paint140_linear_1839_8126" x1="20.0556" y1="85.8247" x2="18.7433" y2="86.4826" gradientUnits="userSpaceOnUse">
<stop stop-color="#6DD0E7"/>
<stop offset="1" stop-color="#01A7DB"/>
</linearGradient>
<linearGradient id="paint141_linear_1839_8126" x1="30.9339" y1="75.5989" x2="29.4031" y2="76.3663" gradientUnits="userSpaceOnUse">
<stop stop-color="#F71873"/>
<stop offset="1" stop-color="#F8A629"/>
</linearGradient>
<linearGradient id="paint142_linear_1839_8126" x1="33.7073" y1="83.4851" x2="32.5323" y2="84.0743" gradientUnits="userSpaceOnUse">
<stop stop-color="#F8B54A"/>
<stop offset="1" stop-color="#F8A629"/>
</linearGradient>
<linearGradient id="paint143_linear_1839_8126" x1="37.4579" y1="73.8874" x2="36.2662" y2="74.4849" gradientUnits="userSpaceOnUse">
<stop stop-color="#F71873"/>
<stop offset="1" stop-color="#C6211B"/>
</linearGradient>
<linearGradient id="paint144_linear_1839_8126" x1="172.375" y1="109.869" x2="171.133" y2="110.492" gradientUnits="userSpaceOnUse">
<stop stop-color="#F8B54A"/>
<stop offset="1" stop-color="#F8A629"/>
</linearGradient>
<linearGradient id="paint145_linear_1839_8126" x1="182.25" y1="106.581" x2="180.908" y2="107.254" gradientUnits="userSpaceOnUse">
<stop stop-color="#F71873"/>
<stop offset="1" stop-color="#F8A629"/>
</linearGradient>
<linearGradient id="paint146_linear_1839_8126" x1="174.822" y1="89.874" x2="173.711" y2="90.4313" gradientUnits="userSpaceOnUse">
<stop stop-color="#BE1E68"/>
<stop offset="1" stop-color="#B5188D"/>
</linearGradient>
<linearGradient id="paint147_linear_1839_8126" x1="130.867" y1="132.051" x2="129.846" y2="132.563" gradientUnits="userSpaceOnUse">
<stop stop-color="#F71873"/>
<stop offset="1" stop-color="#F8A629"/>
</linearGradient>
<linearGradient id="paint148_linear_1839_8126" x1="130.853" y1="132.097" x2="129.862" y2="132.594" gradientUnits="userSpaceOnUse">
<stop stop-color="#F71873"/>
<stop offset="1" stop-color="#F8A629"/>
</linearGradient>
<linearGradient id="paint149_linear_1839_8126" x1="124.339" y1="143.419" x2="123.049" y2="144.066" gradientUnits="userSpaceOnUse">
<stop stop-color="#F8B54A"/>
<stop offset="1" stop-color="#F8A629"/>
</linearGradient>
<linearGradient id="paint150_linear_1839_8126" x1="124.328" y1="143.477" x2="123.07" y2="144.107" gradientUnits="userSpaceOnUse">
<stop stop-color="#F8B54A"/>
<stop offset="1" stop-color="#F8A629"/>
</linearGradient>
<linearGradient id="paint151_linear_1839_8126" x1="136.923" y1="145.425" x2="135.66" y2="146.059" gradientUnits="userSpaceOnUse">
<stop stop-color="#6DD0E7"/>
<stop offset="1" stop-color="#01A7DB"/>
</linearGradient>
<linearGradient id="paint152_linear_1839_8126" x1="136.938" y1="145.456" x2="135.734" y2="146.059" gradientUnits="userSpaceOnUse">
<stop stop-color="#6DD0E7"/>
<stop offset="1" stop-color="#01A7DB"/>
</linearGradient>
<linearGradient id="paint153_linear_1839_8126" x1="160.604" y1="86.2608" x2="159.56" y2="86.7842" gradientUnits="userSpaceOnUse">
<stop stop-color="#F44274"/>
<stop offset="1" stop-color="#E51F9A"/>
</linearGradient>
<linearGradient id="paint154_linear_1839_8126" x1="163.886" y1="97.418" x2="162.486" y2="98.12" gradientUnits="userSpaceOnUse">
<stop stop-color="#6DD0E7"/>
<stop offset="1" stop-color="#01A7DB"/>
</linearGradient>
<linearGradient id="paint155_linear_1839_8126" x1="164.526" y1="104.755" x2="162.684" y2="105.678" gradientUnits="userSpaceOnUse">
<stop stop-color="#F8B54A"/>
<stop offset="1" stop-color="#F8A629"/>
</linearGradient>
<linearGradient id="paint156_linear_1839_8126" x1="79.5672" y1="104.907" x2="78.3954" y2="105.495" gradientUnits="userSpaceOnUse">
<stop stop-color="#BE1E68"/>
<stop offset="1" stop-color="#B5188D"/>
</linearGradient>
<linearGradient id="paint157_linear_1839_8126" x1="63.8143" y1="112.153" x2="62.3267" y2="112.899" gradientUnits="userSpaceOnUse">
<stop stop-color="#F71873"/>
<stop offset="1" stop-color="#F8A629"/>
</linearGradient>
<linearGradient id="paint158_linear_1839_8126" x1="61.0569" y1="121.669" x2="60.1091" y2="122.145" gradientUnits="userSpaceOnUse">
<stop stop-color="#B4DF86"/>
<stop offset="1" stop-color="#84C743"/>
</linearGradient>
<linearGradient id="paint159_linear_1839_8126" x1="128.642" y1="138.879" x2="127.499" y2="139.452" gradientUnits="userSpaceOnUse">
<stop stop-color="#B4DF86"/>
<stop offset="1" stop-color="#84C743"/>
</linearGradient>
<linearGradient id="paint160_linear_1839_8126" x1="139.736" y1="135.977" x2="138.629" y2="136.532" gradientUnits="userSpaceOnUse">
<stop stop-color="#F71873"/>
<stop offset="1" stop-color="#C6211B"/>
</linearGradient>
<linearGradient id="paint161_linear_1839_8126" x1="147.865" y1="144.148" x2="146.563" y2="144.8" gradientUnits="userSpaceOnUse">
<stop stop-color="#FBE422"/>
<stop offset="1" stop-color="#C8D92B"/>
</linearGradient>
<linearGradient id="paint162_linear_1839_8126" x1="98.6856" y1="82.6648" x2="97.1881" y2="83.4156" gradientUnits="userSpaceOnUse">
<stop stop-color="#F44274"/>
<stop offset="1" stop-color="#E51F9A"/>
</linearGradient>
<linearGradient id="paint163_linear_1839_8126" x1="103.075" y1="76.7752" x2="101.98" y2="77.3246" gradientUnits="userSpaceOnUse">
<stop stop-color="#B5188D"/>
<stop offset="1" stop-color="#4E69AE"/>
</linearGradient>
<linearGradient id="paint164_linear_1839_8126" x1="108.91" y1="66.7883" x2="107.591" y2="67.4493" gradientUnits="userSpaceOnUse">
<stop stop-color="#F44274"/>
<stop offset="1" stop-color="#E51F9A"/>
</linearGradient>
<linearGradient id="paint165_linear_1839_8126" x1="112.454" y1="67.334" x2="111.013" y2="68.0564" gradientUnits="userSpaceOnUse">
<stop stop-color="#6DD0E7"/>
<stop offset="1" stop-color="#01A7DB"/>
</linearGradient>
<linearGradient id="paint166_linear_1839_8126" x1="52.4225" y1="176.872" x2="47.8097" y2="189.737" gradientUnits="userSpaceOnUse">
<stop stop-color="#F44274"/>
<stop offset="1" stop-color="#E51F9A"/>
</linearGradient>
<linearGradient id="paint167_linear_1839_8126" x1="193.961" y1="42.9585" x2="200.377" y2="63.567" gradientUnits="userSpaceOnUse">
<stop stop-color="#F44274"/>
<stop offset="1" stop-color="#E51F9A"/>
</linearGradient>
<linearGradient id="paint168_linear_1839_8126" x1="187.525" y1="69.9948" x2="231.417" y2="38.7484" gradientUnits="userSpaceOnUse">
<stop stop-color="#B5188D"/>
<stop offset="1" stop-color="#4E69AE"/>
</linearGradient>
<linearGradient id="paint169_linear_1839_8126" x1="168.333" y1="116.692" x2="151.699" y2="124.055" gradientUnits="userSpaceOnUse">
<stop stop-color="#6DD0E7"/>
<stop offset="1" stop-color="#01A7DB"/>
</linearGradient>
<linearGradient id="paint170_linear_1839_8126" x1="164.975" y1="133.909" x2="165.291" y2="121.673" gradientUnits="userSpaceOnUse">
<stop stop-color="#6DD0E7"/>
<stop offset="1" stop-color="#01A7DB"/>
</linearGradient>
<linearGradient id="paint171_linear_1839_8126" x1="225.912" y1="160.476" x2="225.899" y2="160.484" gradientUnits="userSpaceOnUse">
<stop offset="0.00428792" stop-color="#640008"/>
<stop offset="0.00668216" stop-color="#6D010A"/>
<stop offset="0.0179" stop-color="#900411"/>
<stop offset="0.0298" stop-color="#AE0617"/>
<stop offset="0.0424" stop-color="#C4081B"/>
<stop offset="0.0559" stop-color="#D4091E"/>
<stop offset="0.0711" stop-color="#DE0A20"/>
<stop offset="0.0914" stop-color="#E10A21"/>
<stop offset="0.1484" stop-color="#A30718"/>
<stop offset="0.2258" stop-color="#52040C"/>
<stop offset="0.2992" stop-color="#820613"/>
<stop offset="0.3726" stop-color="#AB0819"/>
<stop offset="0.4392" stop-color="#C9091D"/>
<stop offset="0.4964" stop-color="#DB0A20"/>
<stop offset="0.5376" stop-color="#E10A21"/>
<stop offset="0.7688" stop-color="#62040E"/>
<stop offset="0.7714" stop-color="#66040F"/>
<stop offset="0.8119" stop-color="#9A0716"/>
<stop offset="0.847" stop-color="#C1081C"/>
<stop offset="0.875" stop-color="#D80A20"/>
<stop offset="0.8925" stop-color="#E10A21"/>
<stop offset="0.9143" stop-color="#DE0A20"/>
<stop offset="0.9333" stop-color="#D3091E"/>
<stop offset="0.9512" stop-color="#C1071B"/>
<stop offset="0.9684" stop-color="#A80516"/>
<stop offset="0.985" stop-color="#88030F"/>
<stop offset="1" stop-color="#640008"/>
</linearGradient>
<linearGradient id="paint172_linear_1839_8126" x1="87.129" y1="87.5698" x2="84.6498" y2="79.7856" gradientUnits="userSpaceOnUse">
<stop stop-color="#F71873"/>
<stop offset="1" stop-color="#F8A629"/>
</linearGradient>
<linearGradient id="paint173_linear_1839_8126" x1="82.2985" y1="86.98" x2="77.3643" y2="85.187" gradientUnits="userSpaceOnUse">
<stop stop-color="#F71873"/>
<stop offset="1" stop-color="#C6211B"/>
</linearGradient>
<linearGradient id="paint174_linear_1839_8126" x1="85.115" y1="87.3419" x2="82.5535" y2="82.9117" gradientUnits="userSpaceOnUse">
<stop stop-color="#F71873"/>
<stop offset="1" stop-color="#C6211B"/>
</linearGradient>
<linearGradient id="paint175_linear_1839_8126" x1="91.2862" y1="85.9215" x2="87.22" y2="79.1252" gradientUnits="userSpaceOnUse">
<stop stop-color="#F71873"/>
<stop offset="1" stop-color="#C6211B"/>
</linearGradient>
<clipPath id="clip0_1839_8126">
<rect width="246" height="218" fill="white"/>
</clipPath>
</defs>
</svg>
