<svg width="108" height="120" viewBox="0 0 108 120" fill="none" xmlns="http://www.w3.org/2000/svg">
<path d="M53.0542 43.1037L36.0884 33.2299C35.9573 33.1349 35.8035 33.0766 35.6427 33.0609C35.482 33.0453 35.32 33.0728 35.1732 33.1406L33.9528 33.8514C33.8187 33.9456 33.712 34.0744 33.6438 34.2243C33.5757 34.3741 33.5486 34.5397 33.5654 34.7037V81.5376C33.5903 81.9939 33.7215 82.4379 33.9484 82.8335C34.1753 83.2291 34.4914 83.5652 34.8711 83.8145L51.8339 93.676C51.9648 93.7715 52.1184 93.8304 52.2792 93.8466C52.4399 93.8628 52.6021 93.8358 52.7491 93.7683L53.9695 93.0545C54.102 92.9598 54.2072 92.8312 54.2742 92.682C54.3413 92.5328 54.3677 92.3682 54.3508 92.2053V45.3806C54.3272 44.9251 54.1974 44.4816 53.9722 44.086C53.7469 43.6904 53.4324 43.3539 53.0542 43.1037Z" fill="#263238"/>
<path d="M37.2203 82.3418L36 83.0526V86.948C36.0062 87.062 36.039 87.1731 36.0957 87.272C36.1524 87.3709 36.2315 87.4549 36.3264 87.5172L36.8969 87.8495C36.9981 87.9011 37.11 87.928 37.2234 87.928C37.3368 87.928 37.4486 87.9011 37.5498 87.8495L38.1203 87.5172C38.323 87.3851 38.4798 87.1926 38.5688 86.9664L39.6702 83.7664L37.2203 82.3418Z" fill="#263238"/>
<path d="M36 86.9471C36.0062 87.0612 36.039 87.1722 36.0957 87.2712C36.1524 87.3701 36.2315 87.4541 36.3264 87.5164L36.8969 87.8487C36.9364 87.8727 36.9807 87.8875 37.0266 87.8918C37.0724 87.8961 37.1187 87.8899 37.1618 87.8736C37.205 87.8573 37.2439 87.8314 37.2757 87.7978C37.3075 87.7642 37.3313 87.7237 37.3454 87.6794L38.4407 84.4764L36 83.0518V86.9471Z" fill="#37474F"/>
<path d="M49.4606 89.4463L48.2402 90.1601V94.0524C48.2458 94.1667 48.278 94.2781 48.3342 94.3775C48.3904 94.4769 48.469 94.5616 48.5636 94.6247L49.1372 94.9571C49.2378 95.0087 49.3492 95.0356 49.4621 95.0356C49.575 95.0356 49.6864 95.0087 49.787 94.9571L50.3606 94.6247C50.5633 94.4927 50.72 94.3002 50.8091 94.074L51.9074 90.8709L49.4606 89.4463Z" fill="#263238"/>
<path d="M48.2402 94.0515C48.2458 94.1658 48.278 94.2771 48.3342 94.3766C48.3904 94.476 48.469 94.5607 48.5636 94.6238L49.1372 94.9561C49.1766 94.9802 49.2209 94.9949 49.2668 94.9992C49.3127 95.0036 49.3589 94.9973 49.4021 94.9811C49.4452 94.9648 49.4842 94.9388 49.516 94.9052C49.5477 94.8716 49.5716 94.8311 49.5857 94.7869L50.687 91.5838L48.2463 90.1592L48.2402 94.0515Z" fill="#37474F"/>
<path d="M34.9505 33.9786L51.9132 43.8247C52.293 44.0747 52.6091 44.4114 52.836 44.8075C53.0628 45.2036 53.194 45.648 53.219 46.1047V92.9386C53.2512 93.1031 53.2317 93.2736 53.1629 93.4263C53.0942 93.579 52.9799 93.7062 52.8358 93.79C52.6918 93.8738 52.5254 93.9101 52.36 93.8937C52.1945 93.8773 52.0383 93.809 51.9132 93.6986L34.9505 83.834C34.5711 83.5845 34.2555 83.2483 34.0291 82.8526C33.8028 82.457 33.6721 82.0131 33.6478 81.557V34.7355C33.6152 34.5713 33.6345 34.4009 33.7029 34.2483C33.7714 34.0958 33.8857 33.9687 34.0296 33.8851C34.1735 33.8015 34.3397 33.7656 34.505 33.7823C34.6702 33.7991 34.826 33.8677 34.9505 33.9786Z" fill="#37474F"/>
<path d="M10.3179 97.994L28.6657 108.677L54.3538 93.7202L53.1304 93.0063L34.7826 82.3232L10.3179 96.5694V97.994Z" fill="#455A64"/>
<path d="M28.6655 108.676V107.252L54.3537 92.2949V93.7195L28.6655 108.676Z" fill="#263238"/>
<path d="M28.7818 106.603L28.5957 106.477C31.851 101.508 31.8296 92.9233 31.5642 90.7695C31.5428 90.6248 31.5276 90.5356 31.5245 90.5018L31.7472 90.4648C31.7472 90.5325 31.7716 90.6125 31.7838 90.7079C32.0218 92.231 33.3672 100.505 34.9598 103.016L34.7706 103.139C33.5106 101.166 32.4337 95.8433 31.8937 92.7725C31.9272 96.2587 31.4238 102.594 28.7818 106.603Z" fill="#FAFAFA"/>
<path d="M39.4965 99.0155C39.2188 98.9324 32.7327 96.9509 32.1348 94.0647L32.3575 94.0186C32.9249 96.7724 39.4934 98.7786 39.5605 98.8001L39.4965 99.0155Z" fill="#FAFAFA"/>
<path d="M32.9489 97.8455L32.7842 97.1409C32.7616 97.0114 32.6962 96.8935 32.5987 96.8064C32.5012 96.7192 32.3773 96.6679 32.2472 96.6609C32.1398 96.645 32.0301 96.6628 31.933 96.7118C31.8359 96.7607 31.7561 96.8385 31.7042 96.9347L31.4937 96.8455C31.5643 96.7047 31.6764 96.5895 31.8146 96.5157C31.9529 96.4418 32.1104 96.413 32.2655 96.4332C32.3778 96.4403 32.4872 96.4714 32.5866 96.5245C32.6861 96.5775 32.7731 96.6513 32.8421 96.7409C32.8787 96.4491 33.0264 96.1832 33.254 95.9993C33.3403 95.9538 33.4367 95.9316 33.534 95.9349C33.6313 95.9381 33.7261 95.9667 33.8092 96.0178L33.7086 96.2209C33.6577 96.1879 33.5993 96.1686 33.539 96.1648C33.4786 96.161 33.4183 96.1729 33.3638 96.1993C33.1045 96.347 33.0038 96.9162 32.9886 97.1224L32.9489 97.8455Z" fill="#FAFAFA"/>
<path d="M33.5867 100.194L33.3853 99.5541C33.1565 98.831 32.7752 98.4157 32.3236 98.388C32.135 98.3843 31.9494 98.4362 31.7895 98.5373C31.6297 98.6384 31.5025 98.7843 31.4236 98.9572L31.2192 98.8587C31.3158 98.6427 31.4737 98.4604 31.673 98.335C31.8723 98.2095 32.1041 98.1466 32.3389 98.1541C32.6104 98.1695 33.0772 98.3172 33.425 99.031C33.5013 98.468 33.7301 97.5633 34.3189 97.1849C34.5302 97.0681 34.7679 97.0081 35.0089 97.0108C35.2499 97.0135 35.4861 97.0788 35.6948 97.2003L35.6003 97.4064C35.4255 97.3022 35.2271 97.2449 35.0242 97.24C34.8212 97.2352 34.6204 97.2829 34.4409 97.3787C33.6569 97.871 33.605 99.4987 33.605 99.5172L33.5867 100.194Z" fill="#FAFAFA"/>
<path d="M30.8317 101.756L30.6304 101.651C31.0819 100.775 32.0734 100.144 32.9338 100.187C33.1163 100.189 33.296 100.232 33.4597 100.314C33.6234 100.395 33.7668 100.513 33.8795 100.658C33.9623 100.215 34.1332 99.7937 34.3817 99.4193C34.6302 99.0449 34.9513 98.7251 35.3256 98.4792C35.7273 98.2101 36.1909 98.0498 36.6718 98.0137C37.1526 97.9776 37.6346 98.0669 38.0714 98.273L37.9829 98.4792C37.5806 98.2913 37.1374 98.2103 36.6953 98.2437C36.2532 98.277 35.8269 98.4238 35.4568 98.67C35.0611 98.9286 34.7309 99.277 34.4925 99.6873C34.2541 100.098 34.1142 100.558 34.0839 101.033V101.615L33.8704 101.073C33.7996 100.881 33.6724 100.714 33.5056 100.597C33.3388 100.479 33.1404 100.416 32.9368 100.415C32.1466 100.375 31.2466 100.953 30.8317 101.756Z" fill="#FAFAFA"/>
<path d="M29.5933 105.154L29.395 105.043C29.6696 104.539 31.131 102.003 32.8608 101.545C33.1049 101.474 33.3611 101.457 33.6125 101.493C33.8639 101.53 34.1047 101.62 34.3191 101.757L34.2031 101.951C34.0141 101.83 33.8021 101.751 33.5808 101.719C33.3595 101.687 33.1339 101.702 32.9187 101.763C31.6496 102.102 30.3377 103.8 29.5933 105.154Z" fill="#FAFAFA"/>
<path d="M51.907 78.0483V79.4729L28.6657 93.0052L10.3179 82.3222V80.8975L33.5592 67.3652L51.907 78.0483Z" fill="#263238"/>
<path d="M51.907 78.0483L28.6657 91.5806L10.3179 80.8975L33.5592 67.3652L51.907 78.0483Z" fill="#455A64"/>
<path d="M51.907 62.3815V63.803L28.6657 77.3384L10.3179 66.6522V65.2307L33.5592 51.6953L51.907 62.3815Z" fill="#263238"/>
<path d="M51.907 62.3815L28.6657 75.9138L10.3179 65.2307L33.5592 51.6953L51.907 62.3815Z" fill="#455A64"/>
<path d="M28.5864 57.3316L11.6237 47.47C11.4928 47.3746 11.3391 47.3157 11.1784 47.2995C11.0176 47.2833 10.8555 47.3103 10.7084 47.3777C10.4888 47.5039 9.70775 47.9623 9.48809 48.0885C9.35447 48.1831 9.24837 48.312 9.18078 48.4619C9.11318 48.6117 9.08656 48.7771 9.10368 48.9408V95.7624C9.12859 96.2187 9.25981 96.6626 9.48668 97.0582C9.71355 97.4538 10.0297 97.7899 10.4094 98.0393L27.3722 107.904C27.5031 107.999 27.6567 108.058 27.8174 108.074C27.9782 108.091 28.1403 108.064 28.2874 107.996C28.5071 107.867 29.2942 107.412 29.5077 107.279C29.642 107.186 29.749 107.058 29.8177 106.908C29.8863 106.759 29.9141 106.594 29.8983 106.43V59.6116C29.8731 59.1542 29.7412 58.7092 29.5132 58.313C29.2852 57.9168 28.9677 57.5805 28.5864 57.3316Z" fill="#263238"/>
<path opacity="0.2" d="M28.6657 64.5191L29.8921 63.8052V59.5283L28.6626 60.2422L28.6657 64.5191Z" fill="black"/>
<path opacity="0.2" d="M53.1334 50.2729L54.3599 49.5621V45.2852L53.1304 45.999L53.1334 50.2729Z" fill="black"/>
<path d="M12.7648 96.5684L11.5444 97.2791V101.175C11.5506 101.289 11.5834 101.4 11.6401 101.499C11.6968 101.597 11.7759 101.681 11.8709 101.744L12.4414 102.076C12.5426 102.128 12.6544 102.155 12.7678 102.155C12.8812 102.155 12.9931 102.128 13.0943 102.076L13.6648 101.744C13.8667 101.612 14.0233 101.421 14.1132 101.196L15.2146 97.993L12.7648 96.5684Z" fill="#263238"/>
<path d="M11.5415 101.175C11.5477 101.289 11.5805 101.4 11.6372 101.499C11.6939 101.598 11.773 101.682 11.8679 101.744L12.4385 102.076C12.4779 102.1 12.5222 102.115 12.5681 102.119C12.6139 102.124 12.6602 102.117 12.7033 102.101C12.7465 102.085 12.7854 102.059 12.8172 102.025C12.849 101.992 12.8729 101.951 12.8869 101.907L13.9883 98.7039L11.5476 97.2793L11.5415 101.175Z" fill="#37474F"/>
<path d="M24.9957 103.691L23.7754 104.402V108.298C23.781 108.411 23.8132 108.522 23.8694 108.621C23.9256 108.72 24.0042 108.804 24.0988 108.867L24.6723 109.199C24.773 109.251 24.8843 109.278 24.9973 109.278C25.1102 109.278 25.2215 109.251 25.3222 109.199L25.8957 108.867C26.0969 108.734 26.2533 108.543 26.3442 108.319L27.4425 105.116L24.9957 103.691Z" fill="#263238"/>
<path d="M23.7754 108.282C23.781 108.396 23.8132 108.507 23.8694 108.606C23.9256 108.705 24.0042 108.789 24.0988 108.851L24.6723 109.184C24.7118 109.208 24.7561 109.222 24.8019 109.227C24.8478 109.231 24.8941 109.225 24.9372 109.209C24.9804 109.192 25.0193 109.166 25.0511 109.133C25.0829 109.099 25.1067 109.059 25.1208 109.014L26.2191 105.811L23.7784 104.387L23.7754 108.282Z" fill="#37474F"/>
<path d="M10.3973 48.1837L27.363 58.0452C27.7425 58.2953 28.0581 58.6321 28.2844 59.0282C28.5108 59.4244 28.6414 59.8687 28.6658 60.3252V108.676C28.6658 108.676 27.723 108.113 27.363 107.904L10.4003 98.039C10.0206 97.7897 9.70444 97.4536 9.47757 97.058C9.2507 96.6624 9.11948 96.2184 9.09456 95.7621V48.9406C9.06194 48.7764 9.08123 48.606 9.14973 48.4534C9.21822 48.3008 9.33247 48.1738 9.47635 48.0902C9.62024 48.0066 9.78651 47.9707 9.95173 47.9874C10.1169 48.0042 10.2728 48.0728 10.3973 48.1837Z" fill="#37474F"/>
<path opacity="0.2" d="M27.363 58.0452L10.3973 48.1837C10.2728 48.0728 10.1169 48.0042 9.95173 47.9874C9.78651 47.9707 9.62024 48.0066 9.47635 48.0902C9.33247 48.1738 9.21822 48.3008 9.14973 48.4534C9.08123 48.606 9.06194 48.7764 9.09456 48.9406V53.1221L28.6658 64.5067V60.3252C28.6414 59.8687 28.5108 59.4244 28.2844 59.0282C28.0581 58.6321 27.7425 58.2953 27.363 58.0452Z" fill="black"/>
<path d="M50.6837 62.4952C50.6541 62.4945 50.6258 62.4822 50.6048 62.461C50.5838 62.4399 50.5716 62.4113 50.5709 62.3814V48.3322L37.2844 56.0676C37.272 56.0757 37.258 56.0811 37.2434 56.0835C37.2287 56.0859 37.2138 56.0852 37.1994 56.0814C37.1851 56.0777 37.1717 56.071 37.16 56.0617C37.1484 56.0524 37.1388 56.0408 37.1319 56.0275C37.1242 56.0146 37.1191 56.0003 37.1169 55.9854C37.1148 55.9705 37.1155 55.9553 37.1192 55.9407C37.1229 55.9261 37.1294 55.9124 37.1384 55.9004C37.1474 55.8884 37.1587 55.8782 37.1715 55.8706L50.6441 48.0368C50.661 48.0261 50.6806 48.0205 50.7005 48.0205C50.7205 48.0205 50.74 48.0261 50.757 48.0368C50.7738 48.047 50.7878 48.0614 50.7974 48.0787C50.807 48.0959 50.812 48.1154 50.8119 48.1352V62.3814C50.812 62.3977 50.8087 62.4139 50.8021 62.4288C50.7955 62.4438 50.7858 62.4571 50.7736 62.4679C50.7615 62.4787 50.7471 62.4867 50.7316 62.4914C50.7161 62.4962 50.6998 62.4975 50.6837 62.4952Z" fill="#FAFAFA"/>
<path d="M48.2369 58.9315H48.2034C48.1743 58.9249 48.149 58.907 48.133 58.8816C48.117 58.8562 48.1116 58.8255 48.1179 58.7961L50.3939 48.8546L45.8786 56.7408C45.8716 56.7539 45.8621 56.7655 45.8505 56.7748C45.839 56.7842 45.8257 56.791 45.8114 56.7951C45.7972 56.7991 45.7823 56.8002 45.7676 56.7982C45.7529 56.7963 45.7388 56.7914 45.7261 56.7838C45.7129 56.7765 45.7014 56.7666 45.6921 56.7546C45.6828 56.7427 45.676 56.729 45.672 56.7144C45.668 56.6998 45.667 56.6845 45.6689 56.6695C45.6709 56.6545 45.6758 56.64 45.6834 56.6269L50.5647 48.0792C50.5787 48.0557 50.6004 48.0379 50.626 48.0289C50.6517 48.02 50.6797 48.0203 50.7051 48.03C50.7301 48.0403 50.7506 48.0593 50.763 48.0836C50.7753 48.1079 50.7786 48.1358 50.7722 48.1623L48.3315 58.8484C48.326 58.8704 48.314 58.8901 48.2971 58.9049C48.2802 58.9198 48.2592 58.9291 48.2369 58.9315Z" fill="#FAFAFA"/>
<path d="M43.3464 55.3841C43.3308 55.3842 43.3155 55.3809 43.3013 55.3745C43.2871 55.3682 43.2744 55.3589 43.264 55.3472C43.2431 55.3259 43.2314 55.2971 43.2314 55.2672C43.2314 55.2372 43.2431 55.2085 43.264 55.1872L50.6044 48.0641C50.6255 48.0431 50.654 48.0312 50.6837 48.0312C50.7134 48.0312 50.7419 48.0431 50.763 48.0641C50.7841 48.0859 50.7958 48.1152 50.7958 48.1456C50.7958 48.1761 50.7841 48.2053 50.763 48.2272L43.4227 55.3472C43.413 55.3581 43.4013 55.367 43.3882 55.3733C43.3751 55.3797 43.3609 55.3833 43.3464 55.3841Z" fill="#FAFAFA"/>
<path d="M50.6836 60.2216C50.6539 60.2208 50.6257 60.2086 50.6047 60.1874C50.5837 60.1662 50.5715 60.1377 50.5707 60.1077C50.5707 58.2431 48.5084 58.117 48.4199 58.1139C48.4032 58.1127 48.387 58.1079 48.3723 58.1C48.3576 58.092 48.3447 58.081 48.3345 58.0677C48.3249 58.0546 48.3183 58.0396 48.3151 58.0236C48.3119 58.0077 48.3123 57.9912 48.3162 57.9754C48.3914 57.5945 48.3659 57.2003 48.2422 56.8325C48.1185 56.4647 47.9009 56.1362 47.6114 55.88C47.5056 55.7736 47.3785 55.6911 47.2385 55.638C47.0986 55.585 46.9491 55.5626 46.7999 55.5723C46.7203 55.5859 46.6445 55.6166 46.5777 55.6622C46.5108 55.7079 46.4545 55.7675 46.4124 55.837C46.3997 55.8594 46.3798 55.8768 46.3559 55.8863C46.3321 55.8958 46.3058 55.8969 46.2813 55.8893C46.2569 55.8817 46.2358 55.866 46.2214 55.8448C46.207 55.8235 46.2001 55.798 46.2019 55.7723C46.2019 55.7016 46.327 54.0431 44.8809 53.88C44.8623 53.8777 44.8446 53.8709 44.8292 53.8602C44.8138 53.8495 44.8012 53.8352 44.7924 53.8185C44.7841 53.8023 44.7798 53.7844 44.7798 53.7662C44.7798 53.748 44.7841 53.7301 44.7924 53.7139C44.7924 53.7139 45.4331 52.5047 45.186 51.9108C45.1575 51.8411 45.113 51.7791 45.0563 51.7299C44.9996 51.6807 44.9322 51.6457 44.8596 51.6277C44.8451 51.6239 44.8316 51.6171 44.8198 51.6078C44.808 51.5984 44.7983 51.5868 44.7912 51.5735C44.784 51.5603 44.7796 51.5457 44.7783 51.5307C44.7769 51.5157 44.7786 51.5005 44.7833 51.4862C44.7924 51.4577 44.8121 51.4338 44.8382 51.4195C44.8643 51.4051 44.8949 51.4015 44.9236 51.4093C45.0287 51.4365 45.126 51.4883 45.2076 51.5605C45.2892 51.6326 45.3529 51.7231 45.3935 51.8246C45.6284 52.3877 45.2318 53.32 45.0609 53.6708C46.1836 53.8893 46.3911 54.957 46.4216 55.4862C46.5219 55.4143 46.6364 55.365 46.7572 55.3416C46.9405 55.3237 47.1256 55.3478 47.2983 55.4123C47.4711 55.4768 47.6272 55.5799 47.7548 55.7139C48.0579 55.9835 48.29 56.3248 48.43 56.7072C48.5701 57.0896 48.6138 57.501 48.5572 57.9047C49.0514 57.9693 50.7965 58.317 50.7934 60.1139C50.7919 60.1425 50.7798 60.1694 50.7594 60.1894C50.7391 60.2093 50.712 60.2208 50.6836 60.2216Z" fill="#FAFAFA"/>
<path d="M50.6834 57.1512C50.655 57.1513 50.6276 57.1406 50.6067 57.1212C50.5858 57.1018 50.5729 57.0751 50.5706 57.0466C50.5218 56.3943 50.1465 55.5512 49.6736 55.342C49.5799 55.2997 49.476 55.286 49.3747 55.3024C49.2734 55.3188 49.179 55.3646 49.1031 55.4343C49.0844 55.4463 49.0627 55.4527 49.0406 55.4527C49.0184 55.4527 48.9967 55.4463 48.978 55.4343C48.9587 55.4235 48.9429 55.4073 48.9326 55.3877C48.9223 55.368 48.9179 55.3457 48.9201 55.3235C48.9201 55.3235 49.0207 54.1697 48.5051 53.6927C48.3933 53.5985 48.2607 53.5326 48.1185 53.5005C47.9763 53.4684 47.8285 53.471 47.6875 53.5081C47.6681 53.5123 47.6479 53.5111 47.6291 53.5046C47.6103 53.4981 47.5935 53.4865 47.5807 53.4712C47.5677 53.4557 47.5588 53.4371 47.5551 53.4171C47.5513 53.3972 47.5528 53.3766 47.5594 53.3574C47.6631 53.0712 47.8645 52.2681 47.5929 51.982C47.4648 51.8497 47.2299 51.8374 46.8912 51.9481C46.8681 51.9558 46.8432 51.9558 46.8201 51.948C46.797 51.9403 46.777 51.9252 46.7631 51.905C46.7492 51.8853 46.7417 51.8616 46.7417 51.8374C46.7417 51.8131 46.7492 51.7894 46.7631 51.7697C46.9523 51.5297 47.419 50.8281 47.3031 50.4927C47.284 50.4464 47.253 50.406 47.2133 50.3758C47.1737 50.3455 47.1267 50.3264 47.0773 50.3204C47.0629 50.3168 47.0493 50.3104 47.0373 50.3015C47.0254 50.2926 47.0153 50.2813 47.0076 50.2685C47 50.2556 46.9949 50.2413 46.9927 50.2265C46.9906 50.2116 46.9913 50.1965 46.995 50.182C46.9978 50.1673 47.0036 50.1534 47.012 50.1411C47.0205 50.1288 47.0313 50.1184 47.044 50.1106C47.0566 50.1028 47.0707 50.0977 47.0854 50.0957C47.1 50.0937 47.115 50.0948 47.1292 50.0989C47.2148 50.1115 47.2957 50.1465 47.3637 50.2005C47.4317 50.2545 47.4844 50.3256 47.5167 50.4066C47.6417 50.7727 47.3367 51.3297 47.1231 51.6374C47.2331 51.611 47.3478 51.612 47.4574 51.6404C47.5669 51.6689 47.6679 51.7238 47.7516 51.8004C48.0872 52.1512 47.9255 52.8927 47.8248 53.2404C47.9736 53.2225 48.1245 53.2365 48.2675 53.2816C48.4105 53.3267 48.5424 53.4018 48.6546 53.502C49.1092 53.9204 49.158 54.7327 49.1519 55.105C49.2474 55.0598 49.3515 55.0363 49.457 55.0363C49.5625 55.0363 49.6666 55.0598 49.7621 55.105C50.3387 55.3604 50.7384 56.2681 50.7963 57.0035C50.7976 57.0183 50.7959 57.0332 50.7913 57.0473C50.7867 57.0614 50.7794 57.0745 50.7697 57.0857C50.76 57.0969 50.7482 57.106 50.735 57.1125C50.7217 57.119 50.7073 57.1227 50.6926 57.1235L50.6834 57.1512Z" fill="#FAFAFA"/>
<path d="M57.2552 43.1509C57.2407 42.9875 57.1833 42.831 57.0889 42.6974C56.9945 42.5638 56.8666 42.458 56.7182 42.3909L38.5321 31.8001C38.1278 31.5938 37.681 31.4863 37.2279 31.4863C36.7747 31.4863 36.328 31.5938 35.9236 31.8001L7.95346 48.0894C7.80508 48.1565 7.67711 48.2623 7.58274 48.3959C7.48836 48.5295 7.43098 48.686 7.4165 48.8494V50.274C7.43098 50.4373 7.48836 50.5939 7.58274 50.7274C7.67711 50.861 7.80508 50.9668 7.95346 51.034L26.1396 61.6217C26.5435 61.8294 26.9904 61.9377 27.4438 61.9377C27.8972 61.9377 28.3441 61.8294 28.748 61.6217L56.7182 45.3355C56.8666 45.2684 56.9945 45.1626 57.0889 45.029C57.1833 44.8954 57.2407 44.7389 57.2552 44.5755V43.1509Z" fill="#37474F"/>
<path d="M26.1397 60.197L7.95357 49.6094C7.23357 49.1878 7.23357 48.5078 7.95357 48.0894L35.9237 31.8001C36.3281 31.5938 36.7748 31.4863 37.228 31.4863C37.6811 31.4863 38.1279 31.5938 38.5322 31.8001L56.7183 42.3909C57.4414 42.8124 57.4414 43.4894 56.7183 43.9109L28.7481 60.197C28.3442 60.4048 27.8973 60.5131 27.4439 60.5131C26.9905 60.5131 26.5436 60.4048 26.1397 60.197Z" fill="#455A64"/>
<path opacity="0.1" d="M53.1305 47.4219L44.5698 58.108L29.8922 66.6557L29.8892 60.9573L53.1305 47.4219Z" fill="black"/>
<path opacity="0.1" d="M51.907 63.8037L44.5697 73.776L29.8921 82.3268V76.6252L51.907 63.8037Z" fill="black"/>
<path opacity="0.1" d="M51.907 79.4746L44.5697 89.4469L29.8921 97.9977V92.2961L51.907 79.4746Z" fill="black"/>
<path d="M73.9161 25.1658C72.5829 26.975 70.7982 36.9227 70.1239 40.1134C66.8809 40.0181 62.5426 39.8642 60.9012 39.6919C59.0707 39.4981 55.1626 39.1196 53.2436 39.3842C48.4812 39.9996 48.6673 43.1565 48.7833 43.9811C48.9083 44.9227 49.5765 45.3534 52.1392 44.7658C52.7126 44.6387 53.2972 44.5696 53.8843 44.5596C54.1314 44.5596 54.6531 44.4335 54.8483 44.6458C55.1534 44.9534 54.2717 45.4704 54.0521 45.6119C53.7134 45.8335 53.3595 46.1134 53.2894 46.5134C53.2692 46.5866 53.2703 46.664 53.2925 46.7365C53.3147 46.8091 53.357 46.8737 53.4144 46.9227C53.5386 46.9738 53.6777 46.9738 53.8019 46.9227C54.9716 46.6427 56.0999 46.2093 57.1578 45.6334C57.5567 45.3909 57.9764 45.185 58.4117 45.0181C59.0738 44.8027 59.7572 44.9288 60.4222 44.9288C61.8531 44.9288 69.4161 45.6858 72.7782 46.0304C75.106 46.2673 75.3531 43.9504 76.1555 41.6027C77.1409 38.6919 79.4748 23.3842 79.4748 23.3842C77.1195 23.0396 75.5026 23.0181 73.9161 25.1658Z" fill="#FFA8A7"/>
<path d="M79.5112 23.1444C78.3855 22.9352 75.8502 22.6183 74.4712 24.1721C73.0922 25.726 72.7658 27.3567 72.1587 29.7106C71.5516 32.0644 70.4746 36.2798 70.4746 36.2798C70.4746 36.2798 72.2532 38.8552 77.821 38.126L79.5112 23.1444Z" fill="#37474F"/>
<path d="M93.4931 104.504L89.5789 104.507L88.4531 95.9381L93.3924 95.7412L93.4931 104.504Z" fill="#FFA8A7"/>
<path d="M80.4965 100.224C79.8314 101.391 77.6928 101.295 75.9202 100.883L75.7158 92.4583L80.948 92.249L80.4965 100.224Z" fill="#FFA8A7"/>
<path d="M93.2276 50.3577C93.3679 54.0038 92.8889 75.5638 92.8889 75.5638C93.0201 76.61 94.094 78.4346 94.3167 82.21C94.6432 87.693 93.5357 99.3853 93.5357 99.3853C93.5357 99.3853 91.2933 100.567 88.8771 99.6623C88.8771 99.6623 86.4181 82.7392 85.5211 77.33C84.7462 72.6223 83.7516 59.9946 83.7516 59.9946L81.8204 76.1792C82.1745 78.0949 82.3208 80.0438 82.2567 81.9915C82.1774 84.5084 80.7557 96.73 80.7557 96.73C79.1338 97.2651 77.3915 97.3068 75.7462 96.85C75.7462 96.85 74.5808 77.8838 74.4465 75.5853C74.294 72.9638 74.3977 49.8223 74.3977 49.8223L93.2276 50.3577Z" fill="#8A2BE2"/>
<path opacity="0.2" d="M83.7582 59.9998C83.7582 59.9998 80.3382 59.0213 78.0073 56.9229C78.0073 56.9229 79.0995 58.8029 82.1931 60.4705L82.0161 74.5967L83.7582 59.9998Z" fill="black"/>
<path d="M85.1187 111.653C84.9937 111.782 85.0669 112.634 85.2194 112.856C85.372 113.077 86.3055 113.828 87.9255 113.884C89.4723 113.933 90.8391 113.668 91.7208 113.053C92.6025 112.437 93.0174 111.782 93.0693 110.899C93.1211 110.016 92.9899 109.157 93.3743 108.459C93.7374 107.816 94.3262 107.08 94.4452 106.733C94.7106 105.979 94.3872 104.93 94.3872 104.93L85.1187 111.653Z" fill="#263238"/>
<path d="M89.0237 103.754C89.0256 104.091 88.9783 104.426 88.8833 104.748C88.5522 105.797 88.0546 106.786 87.4098 107.674C86.9643 108.25 86.403 108.733 85.9301 109.29C85.4241 109.818 85.1138 110.506 85.0515 111.237C85.0332 112.468 86.3633 112.822 87.3793 112.963C88.4805 113.11 89.6003 113.005 90.6559 112.656C91.2118 112.487 91.7075 112.159 92.0831 111.713C92.4588 111.266 92.6984 110.72 92.7732 110.139C92.8159 109.797 92.7731 109.453 92.8098 109.111C92.9131 108.327 93.2077 107.58 93.667 106.939C93.9329 106.568 94.1598 106.17 94.3443 105.751C94.6281 104.982 94.3443 104.142 94.1125 103.4C93.9142 102.757 93.6884 102.028 93.4657 102.099C93.4657 102.44 93.4657 102.471 93.2491 102.714C92.944 103.022 92.9593 103.45 92.6389 103.717C92.7315 103.433 92.7949 103.141 92.8281 102.843C92.8431 102.722 92.8138 102.6 92.7457 102.499C92.6355 102.409 92.506 102.345 92.3674 102.314C91.8849 102.17 91.3891 102.077 90.8877 102.034C90.4105 101.971 89.9261 101.987 89.4538 102.08C89.3142 102.113 89.1895 102.192 89.0999 102.305C89.0214 102.431 88.9821 102.578 88.987 102.727C88.987 102.927 89.0206 103.428 89.0237 103.754Z" fill="#455A64"/>
<path d="M87.8645 106.993C88.3038 106.636 89.3106 106.59 89.8659 106.63C90.4285 106.656 90.9754 106.825 91.4553 107.123C91.5261 107.17 91.6114 107.191 91.6958 107.181C91.7803 107.17 91.8584 107.13 91.916 107.067C91.9497 107.031 91.9753 106.988 91.991 106.942C92.0067 106.895 92.0121 106.845 92.0069 106.796C92.0017 106.747 91.9859 106.699 91.9608 106.657C91.9356 106.614 91.9016 106.578 91.8611 106.55C91.3309 106.188 90.7103 105.983 90.0703 105.959C88.7096 105.919 88.3221 106.169 88.3221 106.169C88.3221 106.169 87.715 106.593 87.8645 106.993Z" fill="#F5F5F5"/>
<path d="M86.876 108.286C87.4282 107.926 88.5417 107.929 89.0939 107.979C89.6473 108.014 90.1818 108.195 90.6438 108.505C90.714 108.552 90.7988 108.573 90.8827 108.562C90.9667 108.552 91.0442 108.512 91.1014 108.449C91.1357 108.414 91.162 108.371 91.1782 108.325C91.1944 108.278 91.2003 108.228 91.1953 108.179C91.1904 108.129 91.1748 108.082 91.1496 108.039C91.1244 107.997 91.0902 107.96 91.0495 107.932C90.5105 107.551 89.8764 107.329 89.219 107.292C87.8553 107.249 87.5136 107.542 87.5136 107.542C87.3586 107.609 87.2208 107.712 87.1104 107.84C87 107.969 86.9199 108.122 86.876 108.286Z" fill="#F5F5F5"/>
<path d="M90.5584 104.631C89.9825 104.552 89.3961 104.624 88.856 104.84C88.6242 104.985 88.4808 105.372 88.6364 105.456C89.109 105.241 89.6267 105.148 90.1435 105.185C90.654 105.215 91.1556 105.334 91.6262 105.536C91.7452 105.582 91.8855 105.649 92.0075 105.711C92.0466 105.731 92.0893 105.743 92.1331 105.746C92.1768 105.749 92.2208 105.743 92.2621 105.728C92.3035 105.714 92.3415 105.691 92.3738 105.661C92.4061 105.631 92.432 105.594 92.4499 105.554C92.4788 105.484 92.4811 105.406 92.4563 105.334C92.4315 105.263 92.3815 105.203 92.3157 105.166C91.7749 104.863 91.1755 104.68 90.5584 104.631Z" fill="#F5F5F5"/>
<path d="M66.975 105.48C66.8364 105.832 66.8364 106.223 66.975 106.575C67.1093 106.904 68.7262 107.926 70.9717 107.883C72.6415 107.842 74.27 107.351 75.6883 106.461C76.57 105.932 77.4639 105.867 78.5744 105.846C79.6849 105.824 81.1676 105.347 81.4361 104.837C81.7045 104.326 81.4666 103.412 81.4666 103.412L66.975 105.48Z" fill="#263238"/>
<path d="M76.3414 98.865L76.1675 98.8188C76.0688 98.7886 75.9649 98.7792 75.8624 98.7911C75.7525 98.8178 75.6535 98.8779 75.5787 98.9635C75.3478 99.2364 75.1435 99.531 74.9685 99.8434C74.4652 100.591 73.4431 101.185 72.3448 101.717C71.5943 102.077 70.8651 102.351 70.0933 102.656C69.3214 102.96 68.2628 103.133 67.6526 103.514C66.7374 104.071 66.5634 105.563 67.5336 106.203C68.3757 106.757 70.6211 107.419 73.0251 106.853C74.3401 106.545 75.8472 105.216 77.5557 105.163C78.6448 105.13 80.7072 104.92 81.4424 104.123C81.7201 103.77 81.4424 102.585 81.1953 101.563C80.9391 100.45 81.055 98.7942 80.5607 98.7942L80.5302 99.3511C80.4845 99.5173 80.097 99.6804 79.975 99.8096L79.5357 100.277C79.3557 100.494 79.1361 100.674 78.8889 100.807C78.4526 101.003 77.9431 100.887 77.4763 100.763C77.458 100.763 77.7113 99.9081 77.7387 99.825C77.7662 99.76 77.7747 99.6885 77.7631 99.6188C77.7397 99.5506 77.6933 99.4929 77.6319 99.4558C77.2468 99.1711 76.8074 98.97 76.3414 98.865Z" fill="#455A64"/>
<path d="M73.3882 101.169C73.4736 101.023 73.5939 100.9 73.7383 100.812C73.8828 100.725 74.0466 100.675 74.215 100.668C74.7123 100.6 75.5634 101.006 76.0851 101.483C76.1343 101.528 76.1719 101.584 76.1947 101.647C76.2174 101.709 76.2245 101.777 76.2155 101.843C76.2065 101.909 76.1815 101.972 76.1429 102.026C76.1042 102.08 76.0529 102.124 75.9936 102.154C75.9192 102.191 75.8351 102.204 75.7531 102.191C75.6711 102.177 75.5952 102.139 75.536 102.08C74.9647 101.506 74.1943 101.179 73.3882 101.169Z" fill="#F5F5F5"/>
<path d="M71.8198 101.959C71.9342 101.812 72.082 101.694 72.2509 101.617C72.4197 101.539 72.6046 101.504 72.79 101.513C72.79 101.513 74.0774 101.612 74.8371 102.399C74.884 102.443 74.9199 102.497 74.9416 102.557C74.9633 102.617 74.9703 102.682 74.9619 102.745C74.9535 102.808 74.93 102.869 74.8934 102.921C74.8568 102.974 74.8082 103.016 74.7517 103.046C74.6797 103.081 74.5986 103.093 74.5194 103.081C74.4403 103.068 74.3669 103.031 74.3093 102.975C73.9967 102.628 73.6105 102.356 73.1795 102.18C72.7485 102.005 72.2838 101.929 71.8198 101.959Z" fill="#F5F5F5"/>
<path d="M70.0967 102.655C70.2263 102.52 70.3833 102.414 70.5571 102.346C70.7309 102.277 70.9172 102.247 71.1035 102.258C71.8328 102.339 72.5183 102.65 73.0621 103.147C73.109 103.191 73.1448 103.245 73.1665 103.305C73.1882 103.366 73.1951 103.431 73.1868 103.494C73.1784 103.558 73.1549 103.619 73.1183 103.671C73.0818 103.724 73.0332 103.767 72.9767 103.796C72.9046 103.832 72.8231 103.845 72.7437 103.831C72.6643 103.818 72.5911 103.78 72.5343 103.723C72.2382 103.366 71.8637 103.084 71.4406 102.898C71.0174 102.713 70.5573 102.63 70.0967 102.655Z" fill="#F5F5F5"/>
<path d="M86.0339 23.2126C87.4739 23.3787 89.1763 23.4679 90.5522 23.6495C92.3248 23.8833 93.7068 25.7326 94.14 28.5941C94.6159 31.7449 92.6146 40.7787 92.6146 40.7787L93.2522 51.431C90.6559 53.3603 79.5997 54.3726 74.0898 50.3603C74.0898 50.3603 74.218 32.231 74.6481 29.4372C75.24 25.6064 76.1736 23.2279 80.4448 22.9541L86.0339 23.2126Z" fill="#455A64"/>
<path d="M95.8791 46.289C95.4123 47.0767 94.9425 47.8644 94.4604 48.6428C94.2835 48.932 94.1035 49.2182 93.9174 49.5013C93.8165 49.6398 93.6986 49.7649 93.5665 49.8736C93.3347 50.0336 92.8526 49.932 92.572 49.9413C91.193 49.9885 89.8181 50.091 88.4472 50.249C88.3325 50.2454 88.2184 50.2672 88.113 50.3129C88.0076 50.3586 87.9134 50.4271 87.8371 50.5136C87.7807 50.6327 87.7695 50.7685 87.8054 50.8954C87.8414 51.0224 87.9221 51.1317 88.0323 51.2028C88.2568 51.3388 88.5119 51.415 88.7737 51.4244L89.9635 51.5659C90.1332 51.5717 90.298 51.6249 90.4394 51.7197C90.8726 52.0736 90.0459 52.4982 89.7987 52.6705C89.3018 53.0187 88.7713 53.3156 88.2154 53.5567C85.735 54.609 85.433 55.372 85.8906 56.2397C86.2872 56.9936 88.0018 59.7351 92.3584 57.3751C94.1126 56.4244 96.7821 53.4213 97.9994 51.969C99.7506 49.8736 102.713 45.1997 102.713 45.1997C104.397 42.8674 104.614 41.9105 104.653 40.9413C104.693 39.972 99.4669 32.5167 97.6913 29.8982C95.9157 27.2797 95.0706 24.0951 90.5523 23.6582C90.5523 23.6582 88.8316 29.1597 91.6811 32.7197L98.2618 41.9782C98.2618 41.9782 96.5198 45.209 95.8791 46.289Z" fill="#FFA8A7"/>
<path d="M100.653 33.4497C99.8084 32.2189 98.9267 30.9512 98.0755 29.6958C94.4908 24.4189 94.7928 23.4528 89.6247 23.3789C89.167 24.0866 88.8955 27.1328 89.585 30.1912C90.1616 32.7604 92.3308 34.5728 92.3308 34.5728L94.9179 38.1081C94.9179 38.1081 96.5013 38.0589 98.3989 36.6558C99.4948 35.8816 100.291 34.7488 100.653 33.4497Z" fill="#37474F"/>
<path d="M89.4416 9.3445C89.1818 8.95406 88.8218 8.64199 88.4001 8.44151C87.9784 8.24103 87.5106 8.15966 87.0467 8.20604L86.7782 14.8122L86.3389 17.2522L86.4151 19.9691C86.6702 19.9327 86.9119 19.8318 87.1178 19.6758C87.3237 19.5198 87.4871 19.3137 87.5928 19.0768C87.9955 18.2953 89.1182 14.5168 89.1182 14.5168C90.125 11.4122 89.9114 10.0091 89.4416 9.3445Z" fill="#263238"/>
<path d="M86.4733 14.8427C86.5866 14.4412 86.8047 14.0777 87.1049 13.7904C87.4801 13.3842 88.975 12.9442 89.6554 14.2242C90.3357 15.5042 89.1886 17.1934 88.3039 17.7104C87.172 18.375 86.5069 17.4704 86.5069 17.4704L86.5344 23.5535C86.0066 24.7842 83.6239 25.8796 82.2052 25.7073C81.0764 25.5627 80.0361 24.6673 81.0459 23.3627L80.9635 21.6273C80.9635 21.6273 79.4534 21.935 78.7059 21.8581C77.4642 21.7288 76.6374 20.7842 76.1981 19.455C75.4903 17.3196 75.1761 15.5842 75.475 11.3011C75.8045 6.60884 81.1832 6.29191 84.1822 7.99037C87.1811 9.68884 86.4733 14.8427 86.4733 14.8427Z" fill="#FFA8A7"/>
<path d="M73.7632 6.42755C73.626 5.40294 73.9768 4.30447 75.0416 3.9414C75.4323 3.77655 75.8612 3.72634 76.279 3.79657C76.6967 3.86679 77.0863 4.05458 77.4029 4.33832C77.5364 3.97684 77.7672 3.66008 78.0694 3.42362C78.3715 3.18717 78.7331 3.0404 79.1135 2.9998C79.4938 2.9592 79.8778 3.02639 80.2224 3.19382C80.5669 3.36124 80.8584 3.62226 81.0639 3.94755C81.3467 3.51431 81.7835 3.20703 82.2843 3.08909C82.593 3.01955 82.9125 3.01313 83.2237 3.07021C83.535 3.12729 83.8317 3.2467 84.0965 3.4214C84.5297 3.74447 85.0392 4.34447 84.911 5.12294C85.7683 4.77524 86.6622 5.06447 87.2999 5.82755C87.6793 6.29483 87.894 6.87608 87.91 7.47986C87.9321 7.79347 87.8874 8.10821 87.7788 8.40294C87.6568 8.68294 87.4066 8.86755 87.3334 9.18447C87.2269 9.46331 87.1721 9.75951 87.1717 10.0583C87.2419 10.5752 87.3548 11.0922 87.4219 11.5968C87.4941 12.0994 87.5359 12.606 87.547 13.1137C87.5311 13.2331 87.4899 13.3477 87.4262 13.4496C87.3625 13.5515 87.2778 13.6385 87.1778 13.7045C86.893 13.9557 86.6723 14.2723 86.5341 14.6276C86.4273 14.8491 86.3236 15.3968 86.1131 15.5506C85.4633 16.0091 85.39 14.526 85.3595 14.2399C85.3177 13.5831 85.3177 12.9243 85.3595 12.2676C85.0318 12.2633 84.7086 12.1899 84.4107 12.0521C84.1128 11.9143 83.8467 11.7152 83.6297 11.4676C83.4046 11.1892 83.2562 10.856 83.1995 10.5014C83.1643 10.2982 83.148 10.0922 83.1507 9.88601C82.7266 10.5937 81.7412 10.8829 81.0395 10.8091C79.8619 10.7014 79.4561 10.1937 79.267 9.8214C79.1925 10.1884 79.0325 10.5322 78.8002 10.8245C78.4994 11.1096 78.137 11.3202 77.7416 11.4399C77.4005 11.5316 77.0411 11.528 76.7019 11.4293C76.3628 11.3307 76.0567 11.1407 75.8165 10.8799C75.3375 11.5722 74.1232 11.2645 73.8548 11.0706C73.2446 10.6245 73.0463 10.0922 72.9792 9.33217C72.9121 8.57217 73.2172 7.70447 74.0531 7.40601C73.9024 7.0987 73.8044 6.76787 73.7632 6.42755Z" fill="#263238"/>
<path d="M80.9634 21.6184C80.9634 21.6184 83.6908 20.923 84.6244 20.3569C85.1766 20.0308 85.6179 19.5438 85.8905 18.96C85.7727 19.5359 85.5413 20.0821 85.2102 20.5661C84.5512 21.5107 80.9939 22.36 80.9939 22.36L80.9634 21.6184Z" fill="#F28F8F"/>
<path d="M81.1158 14.6401C81.1261 14.7567 81.1701 14.8676 81.2424 14.9591C81.3147 15.0506 81.4121 15.1187 81.5224 15.1549C81.6328 15.191 81.7512 15.1937 81.863 15.1625C81.9749 15.1313 82.0751 15.0677 82.1514 14.9795C82.2276 14.8913 82.2765 14.7824 82.2919 14.6665C82.3073 14.5505 82.2886 14.4325 82.2381 14.3272C82.1876 14.2218 82.1074 14.1338 82.0077 14.074C81.908 14.0142 81.793 13.9853 81.6771 13.9909C81.5179 14.0035 81.37 14.0786 81.265 14.1999C81.1601 14.3213 81.1065 14.4794 81.1158 14.6401Z" fill="#263238"/>
<path d="M80.2038 19.092C80.2178 19.2421 80.2752 19.3848 80.3688 19.5023C80.4625 19.6198 80.5884 19.7069 80.7308 19.7528C80.8731 19.7988 81.0258 19.8015 81.1697 19.7607C81.3136 19.7199 81.4424 19.6373 81.5402 19.5233C81.638 19.4092 81.7003 19.2687 81.7196 19.1192C81.7388 18.9697 81.7141 18.8177 81.6484 18.6823C81.5827 18.5468 81.479 18.4339 81.3502 18.3574C81.2214 18.2809 81.0731 18.2442 80.9238 18.252C80.7185 18.2685 80.5278 18.3659 80.3931 18.5231C80.2583 18.6803 80.1904 18.8847 80.2038 19.092Z" fill="#F28F8F"/>
<path d="M81.6074 12.5912L82.8644 13.2066C82.9427 13.0328 82.9518 12.8354 82.8899 12.655C82.8281 12.4746 82.6999 12.3251 82.5318 12.2373C82.4484 12.1971 82.3578 12.1744 82.2655 12.1705C82.1731 12.1666 82.081 12.1817 81.9946 12.2148C81.9081 12.2478 81.8293 12.2983 81.7627 12.363C81.6962 12.4277 81.6434 12.5053 81.6074 12.5912Z" fill="#263238"/>
<path d="M76.1399 13.1236L77.2108 12.2005C77.1549 12.1269 77.0848 12.0655 77.0046 12.0202C76.9243 11.975 76.8358 11.9467 76.7444 11.9372C76.6529 11.9277 76.5605 11.9371 76.4729 11.9649C76.3852 11.9928 76.3041 12.0384 76.2345 12.099C76.0917 12.2251 76.0022 12.4016 75.9846 12.5923C75.967 12.7829 76.0226 12.9731 76.1399 13.1236Z" fill="#263238"/>
<path d="M76.4602 14.5195C76.4675 14.6333 76.5081 14.7424 76.5768 14.833C76.6455 14.9236 76.7391 14.9918 76.8461 15.0288C76.9531 15.0659 77.0685 15.0703 77.1779 15.0414C77.2873 15.0124 77.3858 14.9516 77.461 14.8664C77.5362 14.7812 77.5847 14.6754 77.6005 14.5625C77.6163 14.4495 77.5986 14.3344 77.5497 14.2316C77.5007 14.1287 77.4228 14.0428 77.3255 13.9845C77.2283 13.9262 77.1162 13.8983 77.0032 13.9041C76.8508 13.9144 76.7085 13.9846 76.6069 14.0997C76.5053 14.2148 76.4526 14.3656 76.4602 14.5195Z" fill="#263238"/>
<path d="M79.2914 13.8369L79.2731 17.4769L77.3633 16.9231L79.2914 13.8369Z" fill="#F28F8F"/>
<path d="M74.4985 18.9294C74.5161 18.9254 74.5327 18.9179 74.5474 18.9074C74.5621 18.8968 74.5745 18.8833 74.5839 18.8678C74.5947 18.8526 74.6024 18.8353 74.6064 18.8171C74.6105 18.7988 74.6108 18.7799 74.6074 18.7615C74.6039 18.743 74.5969 18.7255 74.5865 18.71C74.5762 18.6944 74.5628 18.6811 74.5473 18.6709L72.8876 17.557C72.8722 17.5467 72.8549 17.5395 72.8368 17.5359C72.8186 17.5323 72.7999 17.5323 72.7817 17.536C72.7636 17.5398 72.7463 17.5471 72.731 17.5575C72.7157 17.568 72.7025 17.5814 72.6924 17.597C72.6817 17.6124 72.6742 17.6299 72.6704 17.6483C72.6666 17.6667 72.6665 17.6857 72.6702 17.7041C72.6739 17.7225 72.6813 17.74 72.692 17.7555C72.7026 17.7709 72.7162 17.784 72.732 17.794L74.3886 18.9078C74.4042 18.9193 74.4222 18.9273 74.4412 18.931C74.4601 18.9347 74.4797 18.9341 74.4985 18.9294Z" fill="#E0E0E0"/>
<path d="M74.3217 19.6487C74.3475 19.6422 74.3711 19.6288 74.3899 19.6098C74.4087 19.5908 74.422 19.5671 74.4285 19.541C74.4367 19.5039 74.4301 19.465 74.4101 19.4328C74.3902 19.4005 74.3584 19.3775 74.3217 19.3687L72.3813 18.9164C72.3633 18.9118 72.3446 18.9109 72.3262 18.9137C72.3078 18.9165 72.2901 18.9229 72.2742 18.9327C72.2583 18.9424 72.2445 18.9552 72.2336 18.9704C72.2226 18.9856 72.2148 19.0028 72.2105 19.021C72.2023 19.0581 72.2088 19.097 72.2288 19.1293C72.2488 19.1615 72.2806 19.1845 72.3173 19.1933L74.2576 19.6487C74.2789 19.6518 74.3004 19.6518 74.3217 19.6487Z" fill="#E0E0E0"/>
<path d="M72.5186 20.951H72.5369L74.407 20.2618C74.4422 20.2488 74.4708 20.2221 74.4866 20.1878C74.5023 20.1535 74.5039 20.1142 74.4909 20.0787C74.478 20.0432 74.4516 20.0144 74.4176 19.9985C74.3835 19.9826 74.3446 19.9811 74.3094 19.9941L72.4392 20.6833C72.4217 20.6898 72.4056 20.6998 72.3919 20.7126C72.3782 20.7255 72.3672 20.741 72.3595 20.7582C72.3519 20.7754 72.3477 20.7939 72.3472 20.8128C72.3468 20.8317 72.35 20.8504 72.3569 20.868C72.3697 20.8989 72.393 20.9242 72.4226 20.9394C72.4522 20.9546 72.4862 20.9587 72.5186 20.951Z" fill="#E0E0E0"/>
<path d="M56.6972 35.7102C56.7358 35.7882 56.7963 35.8532 56.871 35.897C56.9458 35.9408 57.0317 35.9615 57.1181 35.9566C57.2044 35.9517 57.2875 35.9213 57.3569 35.8693C57.4263 35.8173 57.4791 35.746 57.5088 35.664L58.9 32.2025C58.9225 32.147 58.9338 32.0875 58.9331 32.0275C58.9323 31.9675 58.9196 31.9083 58.8956 31.8534C58.8717 31.7985 58.837 31.749 58.7936 31.7079C58.7503 31.6669 58.6992 31.635 58.6434 31.6143C58.5875 31.5936 58.5282 31.5845 58.4687 31.5875C58.4093 31.5904 58.3512 31.6055 58.2976 31.6317C58.2441 31.6578 58.1964 31.6946 58.1573 31.7398C58.1182 31.785 58.0886 31.8377 58.0701 31.8948L56.6759 35.3563C56.6553 35.4136 56.6466 35.4746 56.6502 35.5355C56.6539 35.5963 56.6699 35.6558 56.6972 35.7102Z" fill="#E0E0E0"/>
<path d="M54.4059 35.6924C54.4503 35.7831 54.5239 35.8559 54.6148 35.8988C54.7056 35.9417 54.8082 35.9523 54.9057 35.9286C55.0033 35.905 55.09 35.8487 55.1516 35.7689C55.2132 35.689 55.2461 35.5904 55.2448 35.4893L55.1991 31.1816C55.1899 31.0701 55.1394 30.9661 55.0578 30.8903C54.9761 30.8145 54.8692 30.7725 54.7582 30.7725C54.6473 30.7725 54.5403 30.8145 54.4587 30.8903C54.377 30.9661 54.3266 31.0701 54.3174 31.1816L54.3601 35.4893C54.3592 35.5597 54.3749 35.6293 54.4059 35.6924Z" fill="#E0E0E0"/>
<path d="M50.5223 33.2957L50.5497 33.348L52.6517 36.4249C52.7169 36.5223 52.8175 36.5899 52.9317 36.613C53.046 36.636 53.1646 36.6127 53.2619 36.548C53.3567 36.4808 53.4221 36.3792 53.4443 36.2645C53.4665 36.1498 53.4438 36.0308 53.3809 35.9326L51.2789 32.8557C51.2176 32.7603 51.1224 32.6922 51.0128 32.6656C50.9032 32.639 50.7877 32.6559 50.6901 32.7128C50.5925 32.7698 50.5204 32.8623 50.4886 32.9714C50.4568 33.0804 50.4677 33.1976 50.5192 33.2988L50.5223 33.2957Z" fill="#E0E0E0"/>
</svg>
