<svg width="300" height="300" viewBox="0 0 300 300" fill="none" xmlns="http://www.w3.org/2000/svg">
<path d="M190.2 69.3183C170.478 57.8703 138.072 56.4903 119.664 69.9603C99.3361 84.8283 102.456 113.058 81.6601 126.462C60.5101 140.1 35.1301 134.304 37.9261 169.41C40.0801 196.47 63.1261 203.7 85.3261 210.894C125.142 223.8 202.2 238.146 230.262 195.192C262.2 146.268 234.42 94.9743 190.2 69.3183Z" fill="#8A2BE2"/>
<path opacity="0.9" d="M190.2 69.3183C170.478 57.8703 138.072 56.4903 119.664 69.9603C99.3361 84.8283 102.456 113.058 81.6601 126.462C60.5101 140.1 35.1301 134.304 37.9261 169.41C40.0801 196.47 63.1261 203.7 85.3261 210.894C125.142 223.8 202.2 238.146 230.262 195.192C262.2 146.268 234.42 94.9743 190.2 69.3183Z" fill="white"/>
<path d="M150 256.536C214.249 256.536 266.334 253.495 266.334 249.744C266.334 245.993 214.249 242.952 150 242.952C85.7505 242.952 33.666 245.993 33.666 249.744C33.666 253.495 85.7505 256.536 150 256.536Z" fill="#F5F5F5"/>
<path d="M243.168 190.998H56.8262V212.094H243.168V190.998Z" fill="#8A2BE2"/>
<path opacity="0.3" d="M243.174 190.998H203.202V212.094H243.174V190.998Z" fill="black"/>
<path d="M77.4002 212.094H56.8262V249.744H77.4002V212.094Z" fill="#8A2BE2"/>
<path opacity="0.3" d="M56.832 212.094V214.2L71.4 218.598V249.744H77.4V212.094H56.832Z" fill="black"/>
<path d="M243.175 212.094H222.601V249.744H243.175V212.094Z" fill="#8A2BE2"/>
<path opacity="0.2" d="M243.175 212.094H222.601V249.744H243.175V212.094Z" fill="black"/>
<path opacity="0.3" d="M222.601 212.094V214.2L237.175 218.598V249.744H243.175V212.094H222.601Z" fill="black"/>
<path d="M203.202 212.094H182.628V249.744H203.202V212.094Z" fill="#8A2BE2"/>
<path opacity="0.3" d="M182.628 212.094V214.2L197.202 218.598V249.744H203.202V212.094H182.628Z" fill="black"/>
<path d="M117.372 212.094H96.7979V249.744H117.372V212.094Z" fill="#8A2BE2"/>
<path opacity="0.2" d="M117.372 212.094H96.7979V249.744H117.372V212.094Z" fill="black"/>
<path opacity="0.3" d="M96.7979 212.094V214.2L111.372 218.598V249.744H117.372V212.094H96.7979Z" fill="black"/>
<path d="M217.488 186.852H103.56C103.205 186.855 102.853 186.784 102.527 186.644C102.201 186.503 101.907 186.297 101.665 186.038C101.422 185.778 101.236 185.472 101.118 185.137C101 184.802 100.953 184.446 100.98 184.092L105.672 109.638C105.731 108.896 106.064 108.202 106.607 107.692C107.149 107.182 107.862 106.892 108.606 106.878H222.528C222.883 106.875 223.235 106.946 223.561 107.086C223.887 107.227 224.181 107.433 224.423 107.692C224.665 107.952 224.852 108.258 224.969 108.593C225.087 108.928 225.134 109.284 225.108 109.638L220.416 184.092C220.357 184.833 220.024 185.526 219.483 186.036C218.942 186.546 218.231 186.837 217.488 186.852Z" fill="#263238"/>
<path opacity="0.6" d="M217.488 186.852H103.56C103.205 186.855 102.853 186.784 102.527 186.644C102.201 186.503 101.907 186.297 101.665 186.038C101.422 185.778 101.236 185.472 101.118 185.137C101 184.802 100.953 184.446 100.98 184.092L105.672 109.638C105.731 108.896 106.064 108.202 106.607 107.692C107.149 107.182 107.862 106.892 108.606 106.878H222.528C222.883 106.875 223.235 106.946 223.561 107.086C223.887 107.227 224.181 107.433 224.423 107.692C224.665 107.952 224.852 108.258 224.969 108.593C225.087 108.928 225.134 109.284 225.108 109.638L220.416 184.092C220.357 184.833 220.024 185.526 219.483 186.036C218.942 186.546 218.231 186.837 217.488 186.852Z" fill="black"/>
<path d="M216.636 186.852H102.714C102.359 186.856 102.006 186.785 101.679 186.645C101.353 186.506 101.058 186.299 100.815 186.04C100.572 185.781 100.385 185.473 100.267 185.138C100.149 184.803 100.102 184.447 100.128 184.092L104.82 109.638C104.88 108.896 105.213 108.202 105.755 107.692C106.297 107.182 107.01 106.892 107.754 106.878H221.676C222.032 106.874 222.384 106.945 222.71 107.085C223.037 107.225 223.331 107.431 223.574 107.69C223.816 107.95 224.002 108.257 224.12 108.592C224.237 108.928 224.284 109.284 224.256 109.638L219.564 184.092C219.505 184.833 219.173 185.526 218.632 186.036C218.091 186.546 217.38 186.837 216.636 186.852Z" fill="#263238"/>
<path d="M216.492 187.8H80.9341C80.3101 187.794 79.6972 187.965 79.1663 188.294C78.6354 188.622 78.2082 189.093 77.9341 189.654C77.8647 189.8 77.8336 189.96 77.8437 190.121C77.8538 190.282 77.9048 190.438 77.9919 190.574C78.079 190.71 78.1993 190.821 78.3415 190.897C78.4836 190.974 78.6428 191.012 78.8041 191.01H218.592C218.753 191.012 218.913 190.974 219.055 190.897C219.197 190.821 219.317 190.71 219.404 190.574C219.492 190.438 219.543 190.282 219.553 190.121C219.563 189.96 219.532 189.8 219.462 189.654C219.191 189.097 218.769 188.628 218.244 188.3C217.719 187.972 217.111 187.799 216.492 187.8Z" fill="#263238"/>
<path opacity="0.6" d="M216.492 187.8H197.214C196.594 187.798 195.987 187.971 195.461 188.299C194.936 188.627 194.514 189.096 194.244 189.654C194.174 189.799 194.143 189.959 194.153 190.12C194.163 190.28 194.213 190.436 194.3 190.571C194.386 190.707 194.506 190.818 194.647 190.895C194.788 190.972 194.947 191.011 195.108 191.01H218.592C218.753 191.012 218.912 190.974 219.054 190.897C219.196 190.821 219.317 190.71 219.404 190.574C219.491 190.438 219.542 190.282 219.552 190.121C219.562 189.96 219.531 189.799 219.462 189.654C219.191 189.097 218.769 188.627 218.243 188.3C217.718 187.972 217.111 187.798 216.492 187.8Z" fill="black"/>
<path d="M204.54 190.14H199.56C199.445 190.138 199.335 190.091 199.254 190.009C199.173 189.927 199.128 189.817 199.128 189.702C199.128 189.587 199.173 189.476 199.254 189.394C199.335 189.312 199.445 189.265 199.56 189.264H204.54C204.597 189.264 204.654 189.275 204.708 189.297C204.761 189.319 204.809 189.351 204.85 189.392C204.89 189.433 204.923 189.481 204.945 189.534C204.967 189.587 204.978 189.644 204.978 189.702C204.978 189.759 204.967 189.816 204.945 189.869C204.923 189.922 204.89 189.971 204.85 190.011C204.809 190.052 204.761 190.084 204.708 190.106C204.654 190.128 204.597 190.14 204.54 190.14Z" fill="#8A2BE2"/>
<path opacity="0.7" d="M140.502 190.14H135.528C135.412 190.14 135.3 190.094 135.218 190.011C135.136 189.929 135.09 189.818 135.09 189.702C135.09 189.644 135.101 189.587 135.123 189.534C135.145 189.481 135.177 189.433 135.218 189.392C135.259 189.351 135.307 189.319 135.36 189.297C135.413 189.275 135.47 189.264 135.528 189.264H140.502C140.559 189.264 140.616 189.275 140.669 189.297C140.723 189.319 140.771 189.351 140.812 189.392C140.852 189.433 140.884 189.481 140.907 189.534C140.929 189.587 140.94 189.644 140.94 189.702C140.94 189.818 140.894 189.929 140.812 190.011C140.729 190.094 140.618 190.14 140.502 190.14Z" fill="white"/>
<path d="M209.694 189.264H206.436C206.237 189.264 206.076 189.425 206.076 189.624V189.78C206.076 189.978 206.237 190.14 206.436 190.14H209.694C209.893 190.14 210.054 189.978 210.054 189.78V189.624C210.054 189.425 209.893 189.264 209.694 189.264Z" fill="#8A2BE2"/>
<path d="M102.697 181.404L107.053 112.326C107.075 112.038 107.204 111.768 107.415 111.571C107.626 111.373 107.903 111.262 108.193 111.258H220.687C220.824 111.256 220.961 111.283 221.088 111.336C221.215 111.39 221.329 111.47 221.424 111.57C221.518 111.671 221.59 111.79 221.636 111.92C221.681 112.05 221.699 112.189 221.689 112.326L217.339 181.404C217.315 181.693 217.184 181.962 216.972 182.16C216.76 182.357 216.482 182.468 216.193 182.472H103.705C103.567 182.473 103.43 182.446 103.303 182.392C103.177 182.338 103.062 182.258 102.968 182.158C102.873 182.057 102.8 181.939 102.753 181.809C102.707 181.679 102.687 181.541 102.697 181.404Z" fill="white"/>
<path opacity="0.1" d="M166.692 109.128L129.222 180.348H101.58C101.442 180.35 101.304 180.323 101.177 180.269C101.049 180.215 100.934 180.135 100.839 180.034C100.744 179.933 100.671 179.813 100.626 179.682C100.58 179.551 100.562 179.412 100.572 179.274L104.928 110.202C104.951 109.913 105.08 109.643 105.291 109.445C105.502 109.246 105.779 109.133 106.068 109.128H166.692Z" fill="#8A2BE2"/>
<path opacity="0.1" d="M199.506 109.128L162.036 180.348H153.3L190.77 109.128H199.506Z" fill="#8A2BE2"/>
<path opacity="0.1" d="M219.564 110.202L215.208 179.274C215.187 179.564 215.058 179.834 214.847 180.033C214.636 180.232 214.358 180.345 214.068 180.348H171.468L208.938 109.128H218.538C218.678 109.125 218.817 109.15 218.946 109.203C219.075 109.257 219.192 109.337 219.289 109.438C219.386 109.539 219.46 109.659 219.507 109.791C219.555 109.923 219.574 110.063 219.564 110.202Z" fill="#8A2BE2"/>
<path opacity="0.4" d="M165.378 109.2C165.362 109.417 165.265 109.621 165.106 109.771C164.947 109.921 164.738 110.006 164.52 110.01C164.416 110.011 164.313 109.99 164.217 109.949C164.121 109.908 164.035 109.848 163.963 109.771C163.892 109.695 163.838 109.605 163.804 109.507C163.769 109.408 163.756 109.304 163.764 109.2C163.779 108.982 163.876 108.777 164.035 108.627C164.194 108.477 164.403 108.392 164.622 108.39C164.726 108.389 164.83 108.409 164.926 108.45C165.021 108.491 165.108 108.552 165.179 108.628C165.25 108.704 165.304 108.794 165.339 108.893C165.373 108.991 165.386 109.096 165.378 109.2Z" fill="white"/>
<path d="M146.791 92.6341C143.509 96.3901 141.613 107.904 144.043 113.568C146.473 119.232 118.279 124.902 141.541 134.106C164.803 143.31 183.409 132.636 176.677 123.102C169.945 113.568 177.403 97.6921 169.609 93.7021C162.565 90.0661 153.367 85.1041 146.791 92.6341Z" fill="#263238"/>
<path d="M139.836 138.996C138.606 143.196 137.298 147.396 135.942 151.596C134.586 155.796 133.176 159.948 131.682 164.118L131.112 165.69L130.824 166.476L130.734 166.71L130.59 167.064C130.5 167.292 130.362 167.538 130.242 167.772C129.655 168.844 128.78 169.729 127.716 170.328C126.749 170.853 125.671 171.137 124.572 171.156C123.03 171.164 121.502 170.864 120.078 170.274C118.912 169.801 117.782 169.242 116.7 168.6C112.766 166.181 109.16 163.265 105.972 159.924L108.558 156.876C109.428 157.434 110.358 158.028 111.258 158.586C112.158 159.144 113.1 159.684 114.012 160.218C115.799 161.264 117.644 162.208 119.538 163.044C120.401 163.425 121.291 163.74 122.202 163.986C122.831 164.195 123.497 164.273 124.158 164.214C124.326 164.214 124.296 164.118 124.158 164.172C124.02 164.226 123.87 164.382 123.864 164.364C123.858 164.346 123.864 164.364 123.864 164.328C123.866 164.317 123.866 164.304 123.864 164.292L123.912 164.142L124.14 163.368L124.602 161.808L128.268 149.208C129.516 145.008 130.8 140.808 132.12 136.608L139.836 138.996Z" fill="#FFBDA7"/>
<path d="M108.372 156.78L101.4 154.2L104.166 161.568C104.166 161.568 109.086 162.276 110.994 159.69L109.44 157.608C109.171 157.236 108.8 156.948 108.372 156.78Z" fill="#FFBDA7"/>
<path d="M95.25 156.342L97.902 162.384L104.196 161.556L101.424 154.188L95.25 156.342Z" fill="#FFBDA7"/>
<path d="M134.748 128.13C131.556 128.94 129.348 142.062 129.348 142.062L138.138 148.062C138.138 148.062 146.538 134.826 144.108 131.322C141.528 127.644 139.398 126.948 134.748 128.13Z" fill="#8A2BE2"/>
<path opacity="0.5" d="M134.748 128.13C131.556 128.94 129.348 142.062 129.348 142.062L138.138 148.062C138.138 148.062 146.538 134.826 144.108 131.322C141.528 127.644 139.398 126.948 134.748 128.13Z" fill="white"/>
<path opacity="0.2" d="M134.46 132.9L141.282 134.478L141.936 141.156C140.78 143.514 139.505 145.811 138.114 148.038L132.78 144.438C133.014 141.348 133.59 135 134.46 132.9Z" fill="black"/>
<path d="M134.748 128.13C134.748 128.13 131.058 129.426 138.444 174.822H169.86C169.332 162.036 169.32 154.146 175.428 127.908C171.031 126.999 166.573 126.411 162.09 126.15C156.804 125.892 152.49 125.724 147.822 126.15C141.696 126.708 134.748 128.13 134.748 128.13Z" fill="#8A2BE2"/>
<path opacity="0.5" d="M134.748 128.13C134.748 128.13 131.058 129.426 138.444 174.822H169.86C169.332 162.036 169.32 154.146 175.428 127.908C171.031 126.999 166.573 126.411 162.09 126.15C156.804 125.892 152.49 125.724 147.822 126.15C141.696 126.708 134.748 128.13 134.748 128.13Z" fill="white"/>
<path opacity="0.2" d="M168.036 140.088L172.092 143.544C171.228 148.134 170.646 151.944 170.292 155.358C169.518 151.95 167.586 142.698 168.036 140.088Z" fill="black"/>
<path d="M160.674 110.082C159.774 114.672 158.874 123.084 162.09 126.15C162.09 126.15 159.09 133.026 151.14 133.026C143.19 133.026 147.822 126.15 147.822 126.15C152.94 124.95 152.808 121.128 151.92 117.564L160.674 110.082Z" fill="#FFBDA7"/>
<path d="M161.07 124.434C160.314 125.964 157.878 129.462 151.074 130.71C150.885 130.745 150.69 130.706 150.528 130.602C149.256 129.714 148.464 127.836 149.022 125.658C149.059 125.525 149.058 125.383 149.019 125.25C148.98 125.117 148.904 124.997 148.8 124.905C148.697 124.812 148.569 124.751 148.433 124.727C148.296 124.703 148.155 124.718 148.026 124.77C147.504 124.989 147.002 125.254 146.526 125.562C146.422 125.632 146.337 125.727 146.28 125.838C145.782 126.774 143.766 131.358 149.85 134.184C149.948 134.226 150.051 134.25 150.156 134.256C153.756 134.328 160.05 133.62 164.028 126.456C164.1 126.327 164.131 126.18 164.119 126.032C164.108 125.885 164.053 125.745 163.962 125.628C163.428 125.043 162.807 124.543 162.12 124.146C162.034 124.091 161.937 124.054 161.835 124.039C161.734 124.023 161.63 124.029 161.531 124.056C161.432 124.084 161.34 124.131 161.261 124.196C161.181 124.261 161.116 124.343 161.07 124.434Z" fill="#FAFAFA"/>
<path d="M162.738 143.322L154.638 143.088C154.553 143.089 154.469 143.072 154.392 143.037C154.314 143.003 154.245 142.953 154.188 142.89C154.132 142.827 154.089 142.753 154.063 142.672C154.037 142.592 154.029 142.507 154.038 142.422L154.116 141.42C154.139 141.252 154.224 141.098 154.353 140.987C154.482 140.877 154.648 140.817 154.818 140.82L162.918 141.054C163.003 141.054 163.087 141.071 163.165 141.106C163.243 141.14 163.313 141.191 163.37 141.255C163.426 141.318 163.469 141.393 163.495 141.475C163.52 141.556 163.528 141.642 163.518 141.726L163.44 142.722C163.416 142.891 163.332 143.045 163.203 143.156C163.073 143.266 162.908 143.326 162.738 143.322Z" fill="#FAFAFA"/>
<path opacity="0.2" d="M157.104 113.136L151.92 117.558C152.142 118.387 152.291 119.234 152.364 120.09C154.314 119.808 157.002 117.66 157.212 115.614C157.327 114.788 157.29 113.948 157.104 113.136Z" fill="black"/>
<path d="M166.722 101.4C165.276 108.942 164.826 112.164 160.482 115.566C153.948 120.69 145.002 117.258 144.174 109.44C143.424 102.402 145.914 91.2541 153.774 89.1901C155.496 88.7323 157.307 88.7219 159.035 89.1596C160.762 89.5974 162.349 90.4689 163.646 91.6916C164.943 92.9143 165.906 94.4477 166.444 96.1466C166.982 97.8456 167.078 99.6538 166.722 101.4Z" fill="#FFBDA7"/>
<path d="M162.432 95.8204C161.496 100.542 161.274 106.8 165.6 106.8C169.926 106.8 173.316 99.4384 169.584 93.6724C165.852 87.9064 162.978 93.0364 162.432 95.8204Z" fill="#263238"/>
<path d="M169.908 96.4021C169.908 101.538 163.44 99.0001 160.578 96.7861C157.716 94.5721 157.578 94.8121 152.274 94.8061C146.97 94.8001 145.908 94.4341 144.342 91.9021C142.776 89.3701 142.92 87.7021 146.448 88.2361C149.976 88.7701 147.012 85.1701 149.64 83.1721C152.268 81.1741 155.382 81.6781 158.976 86.2381C162.57 90.7981 169.908 87.5041 169.908 96.4021Z" fill="#263238"/>
<path d="M168.009 108.111C168.69 105.789 168.022 103.55 166.518 103.109C165.014 102.668 163.243 104.192 162.562 106.514C161.882 108.835 162.549 111.074 164.053 111.515C165.558 111.956 167.329 110.432 168.009 108.111Z" fill="white"/>
<path d="M156 113.916C154.607 113.916 153.229 113.632 151.95 113.082C151.922 113.071 151.898 113.054 151.877 113.033C151.856 113.012 151.839 112.987 151.828 112.96C151.817 112.933 151.811 112.903 151.812 112.874C151.812 112.844 151.818 112.815 151.83 112.788C151.855 112.733 151.9 112.69 151.956 112.668C152.012 112.645 152.074 112.645 152.13 112.668C153.336 113.185 154.633 113.456 155.945 113.463C157.257 113.47 158.557 113.214 159.768 112.71C160.946 112.228 162.016 111.515 162.914 110.613C163.813 109.712 164.522 108.64 165 107.46C166.8 102.306 168.636 95.8738 166.512 91.8598C166.085 91.0786 165.493 90.399 164.779 89.8677C164.064 89.3364 163.243 88.966 162.372 88.7818C162.314 88.7663 162.265 88.7287 162.234 88.677C162.204 88.6254 162.195 88.5639 162.21 88.5058C162.225 88.448 162.263 88.3986 162.315 88.3683C162.366 88.338 162.428 88.3292 162.486 88.3438C163.417 88.5441 164.293 88.9425 165.056 89.512C165.82 90.0814 166.451 90.8085 166.908 91.6438C169.116 95.7898 167.274 102.348 165.42 107.598C164.917 108.837 164.171 109.962 163.226 110.908C162.281 111.854 161.156 112.602 159.918 113.106C158.677 113.627 157.346 113.902 156 113.916Z" fill="white"/>
<path opacity="0.6" d="M167.79 108.132C167.256 109.932 166.032 111.198 165.054 110.916C164.076 110.634 163.716 108.918 164.25 107.094C164.784 105.27 166.008 104.022 166.986 104.31C167.964 104.598 168.324 106.308 167.79 108.132Z" fill="#8A2BE2"/>
<path d="M152.573 112.089L150.223 111.636C149.81 111.556 149.41 111.826 149.33 112.239L149.304 112.375C149.224 112.788 149.495 113.188 149.908 113.267L152.259 113.721C152.672 113.801 153.071 113.53 153.151 113.117L153.177 112.982C153.257 112.568 152.987 112.169 152.573 112.089Z" fill="white"/>
<path d="M149.502 102.03C149.502 102.03 148.11 104.556 146.79 105.69C147.504 106.56 148.944 106.392 148.944 106.392L149.502 102.03Z" fill="#F0997A"/>
<path d="M150.829 109.62H150.883C152.243 109.728 153.593 109.316 154.663 108.468C154.685 108.446 154.697 108.416 154.697 108.384C154.697 108.353 154.685 108.323 154.663 108.3C154.652 108.29 154.639 108.281 154.625 108.275C154.612 108.27 154.597 108.267 154.582 108.267C154.567 108.267 154.552 108.27 154.538 108.275C154.524 108.281 154.511 108.29 154.501 108.3C153.48 109.103 152.196 109.495 150.901 109.398C150.885 109.396 150.869 109.397 150.854 109.4C150.839 109.404 150.825 109.411 150.812 109.421C150.8 109.43 150.79 109.442 150.782 109.456C150.775 109.47 150.77 109.485 150.769 109.5C150.765 109.524 150.77 109.548 150.78 109.57C150.791 109.591 150.808 109.609 150.829 109.62Z" fill="#263238"/>
<path d="M157.693 99.0602C157.727 99.0791 157.765 99.0891 157.804 99.0891C157.842 99.0891 157.881 99.0791 157.915 99.0602C157.966 99.0259 158.002 98.973 158.016 98.9127C158.029 98.8523 158.019 98.7891 157.987 98.7362C157.7 98.2557 157.302 97.8505 156.828 97.5542C156.353 97.2579 155.814 97.0789 155.257 97.0322C155.194 97.0322 155.134 97.0567 155.089 97.1004C155.044 97.1441 155.018 97.2036 155.017 97.2662C155.017 97.3273 155.04 97.3859 155.083 97.4296C155.126 97.4733 155.184 97.4987 155.245 97.5002C155.725 97.546 156.188 97.7047 156.596 97.9633C157.003 98.2218 157.344 98.573 157.591 98.9882C157.617 99.021 157.653 99.0459 157.693 99.0602Z" fill="#263238"/>
<path d="M154.254 102.132C154.152 102.732 153.738 103.194 153.33 103.128C152.922 103.062 152.688 102.528 152.79 101.88C152.892 101.232 153.312 100.818 153.714 100.884C154.116 100.95 154.362 101.514 154.254 102.132Z" fill="#263238"/>
<path d="M147.258 100.944C147.156 101.544 146.742 102.006 146.334 101.94C145.926 101.874 145.692 101.31 145.794 100.692C145.896 100.074 146.316 99.624 146.718 99.696C147.12 99.768 147.366 100.32 147.258 100.944Z" fill="#263238"/>
<path d="M146.893 99.7621L145.477 99.0781C145.477 99.0781 146.041 100.368 146.893 99.7621Z" fill="#263238"/>
<path d="M153.888 100.95L152.472 100.272C152.472 100.272 153.036 101.562 153.888 100.95Z" fill="#263238"/>
<path d="M144.882 96.762C144.918 96.7837 144.96 96.7951 145.002 96.7951C145.044 96.7951 145.086 96.7837 145.122 96.762C145.492 96.4508 145.932 96.2337 146.404 96.1293C146.877 96.0248 147.367 96.036 147.834 96.162C147.893 96.1827 147.958 96.1792 148.014 96.1522C148.07 96.1252 148.113 96.0769 148.134 96.018C148.155 95.9592 148.151 95.8945 148.124 95.8382C148.097 95.782 148.049 95.7387 147.99 95.718C147.452 95.5647 146.884 95.5435 146.336 95.6563C145.787 95.7691 145.274 96.0126 144.84 96.366C144.815 96.3838 144.794 96.4065 144.778 96.4328C144.762 96.4591 144.752 96.4884 144.748 96.5188C144.744 96.5493 144.746 96.5802 144.755 96.6097C144.764 96.6391 144.778 96.6665 144.798 96.69C144.818 96.722 144.847 96.7471 144.882 96.762Z" fill="#263238"/>
<path d="M137.25 182.472C137.25 182.472 137.166 178.176 138.45 174.822H169.86C169.86 174.822 172.686 179.382 173.418 182.472H137.25Z" fill="#8A2BE2"/>
<path d="M170.334 172.98L170.58 175.788C170.694 176.01 170.436 176.232 170.07 176.232H138.27C137.988 176.232 137.754 176.094 137.736 175.914L137.448 173.1C137.448 172.908 137.676 172.74 137.988 172.74H169.788C169.892 172.729 169.997 172.745 170.093 172.787C170.189 172.829 170.272 172.896 170.334 172.98Z" fill="#8A2BE2"/>
<path opacity="0.3" d="M170.334 172.98L170.58 175.788C170.694 176.01 170.436 176.232 170.07 176.232H138.27C137.988 176.232 137.754 176.094 137.736 175.914L137.448 173.1C137.448 172.908 137.676 172.74 137.988 172.74H169.788C169.892 172.729 169.997 172.745 170.093 172.787C170.189 172.829 170.272 172.896 170.334 172.98Z" fill="#FAFAFA"/>
<path d="M166.056 176.532H166.908C167.082 176.532 167.208 176.448 167.196 176.34L166.8 172.686C166.8 172.578 166.638 172.494 166.47 172.494H165.6C165.426 172.494 165.3 172.578 165.312 172.686L165.708 176.34C165.738 176.448 165.888 176.532 166.056 176.532Z" fill="#8A2BE2"/>
<path d="M140.682 176.532H141.534C141.702 176.532 141.834 176.448 141.822 176.34L141.42 172.686C141.42 172.578 141.264 172.494 141.09 172.494H140.238C140.07 172.494 139.938 172.578 139.95 172.686L140.352 176.34C140.364 176.448 140.514 176.532 140.682 176.532Z" fill="#8A2BE2"/>
<path d="M153.372 176.532H154.2C154.368 176.532 154.5 176.448 154.488 176.34L154.086 172.686C154.086 172.578 153.924 172.494 153.756 172.494H152.904C152.736 172.494 152.604 172.578 152.616 172.686L153.018 176.34C153.054 176.448 153.198 176.532 153.372 176.532Z" fill="#8A2BE2"/>
<path d="M178.116 136.8C179.496 141.28 180.822 145.784 182.094 150.312L184.008 157.068L184.962 160.428L185.202 161.256L185.322 161.67L185.352 161.766L185.256 161.616C185.104 161.399 184.918 161.208 184.704 161.052C184.235 160.71 183.676 160.512 183.096 160.482C182.658 160.461 182.221 160.547 181.824 160.734C181.392 160.968 181.434 161.022 181.47 160.98C181.572 160.891 181.664 160.793 181.746 160.686C182.029 160.332 182.289 159.962 182.526 159.576C183.054 158.712 183.576 157.74 184.068 156.744C185.088 154.752 186.006 152.64 186.936 150.516C187.866 148.392 188.736 146.244 189.636 144.078C190.536 141.912 191.394 139.734 192.282 137.586L196.116 138.726C195.12 143.406 193.956 148.002 192.516 152.58C191.808 154.878 191.022 157.152 190.116 159.456C189.648 160.608 189.15 161.76 188.532 162.954C188.203 163.6 187.834 164.225 187.428 164.826C187.176 165.203 186.895 165.56 186.588 165.894C186.101 166.446 185.51 166.897 184.848 167.22C184.188 167.541 183.458 167.694 182.724 167.664C181.854 167.615 181.018 167.308 180.324 166.782C179.882 166.448 179.498 166.042 179.19 165.582C178.995 165.286 178.825 164.975 178.68 164.652C178.626 164.52 178.566 164.382 178.524 164.262L178.41 163.968L178.254 163.542L177.942 162.696C177.534 161.574 177.12 160.452 176.742 159.33C175.974 157.086 175.206 154.848 174.486 152.598C173.014 148.102 171.642 143.584 170.37 139.044L178.116 136.8Z" fill="#FFBDA7"/>
<path d="M175.428 127.908C178.578 128.862 183.396 141.216 183.396 141.216L171.186 149.946C171.186 149.946 165.696 139.386 167.016 135.318C168.396 131.082 171.84 126.816 175.428 127.908Z" fill="#8A2BE2"/>
<path opacity="0.5" d="M175.428 127.908C178.578 128.862 183.396 141.216 183.396 141.216L171.186 149.946C171.186 149.946 165.696 139.386 167.016 135.318C168.396 131.082 171.84 126.816 175.428 127.908Z" fill="white"/>
<path d="M192.42 139.231L190.746 131.851L197.706 135.523C197.706 135.523 197.79 140.491 194.982 142.057L192.42 139.231Z" fill="#FFBDA7"/>
<path d="M193.662 125.994L198.102 129.144L197.706 135.522L190.746 131.85L193.662 125.994Z" fill="#FFBDA7"/>
<path d="M69.0001 88.8538H117.6C118.528 88.8447 119.448 89.0282 120.301 89.3927C121.154 89.7572 121.923 90.2948 122.558 90.9715C123.193 91.6482 123.681 92.4492 123.99 93.3241C124.3 94.1989 124.424 95.1284 124.356 96.0538L123 118.05C122.851 119.986 121.985 121.797 120.571 123.129C119.157 124.46 117.298 125.217 115.356 125.25H109.728L112.026 132.804L101.034 125.25H66.7741C65.8462 125.259 64.9265 125.076 64.0731 124.711C63.2197 124.347 62.4513 123.809 61.8163 123.132C61.1813 122.456 60.6937 121.654 60.3842 120.78C60.0746 119.905 59.95 118.975 60.0181 118.05L61.3621 96.0538C61.5111 94.1185 62.3763 92.3083 63.7888 90.9768C65.2012 89.6454 67.0593 88.8884 69.0001 88.8538Z" fill="#8A2BE2"/>
<path d="M113.148 100.374H72.0481C71.8736 100.373 71.7012 100.335 71.5418 100.264C71.3824 100.193 71.2396 100.09 71.1222 99.9607C71.0049 99.8316 70.9157 99.6794 70.8602 99.514C70.8048 99.3485 70.7843 99.1733 70.8001 98.9996C70.827 98.6354 70.9889 98.2945 71.2542 98.0436C71.5195 97.7927 71.869 97.65 72.2341 97.6436H113.34C113.514 97.6439 113.685 97.68 113.844 97.7496C114.003 97.8191 114.147 97.9206 114.265 98.0478C114.383 98.175 114.474 98.3251 114.531 98.4888C114.589 98.6525 114.612 98.8264 114.6 98.9996C114.579 99.3705 114.416 99.7192 114.147 99.9746C113.877 100.23 113.52 100.373 113.148 100.374Z" fill="white"/>
<path d="M88.8005 108.407H71.5565C71.3818 108.409 71.2089 108.374 71.0484 108.305C70.8879 108.236 70.7434 108.135 70.6239 108.008C70.5044 107.88 70.4126 107.73 70.3542 107.565C70.2958 107.4 70.272 107.226 70.2845 107.051C70.3114 106.686 70.4743 106.344 70.7408 106.093C71.0074 105.842 71.3583 105.7 71.7245 105.695H88.9865C89.1616 105.693 89.3352 105.728 89.4964 105.796C89.6576 105.864 89.8029 105.966 89.923 106.093C90.0431 106.22 90.1354 106.371 90.1942 106.536C90.253 106.701 90.2769 106.877 90.2645 107.051C90.2358 107.42 90.0691 107.765 89.7978 108.016C89.5264 108.267 89.1703 108.407 88.8005 108.407Z" fill="white"/>
<path d="M103.578 116.442H71.0643C70.8897 116.443 70.7167 116.408 70.5562 116.339C70.3957 116.27 70.2512 116.169 70.1317 116.042C70.0123 115.914 69.9204 115.764 69.862 115.599C69.8036 115.435 69.7799 115.26 69.7923 115.086C69.8179 114.72 69.9803 114.377 70.2472 114.126C70.514 113.875 70.8657 113.733 71.2323 113.73H103.746C103.921 113.727 104.095 113.762 104.255 113.83C104.416 113.899 104.561 114 104.681 114.127C104.801 114.255 104.892 114.406 104.95 114.571C105.009 114.736 105.032 114.911 105.018 115.086C104.991 115.451 104.828 115.793 104.562 116.044C104.295 116.295 103.944 116.437 103.578 116.442Z" fill="white"/>
<path d="M101.466 108.407H94.6678C94.4932 108.409 94.3202 108.374 94.1597 108.305C93.9992 108.236 93.8547 108.135 93.7352 108.008C93.6158 107.88 93.5239 107.73 93.4655 107.565C93.4071 107.4 93.3834 107.226 93.3958 107.051C93.4241 106.687 93.5873 106.346 93.8536 106.095C94.1199 105.844 94.4701 105.702 94.8358 105.695H101.628C101.803 105.693 101.976 105.727 102.137 105.796C102.298 105.864 102.443 105.966 102.562 106.093C102.682 106.221 102.774 106.372 102.832 106.537C102.89 106.702 102.913 106.877 102.9 107.051C102.873 107.416 102.711 107.757 102.446 108.007C102.18 108.258 101.831 108.401 101.466 108.407Z" fill="white"/>
<path d="M136.674 49.3137H110.178C108.667 49.3364 107.219 49.9233 106.119 50.9592C105.019 51.995 104.345 53.4049 104.232 54.9117L103.2 72.0357C103.148 72.7557 103.247 73.4785 103.488 74.1586C103.73 74.8387 104.11 75.4613 104.605 75.9872C105.099 76.5132 105.697 76.931 106.361 77.2144C107.025 77.4977 107.74 77.6405 108.462 77.6337H112.8L110.292 83.5137L119.568 77.6337H134.94C136.451 77.611 137.899 77.0241 138.999 75.9883C140.099 74.9524 140.772 73.5426 140.886 72.0357L141.936 54.9117C141.987 54.1917 141.889 53.4689 141.647 52.7888C141.405 52.1087 141.025 51.4861 140.531 50.9602C140.037 50.4343 139.439 50.0164 138.775 49.7331C138.111 49.4497 137.396 49.3069 136.674 49.3137Z" fill="#8A2BE2"/>
<g opacity="0.5">
<path d="M136.674 49.3137H110.178C108.667 49.3364 107.219 49.9233 106.119 50.9592C105.019 51.995 104.345 53.4049 104.232 54.9117L103.2 72.0357C103.148 72.7557 103.247 73.4785 103.488 74.1586C103.73 74.8387 104.11 75.4613 104.605 75.9872C105.099 76.5132 105.697 76.931 106.361 77.2144C107.025 77.4977 107.74 77.6405 108.462 77.6337H112.8L110.292 83.5137L119.568 77.6337H134.94C136.451 77.611 137.899 77.0241 138.999 75.9883C140.099 74.9524 140.772 73.5426 140.886 72.0357L141.936 54.9117C141.987 54.1917 141.889 53.4689 141.647 52.7888C141.405 52.1087 141.025 51.4861 140.531 50.9602C140.037 50.4343 139.439 50.0164 138.775 49.7331C138.111 49.4497 137.396 49.3069 136.674 49.3137Z" fill="#FAFAFA"/>
</g>
<path d="M123.9 66.2756C123.809 66.6527 123.594 66.9883 123.289 67.2287C122.985 67.4691 122.608 67.6004 122.22 67.6016H120.654C120.654 67.1576 120.69 66.8876 120.696 66.7916C120.719 65.9268 120.941 65.0788 121.344 64.3136C121.911 63.4606 122.631 62.7201 123.468 62.1296C124.136 61.6459 124.766 61.1124 125.352 60.5336C125.664 60.1652 125.849 59.7068 125.88 59.2256C125.904 58.9068 125.854 58.5868 125.734 58.2903C125.615 57.9938 125.429 57.7288 125.19 57.5156C124.608 57.0169 123.856 56.7632 123.09 56.8076C122.286 56.7856 121.499 57.0492 120.87 57.5516C120.497 57.8599 120.19 58.2418 119.97 58.6736C119.808 58.989 119.557 59.2495 119.247 59.4224C118.938 59.5953 118.584 59.673 118.23 59.6456C117.976 59.6141 117.734 59.519 117.526 59.369C117.318 59.219 117.151 59.019 117.041 58.7875C116.931 58.556 116.881 58.3005 116.896 58.0446C116.911 57.7888 116.99 57.5408 117.126 57.3236C117.488 56.716 117.953 56.1759 118.5 55.7276C119.801 54.6823 121.435 54.1431 123.102 54.2096C125.064 54.2096 126.588 54.7196 127.686 55.7456C128.2 56.1875 128.605 56.7426 128.868 57.3672C129.132 57.9919 129.247 58.669 129.204 59.3456C129.149 60.1146 128.884 60.8536 128.436 61.4816C127.594 62.5193 126.619 63.4431 125.538 64.2296C124.978 64.6206 124.494 65.1107 124.11 65.6756C124.013 65.8648 123.942 66.0668 123.9 66.2756ZM120.474 70.5836V70.3916C120.506 69.958 120.699 69.5521 121.016 69.2543C121.333 68.9564 121.75 68.7885 122.184 68.7836H122.4C122.608 68.7806 122.815 68.8208 123.006 68.9017C123.198 68.9827 123.37 69.1025 123.513 69.2537C123.656 69.4049 123.765 69.5842 123.835 69.7801C123.905 69.9759 123.933 70.1842 123.918 70.3916V70.5836C123.887 71.0178 123.694 71.4244 123.377 71.7231C123.061 72.0219 122.644 72.1912 122.208 72.1976H122.016C121.806 72.2041 121.596 72.1662 121.402 72.0864C121.207 72.0067 121.031 71.8867 120.885 71.7345C120.74 71.5823 120.628 71.4011 120.557 71.2028C120.487 71.0045 120.458 70.7935 120.474 70.5836Z" fill="white"/>
</svg>
