<svg width="300" height="300" viewBox="0 0 300 300" fill="none" xmlns="http://www.w3.org/2000/svg">
<path d="M178.816 27.9034C147.861 27.568 116.886 35.8551 89.2507 49.816C61.6153 63.7769 37.5156 85.7804 24.1626 113.73C10.8096 141.68 9.10466 175.66 22.6533 203.498C27.7332 213.93 35.4054 223.831 46.2499 227.954C60.12 233.223 75.4924 228.01 90.3128 227.458C110.402 226.717 129.771 234.676 147.61 243.969C165.449 253.263 182.666 264.135 201.888 270.011C221.111 275.888 243.282 276.112 259.989 264.939C275.76 254.395 284.124 235.298 286.122 216.432C288.12 197.566 284.585 178.609 281.07 159.966C277.381 140.492 259.563 28.7698 178.816 27.9034Z" fill="#8A2BE2"/>
<g opacity="0.7">
<path d="M178.816 27.9034C147.861 27.568 116.886 35.8551 89.2507 49.816C61.6153 63.7769 37.5156 85.7804 24.1626 113.73C10.8096 141.68 9.10466 175.66 22.6533 203.498C27.7332 213.93 35.4054 223.831 46.2499 227.954C60.12 233.223 75.4924 228.01 90.3128 227.458C110.402 226.717 129.771 234.676 147.61 243.969C165.449 253.263 182.666 264.135 201.888 270.011C221.111 275.888 243.282 276.112 259.989 264.939C275.76 254.395 284.124 235.298 286.122 216.432C288.12 197.566 284.585 178.609 281.07 159.966C277.381 140.492 259.563 28.7698 178.816 27.9034Z" fill="white"/>
</g>
<path d="M224.36 56.8594H90.2009V235.186H224.36V56.8594Z" fill="white"/>
<path d="M224.395 235.535H90.2358C90.1432 235.535 90.0543 235.498 89.9888 235.433C89.9233 235.367 89.8865 235.278 89.8865 235.186V56.8591C89.8865 56.7665 89.9233 56.6776 89.9888 56.6121C90.0543 56.5466 90.1432 56.5098 90.2358 56.5098H224.395C224.488 56.5098 224.576 56.5466 224.642 56.6121C224.707 56.6776 224.744 56.7665 224.744 56.8591V235.186C224.744 235.278 224.707 235.367 224.642 235.433C224.576 235.498 224.488 235.535 224.395 235.535ZM90.5852 234.836H224.045V57.2085H90.5852V234.836Z" fill="#263238"/>
<path d="M207.01 148.744H104.896V152.937H207.01V148.744Z" fill="#263238"/>
<path d="M207.01 95.9399H123.825V100.132H207.01V95.9399Z" fill="#263238"/>
<path d="M207.01 122.346H104.896V126.538H207.01V122.346Z" fill="#263238"/>
<path d="M180.772 201.542C179.472 202.939 178.145 204.336 176.789 205.734H104.909V201.542H180.772Z" fill="#263238"/>
<path d="M200.833 175.143C199.939 176.541 199.023 177.938 198.073 179.336H104.909V175.143H200.833Z" fill="#263238"/>
<path d="M141.007 230.372C141.007 230.372 135.039 233.271 118.325 234.837H90.5503" stroke="#263238" stroke-linecap="round" stroke-linejoin="round"/>
<path d="M221.453 133.295C222.486 131.745 223.111 129.959 223.27 128.104C223.48 125.77 223.633 123.052 223.682 121.396L223.948 112.249V131.898L221.453 133.295Z" fill="#263238"/>
<path d="M223.165 131.087C223.165 131.939 215.353 152.538 200.805 175.108C199.911 176.505 198.996 177.903 198.045 179.3C192.832 187.118 187.049 194.54 180.744 201.506C179.445 202.904 178.117 204.301 176.761 205.699C166.525 216.082 154.73 224.921 141.517 229.987C142.271 229.603 153.78 223.796 156.288 205.699C156.475 204.371 156.607 202.974 156.687 201.506C157.022 195.385 156.365 188.049 154.143 179.3C153.798 177.94 153.414 176.543 152.99 175.108C149.762 164.2 144.214 151.274 135.375 135.978L133.097 131.017L147.98 135.21C214.452 150.645 223.13 131.017 223.13 131.017C223.13 131.017 223.165 131.073 223.165 131.087Z" fill="white" stroke="#263238" stroke-linecap="round" stroke-linejoin="round"/>
<path d="M165.973 193.268C166.019 194.505 165.991 195.744 165.889 196.978L165.973 193.268Z" fill="white"/>
<path d="M165.973 193.268C166.019 194.505 165.991 195.744 165.889 196.978" stroke="#263238" stroke-linecap="round" stroke-linejoin="round"/>
<path d="M149.985 145.691C159.642 158.198 164.512 179.335 165.784 189.362L149.985 145.691Z" fill="white"/>
<path d="M149.985 145.691C159.642 158.198 164.512 179.335 165.784 189.362" stroke="#263238" stroke-linecap="round" stroke-linejoin="round"/>
<path d="M106.391 76.2979C105.45 76.3276 104.512 76.1679 103.634 75.8281C102.755 75.4884 101.954 74.9757 101.278 74.3203C100.601 73.665 100.064 72.8804 99.6964 72.0132C99.3291 71.146 99.1399 70.2138 99.1399 69.272C99.1399 68.3303 99.3291 67.3981 99.6964 66.5309C100.064 65.6637 100.601 64.8791 101.278 64.2238C101.954 63.5684 102.755 63.0557 103.634 62.716C104.512 62.3762 105.45 62.2165 106.391 62.2462C106.669 62.2462 106.935 62.3566 107.132 62.5532C107.329 62.7497 107.439 63.0163 107.439 63.2943C107.439 63.5723 107.329 63.8389 107.132 64.0354C106.935 64.232 106.669 64.3424 106.391 64.3424C105.413 64.3341 104.456 64.6163 103.639 65.1533C102.822 65.6903 102.183 66.4578 101.803 67.3585C101.424 68.2591 101.32 69.2523 101.506 70.212C101.691 71.1717 102.158 72.0546 102.846 72.7487C103.534 73.4428 104.413 73.9168 105.371 74.1106C106.329 74.3044 107.323 74.2092 108.227 73.837C109.131 73.4649 109.904 72.8327 110.448 72.0206C110.992 71.2084 111.282 70.253 111.282 69.2755C111.282 68.9976 111.393 68.731 111.589 68.5344C111.786 68.3379 112.052 68.2274 112.33 68.2274C112.608 68.2274 112.875 68.3379 113.071 68.5344C113.268 68.731 113.378 68.9976 113.378 69.2755C113.377 71.1314 112.641 72.9112 111.332 74.2268C110.023 75.5423 108.247 76.2869 106.391 76.2979Z" fill="#263238"/>
<path d="M106.223 73.3985C99.8017 73.3985 99.4523 59.5215 99.4453 56.7404V56.6566C99.4453 53.8616 99.7737 39.8867 106.223 39.8867C112.673 39.8867 113.12 54.9377 113.155 56.6566L107.565 56.7614C107.553 53.5274 107.083 50.3113 106.167 47.2096C105.345 50.2798 104.959 53.4507 105.021 56.6286V56.7125C104.959 59.9069 105.359 63.0935 106.209 66.1735C106.272 65.9709 106.335 65.7473 106.405 65.4748L106.845 63.9585L110.744 65.0974C110.937 65.1536 111.118 65.2474 111.275 65.3734C111.432 65.4994 111.562 65.6551 111.659 65.8317C111.756 66.0082 111.817 66.2021 111.838 66.4023C111.86 66.6024 111.842 66.8049 111.785 66.998C110.653 71.2394 108.774 73.3985 106.223 73.3985Z" fill="#BFBFBF" stroke="#263238" stroke-linecap="round" stroke-linejoin="round"/>
<path d="M112.365 70.3241C112.087 70.3241 111.821 70.2136 111.624 70.0171C111.427 69.8205 111.317 69.5539 111.317 69.276C111.317 67.9748 110.803 66.7264 109.887 65.8024C108.971 64.8785 107.727 64.3539 106.426 64.3428C106.148 64.3428 105.881 64.2324 105.685 64.0358C105.488 63.8393 105.378 63.5727 105.378 63.2947C105.378 63.0167 105.488 62.7501 105.685 62.5536C105.881 62.357 106.148 62.2466 106.426 62.2466C108.282 62.2595 110.058 63.0055 111.367 64.3222C112.676 65.6389 113.411 67.4194 113.413 69.276C113.413 69.5539 113.303 69.8205 113.106 70.0171C112.91 70.2136 112.643 70.3241 112.365 70.3241Z" fill="#263238"/>
<path d="M139.511 76.2983C137.686 76.2408 135.955 75.4753 134.685 74.164C133.414 72.8527 132.704 71.0984 132.704 69.2725C132.704 67.4465 133.414 65.6922 134.685 64.3809C135.955 63.0696 137.686 62.3041 139.511 62.2466C139.789 62.2466 140.056 62.357 140.253 62.5536C140.449 62.7501 140.56 63.0167 140.56 63.2947C140.56 63.5727 140.449 63.8393 140.253 64.0358C140.056 64.2324 139.789 64.3428 139.511 64.3428C138.536 64.3428 137.582 64.6321 136.771 65.1742C135.959 65.7163 135.327 66.4867 134.954 67.3881C134.58 68.2895 134.483 69.2814 134.673 70.2384C134.863 71.1953 135.333 72.0743 136.023 72.7642C136.713 73.4541 137.592 73.924 138.549 74.1143C139.506 74.3047 140.498 74.207 141.399 73.8336C142.301 73.4602 143.071 72.8279 143.613 72.0167C144.155 71.2054 144.445 70.2516 144.445 69.276C144.445 68.998 144.555 68.7314 144.752 68.5348C144.948 68.3383 145.215 68.2278 145.493 68.2278C145.771 68.2278 146.037 68.3383 146.234 68.5348C146.43 68.7314 146.541 68.998 146.541 69.276C146.537 71.1385 145.795 72.9236 144.477 74.2399C143.16 75.5563 141.374 76.2965 139.511 76.2983Z" fill="#263238"/>
<path d="M139.351 73.3985C132.929 73.3985 132.573 59.5215 132.573 56.7404V56.6566C132.573 53.8616 132.894 39.8867 139.351 39.8867C145.807 39.8867 146.247 54.9377 146.282 56.6566L140.692 56.7614C140.682 53.5273 140.211 50.3112 139.295 47.2096C138.475 50.2803 138.092 53.4511 138.156 56.6286V56.7125C138.094 59.9207 138.494 63.1211 139.344 66.2154C139.413 66.0128 139.476 65.7892 139.546 65.5167L139.986 64.0004L143.885 65.1394C144.079 65.1955 144.259 65.2893 144.416 65.4153C144.573 65.5413 144.704 65.6971 144.8 65.8736C144.897 66.0502 144.958 66.2441 144.98 66.4442C145.001 66.6443 144.983 66.8468 144.927 67.0399C143.781 71.2394 141.901 73.3985 139.351 73.3985Z" fill="#BFBFBF" stroke="#263238" stroke-linecap="round" stroke-linejoin="round"/>
<path d="M145.493 70.3241C145.215 70.3241 144.948 70.2136 144.751 70.0171C144.555 69.8205 144.444 69.5539 144.444 69.276C144.443 67.9682 143.922 66.7145 142.997 65.7897C142.073 64.865 140.819 64.3447 139.511 64.3428C139.233 64.3428 138.967 64.2324 138.77 64.0358C138.574 63.8393 138.463 63.5727 138.463 63.2947C138.463 63.0167 138.574 62.7501 138.77 62.5536C138.967 62.357 139.233 62.2466 139.511 62.2466C141.375 62.2484 143.162 62.9896 144.48 64.3075C145.798 65.6253 146.539 67.4122 146.541 69.276C146.541 69.5539 146.43 69.8205 146.234 70.0171C146.037 70.2136 145.77 70.3241 145.493 70.3241Z" fill="#263238"/>
<path d="M172.639 76.2983C170.814 76.2408 169.083 75.4753 167.812 74.164C166.541 72.8527 165.831 71.0984 165.831 69.2725C165.831 67.4465 166.541 65.6922 167.812 64.3809C169.083 63.0696 170.814 62.3041 172.639 62.2466C172.917 62.2466 173.183 62.357 173.38 62.5536C173.576 62.7501 173.687 63.0167 173.687 63.2947C173.687 63.5727 173.576 63.8393 173.38 64.0358C173.183 64.2324 172.917 64.3428 172.639 64.3428C171.663 64.3428 170.709 64.6321 169.898 65.1742C169.087 65.7163 168.454 66.4867 168.081 67.3881C167.708 68.2895 167.61 69.2814 167.8 70.2384C167.991 71.1953 168.46 72.0743 169.15 72.7642C169.84 73.4541 170.719 73.924 171.676 74.1143C172.633 74.3047 173.625 74.207 174.526 73.8336C175.428 73.4602 176.198 72.8279 176.74 72.0167C177.282 71.2054 177.572 70.2516 177.572 69.276C177.572 68.998 177.682 68.7314 177.879 68.5348C178.075 68.3383 178.342 68.2278 178.62 68.2278C178.898 68.2278 179.164 68.3383 179.361 68.5348C179.558 68.7314 179.668 68.998 179.668 69.276C179.664 71.1385 178.922 72.9236 177.605 74.2399C176.287 75.5563 174.501 76.2965 172.639 76.2983Z" fill="#263238"/>
<path d="M172.471 73.3985C166.05 73.3985 165.7 59.5215 165.693 56.7404V56.6566C165.693 53.8616 166.022 39.8867 172.471 39.8867C178.921 39.8867 179.375 54.9377 179.403 56.6566L173.813 56.7614C173.802 53.5274 173.331 50.3113 172.415 47.2096C171.597 50.2899 171.218 53.4703 171.29 56.6566V56.7404C171.228 59.9349 171.628 63.1215 172.478 66.2015C172.541 65.9988 172.611 65.7752 172.674 65.5027L173.121 63.9864L177.013 65.1254C177.206 65.1816 177.387 65.2754 177.544 65.4013C177.701 65.5273 177.831 65.6831 177.928 65.8596C178.025 66.0362 178.086 66.2301 178.107 66.4302C178.129 66.6304 178.111 66.8328 178.054 67.026C176.88 71.2394 175.029 73.3985 172.471 73.3985Z" fill="#BFBFBF" stroke="#263238" stroke-linecap="round" stroke-linejoin="round"/>
<path d="M178.62 70.3241C178.342 70.3241 178.075 70.2136 177.879 70.0171C177.682 69.8205 177.572 69.5539 177.572 69.276C177.57 67.9682 177.05 66.7145 176.125 65.7897C175.2 64.865 173.946 64.3447 172.639 64.3428C172.361 64.3428 172.094 64.2324 171.898 64.0358C171.701 63.8393 171.591 63.5727 171.591 63.2947C171.591 63.0167 171.701 62.7501 171.898 62.5536C172.094 62.357 172.361 62.2466 172.639 62.2466C174.504 62.2466 176.292 62.987 177.612 64.305C178.931 65.6231 179.673 67.411 179.675 69.276C179.673 69.5546 179.561 69.8211 179.364 70.0175C179.166 70.2139 178.899 70.3241 178.62 70.3241Z" fill="#263238"/>
<path d="M205.766 76.2979C204.825 76.3276 203.887 76.1679 203.009 75.8281C202.131 75.4884 201.33 74.9757 200.653 74.3203C199.977 73.665 199.439 72.8804 199.072 72.0132C198.705 71.146 198.515 70.2138 198.515 69.272C198.515 68.3303 198.705 67.3981 199.072 66.5309C199.439 65.6637 199.977 64.8791 200.653 64.2238C201.33 63.5684 202.131 63.0557 203.009 62.716C203.887 62.3762 204.825 62.2165 205.766 62.2462C206.044 62.2462 206.311 62.3566 206.507 62.5532C206.704 62.7497 206.814 63.0163 206.814 63.2943C206.814 63.5723 206.704 63.8389 206.507 64.0354C206.311 64.232 206.044 64.3424 205.766 64.3424C204.79 64.341 203.836 64.6292 203.024 65.1704C202.212 65.7116 201.578 66.4816 201.204 67.3829C200.829 68.2842 200.731 69.2763 200.92 70.2337C201.11 71.1911 201.579 72.0707 202.269 72.7613C202.958 73.4519 203.837 73.9225 204.794 74.1134C205.752 74.3043 206.744 74.207 207.646 73.8338C208.547 73.4607 209.318 72.8284 209.861 72.017C210.403 71.2056 210.693 70.2515 210.693 69.2755C210.693 68.9976 210.803 68.731 210.999 68.5344C211.196 68.3379 211.463 68.2274 211.741 68.2274C212.019 68.2274 212.285 68.3379 212.482 68.5344C212.678 68.731 212.789 68.9976 212.789 69.2755C212.787 71.1374 212.046 72.9225 210.73 74.2391C209.413 75.5556 207.628 76.2961 205.766 76.2979Z" fill="#263238"/>
<path d="M205.599 73.3985C199.177 73.3985 198.828 59.5215 198.821 56.7404V56.6566C198.821 53.8616 199.149 39.8867 205.599 39.8867C212.048 39.8867 212.516 54.9656 212.516 56.6845L206.926 56.7894C206.911 53.5556 206.441 50.34 205.529 47.2375C204.702 50.307 204.316 53.4785 204.383 56.6566V56.7404C204.331 59.9403 204.738 63.1312 205.592 66.2154C205.662 66.0128 205.724 65.7892 205.794 65.5167L206.234 64.0004L210.133 65.1394C210.327 65.1955 210.507 65.2893 210.664 65.4153C210.821 65.5413 210.952 65.6971 211.048 65.8736C211.145 66.0502 211.206 66.2441 211.228 66.4442C211.249 66.6443 211.231 66.8468 211.175 67.0399C210.029 71.2394 208.149 73.3985 205.599 73.3985Z" fill="#BFBFBF" stroke="#263238" stroke-linecap="round" stroke-linejoin="round"/>
<path d="M211.741 70.3241C211.463 70.3241 211.196 70.2136 211 70.0171C210.803 69.8205 210.693 69.5539 210.693 69.276C210.693 67.9688 210.174 66.7151 209.25 65.7902C208.326 64.8652 207.074 64.3447 205.766 64.3428C205.488 64.3428 205.222 64.2324 205.025 64.0358C204.829 63.8393 204.718 63.5727 204.718 63.2947C204.718 63.0167 204.829 62.7501 205.025 62.5536C205.222 62.357 205.488 62.2466 205.766 62.2466C207.629 62.2503 209.414 62.9923 210.73 64.3099C212.047 65.6276 212.787 67.4134 212.789 69.276C212.789 69.5539 212.678 69.8205 212.482 70.0171C212.285 70.2136 212.019 70.3241 211.741 70.3241Z" fill="#263238"/>
<path d="M235.513 225.487C237.991 214.71 231.264 203.965 220.487 201.487C209.71 199.009 198.965 205.736 196.487 216.513C194.009 227.29 200.736 238.035 211.513 240.513C222.29 242.991 233.035 236.264 235.513 225.487Z" fill="#8A2BE2" stroke="#263238" stroke-miterlimit="10"/>
<path d="M227.685 221.009C227.686 221.254 227.638 221.497 227.545 221.724C227.451 221.951 227.313 222.157 227.14 222.331C226.966 222.504 226.76 222.642 226.533 222.735C226.307 222.829 226.063 222.877 225.818 222.876H217.874V230.825C217.874 231.32 217.677 231.795 217.327 232.146C216.977 232.496 216.502 232.693 216.007 232.693C215.512 232.693 215.037 232.496 214.687 232.146C214.336 231.795 214.14 231.32 214.14 230.825V222.86H206.196C205.701 222.86 205.226 222.663 204.876 222.313C204.525 221.963 204.329 221.488 204.329 220.993C204.329 220.498 204.525 220.023 204.876 219.673C205.226 219.322 205.701 219.126 206.196 219.126H214.14V211.198C214.14 210.703 214.336 210.228 214.687 209.877C215.037 209.527 215.512 209.331 216.007 209.331C216.502 209.331 216.977 209.527 217.327 209.877C217.677 210.228 217.874 210.703 217.874 211.198V219.126H225.818C226.065 219.126 226.309 219.174 226.536 219.269C226.764 219.364 226.97 219.503 227.144 219.678C227.318 219.853 227.455 220.061 227.548 220.289C227.641 220.518 227.687 220.762 227.685 221.009Z" fill="white"/>
</svg>
