<svg width="76" height="72" viewBox="0 0 76 72" fill="none" xmlns="http://www.w3.org/2000/svg">
<g clip-path="url(#clip0_520_63042)">
<path d="M58.8152 59.4864L55.2466 60.5083L57.1824 65.6607L60.751 64.6387C61.1596 64.5009 61.0574 63.2362 60.5224 61.8124C59.9874 60.3902 59.2238 59.3486 58.8152 59.4864Z" fill="#8A2BE2" stroke="#263238" stroke-width="0.4" stroke-linecap="round" stroke-linejoin="round"/>
<path d="M56.955 62.8358C57.49 64.258 57.5922 65.5244 57.1835 65.6621C56.7749 65.7999 56.0096 64.7583 55.4763 63.3361C54.9413 61.9139 54.8391 60.6476 55.2477 60.5098C55.6564 60.372 56.4217 61.4136 56.955 62.8358Z" fill="#263238" stroke="#263238" stroke-width="0.4" stroke-linecap="round" stroke-linejoin="round"/>
<path d="M44.2715 44.8232L44.8498 47.8333C44.8498 47.8333 46.8722 50.7072 47.9319 53.0332C48.9915 55.3592 51.7844 58.3709 52.3143 58.781C52.8441 59.1911 54.3851 60.0589 54.7695 60.651C55.1539 61.2432 55.9729 63.1148 55.9729 63.1148L52.0251 64.5747C52.0251 64.5747 51.2546 63.7989 50.8702 62.7047C50.4858 61.6106 50.2451 60.7429 50.2451 60.7429C50.2451 60.7429 46.4411 58.0511 45.1892 57.185C43.9373 56.3188 43.5529 55.8628 43.5529 55.8628C43.5529 55.8628 42.1574 49.7049 41.9167 48.1532C41.676 46.6014 43.1686 45.0053 44.2767 44.8232H44.2715Z" fill="white" stroke="#263238" stroke-width="0.4" stroke-linecap="round" stroke-linejoin="round"/>
<path d="M55.7952 62.1896C55.7952 62.1896 56.635 63.9464 56.5657 64.1777C56.4965 64.409 55.8662 64.5747 55.5857 64.5091C55.3052 64.4435 54.8516 62.6194 54.8516 62.521C54.8516 62.4225 55.4108 61.8911 55.797 62.1896H55.7952Z" fill="white" stroke="#263238" stroke-width="0.4" stroke-linecap="round" stroke-linejoin="round"/>
<path d="M54.6409 62.5866C54.6409 62.5866 55.4807 64.3434 55.4097 64.5747C55.3405 64.806 54.7102 64.9717 54.4297 64.9061C54.1492 64.8404 53.6956 63.0164 53.6956 62.9179C53.6956 62.8195 54.2548 62.288 54.6409 62.5866Z" fill="white" stroke="#263238" stroke-width="0.4" stroke-linecap="round" stroke-linejoin="round"/>
<path d="M53.5547 62.9771C53.5547 62.9771 54.32 64.5797 54.2559 64.7897C54.1918 65.0013 53.6187 65.1522 53.3625 65.0915C53.1079 65.0308 52.6924 63.3691 52.6924 63.2773C52.6924 63.1854 53.2032 62.7031 53.5529 62.9754L53.5547 62.9771Z" fill="white" stroke="#263238" stroke-width="0.4" stroke-linecap="round" stroke-linejoin="round"/>
<path d="M52.6356 63.3344C52.6356 63.3344 53.33 64.7878 53.2728 64.9813C53.2157 65.1733 52.6945 65.3111 52.4625 65.2553C52.2305 65.1995 51.8547 63.692 51.8547 63.61C51.8547 63.528 52.3188 63.0884 52.6374 63.3361L52.6356 63.3344Z" fill="white" stroke="#263238" stroke-width="0.4" stroke-linecap="round" stroke-linejoin="round"/>
<path d="M52.2961 59.6374C52.2961 59.6374 52.6805 59.4717 53.2052 59.5045C53.7298 59.5374 55.1998 59.936 55.4094 60.2001C55.6189 60.4658 56.1435 62.2882 55.934 62.4211C55.7245 62.554 53.5549 63.3167 53.2398 63.4152C52.9247 63.5152 52.8554 62.9181 53.0303 62.6524C53.2052 62.3866 53.6606 62.1554 53.6606 62.1554C53.6606 62.1554 52.7515 62.0897 52.4018 61.5583" fill="white"/>
<path d="M52.2961 59.6374C52.2961 59.6374 52.6805 59.4717 53.2052 59.5045C53.7298 59.5374 55.1998 59.936 55.4094 60.2001C55.6189 60.4658 56.1435 62.2882 55.934 62.4211C55.7245 62.554 53.5549 63.3167 53.2398 63.4152C52.9247 63.5152 52.8554 62.9181 53.0303 62.6524C53.2052 62.3866 53.6606 62.1554 53.6606 62.1554C53.6606 62.1554 52.7515 62.0897 52.4018 61.5583" stroke="#263238" stroke-width="0.4" stroke-linecap="round" stroke-linejoin="round"/>
<path d="M55.095 61.6928C54.5011 61.5927 53.6614 62.157 53.6614 62.157C53.6614 62.157 54.186 61.2614 54.5704 61.1301" stroke="#263238" stroke-width="0.4" stroke-linecap="round" stroke-linejoin="round"/>
<path d="M50.4321 61.7337L46.8635 62.7556L48.7993 67.908L52.3679 66.886C52.7765 66.7482 52.6744 65.4835 52.1394 64.0597C51.6043 62.6359 50.8407 61.5959 50.4321 61.7337Z" fill="#8A2BE2" stroke="#263238" stroke-width="0.4" stroke-linecap="round" stroke-linejoin="round"/>
<path d="M48.5702 65.0834C49.1052 66.5056 49.2074 67.7719 48.7987 67.9097C48.3901 68.0475 47.6248 67.0059 47.0915 65.5837C46.5582 64.1615 46.4543 62.8951 46.8629 62.7574C47.2716 62.6196 48.0369 63.6612 48.5702 65.0834Z" fill="#263238" stroke="#263238" stroke-width="0.4" stroke-linecap="round" stroke-linejoin="round"/>
<path d="M49.0994 72.2941L45.7646 63.0688C45.7646 63.0688 45.3802 59.9669 45.1862 57.6868C44.994 55.4067 43.6937 52.851 43.6937 52.851C43.6937 52.851 41.4791 54.8588 37.2422 55.6331C33.0052 56.409 27.5649 53.8533 26.4568 53.2611L25.3486 52.6689C25.3486 52.6689 21.3523 58.963 21.4008 63.8447C21.4493 68.7247 22.9418 72.3286 22.9418 72.3286" fill="#B3B3B3"/>
<path d="M49.0994 72.2941L45.7646 63.0688C45.7646 63.0688 45.3802 59.9669 45.1862 57.6868C44.994 55.4067 43.6937 52.851 43.6937 52.851C43.6937 52.851 41.4791 54.8588 37.2422 55.6331C33.0052 56.409 27.5649 53.8533 26.4568 53.2611L25.3486 52.6689C25.3486 52.6689 21.3523 58.963 21.4008 63.8447C21.4493 68.7247 22.9418 72.3286 22.9418 72.3286" stroke="#263238" stroke-width="0.4" stroke-linecap="round" stroke-linejoin="round"/>
<path d="M43.0279 48.4417C43.0279 48.4417 43.9819 50.7529 43.9819 51.9832C43.9819 53.2134 43.4036 54.1271 41.4782 55.2212C39.5528 56.3153 35.6033 56.7714 32.1853 56.2711C28.7674 55.7691 25.5416 53.717 25.3477 52.6672C25.1538 51.6174 26.719 48.8157 26.719 48.8157C26.719 48.8157 37.5962 49.6424 43.0279 48.4417Z" fill="white" stroke="#263238" stroke-width="0.4" stroke-linecap="round" stroke-linejoin="round"/>
<path d="M38.939 29.0365C38.939 29.0365 41.8843 28.8692 43.247 31.3691C44.6097 33.869 44.1266 40.6141 44.1266 40.6141C44.1266 40.6141 39.5104 32.5354 39.204 31.2854C38.8958 30.0355 38.9408 29.0365 38.9408 29.0365H38.939Z" fill="white" stroke="#263238" stroke-width="0.4" stroke-linecap="round" stroke-linejoin="round"/>
<path d="M31.555 22.3306C31.555 22.3306 31.0719 27.3271 30.5438 28.203C30.0157 29.0773 25.7078 30.4109 23.2023 32.6582C20.6969 34.9072 22.4993 41.1946 23.159 43.4026C23.8187 45.6105 26.719 48.8157 26.719 48.8157C26.719 48.8157 28.9162 50.023 34.8067 49.8573C40.6972 49.69 42.9828 48.7337 43.0261 48.4417C43.0694 48.1497 42.9828 47.4427 42.9828 47.4427C42.9828 47.4427 44.6537 45.9845 45.0485 43.9865C45.4432 41.9869 44.4615 39.0425 43.0711 37.2824C42.1326 36.0948 40.4341 32.5352 39.8176 31.4099C39.203 30.2863 38.9381 29.0363 38.9381 29.0363C38.9381 29.0363 37.4871 28.9117 37.2672 28.4114C37.0473 27.9111 37.3555 26.5381 37.3555 26.5381C37.3555 26.5381 36.1694 27.0384 31.5533 22.3322L31.555 22.3306Z" fill="white" stroke="#263238" stroke-width="0.4" stroke-linecap="round" stroke-linejoin="round"/>
<path d="M33.7161 25.7734C33.7161 25.7734 34.0173 26.6789 35.0233 27.5368C36.0293 28.3947 37.2691 28.4111 37.2691 28.4111L37.3574 26.5378L33.7161 25.7734Z" fill="#263238" stroke="#263238" stroke-width="0.4" stroke-linecap="round" stroke-linejoin="round"/>
<path d="M39.8197 31.4097C39.205 30.286 38.9401 29.0361 38.9401 29.0361C38.9401 29.0361 38.393 28.9885 37.9203 28.8359C38.0155 29.328 38.3497 30.6863 39.4682 33.1583C40.9192 36.3652 41.6031 36.8523 41.6966 38.245C41.8646 40.7269 39.5652 41.8686 36.4 41.2026C33.2349 40.5366 31.9951 38.1548 31.467 36.6555C30.9389 35.1562 30.4991 34.2409 29.7528 32.4086C29.2992 31.2948 28.7174 30.1712 28.4698 29.4937C27.9157 29.7677 27.2924 30.0711 26.6535 30.4058C27.1296 30.934 28.6378 32.7892 29.8411 36.2831C31.2921 40.489 27.2041 45.6118 25.6215 46.3188C25.3705 46.4304 25.1575 46.5386 24.9688 46.6403C25.8587 47.864 26.721 48.8171 26.721 48.8171C26.721 48.8171 28.9183 50.0244 34.8088 49.8587C40.6993 49.6914 42.9849 48.7351 43.0281 48.4431C43.0714 48.1511 42.9849 47.4441 42.9849 47.4441C42.9849 47.4441 44.6557 45.9858 45.0505 43.9879C45.4453 41.9883 44.3908 38.783 43.0732 37.2838C42.0706 36.1454 40.4361 32.5366 39.8197 31.4113V31.4097Z" fill="#8A2BE2" stroke="#263238" stroke-width="0.4" stroke-linecap="round" stroke-linejoin="round"/>
<path d="M37.1843 29.0854L37.3471 30.2173C37.3471 30.2173 38.2163 30.3206 39.1392 29.9089" stroke="#263238" stroke-width="0.4" stroke-linecap="round" stroke-linejoin="round"/>
<path d="M30.2881 31.6065C30.2881 31.6065 33.2195 30.9897 33.6541 30.9372C34.0887 30.8847 34.6861 30.9881 34.6861 30.9881" stroke="#263238" stroke-width="0.4" stroke-linecap="round" stroke-linejoin="round"/>
<path d="M33.9219 48.1036C35.3469 48.1709 38.6211 48.1791 41.9941 47.167" stroke="#263238" stroke-width="0.4" stroke-linecap="round" stroke-linejoin="round"/>
<path d="M33.1777 48.051C33.1777 48.051 33.3214 48.0658 33.5846 48.0838" stroke="#263238" stroke-width="0.4" stroke-linecap="round" stroke-linejoin="round"/>
<path d="M39.1027 48.4055C38.6214 48.4744 38.1123 48.5285 37.5859 48.5581" stroke="#263238" stroke-width="0.4" stroke-linecap="round" stroke-linejoin="round"/>
<path d="M42.9847 47.4426C42.9847 47.4426 41.6029 47.9839 39.6377 48.3219" stroke="#263238" stroke-width="0.4" stroke-linecap="round" stroke-linejoin="round"/>
<path d="M38.0186 10.351C38.0186 10.351 37.6827 8.72872 35.8698 7.48697C34.0569 6.24686 30.7325 6.85051 30.1611 7.19991C29.5897 7.5493 29.2209 8.05945 29.2209 8.05945L31.1359 8.21857C31.1359 8.21857 28.4158 8.79105 27.6764 10.0328C26.9371 11.2729 27.1396 12.0685 27.1396 12.0685L28.0469 11.56C28.0469 11.56 26.8384 13.0871 27.2747 14.8686C27.711 16.65 30.9022 18.5594 32.6475 17.8589C34.3946 17.1585 35.0993 13.0871 35.8715 12.4507C36.6438 11.8142 37.8523 11.7503 37.9874 11.4648C38.1225 11.1778 38.0203 10.351 38.0203 10.351H38.0186Z" fill="#263238" stroke="#263238" stroke-width="0.4" stroke-linecap="round" stroke-linejoin="round"/>
<path d="M41.5148 18.0935C41.5148 18.0935 40.7218 20.3523 41.3452 23.072C41.9685 25.7933 40.8119 26.9186 40.2214 27.1827C39.631 27.4468 39.4613 27.291 39.4613 27.291C39.4613 27.291 40.5764 26.9153 40.8396 25.982C41.1028 25.0486 41.0127 23.6166 41.0127 23.6166C41.0127 23.6166 40.2803 25.6277 39.8717 26.4593C39.463 27.291 38.9072 27.2532 38.9072 27.2532C38.9072 27.2532 41.1218 24.7845 40.585 22.4142C40.0483 20.0439 41.5148 18.0935 41.5148 18.0935Z" fill="#263238" stroke="#263238" stroke-width="0.4" stroke-linecap="round" stroke-linejoin="round"/>
<path d="M30.9683 16.6811C30.9683 16.6811 31.5172 11.9716 34.9646 10.7643C38.322 9.58654 41.7486 10.7003 43.1251 13.0231C44.5016 15.3458 43.5285 17.9868 43.158 19.2269C42.7875 20.467 42.017 21.2314 42.017 21.7088C42.017 22.1861 41.9841 23.2359 41.546 23.9036C41.1097 24.5712 38.625 26.5117 37.8856 26.8939C37.1463 27.2761 36.0381 27.5615 35.065 26.9579C34.0919 26.3542 31.3718 24.0627 31.1363 22.5683C30.9008 21.0723 30.8679 18.9726 30.8679 18.9726L30.9683 16.6827V16.6811Z" fill="white" stroke="#263238" stroke-width="0.4" stroke-linecap="round" stroke-linejoin="round"/>
<path d="M43.1238 13.0231C41.7472 10.7003 38.3224 9.58654 34.9633 10.7643C31.5159 11.9733 30.967 16.6811 30.967 16.6811L30.9324 17.452L31.4362 17.5718C31.4362 17.5718 32.3435 17.2847 32.5444 16.745C32.7452 16.2054 33.2508 15.6345 33.8534 15.313C34.6932 14.8668 35.1537 14.3026 35.2974 13.4676C35.5329 12.0996 37.1103 11.8125 38.9578 12.5457C40.8053 13.2773 40.8036 13.4053 42.2147 13.4053C43.0355 13.4053 43.6778 14.378 43.8337 15.9085C43.8544 14.9718 43.683 13.9712 43.122 13.0231H43.1238Z" fill="#263238" stroke="#263238" stroke-width="0.4" stroke-linecap="round" stroke-linejoin="round"/>
<path d="M38.1538 18.4314C38.1538 18.4314 37.3487 17.3505 35.4666 17.5719" stroke="#263238" stroke-width="0.4" stroke-linecap="round" stroke-linejoin="round"/>
<path d="M35.4666 19.1941C35.4666 19.1941 35.9375 19.9569 37.3469 19.8306" stroke="#263238" stroke-width="0.4" stroke-linecap="round" stroke-linejoin="round"/>
<path d="M39.9001 19.2272C39.9001 19.2272 41.2438 18.9089 41.8481 20.0867" stroke="#263238" stroke-width="0.4" stroke-linecap="round" stroke-linejoin="round"/>
<path d="M39.5974 20.4998C39.5974 20.4998 39.9333 21.2314 41.3445 21.2314" stroke="#263238" stroke-width="0.4" stroke-linecap="round" stroke-linejoin="round"/>
<path d="M39.6314 19.1628C39.6314 19.1628 38.8262 19.5122 38.7916 19.8633C38.7587 20.2127 38.8591 21.9629 38.7587 22.2172C38.6583 22.4714 37.8185 22.6945 37.2817 21.9941" stroke="#263238" stroke-width="0.4" stroke-linecap="round" stroke-linejoin="round"/>
<path d="M35.4666 22.1863C35.4666 22.1863 36.1713 23.5855 37.9512 23.7134" stroke="#263238" stroke-width="0.4" stroke-linecap="round" stroke-linejoin="round"/>
<path d="M35.5007 19.5764C35.5007 19.5764 36.1725 19.9258 36.8773 19.9898" stroke="#263238" stroke-width="0.4" stroke-linecap="round" stroke-linejoin="round"/>
<path d="M39.6658 20.8181C39.6658 20.8181 40.2025 21.3266 40.909 21.3266" stroke="#263238" stroke-width="0.4" stroke-linecap="round" stroke-linejoin="round"/>
<path d="M31.8287 18.0672C31.8287 18.0672 31.3387 15.705 30.4037 16.2119C29.4687 16.7188 29.6921 18.743 30.1803 19.5008C30.6704 20.2603 31.337 19.965 31.337 19.965" fill="white"/>
<path d="M31.8287 18.0672C31.8287 18.0672 31.3387 15.705 30.4037 16.2119C29.4687 16.7188 29.6921 18.743 30.1803 19.5008C30.6704 20.2603 31.337 19.965 31.337 19.965" stroke="#263238" stroke-width="0.4" stroke-linecap="round" stroke-linejoin="round"/>
<path d="M32.0403 17.0832C32.0403 17.0832 31.8637 19.4568 30.1945 21.7467C28.5237 24.0366 29.1401 25.4949 29.5799 25.9526C30.0197 26.4102 30.2396 26.3266 30.2396 26.3266C30.2396 26.3266 29.36 25.5769 29.4916 24.619C29.6232 23.661 30.2829 22.37 30.2829 22.37C30.2829 22.37 30.1513 24.4943 30.1945 25.4096C30.2378 26.3266 30.7659 26.4923 30.7659 26.4923C30.7659 26.4923 29.7115 23.41 31.1607 21.4121C32.6117 19.4125 32.0403 17.0815 32.0403 17.0815V17.0832Z" fill="#263238" stroke="#263238" stroke-width="0.4" stroke-linecap="round" stroke-linejoin="round"/>
<path d="M39.031 36.984L35.3377 36.5017L34.8269 41.9493L38.5202 42.4316C38.953 42.4677 39.4171 41.2784 39.5573 39.7742C39.6993 38.27 39.4621 37.0201 39.031 36.984Z" fill="#8A2BE2" stroke="#263238" stroke-width="0.4" stroke-linecap="round" stroke-linejoin="round"/>
<path d="M35.8642 39.2918C35.7222 40.7961 35.2582 41.9869 34.8271 41.9492C34.3959 41.9115 34.1587 40.6632 34.3007 39.159C34.4427 37.6548 34.9067 36.4639 35.3379 36.5016C35.7707 36.5377 36.0062 37.7876 35.8642 39.2918Z" fill="#263238" stroke="#263238" stroke-width="0.4" stroke-linecap="round" stroke-linejoin="round"/>
<path d="M25.0135 31.5396C25.0135 31.5396 21.6925 32.7304 20.4856 35.542C19.2788 38.3536 19.7307 42.5955 21.2908 46.5029C22.8508 50.4102 24.7122 54.224 26.2705 54.6046C27.8306 54.9851 29.5915 50.4578 30.3949 48.9814C31.1983 47.5051 33.2623 43.6437 33.3627 43.168C33.4631 42.6923 34.9228 41.1668 35.4249 40.6894C35.927 40.2121 35.8266 39.3558 35.7764 39.0688C35.7262 38.7834 35.1721 36.7805 35.0215 36.5902C34.8708 36.3999 34.6197 36.4951 34.4172 36.3999C34.2163 36.3048 32.355 35.8274 32.355 35.8274C32.355 35.8274 31.4996 35.3993 31.0979 35.5896C30.6962 35.7799 30.594 36.0669 30.594 36.0669C30.594 36.0669 30.6945 37.3054 30.343 38.2109C29.9915 39.1163 29.1863 40.2121 29.337 40.4024C29.4876 40.5927 30.4434 41.8803 30.4434 41.8803C30.4434 41.8803 29.4876 43.6913 28.2808 45.0741L27.4254 41.9771" fill="white"/>
<path d="M25.0135 31.5396C25.0135 31.5396 21.6925 32.7304 20.4856 35.542C19.2788 38.3536 19.7307 42.5955 21.2908 46.5029C22.8508 50.4102 24.7122 54.224 26.2705 54.6046C27.8306 54.9851 29.5915 50.4578 30.3949 48.9814C31.1983 47.5051 33.2623 43.6437 33.3627 43.168C33.4631 42.6923 34.9228 41.1668 35.4249 40.6894C35.927 40.2121 35.8266 39.3558 35.7764 39.0688C35.7262 38.7834 35.1721 36.7805 35.0215 36.5902C34.8708 36.3999 34.6197 36.4951 34.4172 36.3999C34.2163 36.3048 32.355 35.8274 32.355 35.8274C32.355 35.8274 31.4996 35.3993 31.0979 35.5896C30.6962 35.7799 30.594 36.0669 30.594 36.0669C30.594 36.0669 30.6945 37.3054 30.343 38.2109C29.9915 39.1163 29.1863 40.2121 29.337 40.4024C29.4876 40.5927 30.4434 41.8803 30.4434 41.8803C30.4434 41.8803 29.4876 43.6913 28.2808 45.0741L27.4254 41.9771" stroke="#263238" stroke-width="0.4" stroke-linecap="round" stroke-linejoin="round"/>
<path d="M33.3647 43.1683C33.3786 43.101 33.4218 43.0125 33.4842 42.9091L33.4582 42.8222C31.6332 42.7812 30.4471 41.8806 30.4471 41.8806C30.4471 41.8806 29.4914 43.6916 28.2845 45.0744L27.6006 46.0799C28.7261 47.5956 30.1407 47.9745 30.8939 48.0664C31.8393 46.3063 33.2816 43.5653 33.3664 43.1699L33.3647 43.1683Z" fill="#A1A1A1" stroke="#263238" stroke-width="0.4" stroke-linecap="round" stroke-linejoin="round"/>
<path d="M27.6002 46.0796C27.6002 46.0796 23.907 48.6139 23.7373 50.0607" stroke="#263238" stroke-width="0.4" stroke-linecap="round" stroke-linejoin="round"/>
<path d="M34.4209 36.4014C34.4209 36.4014 34.9248 38.2599 34.9248 39.1178" stroke="#263238" stroke-width="0.4" stroke-linecap="round" stroke-linejoin="round"/>
<path d="M33.5156 36.2588C33.5156 36.2588 33.7667 37.927 33.8671 38.6898" stroke="#263238" stroke-width="0.4" stroke-linecap="round" stroke-linejoin="round"/>
<path d="M32.3584 35.8291C32.3584 35.8291 32.6597 37.8779 32.6597 38.4028" stroke="#263238" stroke-width="0.4" stroke-linecap="round" stroke-linejoin="round"/>
<path d="M32.5925 38.9834C32.5925 38.9834 32.409 39.1294 32.2549 39.3033" stroke="#263238" stroke-width="0.4" stroke-linecap="round" stroke-linejoin="round"/>
<path d="M33.7261 39.2461C33.7261 39.2461 33.5425 39.3921 33.3884 39.566" stroke="#263238" stroke-width="0.4" stroke-linecap="round" stroke-linejoin="round"/>
<path d="M34.8611 39.5068C34.8611 39.5068 34.6775 39.6528 34.5234 39.8267" stroke="#263238" stroke-width="0.4" stroke-linecap="round" stroke-linejoin="round"/>
<path d="M30.2548 35.6356L26.5616 35.1533L26.0508 40.6009L29.744 41.0832C30.1769 41.1193 30.6409 39.93 30.7812 38.4258C30.9232 36.9216 30.686 35.6717 30.2548 35.6356Z" fill="#8A2BE2" stroke="#263238" stroke-width="0.4" stroke-linecap="round" stroke-linejoin="round"/>
<path d="M27.0881 37.9418C26.9461 39.446 26.4821 40.6369 26.051 40.5991C25.6198 40.5614 25.3826 39.3131 25.5246 37.8089C25.6666 36.3047 26.1306 35.1138 26.5617 35.1515C26.9929 35.1876 27.2301 36.4375 27.0881 37.9418Z" fill="#263238" stroke="#263238" stroke-width="0.4" stroke-linecap="round" stroke-linejoin="round"/>
</g>
<defs>
<clipPath id="clip0_520_63042">
<rect width="76" height="72" fill="white"/>
</clipPath>
</defs>
</svg>
