<svg width="34" height="34" viewBox="0 0 34 34" fill="none" xmlns="http://www.w3.org/2000/svg">
<path opacity="0.2" d="M18.4003 19.8502C14.1609 12.7832 19.8134 5.71761 31.8263 6.42417C32.5395 18.4371 25.4672 24.0909 18.4003 19.8502ZM2.15994 11.7221C1.65525 20.3031 6.70346 24.3393 11.7503 21.3125C14.7785 16.2656 10.741 11.2174 2.15994 11.7221Z" fill="#8A2BE2"/>
<path d="M32.8884 6.36041C32.8732 6.10048 32.7631 5.85517 32.579 5.67105C32.3948 5.48694 32.1495 5.37684 31.8896 5.36166C25.0152 4.96322 19.4955 7.05369 17.1235 10.969C15.5563 13.5562 15.559 16.7012 17.1023 19.7001C16.2248 20.7439 15.5829 21.9648 15.2203 23.2794L13.0594 21.1172C14.098 18.9484 14.0582 16.6866 12.9266 14.8099C11.1682 11.9173 7.1214 10.3594 2.0971 10.6609C1.83717 10.6761 1.59186 10.7862 1.40774 10.9703C1.22363 11.1544 1.11353 11.3997 1.09835 11.6596C0.802179 16.6839 2.35476 20.7307 5.24874 22.4838C6.20543 23.0678 7.3048 23.3762 8.42562 23.375C9.51189 23.3616 10.5813 23.1043 11.5547 22.622L14.875 25.9423V29.75C14.875 30.0318 14.9869 30.3021 15.1862 30.5013C15.3854 30.7006 15.6557 30.8125 15.9375 30.8125C16.2193 30.8125 16.4895 30.7006 16.6888 30.5013C16.888 30.3021 17 30.0318 17 29.75V25.8334C16.9953 24.1431 17.5705 22.5023 18.6296 21.1849C19.9962 21.8991 21.5118 22.2813 23.0536 22.3006C24.5442 22.3054 26.0072 21.8981 27.281 21.1238C31.1963 18.7545 33.2921 13.2348 32.8884 6.36041ZM11.4298 19.4889L8.18788 16.2483C7.987 16.0575 7.71952 15.9526 7.44246 15.9562C7.1654 15.9597 6.90069 16.0714 6.70476 16.2673C6.50883 16.4632 6.3972 16.7279 6.39365 17.005C6.3901 17.282 6.49493 17.5495 6.68577 17.7504L9.92772 20.9924C8.6514 21.4147 7.41358 21.3098 6.34976 20.6656C4.31241 19.4318 3.1596 16.5113 3.18749 12.75C6.94741 12.7168 9.86929 13.8749 11.1031 15.9123C11.7473 16.9761 11.8522 18.2139 11.4298 19.4889ZM26.18 19.3083C24.4003 20.3854 22.3085 20.4678 20.1835 19.5739L27.3142 12.4419C27.5136 12.2427 27.6257 11.9725 27.6258 11.6906C27.6259 11.4088 27.5141 11.1385 27.3149 10.9391C27.1157 10.7398 26.8454 10.6277 26.5636 10.6276C26.2818 10.6274 26.0115 10.7393 25.8121 10.9385L18.6801 18.0625C17.7823 15.9375 17.8633 13.8444 18.9457 12.066C20.7971 9.01135 25.1879 7.31135 30.8098 7.44018C30.9373 13.0608 29.2373 17.4569 26.18 19.3083Z" fill="#8A2BE2"/>
</svg>
