<svg width="32" height="32" viewBox="0 0 32 32" fill="none" xmlns="http://www.w3.org/2000/svg">
<path d="M23.3332 8.6665H8.6665V23.3332H23.3332V8.6665Z" fill="white"/>
<path d="M17.1201 13.9466L17.7921 14.9066L18.8481 14.1386V19.7066H20.0001V12.4106H19.0401L17.1201 13.9466Z" fill="#1E88E5"/>
<path d="M15.2955 15.8301C15.7122 15.4474 15.9708 14.9168 15.9708 14.3308C15.9708 13.1661 14.9488 12.2188 13.6928 12.2188C12.6248 12.2188 11.7115 12.8914 11.4728 13.8541L12.5775 14.1348C12.6875 13.6921 13.1562 13.3708 13.6928 13.3708C14.3208 13.3708 14.8322 13.8014 14.8322 14.3308C14.8322 14.8601 14.3208 15.2908 13.6928 15.2908H13.0282V16.4428H13.6928C14.4135 16.4428 15.0215 16.9434 15.0215 17.5361C15.0215 18.1388 14.4442 18.6294 13.7342 18.6294C13.0928 18.6294 12.5448 18.2228 12.4582 17.6841L11.3335 17.8681C11.5082 18.9588 12.5402 19.7814 13.7335 19.7814C15.0715 19.7814 16.1602 18.7741 16.1602 17.5361C16.1602 16.8541 15.8242 16.2421 15.2955 15.8301Z" fill="#1E88E5"/>
<path d="M22.6665 27.9998H9.33317L8.6665 25.3332L9.33317 22.6665H22.6665L23.3332 25.3332L22.6665 27.9998Z" fill="#FBC02D"/>
<path d="M25.3332 23.3332L27.9998 22.6665V9.33317L25.3332 8.6665L22.6665 9.33317V22.6665L25.3332 23.3332Z" fill="#4CAF50"/>
<path d="M22.6667 9.33333L23.3333 6.66667L22.6667 4H6C4.89533 4 4 4.89533 4 6V22.6667L6.66667 23.3333L9.33333 22.6667V9.33333H22.6667Z" fill="#1E88E5"/>
<path d="M22.6665 22.6665V27.9998L27.9998 22.6665H22.6665Z" fill="#E53935"/>
<path d="M25.9998 4H22.6665V9.33333H27.9998V6C27.9998 4.89533 27.1045 4 25.9998 4Z" fill="#1565C0"/>
<path d="M6 27.9998H9.33333V22.6665H4V25.9998C4 27.1045 4.89533 27.9998 6 27.9998Z" fill="#1565C0"/>
</svg>
