<svg width="20" height="20" viewBox="0 0 20 20" fill="none" xmlns="http://www.w3.org/2000/svg">
<path d="M3.34062 3.90603C3.27339 3.96431 3.21937 4.03628 3.18218 4.11712C3.145 4.19795 3.1255 4.2858 3.125 4.37478V17.4998C3.125 17.6655 3.19085 17.8245 3.30806 17.9417C3.42527 18.0589 3.58424 18.1248 3.75 18.1248C3.91576 18.1248 4.07473 18.0589 4.19194 17.9417C4.30915 17.8245 4.375 17.6655 4.375 17.4998V14.0443C6.46797 12.3912 8.27109 13.2826 10.3477 14.3107C11.6289 14.9443 13.0086 15.6271 14.4883 15.6271C15.5766 15.6271 16.718 15.256 17.9117 14.2209C17.979 14.1626 18.033 14.0906 18.0702 14.0098C18.1073 13.929 18.1268 13.8411 18.1273 13.7521V4.37478C18.1271 4.25482 18.0923 4.13747 18.0271 4.03675C17.9619 3.93603 17.8692 3.85619 17.7598 3.80676C17.6505 3.75734 17.5293 3.74042 17.4106 3.75802C17.292 3.77562 17.1809 3.827 17.0906 3.90603C14.9031 5.799 13.05 4.88181 10.9023 3.81853C8.67734 2.71541 6.15469 1.46775 3.34062 3.90603ZM16.875 13.4568C14.782 15.1099 12.9789 14.2177 10.9023 13.1904C8.94922 12.2256 6.77656 11.149 4.375 12.5342V4.67087C6.46797 3.01775 8.27109 3.90916 10.3477 4.9365C12.3008 5.90134 14.4742 6.97791 16.875 5.59275V13.4568Z" fill="white"/>
</svg>
