<svg width="24" height="24" viewBox="0 0 24 24" fill="none" xmlns="http://www.w3.org/2000/svg">
<path d="M21 8.25025H16.4437L17.2378 3.88432C17.2697 3.6902 17.2241 3.49132 17.1107 3.33054C16.9974 3.16976 16.8254 3.05995 16.6318 3.02478C16.4383 2.98961 16.2386 3.0319 16.076 3.14252C15.9133 3.25315 15.8006 3.42326 15.7622 3.61619L14.9184 8.25025H10.4438L11.2378 3.88432C11.2697 3.6902 11.2241 3.49132 11.1107 3.33054C10.9974 3.16976 10.8254 3.05995 10.6318 3.02478C10.4383 2.98961 10.2386 3.0319 10.076 3.14252C9.91331 3.25315 9.80062 3.42326 9.76219 3.61619L8.91937 8.25025H4.5C4.30109 8.25025 4.11032 8.32927 3.96967 8.46992C3.82902 8.61058 3.75 8.80134 3.75 9.00025C3.75 9.19917 3.82902 9.38993 3.96967 9.53058C4.11032 9.67124 4.30109 9.75025 4.5 9.75025H8.64656L7.82812 14.2503H3C2.80109 14.2503 2.61032 14.3293 2.46967 14.4699C2.32902 14.6106 2.25 14.8013 2.25 15.0003C2.25 15.1992 2.32902 15.3899 2.46967 15.5306C2.61032 15.6712 2.80109 15.7503 3 15.7503H7.55625L6.76219 20.1162C6.72666 20.3119 6.77031 20.5136 6.88353 20.6771C6.99675 20.8406 7.17027 20.9525 7.36594 20.9881C7.41015 20.9962 7.45503 21.0003 7.5 21.0003C7.67548 21 7.84532 20.9382 7.97996 20.8257C8.11459 20.7132 8.20551 20.557 8.23688 20.3843L9.08063 15.7503H13.5563L12.7622 20.1162C12.7267 20.3119 12.7703 20.5136 12.8835 20.6771C12.9967 20.8406 13.1703 20.9525 13.3659 20.9881C13.4102 20.9962 13.455 21.0003 13.5 21.0003C13.6755 21 13.8453 20.9382 13.98 20.8257C14.1146 20.7132 14.2055 20.557 14.2369 20.3843L15.0806 15.7503H19.5C19.6989 15.7503 19.8897 15.6712 20.0303 15.5306C20.171 15.3899 20.25 15.1992 20.25 15.0003C20.25 14.8013 20.171 14.6106 20.0303 14.4699C19.8897 14.3293 19.6989 14.2503 19.5 14.2503H15.3534L16.1719 9.75025H21C21.1989 9.75025 21.3897 9.67124 21.5303 9.53058C21.671 9.38993 21.75 9.19917 21.75 9.00025C21.75 8.80134 21.671 8.61058 21.5303 8.46992C21.3897 8.32927 21.1989 8.25025 21 8.25025ZM13.8281 14.2503H9.35344L10.1719 9.75025H14.6466L13.8281 14.2503Z" fill="#767676"/>
</svg>
