<svg width="14" height="14" viewBox="0 0 14 14" fill="none" xmlns="http://www.w3.org/2000/svg">
<path d="M2.36999 1.16362C2.32608 1.11412 2.27279 1.07383 2.21319 1.04509C2.1536 1.01634 2.08889 0.999709 2.02282 0.996155C1.95675 0.9926 1.89063 1.00219 1.8283 1.02438C1.76596 1.04657 1.70865 1.08091 1.65969 1.12541C1.61072 1.16991 1.57107 1.22368 1.54304 1.28362C1.51501 1.34355 1.49916 1.40845 1.4964 1.47456C1.49363 1.54067 1.50402 1.60667 1.52695 1.66873C1.54988 1.7308 1.58491 1.78769 1.62999 1.83612L2.27062 2.54112C1.33795 3.53079 0.738967 4.78792 0.557909 6.13571C0.376851 7.4835 0.622826 8.85414 1.26124 10.0549L0.551866 12.183C0.493107 12.3592 0.484579 12.5483 0.52724 12.729C0.5699 12.9098 0.662063 13.0751 0.793398 13.2065C0.924733 13.3378 1.09005 13.43 1.27082 13.4726C1.45159 13.5153 1.64067 13.5068 1.81687 13.448L3.94499 12.7386C5.05254 13.3278 6.30692 13.5839 7.55678 13.476C8.80663 13.3681 9.99856 12.9008 10.9887 12.1305L11.63 12.8361C11.6739 12.8856 11.7272 12.9259 11.7868 12.9546C11.8464 12.9834 11.9111 13 11.9772 13.0036C12.0432 13.0071 12.1094 12.9975 12.1717 12.9754C12.234 12.9532 12.2913 12.9188 12.3403 12.8743C12.3893 12.8298 12.4289 12.7761 12.4569 12.7161C12.485 12.6562 12.5008 12.5913 12.5036 12.5252C12.5063 12.4591 12.496 12.3931 12.473 12.331C12.4501 12.2689 12.4151 12.212 12.37 12.1636L2.36999 1.16362ZM6.99999 12.4999C6.0331 12.5005 5.08318 12.2459 4.24624 11.7617C4.18492 11.7263 4.11677 11.7043 4.0463 11.6972C3.97583 11.6901 3.90466 11.698 3.83749 11.7205L1.49999 12.4999L2.27937 10.1624C2.30183 10.0952 2.30977 10.024 2.30266 9.95356C2.29555 9.88309 2.27355 9.81494 2.23812 9.75362C1.65227 8.74018 1.40504 7.56626 1.5324 6.40263C1.65976 5.23899 2.15505 4.14634 2.94624 3.28362L10.3125 11.3892C9.35887 12.1106 8.19569 12.5006 6.99999 12.4999ZM13.5 6.99987C13.5 8.07404 13.2342 9.13151 12.7262 10.078C12.6628 10.1937 12.5563 10.2796 12.4298 10.3171C12.3033 10.3546 12.1671 10.3405 12.0509 10.278C11.9347 10.2155 11.8479 10.1096 11.8095 9.98341C11.771 9.8572 11.784 9.72091 11.8456 9.60424C12.3851 8.60218 12.6004 7.45745 12.4619 6.32788C12.3234 5.1983 11.8379 4.1395 11.0723 3.29744C10.3068 2.45537 9.29889 1.87152 8.18758 1.62636C7.07626 1.38119 5.91626 1.4868 4.86749 1.92862C4.74524 1.98009 4.60756 1.98089 4.48472 1.93084C4.36188 1.88079 4.26396 1.78399 4.21249 1.66174C4.16102 1.5395 4.16023 1.40181 4.21027 1.27897C4.26032 1.15614 4.35712 1.05821 4.47937 1.00674C5.46764 0.591975 6.54311 0.427875 7.61011 0.529037C8.67711 0.630199 9.70257 0.993489 10.5953 1.58659C11.488 2.1797 12.2203 2.98424 12.7271 3.92865C13.2338 4.87307 13.4994 5.92808 13.5 6.99987Z" fill="white"/>
</svg>
