<svg width="24" height="24" viewBox="0 0 24 24" fill="none" xmlns="http://www.w3.org/2000/svg">
<path d="M12.645 0.578507C12.4559 0.446205 12.2308 0.375244 12 0.375244C11.7692 0.375244 11.5441 0.446205 11.355 0.578507C9.90537 1.64685 8.57909 2.87314 7.40063 4.23476C4.76719 7.25913 3.375 10.4644 3.375 13.5001C3.375 15.7876 4.2837 17.9814 5.9012 19.5989C7.51871 21.2164 9.71251 22.1251 12 22.1251C14.2875 22.1251 16.4813 21.2164 18.0988 19.5989C19.7163 17.9814 20.625 15.7876 20.625 13.5001C20.625 6.24757 12.9713 0.806319 12.645 0.578507ZM12 19.8751C10.3098 19.8733 8.68928 19.2011 7.49411 18.006C6.29894 16.8108 5.62674 15.1903 5.625 13.5001C5.625 10.3773 7.5 7.55913 9.06562 5.74601C9.9595 4.71924 10.9414 3.77252 12 2.91663C13.0586 3.77252 14.0405 4.71924 14.9344 5.74601C16.5 7.55913 18.375 10.3773 18.375 13.5001C18.3733 15.1903 17.7011 16.8108 16.5059 18.006C15.3107 19.2011 13.6902 19.8733 12 19.8751ZM16.6519 14.9626C16.4164 15.7112 16.0036 16.3919 15.4487 16.9469C14.8937 17.5018 14.213 17.9146 13.4644 18.1501C13.3551 18.184 13.2413 18.2014 13.1269 18.2016C12.858 18.2018 12.5979 18.1057 12.3937 17.9306C12.1896 17.7556 12.0549 17.5132 12.0141 17.2473C11.9733 16.9815 12.029 16.7099 12.1713 16.4817C12.3135 16.2534 12.5328 16.0837 12.7894 16.0032C13.1928 15.8764 13.5597 15.6541 13.8587 15.355C14.1578 15.056 14.3801 14.6891 14.5069 14.2857C14.5512 14.1447 14.6228 14.0139 14.7177 13.9006C14.8126 13.7873 14.9289 13.6938 15.0599 13.6255C15.3245 13.4875 15.6331 13.4602 15.9178 13.5498C16.0588 13.5941 16.1896 13.6657 16.3029 13.7606C16.4162 13.8555 16.5097 13.9718 16.578 14.1028C16.6463 14.2338 16.6882 14.377 16.7012 14.5242C16.7142 14.6714 16.6981 14.8197 16.6537 14.9607L16.6519 14.9626Z" fill="#F3F3F3"/>
</svg>
