<svg width="76" height="72" viewBox="0 0 76 72" fill="none" xmlns="http://www.w3.org/2000/svg">
<g clip-path="url(#clip0_520_62880)">
<path d="M35.7832 18.8424C35.7832 18.8424 36.4742 13.2862 40.3119 14.5241C44.1497 15.7621 45.1184 20.1402 44.5189 24.0862C43.9194 28.0323 44.5985 28.7631 44.5985 28.7631C44.5985 28.7631 43.4926 27.4791 43.8821 24.6651C43.8821 24.6651 43.2927 27.8257 43.8279 29.0858C43.8279 29.0858 43.5485 29.7193 42.7203 29.5212C42.7203 29.5212 41.3247 26.1899 41.3349 23.0976C41.3451 20.0053 35.7832 18.8424 35.7832 18.8424Z" fill="#263238"/>
<g opacity="0.2">
<path d="M37.385 17.3791C37.385 17.3791 37.9507 14.7768 40.232 14.9459" stroke="white" stroke-width="0.3" stroke-linecap="round" stroke-linejoin="round"/>
<path d="M39.0396 18.3353C39.0396 18.3353 39.7458 16.6141 41.0617 16.7081C42.3777 16.802 43.741 19.3001 43.6293 21.3781C43.5175 23.4561 42.5267 26.4545 43.4243 28.7546" stroke="white" stroke-width="0.3" stroke-linecap="round" stroke-linejoin="round"/>
<path d="M40.0149 19.3715C40.0149 19.3715 41.6255 18.902 42.0472 20.4165C42.469 21.9311 42.0472 25.3495 42.0472 25.3495" stroke="white" stroke-width="0.3" stroke-linecap="round" stroke-linejoin="round"/>
</g>
<path d="M35.4102 18.3901C35.4102 18.3901 35.5456 17.6473 36.7176 17.8779C37.8896 18.1084 40.1557 19.2285 39.0396 20.2069C37.9235 21.1853 35.4102 18.3901 35.4102 18.3901Z" fill="#8A2BE2" stroke="#263238" stroke-width="0.3" stroke-linecap="round" stroke-linejoin="round"/>
<path d="M20.0708 48.3774C22.806 49.8544 25.6733 48.3313 25.6733 48.3313C27.9259 49.8544 29.0826 49.5812 29.0826 49.5812L34.7444 59.0323L59.4865 58.5422C59.4865 58.5422 59.7456 51.9461 59.4865 49.769C58.1401 38.4841 52.5969 36.1909 46.7843 34.7429C40.9718 33.2949 34.9781 33.5289 30.2038 34.8129C23.7003 36.5597 20.0725 40.0806 20.0725 40.0806C20.0725 40.0806 16.7022 40.7636 15.957 42.7272C15.9553 42.7307 18.5381 47.5458 20.0708 48.3774Z" fill="#8A2BE2"/>
<mask id="mask0_520_62880" style="mask-type:luminance" maskUnits="userSpaceOnUse" x="15" y="33" width="45" height="27">
<path d="M20.0708 48.3774C22.806 49.8544 25.6733 48.3313 25.6733 48.3313C27.9259 49.8544 29.0826 49.5812 29.0826 49.5812L34.7444 59.0323L59.4865 58.5422C59.4865 58.5422 59.7456 51.9461 59.4865 49.769C58.1401 38.4841 52.5969 36.1909 46.7843 34.7429C40.9718 33.2949 34.9781 33.5289 30.2038 34.8129C23.7003 36.5597 20.0725 40.0806 20.0725 40.0806C20.0725 40.0806 16.7022 40.7636 15.957 42.7272C15.9553 42.7307 18.5381 47.5458 20.0708 48.3774Z" fill="white"/>
</mask>
<g mask="url(#mask0_520_62880)">
<path opacity="0.3" d="M55.1084 53.693L30.0106 51.1318L29.0825 49.5813C29.0825 49.5813 27.9258 49.8545 25.6732 48.3314C25.6732 48.3314 23.7459 49.3559 21.5442 48.9103C24.8163 45.4116 22.1539 42.0819 22.1539 42.0819C22.5075 42.1975 22.8306 42.3923 23.099 42.6516C23.3673 42.911 23.574 43.2281 23.7036 43.5794C23.7036 43.5794 23.6782 41.8309 24.1524 42.0819C24.6266 42.3329 26.0983 45.0923 26.0983 45.0923C25.3599 38.4842 27.9258 37.7192 27.9258 37.7192C26.3371 42.4559 30.185 49.1869 36.0805 50.6502C41.976 52.1136 49.5482 51.3776 49.5482 51.3776C48.8708 50.5239 49.0605 48.8915 49.0605 48.8915C49.6346 49.5745 51.8262 50.6502 51.8262 50.6502C50.9539 48.468 52.6967 46.7759 52.6967 46.7759L55.1084 53.693Z" fill="black" fill-opacity="0.7"/>
<path opacity="0.3" d="M47.3775 40.0841C43.2654 44.6944 37.48 41.6208 37.48 41.6208C33.317 43.1064 31.808 38.8786 31.7708 38.4961C31.5743 36.5068 32.4939 35.0811 33.9115 34.0771C38.2067 33.4935 42.5723 33.7251 46.783 34.7601C47.198 34.8625 47.6112 34.9701 48.0211 35.0862C48.8408 36.4932 49.0305 38.2348 47.3775 40.0841Z" fill="black" fill-opacity="0.7"/>
</g>
<path d="M20.0708 48.3774C22.806 49.8544 25.6733 48.3313 25.6733 48.3313C27.9259 49.8544 29.0826 49.5812 29.0826 49.5812L34.7444 59.0323L59.4865 58.5422C59.4865 58.5422 59.7456 51.9461 59.4865 49.769C58.1401 38.4841 52.5969 36.1909 46.7843 34.7429C40.9718 33.2949 34.9781 33.5289 30.2038 34.8129C23.7003 36.5597 20.0725 40.0806 20.0725 40.0806C20.0725 40.0806 16.7022 40.7636 15.957 42.7272C15.9553 42.7307 18.5381 47.5458 20.0708 48.3774Z" stroke="#263238" stroke-width="0.3" stroke-linecap="round" stroke-linejoin="round"/>
<path d="M35.6305 42.1465C35.6305 42.1465 33.3475 41.5079 34.6041 37.7702C35.8608 34.0324 37.0971 31.4951 40.7841 31.5497C44.4712 31.6043 47.1217 34.7837 47.352 36.0302C47.5823 37.2767 45.9395 41.6035 42.5354 42.9473" fill="#8A2BE2"/>
<path d="M35.6305 42.1465C35.6305 42.1465 33.3475 41.5079 34.6041 37.7702C35.8608 34.0324 37.0971 31.4951 40.7841 31.5497C44.4712 31.6043 47.1217 34.7837 47.352 36.0302C47.5823 37.2767 45.9395 41.6035 42.5354 42.9473" stroke="#263238" stroke-width="0.3" stroke-linecap="round" stroke-linejoin="round"/>
<path d="M27.9267 46.2787C27.9267 46.2787 26.5836 41.8562 27.5998 39.5972" stroke="#263238" stroke-width="0.3" stroke-linecap="round" stroke-linejoin="round"/>
<g opacity="0.4">
<path d="M37.6238 46.5759C37.6518 47.8705 37.8314 49.1572 38.159 50.4093" stroke="#263238" stroke-width="0.3" stroke-linecap="round" stroke-linejoin="round"/>
<path d="M37.7815 44.7795C37.7122 45.0856 37.668 45.3968 37.6494 45.7101" stroke="#263238" stroke-width="0.3" stroke-linecap="round" stroke-linejoin="round"/>
<path d="M41.1541 50.4844C41.215 50.6705 41.2828 50.8566 41.3573 51.0393" stroke="#263238" stroke-width="0.3" stroke-linecap="round" stroke-linejoin="round"/>
<path d="M40.0168 45.0989C40.447 46.692 40.447 48.3995 40.967 49.8577" stroke="#263238" stroke-width="0.3" stroke-linecap="round" stroke-linejoin="round"/>
<path d="M42.7373 44.7795C42.7373 44.7795 44.8357 49.3437 45.1931 51.4525" stroke="#263238" stroke-width="0.3" stroke-linecap="round" stroke-linejoin="round"/>
<path d="M46.207 45.3157C47.1402 47.3869 47.9972 49.5349 48.4883 51.7598" stroke="#263238" stroke-width="0.3" stroke-linecap="round" stroke-linejoin="round"/>
<path d="M45.418 43.6543C45.5873 43.9958 45.7567 44.3373 45.9159 44.6788" stroke="#263238" stroke-width="0.3" stroke-linecap="round" stroke-linejoin="round"/>
<path d="M35.7843 44.0146C35.177 46.0535 34.8974 48.1772 34.9561 50.3051" stroke="#263238" stroke-width="0.3" stroke-linecap="round" stroke-linejoin="round"/>
<path d="M32.5533 44.4946C32.0131 46.1322 31.7873 47.8585 31.8878 49.5813" stroke="#263238" stroke-width="0.3" stroke-linecap="round" stroke-linejoin="round"/>
<path d="M33.633 42.3479C33.3148 42.7774 33.0503 43.2448 32.8455 43.7395" stroke="#263238" stroke-width="0.3" stroke-linecap="round" stroke-linejoin="round"/>
<path d="M31.3471 40.0959C31.3471 40.0959 29.0844 42.7084 28.8066 45.77" stroke="#263238" stroke-width="0.3" stroke-linecap="round" stroke-linejoin="round"/>
<path d="M49.6436 44.8496C49.801 45.148 49.9413 45.4553 50.0636 45.77" stroke="#263238" stroke-width="0.3" stroke-linecap="round" stroke-linejoin="round"/>
<path d="M46.2734 40.76C47.4624 41.7353 48.4808 42.9047 49.2864 44.2194" stroke="#263238" stroke-width="0.3" stroke-linecap="round" stroke-linejoin="round"/>
<path d="M47.8291 38.4087C47.8291 38.4087 50.3695 38.8356 51.4924 40.3211" stroke="#263238" stroke-width="0.3" stroke-linecap="round" stroke-linejoin="round"/>
<path d="M47.8291 36.0303C47.8291 36.0303 49.6752 35.8185 51.2011 36.563" stroke="#263238" stroke-width="0.3" stroke-linecap="round" stroke-linejoin="round"/>
<path d="M29.9932 37.9103C30.288 37.8219 30.5934 37.7748 30.9009 37.7703" stroke="#263238" stroke-width="0.3" stroke-linecap="round" stroke-linejoin="round"/>
<path d="M28.3223 38.7007C28.6405 38.4872 28.9772 38.3032 29.3283 38.1509" stroke="#263238" stroke-width="0.3" stroke-linecap="round" stroke-linejoin="round"/>
<path d="M27.6972 37.7258C26.6133 37.6199 22.8077 40.4817 22.8077 40.4817C22.4716 40.4468 22.132 40.4911 21.8157 40.6111C21.4995 40.7311 21.2152 40.9235 20.9854 41.1732" stroke="#263238" stroke-width="0.3" stroke-linecap="round" stroke-linejoin="round"/>
<path d="M26.6573 42.6538L25.4074 43.3846C25.4074 43.3846 24.7299 44.5287 23.7002 44.4945" stroke="#263238" stroke-width="0.3" stroke-linecap="round" stroke-linejoin="round"/>
<path d="M27.2363 46.7825C27.2363 46.7825 26.6639 47.1342 26.2202 47.0369C26.2202 47.0369 24.264 48.4268 23.1716 47.9316" stroke="#263238" stroke-width="0.3" stroke-linecap="round" stroke-linejoin="round"/>
</g>
<g opacity="0.4">
<path d="M37.7803 41.4927C37.7803 41.4927 37.2857 42.1227 38.1579 42.9338" stroke="#263238" stroke-width="0.3" stroke-linecap="round" stroke-linejoin="round"/>
<path d="M40.7168 42.375C40.7741 42.5557 40.7971 42.7457 40.7845 42.9351" stroke="#263238" stroke-width="0.3" stroke-linecap="round" stroke-linejoin="round"/>
<path d="M39.9902 41.1731C40.1647 41.3647 40.3196 41.5735 40.4526 41.7963" stroke="#263238" stroke-width="0.3" stroke-linecap="round" stroke-linejoin="round"/>
<path d="M42.0527 39.8259C42.0527 39.8259 43.0418 40.0513 43.4246 41.4925" stroke="#263238" stroke-width="0.3" stroke-linecap="round" stroke-linejoin="round"/>
<path d="M45.3574 38.7383C45.4974 39.0072 45.5995 39.2946 45.6606 39.592" stroke="#263238" stroke-width="0.3" stroke-linecap="round" stroke-linejoin="round"/>
<path d="M43.6309 37.4712C44.1088 37.5442 44.5517 37.7677 44.896 38.1098" stroke="#263238" stroke-width="0.3" stroke-linecap="round" stroke-linejoin="round"/>
<path d="M43.9648 34.7392C43.9648 34.7392 45.462 33.8752 46.6746 35.7638" stroke="#263238" stroke-width="0.3" stroke-linecap="round" stroke-linejoin="round"/>
<path d="M42.7393 32.9293C42.9577 32.6408 43.3625 32.5486 43.7012 32.5332" stroke="#263238" stroke-width="0.3" stroke-linecap="round" stroke-linejoin="round"/>
<path d="M35.7836 41.4924C35.7836 41.4924 35.5498 40.7428 36.1223 40.321" stroke="#263238" stroke-width="0.3" stroke-linecap="round" stroke-linejoin="round"/>
</g>
<path d="M75.9998 56.1226V68.5464H-0.189453L-0.147113 46.7825L9.70299 47.9914L28.6936 50.3204L57.9577 53.9096L72.9852 55.752L75.9998 56.1226Z" fill="white"/>
<path opacity="0.4" d="M71.8632 58.6754C69.6378 61.4876 47.7291 60.6049 46.6283 59.8706C45.8438 59.392 44.9918 59.0362 44.1014 58.8154C44.1014 58.8154 38.9104 59.4745 37.9264 58.9076C36.9424 58.3407 34.8881 58.5473 34.8881 58.5473L30.0054 60.5536L3.78809 57.0413L10.0545 54.8574C10.0545 54.8574 6.18964 54.4561 5.44106 53.1089C4.69248 51.7616 9.70391 47.9863 9.70391 47.9863L28.6945 50.3154L21.837 50.9113L18.2093 52.5864L27.724 54.4066L38.3939 53.9763L57.9637 53.9046L72.9912 55.747C73.0064 56.5427 72.7575 57.5433 71.8632 58.6754Z" fill="#8A2BE2"/>
<path d="M-0.146484 46.7825L76.0005 56.1226" stroke="#263238" stroke-width="0.3" stroke-linecap="round" stroke-linejoin="round"/>
<path d="M31.6716 59.8178L6.76855 56.5479L15.7261 52.5916L40.6308 55.8631L31.6716 59.8178Z" fill="#8A2BE2" stroke="#263238" stroke-width="0.3" stroke-linecap="round" stroke-linejoin="round"/>
<path d="M27.0433 54.0786L20.0706 57.7037L8.17972 56.2045L7.67163 55.6632L8.16786 55.431L15.1642 52.156C17.1442 51.5202 19.2541 51.4149 21.2867 51.8503C23.0253 52.2471 24.7089 52.8579 26.2998 53.6688C26.7774 53.9164 27.0433 54.0786 27.0433 54.0786Z" fill="white"/>
<mask id="mask1_520_62880" style="mask-type:luminance" maskUnits="userSpaceOnUse" x="7" y="51" width="21" height="7">
<path d="M27.0443 54.0786L20.0716 57.7037L8.18069 56.2045L7.67261 55.6632L8.16884 55.431L15.1652 52.156C17.1451 51.5202 19.2551 51.4149 21.2876 51.8503C23.0263 52.2471 24.7099 52.8579 26.3008 53.6688C26.7784 53.9164 27.0443 54.0786 27.0443 54.0786Z" fill="white"/>
</mask>
<g mask="url(#mask1_520_62880)">
<path opacity="0.3" d="M27.044 54.0788L20.0714 57.7038L8.18045 56.2046L7.67236 55.6633L8.16859 55.4311C9.52581 55.1728 10.9141 55.1244 12.2858 55.2877C15.0938 55.6445 18.3269 56.7442 18.3269 56.7442C18.3269 56.7442 19.1737 57.3555 19.5718 56.6178C19.9698 55.8802 21.8666 55.8802 22.8133 55.5762C23.7245 55.2843 25.1844 53.8943 26.3073 53.6724C26.7781 53.9165 27.044 54.0788 27.044 54.0788Z" fill="black" fill-opacity="0.7"/>
</g>
<path d="M27.0433 54.0786L20.0706 57.7037L8.17972 56.2045L7.67163 55.6632L8.16786 55.431L15.1642 52.156C17.1442 51.5202 19.2541 51.4149 21.2867 51.8503C23.0253 52.2471 24.7089 52.8579 26.2998 53.6688C26.7774 53.9164 27.0433 54.0786 27.0433 54.0786Z" stroke="#263238" stroke-width="0.3" stroke-linecap="round" stroke-linejoin="round"/>
<path d="M39.9902 55.0127L39.4957 55.7145L31.8219 59.2439L20.0715 57.7072L20.7862 57.3349L27.0526 54.0821C28.665 53.5691 30.348 53.3172 32.0387 53.3359C34.5994 53.3462 39.3958 54.8266 39.9462 54.9991L39.9902 55.0127Z" fill="white"/>
<mask id="mask2_520_62880" style="mask-type:luminance" maskUnits="userSpaceOnUse" x="20" y="53" width="20" height="7">
<path d="M39.9892 55.0125L39.4947 55.7143L31.8209 59.2437L20.0706 57.7069L20.7853 57.3347L27.0517 54.0819C28.6641 53.5688 30.347 53.317 32.0377 53.3357C34.5984 53.3459 39.3948 54.8263 39.9452 54.9988L39.9892 55.0125Z" fill="white"/>
</mask>
<g mask="url(#mask2_520_62880)">
<path opacity="0.3" d="M39.9895 55.0124L39.495 55.7142L31.8212 59.2437L20.0708 57.7069L20.7855 57.3347C22.3098 56.9692 24.4065 56.6312 26.0967 56.9232C27.9875 57.2611 29.8523 57.7329 31.6772 58.3353C31.6772 58.3353 37.9436 55.6476 39.937 54.9988L39.9895 55.0124Z" fill="black" fill-opacity="0.7"/>
</g>
<path d="M39.9902 55.0127L39.4957 55.7145L31.8219 59.2439L20.0715 57.7072L20.7862 57.3349L27.0526 54.0821C28.665 53.5691 30.348 53.3172 32.0387 53.3359C34.5994 53.3462 39.3958 54.8266 39.9462 54.9991L39.9902 55.0127Z" stroke="#263238" stroke-width="0.3" stroke-linecap="round" stroke-linejoin="round"/>
<path d="M20.0715 57.7039C20.0715 57.7039 21.8481 56.9833 25.0813 56.8962C28.3144 56.8091 31.6779 58.3322 31.6779 58.3322L39.4381 55.158" stroke="#263238" stroke-width="0.3" stroke-linecap="round" stroke-linejoin="round"/>
<path d="M22.1553 57.4612C25.3844 57.4916 28.5955 57.9509 31.7056 58.8272L34.9557 57.4492" stroke="#263238" stroke-width="0.3" stroke-linecap="round" stroke-linejoin="round"/>
<path d="M7.66309 55.6634C7.66309 55.6634 9.51591 54.854 13.9566 55.4619C18.3973 56.0697 19.8639 57.4494 19.8639 57.4494" stroke="#263238" stroke-width="0.3" stroke-linecap="round" stroke-linejoin="round"/>
<path d="M7.99097 56.0065C7.99097 56.0065 9.94879 55.5079 13.5698 56.0065C17.1907 56.5051 19.4331 57.4494 19.4331 57.4494" stroke="#263238" stroke-width="0.3" stroke-linecap="round" stroke-linejoin="round"/>
<g opacity="0.4">
<path d="M20.9234 56.4129C20.9234 56.4129 20.1765 56.3975 20.273 56.1226C20.3696 55.8477 19.5414 55.8801 19.2856 55.6445C19.0299 55.4089 18.6607 55.3679 18.4609 55.2364C18.261 55.1049 18.7623 55.0844 18.0578 54.8573C17.3532 54.6302 17.1754 55.0076 16.4725 54.7549C15.7697 54.5022 16.8604 54.4851 15.8476 54.4134C14.8348 54.3417 15.3581 54.4646 14.4131 54.4134C13.4681 54.3622 13.5358 54.6337 13.2682 54.4134C13.0006 54.1931 10.5923 54.649 10.5923 54.649" stroke="#263238" stroke-width="0.3" stroke-linecap="round" stroke-linejoin="round"/>
<path d="M22.3243 55.7181L21.7586 55.462C21.6841 55.4279 21.5994 55.3818 21.5893 55.3015C21.5808 55.252 21.6011 55.1956 21.5757 55.1529C21.5503 55.1103 21.4893 55.1017 21.4385 55.1L20.9305 55.0744C20.8829 54.9878 20.8164 54.9132 20.736 54.8564C20.6556 54.7996 20.5634 54.762 20.4664 54.7466C20.2726 54.717 20.0804 54.6777 19.8906 54.6287C19.7651 54.5789 19.6444 54.5177 19.5298 54.446C18.6871 53.9815 17.7432 53.7351 16.7828 53.7289L17.0199 53.5581C16.3654 53.4766 15.701 53.549 15.079 53.7699C15.11 53.7413 15.1346 53.7065 15.1513 53.6676C15.1679 53.6288 15.1762 53.5868 15.1755 53.5445L12.9941 53.7425" stroke="#263238" stroke-width="0.3" stroke-linecap="round" stroke-linejoin="round"/>
<path d="M23.7534 55.1358C23.7084 55.1378 23.6635 55.1303 23.6216 55.1138C23.5796 55.0973 23.5415 55.0722 23.5096 55.0401C23.4778 55.008 23.4529 54.9696 23.4366 54.9273C23.4202 54.885 23.4128 54.8397 23.4147 54.7943C23.4282 54.7539 23.4282 54.7101 23.4147 54.6697C23.3808 54.6099 23.2928 54.6253 23.2267 54.6082C23.0573 54.5638 23.0421 54.3077 22.91 54.183C22.8289 54.1223 22.7328 54.0851 22.6322 54.0755L21.2621 53.833C21.1709 53.8261 21.0837 53.7922 21.0114 53.7357C20.9556 53.6827 20.9285 53.6042 20.8743 53.5478C20.7721 53.4694 20.6449 53.4317 20.5169 53.442L19.1976 53.3925C19.1006 53.3959 19.0043 53.376 18.9164 53.3344C18.8731 53.3127 18.8387 53.2764 18.8192 53.2318C18.7997 53.1872 18.7964 53.1371 18.8097 53.0902C18.2847 52.8614 17.697 52.8426 17.1263 52.8324C16.4195 52.8221 15.7127 52.8221 15.0059 52.8324" stroke="#263238" stroke-width="0.3" stroke-linecap="round" stroke-linejoin="round"/>
<path d="M23.6794 56.2918C24.2096 56.1008 24.7637 55.9858 25.3256 55.9503C25.3828 55.942 25.4411 55.9484 25.495 55.9691C25.5414 55.9996 25.586 56.0327 25.6288 56.0682C25.7063 56.1092 25.7939 56.1269 25.8812 56.1194L27.3326 56.1365C27.3427 56.1809 27.3512 56.2253 27.3614 56.2697H28.9127L28.9449 56.408L30.2998 56.3926C30.3374 56.3876 30.3756 56.3954 30.4082 56.4148C30.4438 56.4404 30.4539 56.4865 30.4759 56.5258C30.5539 56.6743 30.752 56.6965 30.918 56.7102C31.3466 56.7551 31.7595 56.8975 32.1255 57.1268" stroke="#263238" stroke-width="0.3" stroke-linecap="round" stroke-linejoin="round"/>
<path d="M25.6824 55.3067L26.5563 55.0865C26.5911 55.0727 26.6298 55.0727 26.6647 55.0865C26.707 55.1052 26.7239 55.1582 26.7561 55.1906C26.7831 55.2119 26.8143 55.2273 26.8475 55.2358C26.8807 55.2444 26.9154 55.2458 26.9492 55.2401C27.2054 55.2312 27.4581 55.1774 27.6961 55.0813C27.7975 55.0329 27.9037 54.9952 28.0128 54.9686C28.2072 54.9515 28.403 54.9765 28.5869 55.0421C28.9455 55.1352 29.3128 55.1895 29.6827 55.2043C29.9232 55.2128 30.1654 55.2043 30.4042 55.2282C30.6619 55.2621 30.9167 55.3158 31.1663 55.3887L32.1706 55.6551C32.7871 55.8258 33.4188 55.988 33.9405 56.3585" stroke="#263238" stroke-width="0.3" stroke-linecap="round" stroke-linejoin="round"/>
<path d="M26.9695 54.5347L27.8044 54.4851C28.0914 54.3007 28.42 54.1926 28.7596 54.171C28.9757 54.1613 29.1921 54.1704 29.4066 54.1983L30.2314 54.2768C30.6654 54.3337 31.1038 54.348 31.5406 54.3195C31.5406 54.4339 31.6913 54.4698 31.8048 54.4647L32.4975 54.4373C32.4949 54.4868 32.5044 54.5361 32.525 54.5811C32.5457 54.626 32.5769 54.6652 32.616 54.6952C32.6743 54.7349 32.7391 54.7638 32.8074 54.7805C33.328 54.9344 33.8719 54.9922 34.413 54.9513C34.484 54.9382 34.5573 54.9453 34.6247 54.9718C34.6701 55.0031 34.7132 55.0379 34.7534 55.0759C34.8433 55.1321 34.9435 55.1692 35.0481 55.1852C35.3971 55.2679 35.7238 55.4271 36.005 55.6514L35.9711 55.426" stroke="#263238" stroke-width="0.3" stroke-linecap="round" stroke-linejoin="round"/>
<path d="M37.5882 54.9838C37.3291 55.1375 37.0513 54.8387 36.7871 54.697C36.5229 54.5552 36.2232 54.574 35.9403 54.5484C35.2781 54.4904 34.6549 54.2171 34.0045 54.0703C33.5017 53.97 32.9922 53.9078 32.4802 53.8842L30.8679 53.7732" stroke="#263238" stroke-width="0.3" stroke-linecap="round" stroke-linejoin="round"/>
</g>
<path d="M23.1549 46.5469C22.2928 49.5658 18.2908 50.9693 18.2908 50.9693C18.2908 50.9693 12.8847 53.0406 12.5325 47.9419C12.5325 47.9419 12.8018 45.4507 14.4158 44.5269C14.4158 44.5269 15.5878 42.1808 17.3559 41.1768" fill="#8A2BE2"/>
<mask id="mask3_520_62880" style="mask-type:luminance" maskUnits="userSpaceOnUse" x="12" y="41" width="12" height="11">
<path d="M23.1558 46.5469C22.2938 49.5658 18.2918 50.9693 18.2918 50.9693C18.2918 50.9693 12.8857 53.0406 12.5334 47.9419C12.5334 47.9419 12.8027 45.4507 14.4168 44.5269C14.4168 44.5269 15.5887 42.1808 17.3569 41.1768" fill="white"/>
</mask>
<g mask="url(#mask3_520_62880)">
<path opacity="0.3" d="M22.0475 48.4918C20.5588 50.1737 18.2911 50.9694 18.2911 50.9694C18.2911 50.9694 12.9663 53.0098 12.5396 48.0581L13.0781 47.0335C13.0781 47.0335 13.3982 44.9145 15.1105 44.8462C16.8227 44.7779 18.2555 45.3414 18.5688 47.4758C18.8229 49.2089 18.308 49.7929 18.1082 49.9517C18.4469 49.7126 19.7815 48.5686 18.8805 45.8075C19.101 45.7306 19.3415 45.7354 19.5588 45.8211C19.7761 45.9069 19.9559 46.068 20.066 46.2754C20.4809 47.0148 19.8814 49.6904 19.8611 49.7843C20.6199 49.4073 21.3506 48.9753 22.0475 48.4918Z" fill="black" fill-opacity="0.7"/>
</g>
<path d="M23.1549 46.5469C22.2928 49.5658 18.2908 50.9693 18.2908 50.9693C18.2908 50.9693 12.8847 53.0406 12.5325 47.9419C12.5325 47.9419 12.8018 45.4507 14.4158 44.5269C14.4158 44.5269 15.5878 42.1808 17.3559 41.1768" stroke="#263238" stroke-width="0.3" stroke-linecap="round" stroke-linejoin="round"/>
<path d="M20.4609 42.0815C20.4609 42.0815 23.5569 43.1522 22.6457 46.726" stroke="#263238" stroke-width="0.3" stroke-linecap="round" stroke-linejoin="round"/>
<path d="M18.2851 48.2185C18.2667 48.6429 18.1215 49.0519 17.8686 49.3916C17.6156 49.7314 17.2666 49.9861 16.8675 50.1224L16.0817 50.6568L14.1357 51.736L14.4135 52.3985C15.8801 52.3985 16.0326 52.8322 15.8801 53.2915C15.7277 53.7508 13.7055 53.9745 13.3516 54.0565C12.9976 54.1384 11.3294 53.5715 10.8738 53.3923C10.4182 53.213 10.2776 52.3029 10.2776 52.3029L9.96094 48.5702C10.1044 48.0707 10.422 47.6402 10.8552 47.3579C10.8552 47.3579 11.2498 46.5827 11.68 46.4034C12.1101 46.2241 13.4108 46.5417 13.4108 46.5417C13.4108 46.5417 14.5337 44.8137 16.2104 45.1398C17.8515 45.4609 18.363 47.2913 18.2851 48.2185Z" fill="white" stroke="#263238" stroke-width="0.3" stroke-linecap="round" stroke-linejoin="round"/>
<path d="M13.415 46.5469C13.8558 46.6461 14.2906 46.7704 14.7174 46.9191" stroke="#263238" stroke-width="0.3" stroke-linecap="round" stroke-linejoin="round"/>
<path d="M15.3528 53.0304L16.2758 53.9867L15.9489 52.6941L9.32858 40.7603L8.73242 41.0966L15.3528 53.0304Z" fill="#8A2BE2" stroke="#263238" stroke-width="0.3" stroke-linecap="round" stroke-linejoin="round"/>
<path d="M9.14722 42.1075L8.28687 40.5536C8.28687 40.5536 8.33429 40.3829 8.62559 40.2121C8.76436 40.1148 8.93352 40.0717 9.1015 40.0909L10.7629 43.0842C10.5959 43.0763 10.4303 43.1185 10.287 43.2054C10.154 43.2703 10.0492 43.3821 9.99234 43.5196L11.2643 45.8111L11.0441 45.7872L9.12521 42.3192L9.14722 42.1075Z" fill="#8A2BE2" stroke="#263238" stroke-width="0.3" stroke-linecap="round" stroke-linejoin="round"/>
<path d="M11.6063 48.4473C11.6063 48.4473 12.7698 49.1303 13.1306 49.6716C13.1306 49.6716 14.8496 50.6568 14.8496 51.4047C14.8496 52.0553 14.4194 52.0877 14.4194 52.0877C14.4194 52.0877 15.002 52.4412 15.0969 52.8937C15.1917 53.3461 14.8445 53.732 14.7429 53.6911C14.6413 53.6501 11.2286 52.7588 10.4208 52.3763C9.61292 51.9938 9.05233 51.5071 9.79075 49.2891C9.81689 49.0432 9.8738 48.8017 9.96011 48.5702C10.0871 48.2902 10.7443 47.6191 10.7443 47.6191" fill="white"/>
<path d="M11.6063 48.4473C11.6063 48.4473 12.7698 49.1303 13.1306 49.6716C13.1306 49.6716 14.8496 50.6568 14.8496 51.4047C14.8496 52.0553 14.4194 52.0877 14.4194 52.0877C14.4194 52.0877 15.002 52.4412 15.0969 52.8937C15.1917 53.3461 14.8445 53.732 14.7429 53.6911C14.6413 53.6501 11.2286 52.7588 10.4208 52.3763C9.61292 51.9938 9.05233 51.5071 9.79075 49.2891C9.81689 49.0432 9.8738 48.8017 9.96011 48.5702C10.0871 48.2902 10.7443 47.6191 10.7443 47.6191" stroke="#263238" stroke-width="0.3" stroke-linecap="round" stroke-linejoin="round"/>
<path d="M10.1404 49.8542C10.2674 50.2572 11.7392 50.6141 12.2794 51.0222C12.8197 51.4303 14.4134 52.0843 14.4134 52.0843" stroke="#263238" stroke-width="0.3" stroke-linecap="round" stroke-linejoin="round"/>
<path d="M16.386 47.6245C16.386 47.6245 17.0939 47.896 17.3632 48.439C17.6325 48.982 17.6664 49.9758 17.3632 50.2404C17.0601 50.5051 15.6696 51.8045 15.4748 52.0418C15.2801 52.2792 14.1606 51.4989 15.4748 49.834C15.4748 49.834 15.441 48.9154 15.6781 48.6098" fill="white"/>
<path d="M16.386 47.6245C16.386 47.6245 17.0939 47.896 17.3632 48.439C17.6325 48.982 17.6664 49.9758 17.3632 50.2404C17.0601 50.5051 15.6696 51.8045 15.4748 52.0418C15.2801 52.2792 14.1606 51.4989 15.4748 49.834C15.4748 49.834 15.441 48.9154 15.6781 48.6098" stroke="#263238" stroke-width="0.3" stroke-linecap="round" stroke-linejoin="round"/>
<path d="M17.5815 44.6804C17.5815 44.6804 19.021 45.0219 19.2446 47.0368C19.4681 49.0517 18.8415 50.293 17.3562 50.9641" stroke="#263238" stroke-width="0.3" stroke-linecap="round" stroke-linejoin="round"/>
<g opacity="0.4">
<path d="M18.0068 42.7392C18.3744 42.314 18.8536 41.8632 19.4329 41.7966" stroke="#263238" stroke-width="0.3" stroke-linecap="round" stroke-linejoin="round"/>
<path d="M17.0195 44.2195C17.1718 43.9276 17.3415 43.6454 17.5276 43.3743" stroke="#263238" stroke-width="0.3" stroke-linecap="round" stroke-linejoin="round"/>
<path d="M19.4326 46.009C19.4326 46.009 21.6089 45.7101 22.4134 44.7864" stroke="#263238" stroke-width="0.3" stroke-linecap="round" stroke-linejoin="round"/>
<path d="M21.2048 48.6233C21.6065 48.4389 21.9623 48.1665 22.2464 47.8259" stroke="#263238" stroke-width="0.3" stroke-linecap="round" stroke-linejoin="round"/>
<path d="M19.4326 49.1509C19.7912 49.1011 20.1448 49.02 20.4894 48.9084" stroke="#263238" stroke-width="0.3" stroke-linecap="round" stroke-linejoin="round"/>
</g>
<path d="M52.282 37.2476C55.8386 37.4525 62.9738 44.7453 64.5828 46.5467C66.1917 48.3481 68.8168 51.0409 69.6636 53.1718C70.9643 56.4246 67.7126 59.4162 64.4947 59.2438C61.2768 59.0713 54.5785 52.0841 54.5785 52.0841C54.5785 52.0841 49.4689 47.2843 50.8746 42.9472" fill="#8A2BE2"/>
<mask id="mask4_520_62880" style="mask-type:luminance" maskUnits="userSpaceOnUse" x="50" y="37" width="20" height="23">
<path d="M52.2842 37.2478C55.8408 37.4527 62.976 44.7455 64.5849 46.5469C66.1939 48.3483 68.819 51.0411 69.6658 53.1721C70.9665 56.4249 67.7148 59.4165 64.4969 59.244C61.279 59.0715 54.5807 52.0844 54.5807 52.0844C54.5807 52.0844 49.4711 47.2846 50.8768 42.9475" fill="white"/>
</mask>
<g mask="url(#mask4_520_62880)">
<path opacity="0.3" d="M61.5444 49.291C61.5444 49.291 56.2197 51.1317 53.8401 51.3025C53.581 51.0122 53.2762 50.6502 52.9594 50.2302C52.5547 49.2449 51.8433 47.2113 52.7901 47.0354C54.04 46.8049 53.7792 48.9973 54.4837 50.0475C54.4837 50.0475 55.6896 47.1447 57.2985 47.1583C58.9074 47.172 58.23 49.151 58.23 49.151C58.23 49.151 61.0092 48.3075 61.5444 49.291Z" fill="black" fill-opacity="0.7"/>
<path opacity="0.3" d="M64.4954 59.2442C63.9365 59.2152 63.2726 58.9795 62.5579 58.6107C65.1779 58.2521 67.6828 57.6426 68.4195 56.3431C69.1562 55.0437 68.7582 52.4159 68.0469 50.5376C68.7464 51.4477 69.3408 52.3561 69.6694 53.1808C70.965 56.4251 67.7132 59.4167 64.4954 59.2442Z" fill="black" fill-opacity="0.7"/>
</g>
<path d="M52.282 37.2476C55.8386 37.4525 62.9738 44.7453 64.5828 46.5467C66.1917 48.3481 68.8168 51.0409 69.6636 53.1718C70.9643 56.4246 67.7126 59.4162 64.4947 59.2438C61.2768 59.0713 54.5785 52.0841 54.5785 52.0841C54.5785 52.0841 49.4689 47.2843 50.8746 42.9472" stroke="#263238" stroke-width="0.3" stroke-linecap="round" stroke-linejoin="round"/>
<path d="M48.4873 48.229C48.4873 48.229 50.1369 50.722 53.9069 51.393" stroke="#263238" stroke-width="0.3" stroke-linecap="round" stroke-linejoin="round"/>
<path d="M48.8809 53.027L45.9493 53.0663C45.9493 53.0663 41.9642 51.772 41.4425 51.4305C40.9209 51.089 37.5472 52.7879 37.1323 52.9672C36.8602 53.093 36.607 53.2569 36.3803 53.4539C36.1868 53.64 35.9684 53.7981 35.7316 53.9234C35.4319 54.0583 34.9441 54.8575 34.9441 54.8575C34.9441 54.8575 33.6569 55.1648 34.1362 55.5405C34.6155 55.9161 36.194 55.6975 36.7952 55.5046C37.3965 55.3117 38.5193 55.4824 38.5193 55.4824C38.5193 55.4824 40.1842 57.9703 44.574 57.0414L48.9368 57.4409" fill="white"/>
<path d="M48.8809 53.027L45.9493 53.0663C45.9493 53.0663 41.9642 51.772 41.4425 51.4305C40.9209 51.089 37.5472 52.7879 37.1323 52.9672C36.8602 53.093 36.607 53.2569 36.3803 53.4539C36.1868 53.64 35.9684 53.7981 35.7316 53.9234C35.4319 54.0583 34.9441 54.8575 34.9441 54.8575C34.9441 54.8575 33.6569 55.1648 34.1362 55.5405C34.6155 55.9161 36.194 55.6975 36.7952 55.5046C37.3965 55.3117 38.5193 55.4824 38.5193 55.4824C38.5193 55.4824 40.1842 57.9703 44.574 57.0414L48.9368 57.4409" stroke="#263238" stroke-width="0.3" stroke-linecap="round" stroke-linejoin="round"/>
<path d="M34.9463 54.8574C34.9463 54.8574 36.059 54.4305 36.5976 54.1914C37.1361 53.9524 38.657 53.7868 38.657 53.7868C38.657 53.7868 38.4877 53.0355 39.1939 52.7623C39.9001 52.4891 40.0136 51.9683 40.0136 51.9683" stroke="#263238" stroke-width="0.3" stroke-linecap="round" stroke-linejoin="round"/>
<path d="M36.3809 53.4537C36.3809 53.4537 37.8103 52.9568 38.1558 52.9534" stroke="#263238" stroke-width="0.3" stroke-linecap="round" stroke-linejoin="round"/>
<path opacity="0.3" d="M52.9199 51.2339C53.035 51.2396 53.1488 51.2602 53.2586 51.2954C53.2824 51.304 53.3067 51.3108 53.3315 51.3158C53.1907 51.3119 53.0516 51.2842 52.9199 51.2339Z" fill="black" fill-opacity="0.7"/>
<path opacity="0.3" d="M61.543 49.291C61.543 49.291 57.751 50.599 55.1377 51.1146C56.8533 50.6707 59.2888 49.7298 61.543 49.2893V49.291Z" fill="black" fill-opacity="0.7"/>
<path d="M62.3704 49.1509C58.8409 49.6341 54.556 51.7309 53.257 51.2938C51.958 50.8567 48.879 52.7776 48.879 52.7776L47.0668 52.8015C47.0668 52.8015 45.7271 55.7965 46.5316 57.9651L48.4065 58.1512C48.4065 58.1512 48.2676 59.3464 53.1876 59.6709C58.1075 59.9953 67.2345 60.3675 69.0128 57.1369" fill="#8A2BE2"/>
<mask id="mask5_520_62880" style="mask-type:luminance" maskUnits="userSpaceOnUse" x="46" y="49" width="24" height="11">
<path d="M62.3704 49.1509C58.8409 49.6341 54.556 51.7309 53.257 51.2938C51.958 50.8567 48.879 52.7776 48.879 52.7776L47.0668 52.8015C47.0668 52.8015 45.7271 55.7965 46.5316 57.9651L48.4065 58.1512C48.4065 58.1512 48.2676 59.3464 53.1876 59.6709C58.1075 59.9953 67.2345 60.3675 69.0128 57.1369" fill="white"/>
</mask>
<g mask="url(#mask5_520_62880)">
<path opacity="0.3" d="M69.0195 57.137C67.2412 60.3676 58.1143 59.9903 53.1943 59.671C48.2743 59.3516 48.4132 58.1513 48.4132 58.1513L47.0126 58.013C46.9736 56.8894 47.0973 54.7806 48.4877 54.0635C48.4877 54.0635 48.254 57.219 48.4877 57.6646C48.7215 58.1103 55.1572 59.3721 58.6393 59.0306C62.096 58.6977 67.2243 58.3169 68.3946 56.3857L69.0195 57.137Z" fill="black" fill-opacity="0.7"/>
</g>
<path d="M62.3704 49.1509C58.8409 49.6341 54.556 51.7309 53.257 51.2938C51.958 50.8567 48.879 52.7776 48.879 52.7776L47.0668 52.8015C47.0668 52.8015 45.7271 55.7965 46.5316 57.9651L48.4065 58.1512C48.4065 58.1512 48.2676 59.3464 53.1876 59.6709C58.1075 59.9953 67.2345 60.3675 69.0128 57.1369" stroke="#263238" stroke-width="0.3" stroke-linecap="round" stroke-linejoin="round"/>
<path d="M55.4958 51.0393C55.5924 50.9881 56.4917 48.7393 57.4334 48.5378" stroke="#263238" stroke-width="0.3" stroke-linecap="round" stroke-linejoin="round"/>
<path d="M48.4057 58.1513C48.4057 57.9293 47.791 55.0402 48.4803 54.0635" stroke="#263238" stroke-width="0.3" stroke-linecap="round" stroke-linejoin="round"/>
<path d="M51.9824 41.7966C51.9824 41.7966 52.8428 39.406 55.1376 39.167" stroke="#263238" stroke-width="0.3" stroke-linecap="round" stroke-linejoin="round"/>
<g opacity="0.4">
<path d="M56.1199 45.21C56.1961 45.4968 56.0267 45.8383 56.5348 46.0091C57.7203 46.1798 58.2284 47.0336 58.9059 47.8873C59.2598 48.0366 59.5793 48.2581 59.8442 48.5379" stroke="#263238" stroke-width="0.3" stroke-linecap="round" stroke-linejoin="round"/>
<path d="M53.3276 41.4927C54.2836 42.3868 55.1047 43.4171 55.7648 44.5508" stroke="#263238" stroke-width="0.3" stroke-linecap="round" stroke-linejoin="round"/>
<path d="M51.235 53.6501C50.8403 53.7782 50.4491 53.9148 50.0613 54.0634" stroke="#263238" stroke-width="0.3" stroke-linecap="round" stroke-linejoin="round"/>
<path d="M64.0016 50.6858C60.4297 52.4975 56.5344 52.3267 52.6391 53.1805C52.4697 53.1805 52.131 53.3512 51.9023 53.44" stroke="#263238" stroke-width="0.3" stroke-linecap="round" stroke-linejoin="round"/>
<path d="M55.4946 39.8262C57.0426 40.545 58.2281 41.911 59.4137 43.1063C60.5992 44.6431 61.6154 46.3506 63.4784 47.2043C63.9865 47.5458 64.4945 48.0581 64.4945 48.9119C64.6639 49.2534 65.3414 49.5949 64.6978 50.2779" stroke="#263238" stroke-width="0.3" stroke-linecap="round" stroke-linejoin="round"/>
<path d="M60.0706 55.2178C56.7037 55.742 53.3165 56.7665 49.8513 56.2884" stroke="#263238" stroke-width="0.3" stroke-linecap="round" stroke-linejoin="round"/>
<path d="M67.7495 51.1145C68.2779 53.6911 64.9381 54.188 63.1615 54.5859C62.335 54.7692 61.5057 54.9399 60.6736 55.0981" stroke="#263238" stroke-width="0.3" stroke-linecap="round" stroke-linejoin="round"/>
<path d="M51.5329 58.6753C50.8829 58.5817 50.2473 58.4055 49.6411 58.1511" stroke="#263238" stroke-width="0.3" stroke-linecap="round" stroke-linejoin="round"/>
<path d="M69.4456 54.6472C69.405 56.254 67.8807 57.1077 66.6952 57.4492C61.953 59.1568 57.0415 58.986 52.1707 58.7657" stroke="#263238" stroke-width="0.3" stroke-linecap="round" stroke-linejoin="round"/>
<path d="M52.9775 46.54C53.5889 47.1838 54.3849 47.5065 54.6796 48.4081C54.8592 48.9596 55.0302 49.6341 55.6856 49.7894" stroke="#263238" stroke-width="0.3" stroke-linecap="round" stroke-linejoin="round"/>
<path d="M51.4907 44.0146C51.745 44.7257 52.0973 45.3971 52.5374 46.009" stroke="#263238" stroke-width="0.3" stroke-linecap="round" stroke-linejoin="round"/>
</g>
<path d="M37.78 40.7602C37.7597 40.7329 37.736 40.7056 37.7123 40.6783C37.0027 39.8399 35.2802 39.2337 34.7569 39.0647L34.6045 39.0169C34.6045 39.0169 35.8019 30.0336 41.4941 32.9296C47.1864 35.8255 38.5625 41.7984 37.78 40.7602Z" fill="white" stroke="#263238" stroke-width="0.3" stroke-linecap="round" stroke-linejoin="round"/>
<path d="M37.7122 40.6779C37.0026 39.8396 35.2802 39.2334 34.7568 39.0643C34.8568 38.7928 34.9465 38.6101 34.9465 38.6101L40.0138 35.5366C40.0138 35.5366 40.1527 39.09 37.7122 40.6779Z" fill="#263238"/>
<path d="M42.0521 29.9584C41.9166 22.237 36.7206 16.7252 29.8919 20.6934C24.3114 23.9377 24.9093 30.1035 27.9849 33.2693C29.8038 35.1475 28.349 36.9233 31.2028 39.3497C32.1698 40.1727 34.629 41.0897 35.4842 40.8113C38.4955 39.8278 40.9631 36.4674 40.5211 35.0912" fill="white"/>
<path d="M42.0521 29.9584C41.9166 22.237 36.7206 16.7251 29.8919 20.6934C24.3114 23.9377 24.9093 30.1035 27.9849 33.2693C29.8038 35.1475 28.349 36.9233 31.2028 39.3497C32.1698 40.1727 34.629 41.0897 35.4842 40.8113C38.4955 39.8278 40.9631 36.4674 40.5211 35.0912" stroke="#263238" stroke-width="0.3" stroke-linecap="round" stroke-linejoin="round"/>
<path d="M30.7292 31.1041C30.7292 31.1041 31.8724 29.6254 34.1165 29.9976" stroke="#263238" stroke-width="0.3" stroke-linecap="round" stroke-linejoin="round"/>
<path d="M28.3212 31.8896C28.3212 31.8896 27.1763 31.4832 27.0713 31.9357" stroke="#263238" stroke-width="0.3" stroke-linecap="round" stroke-linejoin="round"/>
<path d="M33.7202 32.2773C33.8483 32.1833 33.8259 31.9324 33.6703 31.717C33.5146 31.5016 33.2847 31.4032 33.1566 31.4972C33.0286 31.5913 33.051 31.8421 33.2066 32.0575C33.3622 32.2729 33.5922 32.3713 33.7202 32.2773Z" fill="#263238"/>
<path d="M29.3805 33.2811C29.5347 33.4962 29.5499 33.7473 29.428 33.8412C29.306 33.9351 29.0689 33.8412 28.9199 33.6192C28.7708 33.3972 28.7505 33.153 28.8725 33.0591C28.9944 32.9652 29.2264 33.066 29.3805 33.2811Z" fill="#263238"/>
<path d="M29.4902 32.9294C30.0288 33.3836 30.6893 34.0632 30.0898 35.3627C29.4902 36.6621 30.9688 36.8123 31.7715 36.2608" fill="white"/>
<path d="M29.4902 32.9294C30.0288 33.3836 30.6893 34.0632 30.0898 35.3627C29.4902 36.6621 30.9688 36.8123 31.7715 36.2608" stroke="#263238" stroke-width="0.3" stroke-linecap="round" stroke-linejoin="round"/>
<path d="M32.3169 36.0301C32.3169 36.0301 32.8385 35.5452 31.9951 35.0312L32.3169 36.0301Z" fill="white"/>
<path d="M32.3169 36.0301C32.3169 36.0301 32.8385 35.5452 31.9951 35.0312" stroke="#263238" stroke-width="0.3" stroke-linecap="round" stroke-linejoin="round"/>
<path d="M31.8857 37.6727C32.0399 37.9305 32.8257 37.5992 33.056 37.548C33.2545 37.412 33.4604 37.2872 33.6725 37.1741C33.8995 37.0665 34.5735 36.7165 34.604 36.3203" fill="white"/>
<path d="M31.8857 37.6727C32.0399 37.9305 32.8257 37.5992 33.056 37.548C33.2545 37.412 33.4604 37.2872 33.6725 37.1741C33.8995 37.0665 34.5735 36.7165 34.604 36.3203" stroke="#263238" stroke-width="0.3" stroke-linecap="round" stroke-linejoin="round"/>
<path d="M32.4246 38.1407C33.1325 38.8356 34.3604 38.0758 34.6043 37.041L32.4246 38.1407Z" fill="white"/>
<path d="M32.4246 38.1407C33.1325 38.8356 34.3604 38.0758 34.6043 37.041" stroke="#263238" stroke-width="0.3" stroke-linecap="round" stroke-linejoin="round"/>
<path d="M32.7623 18.595C27.8508 19.5136 25.1766 22.8399 25.1207 25.8229C25.1207 25.8229 23.2577 29.3387 24.7024 31.8914C24.7024 31.8914 24.7735 31.8026 24.8904 31.6831C24.8247 31.2571 24.7901 30.8267 24.7871 30.3956C24.7855 29.9638 24.8275 29.533 24.9124 29.1098C25.0047 28.6891 25.1625 28.2857 25.3798 27.9146C25.196 28.296 25.0721 28.7038 25.0123 29.1235C24.9635 29.5412 24.9561 29.9628 24.9903 30.3819C25.0209 30.7363 25.0747 31.0883 25.1512 31.4355C25.4205 31.2101 25.7761 30.9915 26.1081 31.0274C26.2603 31.0402 26.4132 31.0402 26.5654 31.0274C26.4959 30.6859 26.4383 30.3256 26.396 29.9721C26.3546 29.5626 26.3393 29.1508 26.3503 28.7393C26.3676 28.3312 26.4272 27.926 26.5281 27.5304C26.4791 27.9303 26.4706 28.3342 26.5027 28.7359C26.5426 29.1342 26.6082 29.5295 26.6992 29.9192C26.7838 30.271 26.8849 30.6176 27.0023 30.9591C27.3948 30.8619 27.7625 30.6821 28.0812 30.4315C28.1687 30.3611 28.2656 30.3036 28.3691 30.2607C28.3437 30.09 28.32 29.9192 28.3013 29.7485C28.2461 29.2657 28.2297 28.7791 28.2522 28.2937C28.2744 27.8121 28.3663 27.3364 28.5249 26.8815C28.4508 27.346 28.4451 27.819 28.508 28.2851C28.5682 28.7479 28.6668 29.2049 28.8026 29.6511C28.8585 29.8492 28.9229 30.0439 28.9923 30.2368C29.1941 30.296 29.4061 30.3105 29.6139 30.2795C29.9848 30.1992 30.3625 30.2266 30.7147 30.0814C30.6724 29.9602 30.6267 29.839 30.5894 29.716C30.4592 29.2913 30.3595 28.8576 30.2913 28.4183C30.2305 27.9794 30.2151 27.5354 30.2456 27.0933C30.2486 27.5327 30.298 27.9706 30.393 28.3995C30.4922 28.8245 30.6218 29.2416 30.7808 29.6477C30.8248 29.757 30.8739 29.8629 30.9214 29.9704C31.0051 29.9158 31.0819 29.851 31.15 29.7775C31.6141 29.284 32.2983 28.9476 32.7047 29.156C32.7903 29.2001 32.8786 29.2389 32.969 29.2721C32.9554 29.2225 32.9385 29.1764 32.9232 29.1269C32.7958 28.6775 32.6924 28.2215 32.6133 27.7609C32.5399 27.2985 32.5059 26.8307 32.5117 26.3625C32.5566 26.8242 32.6404 27.2811 32.7623 27.7285C32.8894 28.1716 33.0397 28.6077 33.2128 29.0347C33.2603 29.1508 33.3128 29.2635 33.3636 29.3762C33.687 29.4189 33.997 29.3455 34.0935 28.9903C34.1131 28.902 34.1621 28.823 34.2324 28.7666C34.207 28.7035 34.1816 28.6386 34.1579 28.572C34.0363 28.2362 33.9323 27.8942 33.8463 27.5475C33.7586 27.2042 33.6924 26.8558 33.6481 26.5042C33.6022 26.1555 33.579 25.8041 33.5787 25.4524C33.6288 25.7984 33.7018 26.1406 33.7971 26.4769C33.8895 26.8093 34.0026 27.1355 34.1359 27.4536C34.2656 27.7708 34.412 28.0809 34.5745 28.3824C34.6423 28.5088 34.7151 28.6335 34.7896 28.7581C34.9008 28.7993 35.0079 28.8507 35.1097 28.9118C35.1097 28.9118 34.2375 26.7227 34.4085 24.614C34.4085 24.614 35.4603 29.1184 38.6426 30.761L39.3099 31.9563C39.3099 31.9563 40.4463 31.0171 41.3422 31.8658C42.2382 32.7144 42.5549 32.1373 42.5549 32.1373C42.5549 32.1373 43.964 29.3643 42.2737 24.1C40.5835 18.8357 36.6797 17.8625 32.7623 18.595Z" fill="#263238"/>
<path d="M40.754 33.3972C40.754 33.3972 40.6897 33.8479 41.2231 33.8838C41.7566 33.9197 42.2088 32.8012 42.4747 30.7625C42.7593 28.5956 42.1004 27.2945 40.8235 27.2825C39.5465 27.2706 39.1976 28.6366 39.0909 29.4255C39.0005 30.0956 39.028 30.7765 39.1722 31.4369" fill="white"/>
<path d="M40.754 33.3972C40.754 33.3972 40.6897 33.8479 41.2231 33.8838C41.7566 33.9197 42.2088 32.8012 42.4747 30.7625C42.7593 28.5956 42.1004 27.2945 40.8235 27.2825C39.5465 27.2706 39.1976 28.6366 39.0909 29.4255C39.0005 30.0956 39.028 30.7765 39.1722 31.4369" stroke="#263238" stroke-width="0.3" stroke-linecap="round" stroke-linejoin="round"/>
<path d="M41.6519 33.112C41.6519 33.1708 41.6346 33.2283 41.6022 33.2771C41.5698 33.326 41.5238 33.3641 41.47 33.3865C41.4161 33.409 41.3569 33.4149 41.2997 33.4034C41.2425 33.392 41.19 33.3637 41.1488 33.3221C41.1076 33.2806 41.0795 33.2276 41.0682 33.17C41.0568 33.1124 41.0626 33.0526 41.0849 32.9984C41.1072 32.9441 41.145 32.8977 41.1935 32.865C41.2419 32.8324 41.2989 32.8149 41.3572 32.8149C41.4353 32.8149 41.5103 32.8462 41.5656 32.902C41.6208 32.9577 41.6519 33.0332 41.6519 33.112Z" fill="#8A2BE2" stroke="#263238" stroke-width="0.3" stroke-linecap="round" stroke-linejoin="round"/>
<path d="M33.9517 36.6177C33.9517 36.6177 33.176 36.814 32.9813 36.8806C32.8185 36.9689 32.6786 37.0947 32.5731 37.2477C32.5731 37.2477 32.0972 37.2597 31.9922 37.4663" fill="white"/>
<path d="M33.9517 36.6177C33.9517 36.6177 33.176 36.814 32.9813 36.8806C32.8185 36.9689 32.6786 37.0947 32.5731 37.2477C32.5731 37.2477 32.0972 37.2597 31.9922 37.4663" stroke="#263238" stroke-width="0.3" stroke-linecap="round" stroke-linejoin="round"/>
<g opacity="0.2">
<path d="M31.9901 23.1282C31.9901 23.1282 31.0383 25.1208 31.4482 27.9912" stroke="white" stroke-width="0.3" stroke-linecap="round" stroke-linejoin="round"/>
<path d="M30.2 23.1282C30.2 23.1282 28.21 25.7151 29.3532 29.4033" stroke="white" stroke-width="0.3" stroke-linecap="round" stroke-linejoin="round"/>
<path d="M27.0667 29.9379C27.0989 29.7671 26.0946 25.8877 27.8695 23.8625" stroke="white" stroke-width="0.3" stroke-linecap="round" stroke-linejoin="round"/>
<path d="M24.4902 29.3948C24.4902 29.3948 24.9882 25.6212 26.8173 24.2722" stroke="white" stroke-width="0.3" stroke-linecap="round" stroke-linejoin="round"/>
<path d="M34.7561 23.1282C34.7561 23.1282 36.9222 26.801 39.7675 26.5978" stroke="white" stroke-width="0.3" stroke-linecap="round" stroke-linejoin="round"/>
<path d="M35.7852 21.9807C35.7852 21.9807 38.495 24.4361 40.7915 23.859" stroke="white" stroke-width="0.3" stroke-linecap="round" stroke-linejoin="round"/>
</g>
</g>
<defs>
<clipPath id="clip0_520_62880">
<rect width="76" height="72" fill="white"/>
</clipPath>
</defs>
</svg>
