<svg width="24" height="24" viewBox="0 0 24 24" fill="none" xmlns="http://www.w3.org/2000/svg">
<path d="M23.6248 8.68878C23.6254 8.44246 23.5772 8.19846 23.4829 7.97091C23.3886 7.74337 23.2501 7.53679 23.0754 7.36315L16.6366 0.923467C16.4625 0.749277 16.2558 0.611097 16.0282 0.516822C15.8007 0.422547 15.5568 0.374023 15.3105 0.374023C15.0642 0.374023 14.8204 0.422547 14.5928 0.516822C14.3653 0.611097 14.1586 0.749277 13.9844 0.923467L11.3763 3.53159L6.01007 5.5444C5.70189 5.65988 5.42954 5.85444 5.22038 6.10853C5.01122 6.36262 4.87262 6.66728 4.81851 6.9919L2.63976 20.0625C2.61248 20.2239 2.62074 20.3893 2.66397 20.5471C2.70719 20.705 2.78434 20.8515 2.89003 20.9765C2.99571 21.1015 3.1274 21.2019 3.27588 21.2707C3.42437 21.3395 3.58609 21.3751 3.74976 21.375C3.81257 21.3753 3.87529 21.3703 3.93726 21.36L17.0107 19.1803C17.335 19.1257 17.6393 18.987 17.8932 18.7781C18.1472 18.5692 18.342 18.2974 18.4582 17.9897L20.4701 12.6225L23.0782 10.0144C23.2524 9.84057 23.3905 9.63389 23.4843 9.40635C23.5781 9.1788 23.6258 8.93491 23.6248 8.68878ZM16.4248 16.9969L7.03101 18.5625L10.1248 15.4688C10.8047 15.7757 11.5708 15.8344 12.2896 15.6347C13.0084 15.435 13.6343 14.9895 14.0585 14.3758C14.4826 13.762 14.678 13.019 14.6107 12.276C14.5434 11.533 14.2176 10.8372 13.6901 10.3097C13.1626 9.78215 12.4668 9.45638 11.7238 9.38907C10.9808 9.32176 10.2378 9.51719 9.62404 9.94133C9.01031 10.3655 8.56479 10.9914 8.36507 11.7102C8.16535 12.429 8.22407 13.1951 8.53101 13.875L5.43726 16.9688L7.00288 7.57503L11.7185 5.8069L18.1919 12.2813L16.4248 16.9969ZM10.4998 12.5625C10.4998 12.3771 10.5547 12.1959 10.6578 12.0417C10.7608 11.8875 10.9072 11.7673 11.0785 11.6964C11.2498 11.6254 11.4383 11.6069 11.6202 11.643C11.802 11.6792 11.9691 11.7685 12.1002 11.8996C12.2313 12.0307 12.3206 12.1978 12.3567 12.3796C12.3929 12.5615 12.3744 12.75 12.3034 12.9213C12.2324 13.0926 12.1123 13.239 11.9581 13.342C11.8039 13.445 11.6227 13.5 11.4373 13.5C11.1886 13.5 10.9502 13.4013 10.7743 13.2254C10.5985 13.0496 10.4998 12.8112 10.4998 12.5625ZM19.4998 10.4063L13.5935 4.50003L15.3129 2.78065L21.2191 8.6869L19.4998 10.4063Z" fill="#F3F3F3"/>
</svg>
