<svg width="20" height="20" viewBox="0 0 20 20" fill="none" xmlns="http://www.w3.org/2000/svg">
<path d="M13.6562 3C12.043 3 10.6305 3.69375 9.75 4.86641C8.86953 3.69375 7.45703 3 5.84375 3C4.55955 3.00145 3.32837 3.51223 2.4203 4.4203C1.51223 5.32837 1.00145 6.55955 1 7.84375C1 13.3125 9.10859 17.7391 9.45391 17.9219C9.54492 17.9708 9.64665 17.9965 9.75 17.9965C9.85335 17.9965 9.95508 17.9708 10.0461 17.9219C10.3914 17.7391 18.5 13.3125 18.5 7.84375C18.4986 6.55955 17.9878 5.32837 17.0797 4.4203C16.1716 3.51223 14.9404 3.00145 13.6562 3ZM9.75 16.6562C8.32344 15.825 2.25 12.0383 2.25 7.84375C2.25124 6.89101 2.63026 5.97765 3.30396 5.30396C3.97765 4.63026 4.89101 4.25124 5.84375 4.25C7.36328 4.25 8.63906 5.05938 9.17188 6.35938C9.21896 6.47401 9.29907 6.57205 9.40201 6.64105C9.50494 6.71005 9.62607 6.7469 9.75 6.7469C9.87393 6.7469 9.99506 6.71005 10.098 6.64105C10.2009 6.57205 10.281 6.47401 10.3281 6.35938C10.8609 5.05703 12.1367 4.25 13.6562 4.25C14.609 4.25124 15.5224 4.63026 16.196 5.30396C16.8697 5.97765 17.2488 6.89101 17.25 7.84375C17.25 12.032 11.175 15.8242 9.75 16.6562Z" fill="#D9D9D9"/>
</svg>
