<svg width="76" height="76" viewBox="0 0 76 76" fill="none" xmlns="http://www.w3.org/2000/svg">
<path d="M72.0002 68.7104H5.04883L18.4397 62.2397H58.6093L72.0002 68.7104Z" fill="#263238" stroke="#263238" stroke-width="0.4" stroke-linecap="round" stroke-linejoin="round"/>
<path d="M36.7753 23.0264C36.7753 23.0264 37.0468 27.132 36.6667 27.8349C36.2867 28.5378 33.9126 29.0778 32.5068 29.295C31.101 29.5121 29.104 29.6177 28.564 30.5921C28.0241 31.5665 28.1296 33.7807 28.8325 35.4549C29.5354 37.1292 32.8326 45.8292 32.8326 45.8292L28.6093 55.9862C28.6093 55.9862 34.5008 63.1206 38.1208 64.1462C41.7407 65.1719 46.6036 61.6062 47.6835 60.1462C48.342 59.2253 48.7345 58.1409 48.8178 57.0119L44.6639 45.2892C44.6639 45.2892 48.4377 36.3056 48.7092 34.4685C48.9807 32.6314 49.1496 30.4986 47.8042 29.9043C46.4588 29.31 43.5809 28.9149 42.7242 28.4835C41.8674 28.0521 41.5356 27.8349 41.4813 26.7006C41.427 25.5664 41.5356 23.0807 41.5356 23.0807C41.5356 23.0807 38.1268 23.7835 36.7753 23.0264Z" fill="white"/>
<mask id="mask0_520_62607" style="mask-type:luminance" maskUnits="userSpaceOnUse" x="28" y="23" width="21" height="42">
<path d="M36.7753 23.0264C36.7753 23.0264 37.0468 27.132 36.6667 27.8349C36.2867 28.5378 33.9126 29.0778 32.5068 29.295C31.101 29.5121 29.104 29.6177 28.564 30.5921C28.0241 31.5665 28.1296 33.7807 28.8325 35.4549C29.5354 37.1292 32.8326 45.8292 32.8326 45.8292L28.6093 55.9862C28.6093 55.9862 34.5008 63.1206 38.1208 64.1462C41.7407 65.1719 46.6036 61.6062 47.6835 60.1462C48.342 59.2253 48.7345 58.1409 48.8178 57.0119L44.6639 45.2892C44.6639 45.2892 48.4377 36.3056 48.7092 34.4685C48.9807 32.6314 49.1496 30.4986 47.8042 29.9043C46.4588 29.31 43.5809 28.9149 42.7242 28.4835C41.8674 28.0521 41.5356 27.8349 41.4813 26.7006C41.427 25.5664 41.5356 23.0807 41.5356 23.0807C41.5356 23.0807 38.1268 23.7835 36.7753 23.0264Z" fill="white"/>
</mask>
<g mask="url(#mask0_520_62607)">
<path d="M41.4753 26.7006C41.421 25.5664 41.5296 23.0807 41.5296 23.0807C41.5296 23.0807 38.1268 23.7835 36.7754 23.0264C36.7754 23.0264 36.9926 26.3447 36.7754 27.5242C37.3677 27.9001 38.0387 28.1344 38.7362 28.209C39.7528 28.3417 40.8479 28.0038 41.6835 27.6599C41.5491 27.3578 41.4783 27.0313 41.4753 26.7006Z" fill="#8A2BE2"/>
<path opacity="0.5" d="M41.4753 26.7006C41.421 25.5664 41.5296 23.0807 41.5296 23.0807C41.5296 23.0807 38.1268 23.7835 36.7754 23.0264C36.7754 23.0264 36.9926 26.3447 36.7754 27.5242C37.3677 27.9001 38.0387 28.1344 38.7362 28.209C39.7528 28.3417 40.8479 28.0038 41.6835 27.6599C41.5491 27.3578 41.4783 27.0313 41.4753 26.7006Z" fill="white"/>
<path d="M44.1257 30.9993L40.919 31.491C40.014 31.6328 39.9265 32.3326 39.9265 32.3326" stroke="#263238" stroke-width="0.4" stroke-linecap="round" stroke-linejoin="round"/>
<path d="M38.3224 32.1245C38.3224 32.1245 38.2469 31.7022 37.5592 31.4216C36.8714 31.1411 33.5862 31.0717 32.8984 30.9299" stroke="#263238" stroke-width="0.4" stroke-linecap="round" stroke-linejoin="round"/>
</g>
<path d="M36.7753 23.0264C36.7753 23.0264 37.0468 27.132 36.6667 27.8349C36.2867 28.5378 33.9126 29.0778 32.5068 29.295C31.101 29.5121 29.104 29.6177 28.564 30.5921C28.0241 31.5665 28.1296 33.7807 28.8325 35.4549C29.5354 37.1292 32.8326 45.8292 32.8326 45.8292L28.6093 55.9862C28.6093 55.9862 34.5008 63.1206 38.1208 64.1462C41.7407 65.1719 46.6036 61.6062 47.6835 60.1462C48.342 59.2253 48.7345 58.1409 48.8178 57.0119L44.6639 45.2892C44.6639 45.2892 48.4377 36.3056 48.7092 34.4685C48.9807 32.6314 49.1496 30.4986 47.8042 29.9043C46.4588 29.31 43.5809 28.9149 42.7242 28.4835C41.8674 28.0521 41.5356 27.8349 41.4813 26.7006C41.427 25.5664 41.5356 23.0807 41.5356 23.0807C41.5356 23.0807 38.1268 23.7835 36.7753 23.0264Z" stroke="#263238" stroke-width="0.4" stroke-linecap="round" stroke-linejoin="round"/>
<path d="M46.8865 39.7926C45.8729 38.6523 44.5939 36.7005 44.618 34.3868C44.6012 32.6166 44.6858 30.847 44.8714 29.0865C44.5154 29.0051 44.1715 28.9267 43.8608 28.8482C43.5592 30.6914 42.5818 34.5798 39.4052 34.6281C36.0869 34.6915 35.2634 30.4712 35.0583 28.7185C34.8773 28.7758 34.6872 28.8301 34.4972 28.8814C34.3071 28.9327 34.1141 28.9779 33.921 29.0232C35.6556 32.6884 32.0658 38.5347 30.7867 40.4261C30.844 40.583 30.9043 40.7278 30.9647 40.8937C30.9798 40.9299 30.9918 40.9691 31.0069 41.0053C31.0612 41.1441 31.1125 41.2798 31.1638 41.4156L31.1789 41.4518C31.3629 41.9404 31.5469 42.4171 31.7188 42.8666C31.7701 43.0023 31.8214 43.135 31.8727 43.2617L31.8938 43.3251L32.1955 44.0823C32.1955 44.1245 32.2256 44.1667 32.2437 44.209L32.6721 45.3372L32.7656 45.5876L32.835 45.7686L32.8561 45.8199L28.6328 55.9769C28.6328 55.9769 34.5243 63.1112 38.1443 64.1369C41.7643 65.1626 46.6271 61.5969 47.707 60.1368C48.3656 59.2159 48.758 58.1316 48.8413 57.0025L44.6632 45.2889C44.6632 45.2889 45.8126 42.5528 46.8865 39.7926Z" fill="#8A2BE2"/>
<mask id="mask1_520_62607" style="mask-type:luminance" maskUnits="userSpaceOnUse" x="28" y="28" width="21" height="37">
<path d="M46.8865 39.7926C45.8729 38.6523 44.5939 36.7005 44.618 34.3868C44.6012 32.6166 44.6858 30.847 44.8714 29.0865C44.5154 29.0051 44.1715 28.9267 43.8608 28.8482C43.5592 30.6914 42.5818 34.5798 39.4052 34.6281C36.0869 34.6915 35.2634 30.4712 35.0583 28.7185C34.8773 28.7758 34.6872 28.8301 34.4972 28.8814C34.3071 28.9327 34.1141 28.9779 33.921 29.0232C35.6556 32.6884 32.0658 38.5347 30.7867 40.4261C30.844 40.583 30.9043 40.7278 30.9647 40.8937C30.9798 40.9299 30.9918 40.9691 31.0069 41.0053C31.0612 41.1441 31.1125 41.2798 31.1638 41.4156L31.1789 41.4518C31.3629 41.9404 31.5469 42.4171 31.7188 42.8666C31.7701 43.0023 31.8214 43.135 31.8727 43.2617L31.8938 43.3251L32.1955 44.0823C32.1955 44.1245 32.2256 44.1667 32.2437 44.209L32.6721 45.3372L32.7656 45.5876L32.835 45.7686L32.8561 45.8199L28.6328 55.9769C28.6328 55.9769 34.5243 63.1112 38.1443 64.1369C41.7643 65.1626 46.6271 61.5969 47.707 60.1368C48.3656 59.2159 48.758 58.1316 48.8413 57.0025L44.6632 45.2889C44.6632 45.2889 45.8126 42.5528 46.8865 39.7926Z" fill="white"/>
</mask>
<g mask="url(#mask1_520_62607)">
<path opacity="0.15" d="M44.663 45.2888C44.663 45.2888 45.8124 42.5527 46.8863 39.7925C46.6395 39.5128 46.4069 39.2208 46.1895 38.9177C45.939 39.1266 45.7258 39.3765 45.559 39.6567C45.559 39.6567 44.9014 41.5572 43.749 42.5799C42.5966 43.6025 40.6087 43.0897 39.3658 42.9449C38.123 42.8001 36.4457 43.9675 35.2783 41.7774C34.135 39.6386 33.1334 38.1997 32.0022 38.4591C31.5648 39.2284 31.1545 39.8679 30.8529 40.3204C30.8529 40.3777 30.8287 40.4381 30.8197 40.4984C30.8679 40.6251 30.9162 40.7548 30.9675 40.8845C30.9826 40.9207 30.9946 40.9599 31.0097 40.9961C31.064 41.1349 31.1153 41.2707 31.1666 41.4064L31.1817 41.4426C31.3657 41.9313 31.5497 42.4079 31.7216 42.8574C31.7729 42.9932 31.8242 43.1259 31.8755 43.2526L31.8966 43.3159L32.1983 44.0731C32.1983 44.1153 32.2284 44.1576 32.2465 44.1998L32.6749 45.328C32.7111 45.4276 32.7443 45.509 32.7684 45.5784L32.8378 45.7594L32.8589 45.8107L30.6387 51.0989C30.6387 51.2316 30.7171 51.2557 30.877 51.123C31.6794 50.4684 33.5045 49.2255 34.9676 50.2482C36.4306 51.2708 37.5227 53.2407 40.0054 52.1457C42.488 51.0506 42.7203 48.6403 44.3885 48.9329C45.0297 49.066 45.6424 49.311 46.1985 49.6569L44.663 45.2888Z" fill="black"/>
</g>
<path d="M46.8865 39.7926C45.8729 38.6523 44.5939 36.7005 44.618 34.3868C44.6012 32.6166 44.6858 30.847 44.8714 29.0865C44.5154 29.0051 44.1715 28.9267 43.8608 28.8482C43.5592 30.6914 42.5818 34.5798 39.4052 34.6281C36.0869 34.6915 35.2634 30.4712 35.0583 28.7185C34.8773 28.7758 34.6872 28.8301 34.4972 28.8814C34.3071 28.9327 34.1141 28.9779 33.921 29.0232C35.6556 32.6884 32.0658 38.5347 30.7867 40.4261C30.844 40.583 30.9043 40.7278 30.9647 40.8937C30.9798 40.9299 30.9918 40.9691 31.0069 41.0053C31.0612 41.1441 31.1125 41.2798 31.1638 41.4156L31.1789 41.4518C31.3629 41.9404 31.5469 42.4171 31.7188 42.8666C31.7701 43.0023 31.8214 43.135 31.8727 43.2617L31.8938 43.3251L32.1955 44.0823C32.1955 44.1245 32.2256 44.1667 32.2437 44.209L32.6721 45.3372L32.7656 45.5876L32.835 45.7686L32.8561 45.8199L28.6328 55.9769C28.6328 55.9769 34.5243 63.1112 38.1443 64.1369C41.7643 65.1626 46.6271 61.5969 47.707 60.1368C48.3656 59.2159 48.758 58.1316 48.8413 57.0025L44.6632 45.2889C44.6632 45.2889 45.8126 42.5528 46.8865 39.7926Z" stroke="#263238" stroke-width="0.4" stroke-linecap="round" stroke-linejoin="round"/>
<path d="M45.4987 20.1755C45.4857 20.1726 45.4724 20.1726 45.4594 20.1755C46.0175 18.0638 45.4413 15.3488 44.4489 13.6203C43.1517 11.3518 41.6917 10.1089 40.5574 10.1089C39.4231 10.1089 39.0491 11.3518 39.0491 11.3518C39.0491 11.3518 38.4457 10.0546 36.672 10.0003C34.8982 9.94603 32.0806 16.7003 32.4034 19.5661C32.7262 22.4319 35.3748 23.889 38.1863 24.2117C40.9978 24.5345 42.8862 23.9432 44.6148 21.8889C44.8304 21.6307 45.0119 21.3458 45.1548 21.0412C44.8712 22.082 44.2106 23.9131 42.9767 24.5647C42.9593 24.5741 42.9439 24.587 42.9314 24.6024C42.9189 24.6179 42.9096 24.6356 42.904 24.6547C42.8983 24.6738 42.8966 24.6937 42.8987 24.7135C42.9008 24.7333 42.9069 24.7524 42.9164 24.7698C42.9292 24.7938 42.9483 24.8139 42.9717 24.8277C42.9952 24.8415 43.0219 24.8486 43.0491 24.8482C43.0732 24.8493 43.0971 24.8441 43.1185 24.8332C45.0009 23.8347 45.6042 20.4892 45.6284 20.3474C45.6314 20.3276 45.6303 20.3073 45.6254 20.2879C45.6205 20.2685 45.6117 20.2502 45.5996 20.2342C45.5875 20.2182 45.5724 20.2047 45.5551 20.1947C45.5377 20.1846 45.5185 20.178 45.4987 20.1755Z" fill="#263238"/>
<path d="M37.7846 11.7045C37.7846 11.7045 36.6805 10.6004 35.7785 12.2053C34.8766 13.8101 32.1586 18.5402 33.1691 20.2386" stroke="white" stroke-width="0.4" stroke-linecap="round" stroke-linejoin="round"/>
<path d="M39.5925 12.2053C39.5925 12.2053 39.8942 11.2038 41.4025 11.4029C42.9108 11.602 45.1733 15.6805 45.3242 17.9279" stroke="white" stroke-width="0.4" stroke-linecap="round" stroke-linejoin="round"/>
<path d="M35.3144 19.4606C35.3144 19.4606 34.9373 18.5556 34.6146 19.5149C34.2918 20.4742 34.9916 21.352 35.3144 21.6265C35.6372 21.901 35.8574 21.4123 35.7488 21.0865C35.6402 20.7607 35.3144 19.4606 35.3144 19.4606Z" fill="white" stroke="#263238" stroke-width="0.4" stroke-linecap="round" stroke-linejoin="round"/>
<path d="M42.9351 19.4606C42.9351 19.4606 43.3121 18.5556 43.6349 19.5149C43.9577 20.4742 43.2579 21.352 42.9351 21.6265C42.6123 21.901 42.3921 21.4123 42.5007 21.0865C42.6093 20.7607 42.9351 19.4606 42.9351 19.4606Z" fill="white" stroke="#263238" stroke-width="0.4" stroke-linecap="round" stroke-linejoin="round"/>
<path d="M38.612 11.8405C38.612 11.8405 37.532 12.2206 36.452 14.2719C35.3461 16.32 34.9969 18.6921 35.4656 20.9719C35.9513 23.2977 37.6828 24.6462 39.3571 24.7548C41.0313 24.8634 42.7055 22.6431 43.0313 20.8663C43.3571 19.0895 42.4914 15.0291 41.4627 13.3549C41.1636 12.8732 40.7423 12.4793 40.2415 12.2133C39.7408 11.9473 39.1785 11.8187 38.612 11.8405Z" fill="white"/>
<mask id="mask2_520_62607" style="mask-type:luminance" maskUnits="userSpaceOnUse" x="35" y="11" width="9" height="14">
<path d="M38.6129 11.8403C38.6129 11.8403 37.533 12.2204 36.453 14.2717C35.3471 16.3197 34.9979 18.6918 35.4666 20.9717C35.9523 23.2975 37.6838 24.6459 39.358 24.7545C41.0323 24.8631 42.7065 22.6429 43.0323 20.8661C43.3581 19.0893 42.4923 15.0289 41.4637 13.3546C41.1646 12.8729 40.7433 12.479 40.2425 12.213C39.7418 11.947 39.1795 11.8184 38.6129 11.8403Z" fill="white"/>
</mask>
<g mask="url(#mask2_520_62607)">
<path d="M42.6468 17.5297C42.6468 20.115 42.4778 22.9597 40.2335 23.7018C37.9891 24.4438 36.7311 22.118 36.1459 20.115C35.6482 18.4045 36.0041 15.8313 36.164 14.8901C35.2917 16.7919 35.0476 18.9219 35.4672 20.9717C35.9528 23.2975 37.6844 24.646 39.3586 24.7546C41.0329 24.8632 42.7071 22.6429 43.0329 20.8661C43.2169 19.8525 43.0178 18.1119 42.6226 16.489C42.6407 16.8087 42.6468 17.1526 42.6468 17.5297Z" fill="#8A2BE2"/>
<path opacity="0.5" d="M42.6468 17.5297C42.6468 20.115 42.4778 22.9597 40.2335 23.7018C37.9891 24.4438 36.7311 22.118 36.1459 20.115C35.6482 18.4045 36.0041 15.8313 36.164 14.8901C35.2917 16.7919 35.0476 18.9219 35.4672 20.9717C35.9528 23.2975 37.6844 24.646 39.3586 24.7546C41.0329 24.8632 42.7071 22.6429 43.0329 20.8661C43.2169 19.8525 43.0178 18.1119 42.6226 16.489C42.6407 16.8087 42.6468 17.1526 42.6468 17.5297Z" fill="white"/>
<path d="M38.6137 11.8401C38.6137 11.8401 38.4749 13.8583 39.8203 14.7753C41.1658 15.6924 42.2336 15.442 42.2336 15.442C42.2336 15.442 39.2532 11.8281 38.6137 11.8401Z" fill="#8A2BE2"/>
<path opacity="0.5" d="M38.6137 11.8401C38.6137 11.8401 38.4749 13.8583 39.8203 14.7753C41.1658 15.6924 42.2336 15.442 42.2336 15.442C42.2336 15.442 39.2532 11.8281 38.6137 11.8401Z" fill="white"/>
</g>
<path d="M38.612 11.8405C38.612 11.8405 37.532 12.2206 36.452 14.2719C35.3461 16.32 34.9969 18.6921 35.4656 20.9719C35.9513 23.2977 37.6828 24.6462 39.3571 24.7548C41.0313 24.8634 42.7055 22.6431 43.0313 20.8663C43.3571 19.0895 42.4914 15.0291 41.4627 13.3549C41.1636 12.8732 40.7423 12.4793 40.2415 12.2133C39.7408 11.9473 39.1785 11.8187 38.612 11.8405Z" stroke="#263238" stroke-width="0.4" stroke-linecap="round" stroke-linejoin="round"/>
<path d="M39.5327 17.2463C39.4696 17.4579 39.4696 17.6833 39.5327 17.8949C39.6383 18.2177 40.3955 18.272 40.1813 18.7034C40.0416 18.9695 39.8333 19.1934 39.5779 19.352" stroke="#263238" stroke-width="0.4" stroke-linecap="round" stroke-linejoin="round"/>
<path d="M38.9893 20.7576H39.7464" stroke="#263238" stroke-width="0.4" stroke-linecap="round" stroke-linejoin="round"/>
<path d="M40.2922 17.5692C40.2922 17.5692 40.9951 17.1378 41.5894 17.5692" stroke="#263238" stroke-width="0.4" stroke-linecap="round" stroke-linejoin="round"/>
<path d="M36.7754 17.5692C36.7754 17.5692 37.4783 17.1378 38.0725 17.5692" stroke="#263238" stroke-width="0.4" stroke-linecap="round" stroke-linejoin="round"/>
<path d="M36.2891 16.2718C36.5344 16.0332 36.8435 15.8707 37.1791 15.8038C37.5147 15.7369 37.8624 15.7685 38.1805 15.8948" stroke="#263238" stroke-width="0.4" stroke-linecap="round" stroke-linejoin="round"/>
<path d="M39.9092 15.9493C39.9092 15.9493 40.7207 15.3007 41.7463 16.0579" stroke="#263238" stroke-width="0.4" stroke-linecap="round" stroke-linejoin="round"/>
<path d="M38.6121 11.8405C39.367 12.7557 40.1791 13.6222 41.0435 14.4348C41.3972 14.7663 41.8139 15.0233 42.2689 15.1907C42.7239 15.3581 43.2079 15.4324 43.6921 15.4092C43.6921 15.4092 42.7871 13.4091 41.2064 12.3292C39.6257 11.2492 38.6121 11.8405 38.6121 11.8405Z" fill="#263238" stroke="#263238" stroke-width="0.4" stroke-linecap="round" stroke-linejoin="round"/>
<path d="M30.9838 29.7352C30.9838 29.7352 28.7395 29.4155 27.7771 31.3401C26.8148 33.2647 25.7711 42.8878 25.7711 42.8878C25.7711 42.8878 24.5644 43.6902 23.2069 44.4926C21.8494 45.2951 19.1948 46.9784 17.8343 47.461C16.4738 47.9437 15.2671 48.3419 15.2671 48.3419C14.9542 47.8036 14.6858 47.2406 14.4647 46.6586C14.3833 46.2574 13.5024 46.0975 13.1012 45.6963C12.7 45.2951 12.1389 44.6525 12.1389 45.2951C12.1389 45.9376 12.0574 46.3358 12.7 46.5771C13.3425 46.8185 13.8222 47.6993 13.8222 47.6993C13.8222 47.6993 10.2957 47.6601 10.534 47.9799C11.0116 48.6146 11.6117 49.1469 12.2988 49.5455C13.5612 50.21 14.9628 50.5666 16.3893 50.5863C17.8343 50.5863 26.9747 47.6209 27.6957 46.8185C28.4167 46.016 30.7455 37.5151 30.7455 37.5151" fill="white"/>
<mask id="mask3_520_62607" style="mask-type:luminance" maskUnits="userSpaceOnUse" x="10" y="29" width="21" height="22">
<path d="M30.9838 29.7352C30.9838 29.7352 28.7395 29.4155 27.7771 31.3401C26.8148 33.2647 25.7711 42.8878 25.7711 42.8878C25.7711 42.8878 24.5644 43.6902 23.2069 44.4926C21.8494 45.2951 19.1948 46.9784 17.8343 47.461C16.4738 47.9437 15.2671 48.3419 15.2671 48.3419C14.9542 47.8036 14.6858 47.2406 14.4647 46.6586C14.3833 46.2574 13.5024 46.0975 13.1012 45.6963C12.7 45.2951 12.1389 44.6525 12.1389 45.2951C12.1389 45.9376 12.0574 46.3358 12.7 46.5771C13.3425 46.8185 13.8222 47.6993 13.8222 47.6993C13.8222 47.6993 10.2957 47.6601 10.534 47.9799C11.0116 48.6146 11.6117 49.1469 12.2988 49.5455C13.5612 50.21 14.9628 50.5666 16.3893 50.5863C17.8343 50.5863 26.9747 47.6209 27.6957 46.8185C28.4167 46.016 30.7455 37.5151 30.7455 37.5151" fill="white"/>
</mask>
<g mask="url(#mask3_520_62607)">
<path d="M14.5789 50.375C15.1732 50.5084 15.7798 50.5792 16.3888 50.5862C17.8338 50.5862 26.9742 47.6209 27.6952 46.8184C28.4162 46.016 30.7451 37.5151 30.7451 37.5151L30.7782 36.402L30.0452 35.4668C30.0452 35.4668 27.294 44.393 26.7932 45.2286C26.2925 46.0643 20.5337 48.3147 17.7825 49.3162C16.5819 49.7536 15.4627 50.1096 14.5789 50.375Z" fill="#8A2BE2"/>
<path opacity="0.5" d="M14.5789 50.375C15.1732 50.5084 15.7798 50.5792 16.3888 50.5862C17.8338 50.5862 26.9742 47.6209 27.6952 46.8184C28.4162 46.016 30.7451 37.5151 30.7451 37.5151L30.7782 36.402L30.0452 35.4668C30.0452 35.4668 27.294 44.393 26.7932 45.2286C26.2925 46.0643 20.5337 48.3147 17.7825 49.3162C16.5819 49.7536 15.4627 50.1096 14.5789 50.375Z" fill="white"/>
</g>
<path d="M30.9838 29.7352C30.9838 29.7352 28.7395 29.4155 27.7771 31.3401C26.8148 33.2647 25.7711 42.8878 25.7711 42.8878C25.7711 42.8878 24.5644 43.6902 23.2069 44.4926C21.8494 45.2951 19.1948 46.9784 17.8343 47.461C16.4738 47.9437 15.2671 48.3419 15.2671 48.3419C14.9542 47.8036 14.6858 47.2406 14.4647 46.6586C14.3833 46.2574 13.5024 46.0975 13.1012 45.6963C12.7 45.2951 12.1389 44.6525 12.1389 45.2951C12.1389 45.9376 12.0574 46.3358 12.7 46.5771C13.3425 46.8185 13.8222 47.6993 13.8222 47.6993C13.8222 47.6993 10.2957 47.6601 10.534 47.9799C11.0116 48.6146 11.6117 49.1469 12.2988 49.5455C13.5612 50.21 14.9628 50.5666 16.3893 50.5863C17.8343 50.5863 26.9747 47.6209 27.6957 46.8185C28.4167 46.016 30.7455 37.5151 30.7455 37.5151" stroke="#263238" stroke-width="0.4" stroke-linecap="round" stroke-linejoin="round"/>
<path d="M11.1245 48.562C10.8347 48.428 10.5727 48.2407 10.3522 48.0099C10.129 47.7083 9.94496 46.6826 10.129 46.2784C10.313 45.8742 12.0807 45.0989 12.0807 45.0989C12.1641 45.3347 12.19 45.5871 12.1562 45.8349C12.0807 46.1668 10.9495 46.6464 10.9495 46.6464L11.3537 48.1185" fill="white"/>
<path d="M11.1245 48.562C10.8347 48.428 10.5727 48.2407 10.3522 48.0099C10.129 47.7083 9.94496 46.6826 10.129 46.2784C10.313 45.8742 12.0807 45.0989 12.0807 45.0989C12.1641 45.3347 12.19 45.5871 12.1562 45.8349C12.0807 46.1668 10.9495 46.6464 10.9495 46.6464L11.3537 48.1185" stroke="#263238" stroke-width="0.4" stroke-linecap="round" stroke-linejoin="round"/>
<path d="M12.1557 48.5258C11.9705 48.4266 11.817 48.2772 11.713 48.0947C11.6089 47.9122 11.5585 47.704 11.5675 47.4941C11.6037 47.0507 11.5282 46.0944 11.2356 45.9104C10.943 45.7263 10.6836 47.4579 10.6836 47.8983C10.6836 48.3388 11.4197 48.9662 11.4197 48.9662C11.6278 49.0769 11.8293 49.1998 12.023 49.3343" fill="white"/>
<path d="M12.1557 48.5258C11.9705 48.4266 11.817 48.2772 11.713 48.0947C11.6089 47.9122 11.5585 47.704 11.5675 47.4941C11.6037 47.0507 11.5282 46.0944 11.2356 45.9104C10.943 45.7263 10.6836 47.4579 10.6836 47.8983C10.6836 48.3388 11.4197 48.9662 11.4197 48.9662C11.6278 49.0769 11.8293 49.1998 12.023 49.3343" stroke="#263238" stroke-width="0.4" stroke-linecap="round" stroke-linejoin="round"/>
<path d="M13.0395 49.3341C12.8538 49.2355 12.7 49.0862 12.5958 48.9036C12.4917 48.7209 12.4416 48.5125 12.4513 48.3025C12.4875 47.862 12.412 46.9027 12.1194 46.7187C11.8268 46.5347 11.5674 48.2663 11.5674 48.7097C11.5674 49.1531 12.1194 49.5574 12.1194 49.5574C11.9867 49.5574 12.3668 49.7716 13.1119 49.9978" fill="white"/>
<path d="M13.0395 49.3341C12.8538 49.2355 12.7 49.0862 12.5958 48.9036C12.4917 48.7209 12.4416 48.5125 12.4513 48.3025C12.4875 47.862 12.412 46.9027 12.1194 46.7187C11.8268 46.5347 11.5674 48.2663 11.5674 48.7097C11.5674 49.1531 12.1194 49.5574 12.1194 49.5574C11.9867 49.5574 12.3668 49.7716 13.1119 49.9978" stroke="#263238" stroke-width="0.4" stroke-linecap="round" stroke-linejoin="round"/>
<path d="M14.0088 49.428C13.8316 49.3762 13.6725 49.2758 13.5493 49.1383C13.4262 49.0007 13.344 48.8315 13.312 48.6497C13.2637 48.2635 13.0103 47.443 12.7358 47.3525C12.4613 47.262 12.5457 48.7824 12.6272 49.1625C12.7086 49.5426 13.4568 49.9438 13.4568 49.9438C13.6519 50.0014 13.8433 50.0709 14.0299 50.152" fill="white"/>
<path d="M14.0088 49.428C13.8316 49.3762 13.6725 49.2758 13.5493 49.1383C13.4262 49.0007 13.344 48.8315 13.312 48.6497C13.2637 48.2635 13.0103 47.443 12.7358 47.3525C12.4613 47.262 12.5457 48.7824 12.6272 49.1625C12.7086 49.5426 13.4568 49.9438 13.4568 49.9438C13.6519 50.0014 13.8433 50.0709 14.0299 50.152" stroke="#263238" stroke-width="0.4" stroke-linecap="round" stroke-linejoin="round"/>
<path d="M46.127 29.7352C46.127 29.7352 48.3713 29.4155 49.3336 31.3401C50.296 33.2647 51.3397 42.8878 51.3397 42.8878C51.3397 42.8878 52.5464 43.6902 53.9039 44.4926C55.2613 45.2951 57.913 46.9784 59.2765 47.461C60.64 47.9437 61.8437 48.3419 61.8437 48.3419C62.1572 47.7997 62.4256 47.2327 62.6461 46.6465C62.7275 46.2453 63.6084 46.0854 64.0096 45.6842C64.4108 45.283 64.9719 44.6405 64.9719 45.283C64.9719 45.9255 65.0534 46.3237 64.4108 46.5651C63.7683 46.8064 63.2886 47.6873 63.2886 47.6873C63.2886 47.6873 66.8151 47.648 66.5768 47.9678C66.0992 48.6025 65.4991 49.1349 64.812 49.5335C63.5496 50.1979 62.148 50.5545 60.7215 50.5742C59.2765 50.5742 50.1361 47.6088 49.4151 46.8064C48.6941 46.004 46.3653 37.5031 46.3653 37.5031" fill="white"/>
<mask id="mask4_520_62607" style="mask-type:luminance" maskUnits="userSpaceOnUse" x="46" y="29" width="21" height="22">
<path d="M46.1279 29.735C46.1279 29.735 48.3723 29.4152 49.3346 31.3398C50.2969 33.2645 51.3407 42.8875 51.3407 42.8875C51.3407 42.8875 52.5473 43.69 53.9048 44.4924C55.2623 45.2948 57.914 46.9781 59.2775 47.4608C60.641 47.9434 61.8446 48.3416 61.8446 48.3416C62.1582 47.7995 62.4266 47.2325 62.6471 46.6463C62.7285 46.2451 63.6094 46.0852 64.0106 45.684C64.4118 45.2828 64.9729 44.6402 64.9729 45.2828C64.9729 45.9253 65.0544 46.3235 64.4118 46.5648C63.7693 46.8062 63.2896 47.687 63.2896 47.687C63.2896 47.687 66.8161 47.6478 66.5778 47.9676C66.1002 48.6022 65.5001 49.1346 64.813 49.5332C63.5506 50.1977 62.1489 50.5543 60.7224 50.5739C59.2775 50.5739 50.137 47.6086 49.4161 46.8062C48.6951 46.0037 46.3662 37.5028 46.3662 37.5028" fill="white"/>
</mask>
<g mask="url(#mask4_520_62607)">
<path d="M49.4146 46.8184C50.1355 47.6209 59.276 50.5862 60.721 50.5862C61.0884 50.584 61.4553 50.5568 61.819 50.5048C60.8691 50.3123 59.9483 49.9969 59.0799 49.5666C56.9954 48.4836 50.9862 46.1457 50.3316 45.1442C49.677 44.1427 48.2471 37.5543 47.4115 37.0536C46.5759 36.5528 47.1611 40.1396 47.1611 40.1396V40.2784C47.8942 42.8365 48.9651 46.3177 49.4146 46.8184Z" fill="#8A2BE2"/>
<path opacity="0.5" d="M49.4146 46.8184C50.1355 47.6209 59.276 50.5862 60.721 50.5862C61.0884 50.584 61.4553 50.5568 61.819 50.5048C60.8691 50.3123 59.9483 49.9969 59.0799 49.5666C56.9954 48.4836 50.9862 46.1457 50.3316 45.1442C49.677 44.1427 48.2471 37.5543 47.4115 37.0536C46.5759 36.5528 47.1611 40.1396 47.1611 40.1396V40.2784C47.8942 42.8365 48.9651 46.3177 49.4146 46.8184Z" fill="white"/>
</g>
<path d="M46.127 29.7352C46.127 29.7352 48.3713 29.4155 49.3336 31.3401C50.296 33.2647 51.3397 42.8878 51.3397 42.8878C51.3397 42.8878 52.5464 43.6902 53.9039 44.4926C55.2613 45.2951 57.913 46.9784 59.2765 47.461C60.64 47.9437 61.8437 48.3419 61.8437 48.3419C62.1572 47.7997 62.4256 47.2327 62.6461 46.6465C62.7275 46.2453 63.6084 46.0854 64.0096 45.6842C64.4108 45.283 64.9719 44.6405 64.9719 45.283C64.9719 45.9255 65.0534 46.3237 64.4108 46.5651C63.7683 46.8064 63.2886 47.6873 63.2886 47.6873C63.2886 47.6873 66.8151 47.648 66.5768 47.9678C66.0992 48.6025 65.4991 49.1349 64.812 49.5335C63.5496 50.1979 62.148 50.5545 60.7215 50.5742C59.2765 50.5742 50.1361 47.6088 49.4151 46.8064C48.6941 46.004 46.3653 37.5031 46.3653 37.5031" stroke="#263238" stroke-width="0.4" stroke-linecap="round" stroke-linejoin="round"/>
<path d="M65.9856 48.562C66.2753 48.428 66.5373 48.2407 66.7578 48.0099C66.9811 47.7083 67.1651 46.6826 66.981 46.2784C66.797 45.8742 65.0293 45.0989 65.0293 45.0989C64.9459 45.3347 64.9201 45.5871 64.9539 45.8349C65.0293 46.1668 66.1605 46.6464 66.1605 46.6464L65.7563 48.1185" fill="white"/>
<path d="M65.9856 48.562C66.2753 48.428 66.5373 48.2407 66.7578 48.0099C66.9811 47.7083 67.1651 46.6826 66.981 46.2784C66.797 45.8742 65.0293 45.0989 65.0293 45.0989C64.9459 45.3347 64.9201 45.5871 64.9539 45.8349C65.0293 46.1668 66.1605 46.6464 66.1605 46.6464L65.7563 48.1185" stroke="#263238" stroke-width="0.4" stroke-linecap="round" stroke-linejoin="round"/>
<path d="M64.9534 48.5258C65.1386 48.4266 65.292 48.2772 65.3961 48.0947C65.5002 47.9122 65.5506 47.704 65.5416 47.4941C65.5054 47.0507 65.5808 46.0944 65.8734 45.9104C66.1661 45.7263 66.4255 47.4579 66.4255 47.8983C66.4255 48.3388 65.6894 48.9662 65.6894 48.9662C65.4864 49.0774 65.29 49.2003 65.1012 49.3343" fill="white"/>
<path d="M64.9534 48.5258C65.1386 48.4266 65.292 48.2772 65.3961 48.0947C65.5002 47.9122 65.5506 47.704 65.5416 47.4941C65.5054 47.0507 65.5808 46.0944 65.8734 45.9104C66.1661 45.7263 66.4255 47.4579 66.4255 47.8983C66.4255 48.3388 65.6894 48.9662 65.6894 48.9662C65.4864 49.0774 65.29 49.2003 65.1012 49.3343" stroke="#263238" stroke-width="0.4" stroke-linecap="round" stroke-linejoin="round"/>
<path d="M64.0697 49.3341C64.2554 49.2355 64.4093 49.0862 64.5134 48.9036C64.6175 48.7209 64.6677 48.5125 64.658 48.3025C64.6218 47.862 64.6972 46.9027 64.9898 46.7187C65.2824 46.5347 65.5418 48.2663 65.5418 48.7097C65.5418 49.1531 64.9898 49.5574 64.9898 49.5574C65.1225 49.5574 64.7424 49.7716 63.9973 49.9978" fill="white"/>
<path d="M64.0697 49.3341C64.2554 49.2355 64.4093 49.0862 64.5134 48.9036C64.6175 48.7209 64.6677 48.5125 64.658 48.3025C64.6218 47.862 64.6972 46.9027 64.9898 46.7187C65.2824 46.5347 65.5418 48.2663 65.5418 48.7097C65.5418 49.1531 64.9898 49.5574 64.9898 49.5574C65.1225 49.5574 64.7424 49.7716 63.9973 49.9978" stroke="#263238" stroke-width="0.4" stroke-linecap="round" stroke-linejoin="round"/>
<path d="M63.1022 49.428C63.2794 49.3762 63.4385 49.2758 63.5617 49.1383C63.6848 49.0007 63.767 48.8315 63.799 48.6497C63.8473 48.2635 64.1007 47.443 64.3752 47.3525C64.6497 47.262 64.5652 48.7824 64.4838 49.1625C64.4023 49.5426 63.6542 49.9438 63.6542 49.9438C63.4591 50.0014 63.2677 50.0709 63.0811 50.152" fill="white"/>
<path d="M63.1022 49.428C63.2794 49.3762 63.4385 49.2758 63.5617 49.1383C63.6848 49.0007 63.767 48.8315 63.799 48.6497C63.8473 48.2635 64.1007 47.443 64.3752 47.3525C64.6497 47.262 64.5652 48.7824 64.4838 49.1625C64.4023 49.5426 63.6542 49.9438 63.6542 49.9438C63.4591 50.0014 63.2677 50.0709 63.0811 50.152" stroke="#263238" stroke-width="0.4" stroke-linecap="round" stroke-linejoin="round"/>
<path d="M47.6895 60.1461C48.348 59.2252 48.7404 58.1408 48.8237 57.0118L47.9187 54.4507C40.5159 55.7478 32.1779 54.7523 29.3091 54.324L28.6152 55.9982C28.6152 55.9982 34.5067 63.1326 38.1267 64.1582C41.7467 65.1839 46.6095 61.6061 47.6895 60.1461Z" fill="white"/>
<mask id="mask5_520_62607" style="mask-type:luminance" maskUnits="userSpaceOnUse" x="28" y="54" width="21" height="11">
<path d="M47.6895 60.1461C48.348 59.2252 48.7404 58.1408 48.8237 57.0118L47.9187 54.4507C40.5159 55.7478 32.1779 54.7523 29.3091 54.324L28.6152 55.9982C28.6152 55.9982 34.5067 63.1326 38.1267 64.1582C41.7467 65.1839 46.6095 61.6061 47.6895 60.1461Z" fill="white"/>
</mask>
<g mask="url(#mask5_520_62607)">
<path opacity="0.3" d="M47.6895 60.1461C48.348 59.2252 48.7404 58.1408 48.8237 57.0118L47.9187 54.4507C40.5159 55.7478 32.1779 54.7523 29.3091 54.324L28.6152 55.9982C28.6152 55.9982 34.5067 63.1326 38.1267 64.1582C41.7467 65.1839 46.6095 61.6061 47.6895 60.1461Z" fill="black"/>
</g>
<path d="M47.6895 60.1461C48.348 59.2252 48.7404 58.1408 48.8237 57.0118L47.9187 54.4507C40.5159 55.7478 32.1779 54.7523 29.3091 54.324L28.6152 55.9982C28.6152 55.9982 34.5067 63.1326 38.1267 64.1582C41.7467 65.1839 46.6095 61.6061 47.6895 60.1461Z" stroke="#263238" stroke-width="0.4" stroke-linecap="round" stroke-linejoin="round"/>
<path d="M42.9228 59.8804C42.9228 59.8804 49.2427 54.5078 54.4706 52.4414C54.4706 52.4414 59.7617 49.8893 60.8538 51.8954C61.9458 53.9014 56.7813 59.9196 55.1403 60.9453C53.4992 61.9709 49.6077 63.9257 46.935 64.4717C44.2622 65.0178 41.2034 65.1626 39.5774 64.2877" fill="white"/>
<mask id="mask6_520_62607" style="mask-type:luminance" maskUnits="userSpaceOnUse" x="39" y="51" width="23" height="14">
<path d="M42.9236 59.8807C42.9236 59.8807 49.2434 54.508 54.4713 52.4416C54.4713 52.4416 59.7625 49.8895 60.8545 51.8956C61.9465 53.9017 56.782 59.9199 55.141 60.9455C53.4999 61.9712 49.6085 63.926 46.9357 64.472C44.263 65.018 41.2041 65.1628 39.5781 64.288" fill="white"/>
</mask>
<g mask="url(#mask6_520_62607)">
<path opacity="0.3" d="M42.7398 59.8565C42.7398 59.8565 49.2437 54.508 54.4715 52.4416C54.4715 52.4416 59.7627 49.8895 60.8548 51.8956C61.9468 53.9017 56.7823 59.9199 55.1412 60.9455C53.5002 61.9712 49.6087 63.926 46.936 64.472C44.2632 65.018 41.2043 65.1628 39.5784 64.288" fill="black"/>
<path opacity="0.3" d="M40.9942 64.2578C40.9942 64.2578 45.8058 63.7993 50.008 62.0406C54.2101 60.2819 55.5827 59.9802 55.5827 59.9802C55.5827 59.9802 52.4514 62.653 49.9295 63.7209C47.5557 64.6964 45.0117 65.1907 42.4452 65.1749C41.0878 65.178 39.7427 64.9178 38.4844 64.4087L40.9942 64.2578Z" fill="black"/>
</g>
<path d="M42.9228 59.8804C42.9228 59.8804 49.2427 54.5078 54.4706 52.4414C54.4706 52.4414 59.7618 49.8893 60.8538 51.8954C61.9458 53.9014 56.7813 59.9196 55.1403 60.9453C53.4992 61.9709 49.6077 63.9257 46.935 64.4717C44.2622 65.0178 41.2034 65.1626 39.5774 64.2877" stroke="#263238" stroke-width="0.4" stroke-linecap="round" stroke-linejoin="round"/>
<path d="M37.9516 63.422C37.9516 63.422 43.7073 61.3857 47.1463 57.8774C50.5853 54.369 57.249 50.2996 59.4964 50.7189C61.7438 51.1382 62.3019 52.0522 61.4603 54.6405C60.6186 57.2288 56.9685 60.6738 53.5325 61.799C50.0966 62.9242 43.6379 64.1128 41.0406 64.6045C38.4433 65.0962 37.1793 65.7267 34.0239 65.7267C30.8685 65.7267 27.4959 65.5185 26.5848 63.6935C25.6738 61.8684 27.1459 61.9378 30.3737 62.5713C32.8806 63.0045 35.411 63.2886 37.9516 63.422Z" fill="white"/>
<mask id="mask7_520_62607" style="mask-type:luminance" maskUnits="userSpaceOnUse" x="26" y="50" width="36" height="16">
<path d="M37.9516 63.422C37.9516 63.422 43.7073 61.3857 47.1463 57.8774C50.5853 54.369 57.249 50.2996 59.4964 50.7189C61.7438 51.1382 62.3019 52.0522 61.4603 54.6405C60.6186 57.2288 56.9685 60.6738 53.5325 61.799C50.0966 62.9242 43.6379 64.1128 41.0406 64.6045C38.4433 65.0962 37.1793 65.7267 34.0239 65.7267C30.8685 65.7267 27.4959 65.5185 26.5848 63.6935C25.6738 61.8684 27.1459 61.9378 30.3737 62.5713C32.8806 63.0045 35.411 63.2886 37.9516 63.422Z" fill="white"/>
</mask>
<g mask="url(#mask7_520_62607)">
<path opacity="0.3" d="M37.9516 63.422C37.9516 63.422 43.7073 61.3857 47.1463 57.8774C50.5853 54.369 57.249 50.2996 59.4964 50.7189C61.7438 51.1382 62.3019 52.0522 61.4603 54.6405C60.6186 57.2288 56.9685 60.6738 53.5325 61.799C50.0966 62.9242 43.6379 64.1128 41.0406 64.6045C38.4433 65.0962 37.1793 65.7267 34.0239 65.7267C30.8685 65.7267 27.4959 65.5185 26.5848 63.6935C25.6738 61.8684 27.1459 61.9378 30.3737 62.5713C32.8806 63.0045 35.411 63.2886 37.9516 63.422Z" fill="black"/>
<path opacity="0.3" d="M60.851 51.0417C60.851 51.0417 61.3096 52.722 59.6444 55.0901C57.9792 57.4581 50.8599 60.2184 46.9745 61.6603C43.089 63.1023 37.2729 64.1792 37.2729 64.1792L40.4827 64.7162C40.4827 64.7162 50.8177 63.0239 53.5568 61.8081C56.2959 60.5924 59.0441 58.529 60.5705 56.5411C62.0969 54.5531 62.9174 52.1881 60.851 51.0417Z" fill="black"/>
</g>
<path d="M37.9516 63.422C37.9516 63.422 43.7073 61.3857 47.1463 57.8774C50.5853 54.369 57.249 50.2996 59.4964 50.7189C61.7438 51.1382 62.3019 52.0522 61.4603 54.6405C60.6186 57.2288 56.9685 60.6738 53.5325 61.799C50.0966 62.9242 43.6379 64.1128 41.0406 64.6045C38.4433 65.0962 37.1793 65.7267 34.0239 65.7267C30.8685 65.7267 27.4959 65.5185 26.5848 63.6935C25.6738 61.8684 27.1459 61.9378 30.3737 62.5713C32.8806 63.0045 35.411 63.2886 37.9516 63.422Z" stroke="#263238" stroke-width="0.4" stroke-linecap="round" stroke-linejoin="round"/>
<path d="M37.9304 63.4191C35.402 63.2907 32.8836 63.0107 30.3888 62.5805C27.161 61.947 25.6859 61.8776 26.5999 63.7027C27.514 65.5277 30.8805 65.7359 34.039 65.7359C35.5298 65.747 37.016 65.5676 38.4613 65.2019C38.1153 64.6717 37.9309 64.0523 37.9304 63.4191Z" fill="white"/>
<mask id="mask8_520_62607" style="mask-type:luminance" maskUnits="userSpaceOnUse" x="26" y="62" width="13" height="4">
<path d="M37.9304 63.4193C35.402 63.291 32.8836 63.0109 30.3888 62.5807C27.161 61.9472 25.6859 61.8778 26.5999 63.7029C27.514 65.528 30.8805 65.7361 34.039 65.7361C35.5298 65.7473 37.016 65.5678 38.4613 65.2022C38.1153 64.6719 37.9309 64.0525 37.9304 63.4193Z" fill="white"/>
</mask>
<g mask="url(#mask8_520_62607)">
<path d="M37.9304 63.4193C35.402 63.291 32.8836 63.0109 30.3888 62.5807C27.161 61.9472 25.6859 61.8778 26.5999 63.7029C27.514 65.528 30.8805 65.7361 34.039 65.7361C35.5298 65.7473 37.016 65.5678 38.4613 65.2022C38.1153 64.6719 37.9309 64.0525 37.9304 63.4193Z" fill="#8A2BE2"/>
<path opacity="0.5" d="M37.9304 63.4193C35.402 63.291 32.8836 63.0109 30.3888 62.5807C27.161 61.9472 25.6859 61.8778 26.5999 63.7029C27.514 65.528 30.8805 65.7361 34.039 65.7361C35.5298 65.7473 37.016 65.5678 38.4613 65.2022C38.1153 64.6719 37.9309 64.0525 37.9304 63.4193Z" fill="white"/>
</g>
<path d="M37.9304 63.4191C35.402 63.2907 32.8836 63.0107 30.3888 62.5805C27.161 61.947 25.6859 61.8776 26.5999 63.7027C27.514 65.5277 30.8805 65.7359 34.039 65.7359C35.5298 65.747 37.016 65.5676 38.4613 65.2019C38.1153 64.6717 37.9309 64.0523 37.9304 63.4191Z" stroke="#263238" stroke-width="0.4" stroke-linecap="round" stroke-linejoin="round"/>
<path d="M36.1535 59.6543C32.0117 56.2153 21.8124 49.3977 19.2844 49.3977C16.7565 49.3977 15.7761 52.2756 15.7761 52.2756C15.7761 52.2756 15.4955 53.3284 17.6012 55.3616C19.7068 57.3948 26.1624 62.873 31.2153 64.2064C36.2682 65.5398 37.5321 64.9063 37.5321 64.9063" fill="white"/>
<mask id="mask9_520_62607" style="mask-type:luminance" maskUnits="userSpaceOnUse" x="15" y="49" width="23" height="17">
<path d="M36.1538 59.6543C32.0119 56.2153 21.8126 49.3977 19.2847 49.3977C16.7567 49.3977 15.7763 52.2756 15.7763 52.2756C15.7763 52.2756 15.4958 53.3284 17.6014 55.3616C19.707 57.3948 26.1626 62.873 31.2155 64.2064C36.2684 65.5398 37.5324 64.9063 37.5324 64.9063" fill="white"/>
</mask>
<g mask="url(#mask9_520_62607)">
<path opacity="0.3" d="M36.3378 59.6333C32.1989 56.1943 21.8126 49.3767 19.2847 49.3767C16.7567 49.3767 15.7763 52.2546 15.7763 52.2546C15.7763 52.2546 15.4958 53.3074 17.6014 55.3406C19.707 57.3738 26.1626 62.8521 31.2155 64.1854C36.2684 65.5188 37.5324 64.8853 37.5324 64.8853" fill="black"/>
</g>
<path d="M36.1535 59.6543C32.0117 56.2153 21.8124 49.3977 19.2844 49.3977C16.7565 49.3977 15.7761 52.2756 15.7761 52.2756C15.7761 52.2756 15.4955 53.3284 17.6012 55.3616C19.7068 57.3948 26.1624 62.873 31.2153 64.2064C36.2681 65.5398 37.5321 64.9063 37.5321 64.9063" stroke="#263238" stroke-width="0.4" stroke-linecap="round" stroke-linejoin="round"/>
<path d="M21.4962 52.2905C21.4962 52.2905 26.7904 54.6585 28.6155 55.9858C30.4405 57.3132 34.5854 61.1745 36.8298 62.3691C39.0742 63.5636 41.1104 64.4023 42.6549 64.4023C44.1994 64.4023 51.6355 63.4219 52.8301 64.0523C54.0247 64.6828 52.1996 66.164 50.5857 66.7191C48.9718 67.2741 43.0079 66.0162 40.8962 65.8774C38.7846 65.7386 31.7045 64.7552 26.7934 63.0689C21.8823 61.3826 16.3347 54.9994 15.7042 53.8078C15.0738 52.6162 16.2322 51.3191 16.2322 51.3191" fill="white"/>
<mask id="mask10_520_62607" style="mask-type:luminance" maskUnits="userSpaceOnUse" x="15" y="51" width="39" height="16">
<path d="M21.4972 52.2907C21.4972 52.2907 26.7914 54.6588 28.6164 55.9861C30.4415 57.3134 34.5864 61.1747 36.8308 62.3693C39.0752 63.5639 41.1114 64.4025 42.6559 64.4025C44.2004 64.4025 51.6365 63.4221 52.831 64.0526C54.0256 64.6831 52.2006 66.1642 50.5867 66.7193C48.9728 67.2744 43.0089 66.0164 40.8972 65.8777C38.7856 65.7389 31.7055 64.7555 26.7944 63.0692C21.8833 61.3829 16.3357 54.9996 15.7052 53.8081C15.0747 52.6165 16.2331 51.3193 16.2331 51.3193" fill="white"/>
</mask>
<g mask="url(#mask10_520_62607)">
<path opacity="0.3" d="M21.6704 52.2635C21.6704 52.2635 26.7987 54.6588 28.6087 55.9861C30.4186 57.3134 34.5786 61.1747 36.823 62.3693C39.0674 63.5639 41.1036 64.4025 42.6481 64.4025C44.1926 64.4025 51.6287 63.4221 52.8232 64.0526C54.0178 64.6831 52.1928 66.1642 50.5789 66.7193C48.965 67.2744 43.0071 66.0164 40.8954 65.8777C38.7838 65.7389 31.7037 64.7555 26.7926 63.0692C21.8815 61.3829 16.3339 54.9996 15.7035 53.8081C15.073 52.6165 16.6084 51.1414 16.6084 51.1414" fill="black"/>
<path opacity="0.3" d="M15.937 51.5005C15.937 51.5005 16.3201 53.41 19.2975 55.7781C22.275 58.1462 34.3476 62.9577 37.3974 63.7209C40.4472 64.4841 42.7429 64.4871 42.9722 64.6259C43.2014 64.7647 43.5061 65.9261 42.2089 66.0015C40.9118 66.0769 35.334 65.6998 30.3686 64.5505C25.4032 63.4011 20.4378 60.0436 18.6037 58.2879C16.7696 56.5322 15.2552 54.5564 15.0984 53.3346C15.0562 52.9814 15.1122 52.6233 15.2601 52.2998C15.408 51.9762 15.6422 51.6997 15.937 51.5005Z" fill="black"/>
</g>
<path d="M21.4962 52.2905C21.4962 52.2905 26.7904 54.6585 28.6155 55.9858C30.4405 57.3132 34.5854 61.1745 36.8298 62.3691C39.0742 63.5636 41.1104 64.4023 42.6549 64.4023C44.1994 64.4023 51.6355 63.4219 52.8301 64.0523C54.0247 64.6828 52.1996 66.164 50.5857 66.7191C48.9718 67.2741 43.0079 66.0162 40.8962 65.8774C38.7846 65.7386 31.7045 64.7552 26.7934 63.0689C21.8823 61.3826 16.3347 54.9994 15.7042 53.8078C15.0738 52.6162 16.2322 51.3191 16.2322 51.3191" stroke="#263238" stroke-width="0.4" stroke-linecap="round" stroke-linejoin="round"/>
<path d="M52.8299 64.0523C51.6232 63.4218 44.1993 64.4022 42.6548 64.4022C42.4104 64.4003 42.1664 64.3811 41.9247 64.3449C41.9252 64.9049 41.7706 65.454 41.4783 65.9316C43.9368 66.2092 49.0983 67.2348 50.5855 66.719C52.1994 66.1579 54.0215 64.6827 52.8299 64.0523Z" fill="white"/>
<mask id="mask11_520_62607" style="mask-type:luminance" maskUnits="userSpaceOnUse" x="41" y="63" width="13" height="4">
<path d="M52.8299 64.0523C51.6232 63.4218 44.1993 64.4022 42.6548 64.4022C42.4104 64.4003 42.1664 64.3811 41.9247 64.3449C41.9252 64.9049 41.7706 65.454 41.4783 65.9316C43.9368 66.2092 49.0983 67.2348 50.5855 66.719C52.1994 66.1579 54.0215 64.6827 52.8299 64.0523Z" fill="white"/>
</mask>
<g mask="url(#mask11_520_62607)">
<path d="M52.8299 64.0523C51.6232 63.4218 44.1993 64.4022 42.6548 64.4022C42.4104 64.4003 42.1664 64.3811 41.9247 64.3449C41.9252 64.9049 41.7706 65.454 41.4783 65.9316C43.9368 66.2092 49.0983 67.2348 50.5855 66.719C52.1994 66.1579 54.0215 64.6827 52.8299 64.0523Z" fill="#8A2BE2"/>
<path opacity="0.5" d="M52.8299 64.0523C51.6232 63.4218 44.1993 64.4022 42.6548 64.4022C42.4104 64.4003 42.1664 64.3811 41.9247 64.3449C41.9252 64.9049 41.7706 65.454 41.4783 65.9316C43.9368 66.2092 49.0983 67.2348 50.5855 66.719C52.1994 66.1579 54.0215 64.6827 52.8299 64.0523Z" fill="white"/>
</g>
<path d="M52.8299 64.0523C51.6232 63.4218 44.1993 64.4022 42.6548 64.4022C42.4104 64.4003 42.1664 64.3811 41.9247 64.3449C41.9252 64.9049 41.7706 65.454 41.4783 65.9316C43.9368 66.2092 49.0983 67.2348 50.5855 66.719C52.1994 66.1579 54.0215 64.6827 52.8299 64.0523Z" stroke="#263238" stroke-width="0.4" stroke-linecap="round" stroke-linejoin="round"/>
<path d="M36.0175 23.8376C34.6661 25.2785 33.2413 26.6489 31.749 27.9433C28.9405 30.429 29.1034 36.4261 29.9661 38.1003C30.8289 39.7746 32.8832 39.8862 33.1547 41.2889C33.4262 42.6917 34.0597 45.2347 35.3689 46.3689C36.6782 47.5032 39.369 48.2604 39.8939 43.7746C40.4188 39.2889 38.6872 35.5211 37.4414 33.3582C36.1955 31.1952 36.7053 24.0518 36.7053 24.0518L36.0175 23.8376Z" fill="#263238" stroke="#263238" stroke-width="0.4" stroke-linecap="round" stroke-linejoin="round"/>
<path d="M32.5345 29.8528C31.0896 31.9463 30.0066 34.5527 31.6627 36.601C33.3701 38.7127 37.1862 41.7293 37.0927 44.031C36.9992 46.3327 35.1862 45.5393 34.5828 43.6268" stroke="white" stroke-width="0.4" stroke-linecap="round" stroke-linejoin="round"/>
<path d="M36.1803 24.1543C35.9842 25.4665 35.1848 26.6641 34.316 27.6325C34.0445 27.9342 33.7519 28.269 33.4502 28.637" stroke="white" stroke-width="0.4" stroke-linecap="round" stroke-linejoin="round"/>
<path d="M38.8059 41.1169C38.963 41.5029 39.0645 41.9092 39.1076 42.3236" stroke="white" stroke-width="0.4" stroke-linecap="round" stroke-linejoin="round"/>
<path d="M36.069 26.5618C36.069 26.5618 33.4566 29.7745 33.9573 33.5C34.3344 36.2935 36.8684 37.9526 38.2319 40.0552" stroke="white" stroke-width="0.4" stroke-linecap="round" stroke-linejoin="round"/>
</svg>
