<svg width="11" height="19" viewBox="0 0 11 19" fill="none" xmlns="http://www.w3.org/2000/svg">
<path d="M10.7598 9.44922C10.7598 9.61849 10.7272 9.77474 10.6621 9.91797C10.597 10.0612 10.4993 10.1979 10.3691 10.3281L2.76172 17.7695C2.54688 17.9909 2.27995 18.1016 1.96094 18.1016C1.7526 18.1016 1.56055 18.0495 1.38477 17.9453C1.20898 17.8477 1.06901 17.7109 0.964844 17.5352C0.867188 17.3659 0.818359 17.1771 0.818359 16.9688C0.818359 16.6562 0.935547 16.3796 1.16992 16.1387L8.02539 9.44922L1.16992 2.75977C0.935547 2.51888 0.818359 2.24544 0.818359 1.93945C0.818359 1.72461 0.867188 1.53255 0.964844 1.36328C1.06901 1.19401 1.20898 1.06055 1.38477 0.962891C1.56055 0.858724 1.7526 0.806641 1.96094 0.806641C2.27995 0.806641 2.54688 0.914062 2.76172 1.12891L10.3691 8.57031C10.4993 8.70052 10.597 8.83724 10.6621 8.98047C10.7272 9.1237 10.7598 9.27995 10.7598 9.44922Z" fill="white"/>
</svg>
