<svg width="300" height="300" viewBox="0 0 300 300" fill="none" xmlns="http://www.w3.org/2000/svg">
<path d="M260.454 84.1318C251.178 77.8198 231.234 74.5858 220.002 78.3118C205.656 83.0758 206.16 93.5278 195.72 99.9958C167.52 117.45 138.894 105.714 109.092 98.1958C43.0501 81.5098 1.69211 145.056 66.5521 184.122C105.552 207.6 187.452 224.754 196.674 162.522C200.664 135.618 186.27 133.572 219.714 127.722C232.914 125.4 302.478 112.734 260.454 84.1318Z" fill="#8A2BE2"/>
<path opacity="0.9" d="M260.454 84.1318C251.178 77.8198 231.234 74.5858 220.002 78.3118C205.656 83.0758 206.16 93.5278 195.72 99.9958C167.52 117.45 138.894 105.714 109.092 98.1958C43.0501 81.5098 1.69211 145.056 66.5521 184.122C105.552 207.6 187.452 224.754 196.674 162.522C200.664 135.618 186.27 133.572 219.714 127.722C232.914 125.4 302.478 112.734 260.454 84.1318Z" fill="white"/>
<path d="M150 256.536C214.249 256.536 266.334 253.495 266.334 249.744C266.334 245.993 214.249 242.952 150 242.952C85.7505 242.952 33.666 245.993 33.666 249.744C33.666 253.495 85.7505 256.536 150 256.536Z" fill="#F5F5F5"/>
<path d="M200.82 95.1781C200.712 96.9781 200.502 98.6281 200.268 100.338C200.034 102.048 199.716 103.722 199.356 105.402C198.654 108.802 197.64 112.13 196.326 115.344L195.78 116.544L195.648 116.844L195.6 117L195.504 117.192C195.32 117.569 195.088 117.92 194.814 118.236C194.487 118.604 194.097 118.911 193.662 119.142C193.235 119.366 192.772 119.512 192.294 119.574C191.56 119.653 190.818 119.575 190.116 119.346C189.122 119.007 188.183 118.521 187.332 117.906C186.587 117.381 185.876 116.81 185.202 116.196C182.677 113.854 180.404 111.254 178.422 108.438L180.408 106.752C181.608 107.862 182.808 108.984 184.008 110.046C185.201 111.108 186.447 112.109 187.74 113.046C188.349 113.482 188.982 113.882 189.636 114.246C190.163 114.566 190.733 114.81 191.328 114.972C191.532 115.014 191.676 114.972 191.61 114.972C191.468 114.988 191.336 115.049 191.232 115.146C191.196 115.146 191.196 115.146 191.232 115.146L191.424 114.648L191.844 113.556C192.885 110.55 193.697 107.469 194.274 104.34C194.592 102.768 194.814 101.166 195.054 99.5761C195.294 97.9861 195.462 96.3481 195.6 94.8301L200.82 95.1781Z" fill="#FFC3BD"/>
<path d="M197.184 88.5721C194.946 89.1421 193.38 98.3461 193.38 98.3461L199.542 102.546C199.542 102.546 205.452 93.2641 203.742 90.8041C201.942 88.2301 200.448 87.7441 197.184 88.5721Z" fill="#8A2BE2"/>
<path d="M197.184 88.5721C194.946 89.1421 193.38 98.3461 193.38 98.3461L199.542 102.546C199.542 102.546 205.452 93.2641 203.742 90.8041C201.942 88.2301 200.448 87.7441 197.184 88.5721Z" fill="#8A2BE2"/>
<path opacity="0.4" d="M197.184 88.5721C194.946 89.1421 193.38 98.3461 193.38 98.3461L199.542 102.546C199.542 102.546 205.452 93.2641 203.742 90.8041C201.942 88.2301 200.448 87.7441 197.184 88.5721Z" fill="black"/>
<path opacity="0.3" d="M197.382 90.6299L195.666 99.8999L199.128 102.252L197.382 90.6299Z" fill="black"/>
<path d="M180.51 106.374L177.6 101.742L175.938 107.004C175.938 107.004 178.338 109.524 180.516 108.924L180.51 106.374Z" fill="#FFC3BD"/>
<path d="M173.28 100.212L172.128 104.688L175.914 107.004L177.576 101.742L173.28 100.212Z" fill="#FFC3BD"/>
<path d="M209.28 243.45H203.856L203.49 230.886H208.92L209.28 243.45Z" fill="#FFC3BD"/>
<path d="M257.154 218.25L253.02 221.766L243.558 213.318L247.692 209.808L257.154 218.25Z" fill="#FFC3BD"/>
<path d="M251.886 221.346L255.9 216.75C255.968 216.671 256.063 216.619 256.167 216.605C256.271 216.591 256.376 216.615 256.464 216.672L260.55 219.318C260.651 219.388 260.735 219.479 260.799 219.584C260.862 219.689 260.902 219.806 260.917 219.928C260.932 220.05 260.921 220.174 260.884 220.291C260.848 220.408 260.787 220.516 260.706 220.608C259.278 222.186 258.51 222.876 256.746 224.892C255.666 226.134 254.208 228.066 252.708 229.776C251.208 231.486 249.432 230.106 249.906 229.254C252.012 225.45 251.508 224.118 251.544 222.246C251.549 221.915 251.67 221.597 251.886 221.346Z" fill="#263238"/>
<path d="M203.67 242.826H209.766C209.871 242.825 209.973 242.862 210.052 242.931C210.132 242.999 210.184 243.094 210.198 243.198L210.894 247.998C210.914 248.125 210.905 248.255 210.869 248.378C210.832 248.501 210.769 248.614 210.684 248.71C210.598 248.806 210.492 248.882 210.374 248.932C210.256 248.982 210.128 249.005 210 249C207.876 248.964 206.85 248.838 204.168 248.838C202.518 248.838 199.11 249.012 196.83 249.012C194.55 249.012 194.43 246.756 195.384 246.558C199.632 245.64 201.306 244.38 202.74 243.174C202.998 242.95 203.328 242.826 203.67 242.826Z" fill="#263238"/>
<path opacity="0.2" d="M203.496 230.892L203.682 237.366H209.106L208.92 230.892H203.496Z" fill="black"/>
<path opacity="0.2" d="M247.698 209.808L243.558 213.318L248.442 217.674L252.576 214.158L247.698 209.808Z" fill="black"/>
<path d="M197.184 88.572C197.184 88.572 194.598 89.484 199.776 121.32H221.808C221.442 112.35 221.43 106.818 225.714 88.416C222.63 87.78 219.503 87.367 216.36 87.18C213.028 86.9426 209.684 86.9426 206.352 87.18C202.056 87.6 197.184 88.572 197.184 88.572Z" fill="#8A2BE2"/>
<path opacity="0.4" d="M197.184 88.572C197.184 88.572 194.598 89.484 199.776 121.32H221.808C221.442 112.35 221.43 106.818 225.714 88.416C222.63 87.78 219.503 87.367 216.36 87.18C213.028 86.9426 209.684 86.9426 206.352 87.18C202.056 87.6 197.184 88.572 197.184 88.572Z" fill="black"/>
<path d="M216.36 87.18C213.028 86.9426 209.684 86.9426 206.352 87.18C205.812 87.228 205.26 87.288 204.714 87.354C204.488 87.695 204.344 88.0833 204.292 88.4891C204.24 88.8948 204.282 89.307 204.414 89.694C205.116 91.44 207.648 91.644 209.496 91.644C216.318 91.644 217.47 87.66 217.518 87.492L217.584 87.252C217.2 87.228 216.768 87.198 216.36 87.18Z" fill="white"/>
<path d="M215.4 75.918C214.764 79.134 214.14 85.032 216.39 87.18C216.39 87.18 215.508 90.45 209.526 90.45C202.926 90.45 206.382 87.186 206.382 87.186C209.982 86.328 209.88 83.664 209.256 81.186L215.4 75.918Z" fill="#FFC3BD"/>
<path opacity="0.2" d="M212.862 78.0542L209.226 81.1562C209.383 81.7459 209.487 82.3482 209.538 82.9562C210.906 82.7582 212.79 81.2522 212.94 79.8182C213.024 79.2305 212.998 78.6322 212.862 78.0542Z" fill="black"/>
<path d="M211.626 58.4101C211.068 56.5201 210.6 53.5441 213.96 52.2001C212.646 50.5921 212.328 47.5681 213.96 45.7741C215.592 43.9801 218.04 44.6401 218.04 44.6401C218.04 44.6401 218.76 40.2541 224.094 41.0401C229.428 41.8261 227.052 45.3361 227.052 45.3361C227.052 45.3361 234.33 43.8961 234.816 50.7361C235.302 57.5761 231.126 56.7361 231.126 56.7361C231.126 56.7361 234.372 59.4601 232.572 62.4541C230.772 65.4481 226.614 64.4161 226.614 64.4161C226.614 64.4161 224.658 69.7081 220.05 66.6961C215.442 63.6841 211.626 58.4101 211.626 58.4101Z" fill="#263238"/>
<path d="M200.82 62.4C199.02 64.728 199.812 67.362 201.42 68.4C205.29 70.872 210.888 60.504 209.43 59.262C207.972 58.02 202.62 60.066 200.82 62.4Z" fill="#263238"/>
<path d="M217.074 56.856C214.53 55.83 211.95 56.904 211.146 58.452C209.184 62.226 218.094 69.024 220.674 64.308C222.204 61.506 219.696 57.912 217.074 56.856Z" fill="#8A2BE2"/>
<path d="M216 68.3999C216.186 73.7999 216.378 76.0559 213.936 79.0619C210.27 83.5799 203.616 82.6319 201.828 77.4119C200.22 72.7139 200.19 64.7039 205.224 62.0759C206.33 61.4905 207.568 61.1978 208.82 61.2254C210.071 61.2531 211.295 61.6002 212.375 62.2338C213.454 62.8674 214.354 63.7665 214.989 64.8457C215.623 65.9249 215.971 67.1484 216 68.3999Z" fill="#FFC3BD"/>
<path d="M215.19 71.2263C212.79 70.3323 212.19 67.5303 212.574 66.4263C211.374 66.3783 208.752 65.9463 207.774 64.4583C205.902 65.6583 201.948 66.8583 201.522 64.8603C201.096 62.8623 207.06 57.7263 211.572 57.3303C216.936 56.8623 222.228 62.1303 220.866 67.1763C219.504 72.2223 215.19 71.2263 215.19 71.2263Z" fill="#263238"/>
<path d="M199.8 121.32C199.8 121.32 195.522 163.11 195.876 179.658C196.248 196.866 202.554 236.112 202.554 236.112H209.886C209.886 236.112 208.728 197.868 209.376 180.972C210.084 162.546 215.934 121.32 215.934 121.32H199.8Z" fill="#263238"/>
<path d="M210.498 236.376H201.894L201.258 233.634L210.9 233.298L210.498 236.376Z" fill="#8A2BE2"/>
<path opacity="0.2" d="M209.28 131.718C203.88 142.602 208.194 162.462 210.108 169.854C211.086 158.754 212.742 145.188 214.032 135.228C213.216 129.6 211.8 126.696 209.28 131.718Z" fill="black"/>
<path d="M205.596 121.32C205.596 121.32 210.588 164.766 214.356 178.716C218.832 195.276 246.63 217.566 246.63 217.566L252.27 212.766C252.27 212.766 232.122 188.55 228.696 179.826C221.394 161.226 227.646 133.458 221.808 121.308L205.596 121.32Z" fill="#263238"/>
<path d="M253.17 212.52L246.174 218.46L243.558 216.894L251.472 209.532L253.17 212.52Z" fill="#8A2BE2"/>
<path d="M208.014 70.6563C208.056 71.0943 207.858 71.4663 207.576 71.4963C207.294 71.5263 207.024 71.1903 206.976 70.7583C206.928 70.3263 207.132 69.9423 207.42 69.9183C207.708 69.8943 207.972 70.2003 208.014 70.6563Z" fill="#263238"/>
<path d="M203.094 71.1299C203.136 71.5619 202.938 71.9399 202.65 71.9699C202.362 71.9999 202.104 71.6639 202.05 71.2259C201.996 70.7879 202.206 70.4159 202.488 70.3919C202.77 70.3679 203.052 70.6919 203.094 71.1299Z" fill="#263238"/>
<path d="M202.626 70.4042L201.552 70.2002C201.552 70.2002 202.2 70.9682 202.626 70.4042Z" fill="#263238"/>
<path d="M204.462 71.7539C204.17 72.784 203.738 73.7692 203.178 74.6819C203.416 74.8188 203.681 74.9026 203.954 74.9274C204.227 74.9523 204.503 74.9177 204.762 74.8259L204.462 71.7539Z" fill="#ED847E"/>
<path d="M207.18 76.2601C206.942 76.3252 206.699 76.3694 206.454 76.3921C206.438 76.3938 206.421 76.3922 206.405 76.3873C206.389 76.3825 206.374 76.3745 206.361 76.3639C206.349 76.3533 206.338 76.3403 206.33 76.3256C206.322 76.3108 206.318 76.2947 206.316 76.2781C206.313 76.244 206.323 76.2099 206.344 76.1831C206.365 76.1562 206.396 76.1387 206.43 76.1341C206.973 76.0942 207.499 75.9273 207.966 75.647C208.433 75.3667 208.828 74.9807 209.118 74.5201C209.125 74.5043 209.135 74.4901 209.148 74.4785C209.161 74.4669 209.176 74.4583 209.193 74.4531C209.209 74.448 209.227 74.4465 209.244 74.4488C209.261 74.451 209.277 74.4569 209.292 74.4661C209.322 74.4827 209.344 74.5099 209.354 74.5423C209.364 74.5747 209.361 74.6098 209.346 74.6401C208.862 75.4412 208.085 76.0222 207.18 76.2601Z" fill="#263238"/>
<path d="M217.26 72.1263C217.129 73.1588 216.594 74.0973 215.772 74.7363C214.674 75.5763 213.618 74.7363 213.492 73.4223C213.384 72.2223 213.816 70.4223 215.124 70.0743C215.409 70.0162 215.705 70.0282 215.984 70.1093C216.264 70.1904 216.52 70.3382 216.73 70.54C216.94 70.7418 217.098 70.9916 217.19 71.2679C217.283 71.5442 217.307 71.8388 217.26 72.1263Z" fill="#FFC3BD"/>
<path d="M208.542 67.5721C208.508 67.5806 208.474 67.5823 208.44 67.5771C208.406 67.572 208.373 67.5601 208.344 67.5421C208.072 67.3685 207.763 67.2617 207.441 67.2304C207.12 67.1992 206.796 67.2443 206.496 67.3621C206.433 67.3899 206.363 67.3929 206.298 67.3706C206.234 67.3484 206.18 67.3025 206.148 67.2421C206.119 67.1808 206.115 67.1105 206.138 67.0465C206.16 66.9825 206.207 66.9299 206.268 66.9001C206.646 66.7441 207.055 66.6812 207.463 66.7167C207.87 66.7522 208.263 66.8851 208.608 67.1041C208.636 67.1214 208.661 67.1441 208.681 67.1709C208.7 67.1978 208.714 67.2283 208.722 67.2606C208.73 67.293 208.731 67.3266 208.726 67.3594C208.721 67.3923 208.709 67.4238 208.692 67.4521C208.659 67.5096 208.605 67.5524 208.542 67.5721Z" fill="#263238"/>
<path d="M200.682 69.066C200.62 69.0895 200.552 69.0895 200.49 69.066C200.432 69.032 200.389 68.977 200.37 68.9123C200.351 68.8475 200.357 68.778 200.388 68.718C200.571 68.3528 200.839 68.0372 201.17 67.798C201.502 67.5588 201.886 67.403 202.29 67.344C202.323 67.3407 202.357 67.3442 202.389 67.3542C202.422 67.3643 202.452 67.3807 202.477 67.4026C202.503 67.4244 202.524 67.4512 202.539 67.4813C202.555 67.5114 202.563 67.5443 202.566 67.578C202.571 67.6455 202.549 67.7122 202.505 67.7639C202.461 67.8155 202.399 67.8479 202.332 67.854C202.013 67.9075 201.712 68.0354 201.453 68.2272C201.193 68.4191 200.982 68.6694 200.838 68.958C200.821 68.9859 200.798 69.0099 200.771 69.0285C200.744 69.0471 200.714 69.0599 200.682 69.066Z" fill="#263238"/>
<path d="M227.964 94.2661C229.187 97.259 230.243 100.318 231.126 103.428C232.062 106.566 232.728 109.777 233.118 113.028C233.22 113.856 233.25 114.726 233.286 115.584V116.07C233.286 116.244 233.256 116.424 233.232 116.58C233.182 116.88 233.114 117.177 233.028 117.468C232.872 117.967 232.671 118.451 232.428 118.914C231.596 120.452 230.576 121.881 229.392 123.168C227.202 125.574 224.791 127.77 222.192 129.726L220.458 127.8C222.456 125.466 224.472 123.072 226.182 120.6C227.008 119.478 227.712 118.271 228.282 117C228.38 116.754 228.46 116.501 228.522 116.244C228.538 116.157 228.548 116.069 228.552 115.98C228.555 115.954 228.555 115.928 228.552 115.902V115.818C228.474 115.11 228.42 114.402 228.288 113.676C227.772 110.712 227.052 107.787 226.134 104.922C225.216 102.018 224.19 99.0721 223.134 96.2641L227.964 94.2661Z" fill="#FFC3BD"/>
<path d="M225.714 88.4159C227.922 89.0879 230.574 96.6899 230.574 96.6899L222 102.81C222 102.81 218.874 96.4679 219.804 93.6119C220.8 90.6419 223.2 87.6479 225.714 88.4159Z" fill="#8A2BE2"/>
<path opacity="0.4" d="M225.714 88.4159C227.922 89.0879 230.574 96.6899 230.574 96.6899L222 102.81C222 102.81 218.874 96.4679 219.804 93.6119C220.8 90.6419 223.2 87.6479 225.714 88.4159Z" fill="black"/>
<path d="M250.404 223.962C250.293 223.959 250.184 223.931 250.085 223.88C249.987 223.829 249.901 223.757 249.834 223.668C249.779 223.612 249.741 223.542 249.722 223.466C249.703 223.391 249.704 223.311 249.726 223.236C249.93 222.576 251.814 222.036 252.03 221.976C252.053 221.967 252.079 221.967 252.103 221.975C252.127 221.982 252.147 221.997 252.162 222.018C252.175 222.038 252.182 222.062 252.182 222.087C252.182 222.111 252.175 222.135 252.162 222.156C251.826 222.798 251.16 223.878 250.476 223.956L250.404 223.962ZM251.796 222.312C251.052 222.552 250.08 222.966 249.996 223.314C249.987 223.347 249.987 223.382 249.997 223.415C250.006 223.447 250.025 223.477 250.05 223.5C250.098 223.569 250.163 223.624 250.239 223.66C250.314 223.695 250.398 223.711 250.482 223.704C250.83 223.662 251.316 223.146 251.796 222.312Z" fill="#8A2BE2"/>
<path d="M251.202 222.336C250.641 222.393 250.079 222.235 249.63 221.892C249.567 221.813 249.533 221.714 249.533 221.613C249.533 221.512 249.567 221.414 249.63 221.334C249.683 221.251 249.755 221.181 249.839 221.129C249.923 221.077 250.018 221.045 250.116 221.034C250.896 220.938 252.078 221.958 252.126 222C252.144 222.014 252.157 222.033 252.164 222.054C252.172 222.075 252.173 222.098 252.168 222.12C252.166 222.144 252.156 222.166 252.141 222.184C252.126 222.202 252.107 222.215 252.084 222.222C251.797 222.304 251.5 222.342 251.202 222.336ZM250.248 221.286H250.164C250.103 221.293 250.043 221.313 249.991 221.345C249.938 221.378 249.893 221.421 249.858 221.472C249.768 221.61 249.798 221.682 249.858 221.73C250.092 222.036 251.16 222.15 251.808 222.03C251.365 221.646 250.826 221.389 250.248 221.286Z" fill="#8A2BE2"/>
<path d="M201.63 243.774C201.166 243.816 200.702 243.697 200.316 243.438C200.233 243.363 200.169 243.269 200.129 243.165C200.088 243.061 200.072 242.949 200.082 242.838C200.087 242.767 200.11 242.698 200.149 242.638C200.187 242.578 200.241 242.529 200.304 242.496C200.97 242.13 203.13 243.234 203.376 243.366C203.399 243.379 203.417 243.398 203.429 243.422C203.441 243.445 203.445 243.472 203.442 243.498C203.439 243.524 203.427 243.549 203.408 243.568C203.39 243.588 203.366 243.601 203.34 243.606C202.776 243.714 202.204 243.77 201.63 243.774ZM200.664 242.652C200.581 242.647 200.498 242.663 200.424 242.7C200.398 242.712 200.377 242.732 200.362 242.757C200.347 242.781 200.339 242.809 200.34 242.838C200.33 242.913 200.339 242.989 200.365 243.06C200.391 243.131 200.434 243.195 200.49 243.246C200.82 243.546 201.69 243.594 202.89 243.396C202.196 243.023 201.443 242.771 200.664 242.652Z" fill="#8A2BE2"/>
<path d="M203.316 243.6H203.262C202.614 243.306 201.336 242.136 201.462 241.524C201.462 241.38 201.588 241.194 201.942 241.158C202.07 241.145 202.199 241.157 202.322 241.196C202.444 241.234 202.558 241.296 202.656 241.38C203.334 241.95 203.46 243.408 203.466 243.474C203.468 243.496 203.464 243.518 203.454 243.538C203.445 243.558 203.43 243.575 203.412 243.588C203.398 243.597 203.382 243.603 203.365 243.605C203.349 243.607 203.332 243.605 203.316 243.6ZM202.02 241.398H201.948C201.708 241.398 201.696 241.518 201.69 241.548C201.63 241.914 202.5 242.838 203.16 243.234C203.106 242.618 202.863 242.033 202.464 241.56C202.342 241.448 202.185 241.384 202.02 241.38V241.398Z" fill="#8A2BE2"/>
<path d="M222.138 120L222.702 121.974C222.78 122.124 222.6 122.28 222.342 122.28H199.668C199.47 122.28 199.302 122.184 199.29 122.058L199.092 120.09C199.092 119.952 199.248 119.838 199.47 119.838H221.784C221.852 119.833 221.92 119.844 221.982 119.873C222.044 119.901 222.098 119.945 222.138 120Z" fill="#8A2BE2"/>
<path opacity="0.3" d="M222.138 120L222.702 121.974C222.78 122.124 222.6 122.28 222.342 122.28H199.668C199.47 122.28 199.302 122.184 199.29 122.058L199.092 120.09C199.092 119.952 199.248 119.838 199.47 119.838H221.784C221.852 119.833 221.92 119.844 221.982 119.873C222.044 119.901 222.098 119.945 222.138 120Z" fill="white"/>
<path d="M219.144 122.52H219.744C219.858 122.52 219.948 122.46 219.942 122.382L219.66 119.82C219.66 119.748 219.552 119.682 219.432 119.682H218.832C218.712 119.682 218.622 119.748 218.634 119.82L218.91 122.382C218.922 122.46 219 122.52 219.144 122.52Z" fill="#263238"/>
<path d="M201.348 122.52H201.948C202.068 122.52 202.158 122.46 202.152 122.382L201.87 119.82C201.87 119.748 201.756 119.682 201.642 119.682H201.042C200.922 119.682 200.832 119.748 200.838 119.82L201.12 122.382C201.126 122.46 201.228 122.52 201.348 122.52Z" fill="#263238"/>
<path d="M210.246 122.52H210.846C210.966 122.52 211.056 122.46 211.05 122.382L210.768 119.82C210.768 119.748 210.66 119.682 210.54 119.682H209.94C209.82 119.682 209.73 119.748 209.742 119.82L210 122.4C210 122.46 210.126 122.52 210.246 122.52Z" fill="#263238"/>
<path d="M207.552 69.9301L206.478 69.7261C206.478 69.7261 207.09 70.4941 207.552 69.9301Z" fill="#263238"/>
<path opacity="0.2" d="M187.692 146.334C177.527 150.283 166.419 151.129 155.772 148.766C145.126 146.402 135.42 140.934 127.881 133.054C120.342 125.174 115.31 115.235 113.419 104.495C111.529 93.7548 112.865 82.6951 117.26 72.7145C121.655 62.7338 128.911 54.2806 138.11 48.4236C147.31 42.5667 158.039 39.5691 168.942 39.8098C179.844 40.0506 190.431 43.519 199.363 49.7763C208.294 56.0337 215.17 64.799 219.12 74.964C221.744 81.7137 223.012 88.9141 222.853 96.1541C222.693 103.394 221.109 110.532 218.19 117.159C215.272 123.787 211.076 129.775 205.843 134.781C200.61 139.786 194.443 143.712 187.692 146.334Z" fill="#8A2BE2"/>
<path opacity="0.1" d="M177.714 40.7103L134.466 138.93C133.8 138.426 133.14 137.904 132.492 137.376C128.312 133.918 124.672 129.856 121.692 125.322L159.048 40.4823C165.237 39.4855 171.551 39.5627 177.714 40.7103Z" fill="white"/>
<path opacity="0.1" d="M208.458 57.7501L167.796 150.096C159.35 150.105 151.015 148.171 143.436 144.444L187.836 43.6021C195.702 46.6783 202.757 51.5185 208.458 57.7501Z" fill="white"/>
<path d="M122.328 57.7921C129.675 48.8143 139.52 42.217 150.617 38.8342C161.714 35.4514 173.564 35.4352 184.671 38.7876C195.777 42.14 205.639 48.7105 213.011 57.6681C220.383 66.6257 224.933 77.5682 226.086 89.1118C227.239 100.655 224.943 112.282 219.488 122.52C214.034 132.759 205.665 141.15 195.442 146.633C185.218 152.116 173.598 154.444 162.051 153.323C150.505 152.201 139.55 147.681 130.572 140.334C118.534 130.481 110.903 116.249 109.357 100.77C107.811 85.2911 112.477 69.8317 122.328 57.7921ZM209.4 129.048C216.144 120.804 220.293 110.745 221.32 100.143C222.348 89.5418 220.209 78.8735 215.174 69.4875C210.138 60.1015 202.433 52.4193 193.032 47.4124C183.631 42.4054 172.956 40.2986 162.358 41.3583C151.759 42.418 141.713 46.5966 133.489 53.3657C125.265 60.1348 119.233 69.1905 116.156 79.3877C113.079 89.5848 113.094 100.465 116.201 110.654C119.307 120.842 125.365 129.88 133.608 136.626C139.082 141.106 145.385 144.463 152.156 146.507C158.928 148.55 166.035 149.24 173.074 148.536C180.112 147.832 186.942 145.749 193.175 142.405C199.408 139.062 204.921 134.523 209.4 129.048Z" fill="#8A2BE2"/>
<path d="M214.578 128.844C220.356 132.294 225.852 136.086 231.252 139.998C236.652 143.91 241.914 147.984 247.092 152.166C252.27 156.348 257.352 160.65 262.254 165.168C264.71 167.424 267.11 169.74 269.454 172.116C271.806 174.516 274.116 176.916 276.294 179.52C276.797 180.123 277.075 180.883 277.079 181.668C277.083 182.453 276.813 183.215 276.316 183.823C275.819 184.431 275.125 184.847 274.355 184.999C273.584 185.151 272.785 185.03 272.094 184.656C269.094 183.036 266.286 181.248 263.484 179.418C260.682 177.588 257.946 175.68 255.246 173.718C249.846 169.806 244.62 165.684 239.502 161.43C234.384 157.176 229.344 152.826 224.442 148.302C219.54 143.778 214.734 139.146 210.21 134.166C209.645 133.55 209.321 132.751 209.298 131.916C209.274 131.081 209.553 130.265 210.082 129.618C210.611 128.971 211.356 128.537 212.18 128.395C213.003 128.253 213.851 128.412 214.566 128.844H214.578Z" fill="#8A2BE2"/>
<path d="M221.034 127.2L215.238 128.082L219.384 131.718C219.384 131.718 222.66 130.518 222.984 128.298L221.034 127.2Z" fill="#FFC3BD"/>
<path d="M212.106 131.412L215.748 134.268L220.194 131.364L215.238 128.094L212.106 131.412Z" fill="#FFC3BD"/>
<path d="M184.704 137.73C185.233 136.285 186.188 135.034 187.442 134.142C188.696 133.25 190.191 132.758 191.73 132.732H239.76C240.59 132.701 241.417 132.852 242.182 133.176C242.947 133.499 243.631 133.986 244.187 134.603C244.744 135.22 245.158 135.951 245.4 136.746C245.643 137.54 245.708 138.378 245.592 139.2L233.184 243.306C232.921 245.078 232.035 246.699 230.687 247.879C229.338 249.058 227.614 249.719 225.822 249.744H73.4219C72.5948 249.775 71.7708 249.625 71.008 249.304C70.2451 248.983 69.5619 248.498 69.0065 247.885C68.4511 247.271 68.037 246.543 67.7933 245.752C67.5496 244.961 67.4822 244.126 67.5959 243.306L77.9999 155.838C78.2633 154.066 79.1485 152.445 80.4972 151.265C81.846 150.086 83.5704 149.425 85.3619 149.4H168.294C171.888 149.339 175.378 148.191 178.307 146.108C181.237 144.025 183.466 141.104 184.704 137.73Z" fill="#8A2BE2"/>
<path d="M70.3379 244.95H229.584L238.656 137.802H79.4159L70.3379 244.95Z" fill="#F0F0F0"/>
<path d="M70.3379 244.95H229.584L236.148 137.802H79.4159L70.3379 244.95Z" fill="#E0E0E0"/>
<path d="M70.3379 244.95H229.584L235.056 134.4H75.8159L70.3379 244.95Z" fill="#F0F0F0"/>
<path d="M70.3379 244.95H229.584L231.75 134.4H75.8159L70.3379 244.95Z" fill="#E0E0E0"/>
<path d="M70.3379 244.95H229.584L230.532 131.4H71.2919L70.3379 244.95Z" fill="#F0F0F0"/>
<path d="M70.3379 244.95H229.584L226.314 133.548H68.0999L70.3379 244.95Z" fill="#E0E0E0"/>
<path d="M70.338 244.95H229.584L224.856 134.4H65.616L70.338 244.95Z" fill="#F0F0F0"/>
<path d="M70.338 244.95H229.584L222.054 136.068H62.814L70.338 244.95Z" fill="#E0E0E0"/>
<path d="M70.338 244.95H229.584L220.854 136.998H61.614L70.338 244.95Z" fill="#F0F0F0"/>
<path d="M150.084 144.492C150.093 143.796 150.242 143.108 150.522 142.471C150.802 141.833 151.207 141.259 151.714 140.781C152.22 140.304 152.818 139.933 153.471 139.691C154.124 139.449 154.818 139.341 155.514 139.374H203.544C205.403 139.445 207.187 140.132 208.614 141.327C210.041 142.521 211.03 144.156 211.428 145.974L230.406 243.174C231.114 246.816 228.738 249.774 225.096 249.774H72.6959C69.0479 249.774 65.4959 246.816 64.8059 243.174L49.1519 163.044C48.4439 159.402 50.8199 156.444 54.4619 156.444H137.4C144.6 156.444 149.838 151.488 150.084 144.492Z" fill="#8A2BE2"/>
<path opacity="0.2" d="M150.084 144.492C150.093 143.796 150.242 143.108 150.522 142.471C150.802 141.833 151.207 141.259 151.714 140.781C152.22 140.304 152.818 139.933 153.471 139.691C154.124 139.449 154.818 139.341 155.514 139.374H203.544C205.403 139.445 207.187 140.132 208.614 141.327C210.041 142.521 211.03 144.156 211.428 145.974L230.406 243.174C231.114 246.816 228.738 249.774 225.096 249.774H72.6959C69.0479 249.774 65.4959 246.816 64.8059 243.174L49.1519 163.044C48.4439 159.402 50.8199 156.444 54.4619 156.444H137.4C144.6 156.444 149.838 151.488 150.084 144.492Z" fill="black"/>
</svg>
