<svg width="300" height="300" viewBox="0 0 300 300" fill="none" xmlns="http://www.w3.org/2000/svg">
<path d="M52.8542 63.756C69.6002 28.086 129.09 33.12 152.046 58.2C175.002 83.28 182.466 99.36 203.172 90C223.878 80.64 250.284 83.136 251.772 112.896C253.26 142.656 229.05 177.852 190.542 188.262C152.034 198.672 152.046 235.518 101.082 228.084C73.2962 224.028 72.6662 193.968 76.5902 169.104C80.5142 144.24 33.4262 105.126 52.8542 63.756Z" fill="#8A2BE2"/>
<path opacity="0.9" d="M52.8542 63.756C69.6002 28.086 129.09 33.12 152.046 58.2C175.002 83.28 182.466 99.36 203.172 90C223.878 80.64 250.284 83.136 251.772 112.896C253.26 142.656 229.05 177.852 190.542 188.262C152.034 198.672 152.046 235.518 101.082 228.084C73.2962 224.028 72.6662 193.968 76.5902 169.104C80.5142 144.24 33.4262 105.126 52.8542 63.756Z" fill="white"/>
<path d="M150 256.536C214.249 256.536 266.334 253.495 266.334 249.744C266.334 245.993 214.249 242.952 150 242.952C85.7505 242.952 33.666 245.993 33.666 249.744C33.666 253.495 85.7505 256.536 150 256.536Z" fill="#F5F5F5"/>
<path d="M157.998 63.3359H66.3181C62.8719 63.3359 60.0781 66.1297 60.0781 69.5759V244.446C60.0781 247.892 62.8719 250.686 66.3181 250.686H157.998C161.444 250.686 164.238 247.892 164.238 244.446V69.5759C164.238 66.1297 161.444 63.3359 157.998 63.3359Z" fill="#8A2BE2"/>
<path opacity="0.4" d="M157.998 63.3359H66.3181C62.8719 63.3359 60.0781 66.1297 60.0781 69.5759V244.446C60.0781 247.892 62.8719 250.686 66.3181 250.686H157.998C161.444 250.686 164.238 247.892 164.238 244.446V69.5759C164.238 66.1297 161.444 63.3359 157.998 63.3359Z" fill="white"/>
<path d="M160.728 69.5998V244.074C160.728 244.412 160.66 244.747 160.529 245.058C160.398 245.37 160.206 245.653 159.965 245.89C159.724 246.127 159.438 246.314 159.124 246.44C158.81 246.566 158.474 246.629 158.136 246.624H65.9043C65.5975 246.627 65.2932 246.569 65.0094 246.452C64.7257 246.335 64.4684 246.162 64.2528 245.944C64.0373 245.726 63.8679 245.466 63.7547 245.181C63.6416 244.896 63.587 244.591 63.5943 244.284V69.4018C63.5732 68.8553 63.7699 68.3227 64.1411 67.9211C64.5124 67.5195 65.0278 67.2816 65.5743 67.2598H88.6323C88.9552 67.2661 89.269 67.3682 89.5338 67.5529C89.7987 67.7377 90.0028 67.9969 90.1203 68.2978L91.0743 70.6498C91.1919 70.9483 91.3956 71.2053 91.6594 71.3879C91.9233 71.5706 92.2354 71.6708 92.5563 71.6758H131.814C132.134 71.6746 132.445 71.578 132.709 71.3984C132.974 71.2188 133.178 70.9644 133.296 70.6678L134.25 68.3038C134.368 68.0023 134.571 67.7422 134.836 67.5564C135.101 67.3706 135.415 67.2674 135.738 67.2598H158.46C159.069 67.277 159.647 67.5313 160.07 67.9684C160.494 68.4056 160.73 68.991 160.728 69.5998Z" fill="#263238"/>
<path opacity="0.3" d="M160.728 78.1621H63.5938V235.062H160.728V78.1621Z" fill="white"/>
<path opacity="0.6" d="M74.298 74.292H75.498V72.69H74.298V74.292Z" fill="white"/>
<path opacity="0.6" d="M72.342 74.292H73.542V72.156H72.342V74.292Z" fill="white"/>
<path opacity="0.6" d="M70.3918 74.292H71.5918V71.628H70.3918V74.292Z" fill="white"/>
<path opacity="0.6" d="M68.4357 74.292H69.6357V71.094H68.4357V74.292Z" fill="white"/>
<path opacity="0.6" d="M149.73 72.1079H149.022V73.7099H149.73V72.1079Z" fill="white"/>
<path opacity="0.6" d="M150.222 74.292H155.886V71.526H150.222V74.292Z" fill="white"/>
<path d="M158.328 81.2397H65.9883V97.0618H158.328V81.2397Z" fill="#8A2BE2"/>
<path opacity="0.8" d="M158.328 98.418H65.9883V232.842H158.328V98.418Z" fill="white"/>
<path d="M112.926 242.364H111.396C111.008 242.362 110.636 242.208 110.362 241.933C110.088 241.659 109.933 241.288 109.932 240.9V239.4C109.933 239.013 110.088 238.642 110.363 238.369C110.637 238.095 111.008 237.942 111.396 237.942H112.926C113.312 237.942 113.683 238.096 113.957 238.369C114.23 238.642 114.384 239.013 114.384 239.4V240.93C114.376 241.312 114.219 241.676 113.947 241.944C113.674 242.212 113.308 242.362 112.926 242.364ZM111.396 238.512C111.168 238.512 110.949 238.602 110.787 238.763C110.625 238.924 110.533 239.142 110.532 239.37V240.9C110.533 241.129 110.625 241.347 110.786 241.509C110.948 241.671 111.167 241.762 111.396 241.764H112.926C113.154 241.762 113.372 241.671 113.533 241.509C113.693 241.347 113.784 241.128 113.784 240.9V239.4C113.784 239.172 113.693 238.954 113.532 238.793C113.371 238.632 113.153 238.542 112.926 238.542L111.396 238.512Z" fill="white"/>
<path opacity="0.6" d="M112.146 67.4941C112.147 67.759 112.069 68.0183 111.923 68.2391C111.777 68.4599 111.568 68.6323 111.324 68.7345C111.08 68.8367 110.81 68.8641 110.55 68.8131C110.29 68.7622 110.051 68.6352 109.864 68.4483C109.676 68.2615 109.548 68.0231 109.496 67.7634C109.444 67.5036 109.47 67.2343 109.571 66.9895C109.672 66.7446 109.844 66.5353 110.064 66.388C110.284 66.2407 110.543 66.1621 110.808 66.1621C111.162 66.1621 111.501 66.3022 111.752 66.5519C112.002 66.8015 112.144 67.1403 112.146 67.4941Z" fill="black"/>
<path opacity="0.6" d="M114.84 67.4937C114.839 67.662 114.788 67.8261 114.693 67.9654C114.599 68.1048 114.465 68.213 114.31 68.2766C114.154 68.3402 113.983 68.3562 113.818 68.3226C113.653 68.2891 113.502 68.2075 113.383 68.0881C113.265 67.9687 113.184 67.8169 113.152 67.6518C113.119 67.4867 113.137 67.3157 113.201 67.1603C113.266 67.005 113.375 66.8723 113.515 66.7789C113.655 66.6856 113.819 66.6357 113.988 66.6357C114.1 66.6357 114.211 66.658 114.315 66.7012C114.419 66.7444 114.513 66.8077 114.592 66.8874C114.672 66.9672 114.734 67.0618 114.777 67.1659C114.819 67.2699 114.841 67.3814 114.84 67.4937Z" fill="black"/>
<path d="M112.158 165.348C127.106 165.348 139.224 153.23 139.224 138.282C139.224 123.334 127.106 111.216 112.158 111.216C97.2097 111.216 85.0918 123.334 85.0918 138.282C85.0918 153.23 97.2097 165.348 112.158 165.348Z" fill="#263238"/>
<path d="M96.7861 136.074C96.5071 136.076 96.2341 135.994 96.0019 135.84C95.7698 135.685 95.5892 135.465 95.4834 135.206C95.3776 134.948 95.3514 134.665 95.4082 134.391C95.465 134.118 95.6021 133.869 95.8021 133.674C100.143 129.34 106.027 126.906 112.161 126.906C118.295 126.906 124.179 129.34 128.52 133.674C128.65 133.804 128.753 133.958 128.824 134.128C128.894 134.298 128.93 134.48 128.93 134.664C128.93 134.848 128.894 135.03 128.824 135.2C128.753 135.37 128.65 135.524 128.52 135.654C128.39 135.784 128.236 135.887 128.066 135.958C127.896 136.028 127.714 136.064 127.53 136.064C127.346 136.064 127.164 136.028 126.994 135.958C126.824 135.887 126.67 135.784 126.54 135.654C122.723 131.844 117.551 129.705 112.158 129.705C106.765 129.705 101.593 131.844 97.7761 135.654C97.6469 135.786 97.493 135.891 97.3231 135.963C97.1531 136.035 96.9706 136.073 96.7861 136.074Z" fill="white"/>
<path d="M101.538 140.826C101.26 140.826 100.988 140.743 100.757 140.589C100.526 140.434 100.346 140.214 100.24 139.957C100.134 139.7 100.107 139.417 100.161 139.145C100.216 138.872 100.351 138.622 100.548 138.426C103.63 135.352 107.805 133.625 112.158 133.625C116.511 133.625 120.686 135.352 123.768 138.426C123.997 138.693 124.117 139.037 124.104 139.388C124.091 139.74 123.945 140.073 123.697 140.323C123.448 140.572 123.115 140.718 122.764 140.732C122.412 140.747 122.068 140.628 121.8 140.4C119.243 137.849 115.779 136.416 112.167 136.416C108.555 136.416 105.091 137.849 102.534 140.4C102.405 140.534 102.25 140.641 102.079 140.714C101.908 140.787 101.724 140.825 101.538 140.826Z" fill="white"/>
<path d="M106.29 145.572C106.011 145.575 105.737 145.494 105.504 145.34C105.271 145.186 105.089 144.965 104.983 144.707C104.876 144.449 104.849 144.164 104.906 143.891C104.963 143.617 105.1 143.367 105.3 143.172C107.121 141.355 109.589 140.334 112.161 140.334C114.734 140.334 117.201 141.355 119.022 143.172C119.152 143.302 119.255 143.456 119.326 143.626C119.396 143.796 119.432 143.978 119.432 144.162C119.432 144.346 119.396 144.528 119.326 144.698C119.255 144.867 119.152 145.022 119.022 145.152C118.892 145.282 118.738 145.385 118.568 145.455C118.398 145.526 118.216 145.562 118.032 145.562C117.848 145.562 117.666 145.526 117.496 145.455C117.327 145.385 117.172 145.282 117.042 145.152C116.401 144.51 115.64 144.002 114.803 143.655C113.965 143.308 113.068 143.129 112.161 143.129C111.255 143.129 110.357 143.308 109.519 143.655C108.682 144.002 107.921 144.51 107.28 145.152C107.018 145.416 106.662 145.567 106.29 145.572Z" fill="white"/>
<path d="M113.574 148.626C113.855 148.906 114.046 149.263 114.124 149.652C114.201 150.041 114.162 150.444 114.01 150.81C113.858 151.177 113.602 151.49 113.272 151.71C112.942 151.93 112.555 152.048 112.158 152.048C111.762 152.048 111.374 151.93 111.045 151.71C110.715 151.49 110.458 151.177 110.307 150.81C110.155 150.444 110.115 150.041 110.193 149.652C110.271 149.263 110.462 148.906 110.742 148.626C111.118 148.251 111.627 148.04 112.158 148.04C112.689 148.04 113.199 148.251 113.574 148.626Z" fill="white"/>
<path d="M73.65 92.9639C73.571 92.9643 73.4928 92.9492 73.4197 92.9193C73.3465 92.8895 73.2801 92.8455 73.224 92.7899L70.008 89.5739C69.9524 89.5178 69.9084 89.4513 69.8785 89.3782C69.8487 89.3051 69.8335 89.2268 69.834 89.1479C69.8347 88.9905 69.8971 88.8396 70.008 88.7279L73.224 85.5119C73.3364 85.4001 73.4885 85.3374 73.647 85.3374C73.8055 85.3374 73.9576 85.4001 74.07 85.5119C74.1817 85.6243 74.2445 85.7764 74.2445 85.9349C74.2445 86.0934 74.1817 86.2455 74.07 86.3579L71.28 89.1479L74.07 91.9379C74.1262 91.9937 74.1709 92.06 74.2013 92.1331C74.2318 92.2062 74.2475 92.2847 74.2475 92.3639C74.2475 92.4431 74.2318 92.5215 74.2013 92.5946C74.1709 92.6677 74.1262 92.7341 74.07 92.7899C73.9582 92.9007 73.8074 92.9632 73.65 92.9639Z" fill="white"/>
<path d="M153.87 86.4478C153.87 86.5878 153.829 86.7247 153.751 86.8411C153.673 86.9575 153.562 87.0483 153.433 87.1019C153.304 87.1554 153.161 87.1695 153.024 87.1421C152.887 87.1148 152.76 87.0474 152.661 86.9484C152.562 86.8494 152.495 86.7232 152.468 86.5859C152.44 86.4485 152.454 86.3062 152.508 86.1768C152.562 86.0474 152.652 85.9369 152.769 85.8591C152.885 85.7813 153.022 85.7397 153.162 85.7397C153.35 85.7397 153.53 85.8143 153.663 85.9471C153.796 86.0799 153.87 86.26 153.87 86.4478Z" fill="white"/>
<path d="M153.87 89.1479C153.87 89.288 153.829 89.4249 153.751 89.5413C153.673 89.6577 153.562 89.7485 153.433 89.8021C153.304 89.8556 153.161 89.8697 153.024 89.8423C152.887 89.815 152.76 89.7476 152.661 89.6486C152.562 89.5496 152.495 89.4234 152.468 89.2861C152.44 89.1487 152.454 89.0064 152.508 88.877C152.562 88.7476 152.652 88.6371 152.769 88.5593C152.885 88.4815 153.022 88.4399 153.162 88.4399C153.35 88.4399 153.53 88.5145 153.663 88.6473C153.796 88.7801 153.87 88.9602 153.87 89.1479Z" fill="white"/>
<path d="M153.87 91.8481C153.87 91.9882 153.829 92.1251 153.751 92.2415C153.673 92.3579 153.562 92.4487 153.433 92.5022C153.304 92.5558 153.161 92.5699 153.024 92.5425C152.887 92.5152 152.76 92.4478 152.661 92.3488C152.562 92.2498 152.495 92.1236 152.468 91.9863C152.44 91.8489 152.454 91.7066 152.508 91.5772C152.562 91.4478 152.652 91.3373 152.769 91.2595C152.885 91.1817 153.022 91.1401 153.162 91.1401C153.35 91.1401 153.53 91.2147 153.663 91.3475C153.796 91.4803 153.87 91.6604 153.87 91.8481Z" fill="white"/>
<path d="M133.873 165.348C138.923 165.348 143.017 161.254 143.017 156.204C143.017 151.154 138.923 147.06 133.873 147.06C128.822 147.06 124.729 151.154 124.729 156.204C124.729 161.254 128.822 165.348 133.873 165.348Z" fill="#8A2BE2"/>
<path d="M137.544 160.476C137.465 160.476 137.387 160.461 137.314 160.432C137.241 160.402 137.174 160.358 137.118 160.302L129.78 152.958C129.682 152.843 129.63 152.696 129.636 152.545C129.642 152.394 129.705 152.25 129.811 152.144C129.918 152.037 130.062 151.974 130.213 151.968C130.364 151.962 130.511 152.014 130.626 152.112L138 159.45C138.056 159.506 138.101 159.572 138.131 159.645C138.162 159.718 138.177 159.797 138.177 159.876C138.177 159.955 138.162 160.034 138.131 160.107C138.101 160.18 138.056 160.246 138 160.302C137.94 160.361 137.869 160.408 137.791 160.438C137.712 160.467 137.628 160.481 137.544 160.476Z" fill="white"/>
<path d="M130.2 160.476C130.081 160.477 129.964 160.442 129.865 160.376C129.766 160.31 129.688 160.216 129.643 160.106C129.597 159.996 129.585 159.875 129.608 159.758C129.632 159.641 129.69 159.534 129.774 159.45L137.112 152.112C137.168 152.056 137.234 152.011 137.307 151.981C137.381 151.95 137.459 151.935 137.538 151.935C137.617 151.935 137.696 151.95 137.769 151.981C137.842 152.011 137.908 152.056 137.964 152.112C138.076 152.224 138.139 152.377 138.139 152.535C138.139 152.694 138.076 152.846 137.964 152.958L130.62 160.302C130.508 160.413 130.358 160.475 130.2 160.476Z" fill="white"/>
<path opacity="0.2" d="M155.484 67.2598L63.6002 159.15V69.4018C63.5791 68.8553 63.7757 68.3227 64.147 67.9211C64.5182 67.5195 65.0337 67.2816 65.5802 67.2598H88.6382C88.9611 67.2661 89.2748 67.3682 89.5397 67.5529C89.8046 67.7377 90.0087 67.9969 90.1262 68.2978L91.0802 70.6498C91.1978 70.9483 91.4014 71.2053 91.6653 71.3879C91.9291 71.5706 92.2413 71.6708 92.5622 71.6758H131.82C132.14 71.6746 132.451 71.578 132.715 71.3984C132.979 71.2188 133.184 70.9644 133.302 70.6678L134.256 68.3038C134.373 68.0023 134.577 67.7422 134.842 67.5564C135.107 67.3706 135.421 67.2674 135.744 67.2598H155.484Z" fill="white"/>
<path opacity="0.2" d="M160.728 84.2939V91.8359L63.5938 188.964V181.428L160.728 84.2939Z" fill="white"/>
<path d="M175.836 127.854C175.836 127.854 172.644 131.808 172.17 133.254C171.696 134.7 172.644 133.806 172.644 133.806C172.644 133.806 171.348 144.99 172.176 148.08C173.004 151.17 183.444 151.476 186.414 149.784C189.384 148.092 193.794 115.686 191.214 113.31C188.634 110.934 177.834 111.084 175.836 127.854Z" fill="#263238"/>
<path d="M163.032 110.448L162.432 106.662C161.98 105.926 161.464 105.231 160.89 104.586C160.416 104.184 159.69 100.632 160.29 99.0842C160.89 97.5362 164.322 96.3062 164.322 96.3062L165.978 104.586L165.132 106.08L165.804 109.206L163.032 110.448Z" fill="#EBB376"/>
<path d="M182.94 99.7021C179.034 100.248 172.2 119.352 169.824 119.07C169.026 118.974 165.6 106.2 165.6 106.2L162.084 108.51C162.084 108.51 165 124.2 167.892 125.46C172.464 127.47 182.016 111.45 182.016 111.45L182.94 99.7021Z" fill="#8A2BE2"/>
<path d="M181.95 98.3403C179.76 98.5143 171.81 112.668 171.81 112.668L176.88 120.828L179.88 117.504L181.95 98.3403Z" fill="#8A2BE2"/>
<path opacity="0.6" d="M181.95 98.3403L180.93 107.808L179.88 117.504L176.88 120.828L175.62 118.8L171.81 112.674C171.81 112.674 179.76 98.5143 181.95 98.3403Z" fill="white"/>
<path opacity="0.2" d="M180.929 107.808L179.879 117.504L176.879 120.828L175.619 118.8C175.853 113.202 179.201 109.404 180.929 107.808Z" fill="black"/>
<path d="M169.283 103.158C169.298 103.215 169.301 103.275 169.291 103.333C169.281 103.391 169.259 103.446 169.226 103.495C169.193 103.544 169.15 103.585 169.1 103.616C169.05 103.647 168.994 103.667 168.935 103.674L164.363 104.316C164.233 104.337 164.099 104.309 163.988 104.237C163.878 104.165 163.797 104.054 163.763 103.926L161.477 95.0464C161.457 94.9846 161.449 94.919 161.455 94.8541C161.462 94.7891 161.481 94.7262 161.514 94.6696C161.546 94.6129 161.59 94.5637 161.643 94.5252C161.695 94.4867 161.756 94.4599 161.819 94.4464L166.391 93.8104C166.528 93.806 166.661 93.8483 166.77 93.9301C166.88 94.0118 166.957 94.1283 166.991 94.2604L169.283 103.158Z" fill="#263238"/>
<path opacity="0.5" d="M166.482 94.29L168.792 103.254C168.813 103.305 168.821 103.361 168.817 103.416C168.812 103.471 168.794 103.524 168.765 103.571C168.736 103.618 168.695 103.657 168.648 103.686C168.6 103.714 168.547 103.731 168.492 103.734L164.616 104.28C164.358 104.316 163.86 104.238 163.794 103.986L161.478 94.986C161.418 94.734 161.832 94.464 162.078 94.428L165.954 93.888C166.077 93.8725 166.201 93.906 166.3 93.9812C166.398 94.0563 166.464 94.1672 166.482 94.29Z" fill="white"/>
<path d="M202.38 245.118H208.32C208.417 245.12 208.511 245.154 208.586 245.215C208.662 245.276 208.716 245.36 208.74 245.454L209.7 249.81C209.72 249.902 209.722 249.997 209.705 250.09C209.688 250.183 209.653 250.272 209.602 250.351C209.55 250.43 209.484 250.499 209.406 250.552C209.328 250.605 209.24 250.643 209.148 250.662C209.094 250.668 209.04 250.668 208.986 250.662C207.066 250.632 205.668 250.512 203.25 250.512C201.768 250.512 197.28 250.668 195.228 250.668C193.176 250.668 192.912 248.64 193.752 248.454C197.52 247.632 200.352 246.498 201.552 245.412C201.781 245.213 202.077 245.108 202.38 245.118Z" fill="#263238"/>
<path d="M177.191 244.962H183.131C183.228 244.964 183.322 244.998 183.398 245.059C183.474 245.12 183.528 245.204 183.551 245.298L184.511 249.654C184.532 249.746 184.533 249.842 184.517 249.935C184.5 250.029 184.465 250.118 184.414 250.198C184.362 250.277 184.296 250.346 184.218 250.4C184.14 250.454 184.052 250.492 183.959 250.512H183.797C181.877 250.482 180.479 250.362 178.061 250.362C176.579 250.362 172.091 250.518 170.039 250.518C167.987 250.518 167.723 248.49 168.563 248.304C172.331 247.482 175.163 246.348 176.363 245.262C176.591 245.061 176.887 244.953 177.191 244.962Z" fill="#263238"/>
<path d="M205.53 135H179.58C177.114 148.476 170.058 202.998 175.602 245.484L184.266 246.432C184.266 246.432 182.904 181.2 190.662 160.32C191.55 171.474 192.612 183.348 193.53 189.666C195.792 205.212 200.88 245.736 200.88 245.736L209.658 245.976C209.658 245.976 207.738 206.67 206.892 191.376C205.968 174.798 205.566 138.426 205.53 135Z" fill="#263238"/>
<path opacity="0.2" d="M205.53 135H179.58C177.114 148.476 170.058 202.998 175.602 245.484L184.266 246.432C184.266 246.432 182.904 181.2 190.662 160.32C191.55 171.474 192.612 183.348 193.53 189.666C195.792 205.212 200.88 245.736 200.88 245.736L209.658 245.976C209.658 245.976 207.738 206.67 206.892 191.376C205.968 174.798 205.566 138.426 205.53 135Z" fill="white"/>
<path opacity="0.2" d="M190.655 160.32C189.381 163.976 188.412 167.73 187.757 171.546C187.031 161.616 189.935 151.086 189.935 151.086L190.655 160.32Z" fill="black"/>
<path d="M179.363 135.33H205.487V138.444L179.027 138.12L179.363 135.33Z" fill="#263238"/>
<path d="M197.087 133.932H196.157V139.452H197.087V133.932Z" fill="#263238"/>
<path d="M183.869 133.932H182.939V139.452H183.869V133.932Z" fill="#263238"/>
<path d="M191.267 134.79H186.438V138.27H191.267V134.79Z" fill="white"/>
<path opacity="0.2" d="M197.087 133.932H196.157V139.452H197.087V133.932Z" fill="white"/>
<path opacity="0.2" d="M183.869 133.932H182.939V139.452H183.869V133.932Z" fill="white"/>
<path d="M181.949 98.3402C181.949 98.3402 198.455 97.7042 210.749 100.248C210.749 100.248 205.319 122.61 205.523 135.33H179.363C179.363 135.33 177.665 111.468 181.949 98.3402Z" fill="#8A2BE2"/>
<path d="M201.114 99.0002C198.744 101.154 192.942 100.356 192.942 100.356C192.942 100.356 189.312 99.3662 190.074 98.2322C192.21 97.8782 193.242 96.8822 193.674 95.6042C193.905 94.8143 193.979 93.9865 193.89 93.1682C193.854 92.7114 193.793 92.2568 193.71 91.8062L200.91 86.4902C199.944 90.0002 198.798 96.4682 201.114 99.0002Z" fill="#EBB376"/>
<path opacity="0.2" d="M199.23 89.8799C198.942 94.1879 195.402 95.3759 193.674 95.6159C193.905 94.826 193.979 93.9982 193.89 93.1799L199.23 89.8799Z" fill="black"/>
<path d="M188.736 75.3423C188.736 75.3423 186.732 81.8223 189.87 84.9003C193.008 87.9783 194.856 75.6363 194.856 75.6363L188.736 75.3423Z" fill="#263238"/>
<path d="M199.296 91.6982C198.395 92.6802 197.197 93.3389 195.885 93.5731C194.573 93.8073 193.221 93.6039 192.036 92.9942C190.488 92.2369 189.288 90.9169 188.682 89.3042C188.592 89.0809 188.516 88.8525 188.454 88.6202C187.332 84.3122 187.854 77.1422 192.528 75.1262C193.56 74.6762 194.69 74.4977 195.811 74.6078C196.931 74.7179 198.005 75.1128 198.93 75.755C199.855 76.3973 200.6 77.2655 201.095 78.277C201.589 79.2886 201.817 80.4098 201.756 81.5342C201.6 86.3522 201.69 89.1902 199.296 91.6982Z" fill="#EBB376"/>
<path d="M194.933 82.9863C194.969 83.3763 194.747 83.7003 194.483 83.7063C194.219 83.7123 194.015 83.3943 194.003 83.0043C193.991 82.6143 194.201 82.2903 194.453 82.2843C194.705 82.2783 194.921 82.5903 194.933 82.9863Z" fill="#263238"/>
<path d="M189.899 83.0761C189.935 83.4661 189.701 83.7901 189.449 83.7961C189.197 83.8021 188.981 83.4841 188.969 83.0941C188.957 82.7041 189.167 82.3801 189.419 82.3741C189.671 82.3681 189.893 82.7041 189.899 83.0761Z" fill="#263238"/>
<path d="M191.447 83.2861C191.005 84.495 190.4 85.6376 189.647 86.6821C189.921 86.8689 190.231 86.9936 190.558 87.0475C190.884 87.1014 191.219 87.0832 191.537 86.9941L191.447 83.2861Z" fill="#D58745"/>
<path d="M195.816 81.6001C195.773 81.6051 195.73 81.5996 195.69 81.5839C195.65 81.5682 195.615 81.5428 195.588 81.5101C195.414 81.2795 195.19 81.0926 194.931 80.9645C194.673 80.8363 194.388 80.7704 194.1 80.7721C194.07 80.7748 194.039 80.7716 194.011 80.7627C193.982 80.7538 193.955 80.7393 193.932 80.7201C193.909 80.7009 193.89 80.6773 193.876 80.6507C193.862 80.6241 193.853 80.595 193.851 80.5651C193.848 80.5351 193.851 80.5049 193.86 80.4762C193.869 80.4475 193.883 80.4208 193.903 80.3977C193.922 80.3746 193.945 80.3555 193.972 80.3414C193.999 80.3274 194.028 80.3188 194.058 80.3161C194.423 80.3046 194.785 80.3815 195.114 80.5403C195.443 80.6991 195.729 80.935 195.948 81.2281C195.968 81.2503 195.983 81.2765 195.993 81.305C196.002 81.3336 196.006 81.3638 196.003 81.3937C196 81.4236 195.991 81.4526 195.976 81.4789C195.962 81.5051 195.942 81.528 195.918 81.5461L195.816 81.6001Z" fill="#263238"/>
<path d="M188.1 81.6303C188.055 81.6449 188.007 81.6449 187.962 81.6303C187.907 81.6053 187.864 81.5602 187.842 81.5043C187.82 81.4485 187.82 81.3861 187.842 81.3303C187.987 80.9942 188.211 80.6982 188.496 80.4673C188.78 80.2365 189.115 80.0776 189.474 80.0043C189.534 79.9957 189.594 80.0111 189.643 80.047C189.691 80.083 189.723 80.1367 189.732 80.1963C189.741 80.2559 189.725 80.3166 189.689 80.3649C189.653 80.4132 189.6 80.4454 189.54 80.4543C189.258 80.5222 188.996 80.6546 188.775 80.8409C188.553 81.0273 188.377 81.2626 188.262 81.5283C188.243 81.5555 188.219 81.5786 188.192 81.5961C188.164 81.6137 188.133 81.6253 188.1 81.6303Z" fill="#263238"/>
<path d="M198.095 75.6001L197.777 77.7121C198.132 77.8931 198.406 78.201 198.543 78.5746C198.681 78.9482 198.673 79.3601 198.521 79.7281C197.783 81.5281 198.719 84.2941 200.063 85.4341C200.063 85.4341 200.123 84.6661 200.771 84.8641C201.419 85.0621 201.131 89.0641 199.805 90.9781C201.497 89.2296 202.705 87.0708 203.309 84.7141C204.425 80.8261 204.311 77.9521 203.549 76.4161L198.095 75.6001Z" fill="#263238"/>
<path d="M203.94 85.4463C203.431 86.5561 202.503 87.4191 201.36 87.8463C199.842 88.3863 198.96 87.0603 199.296 85.5723C199.59 84.2463 200.73 82.3323 202.296 82.4463C203.862 82.5603 204.552 84.0843 203.94 85.4463Z" fill="#EBB376"/>
<path d="M192.462 89.586H192.408C192.39 89.5794 192.373 89.5691 192.358 89.5557C192.344 89.5423 192.332 89.5261 192.325 89.5081C192.317 89.4902 192.313 89.4708 192.313 89.4511C192.312 89.4315 192.316 89.4121 192.324 89.394C192.324 89.394 193.158 87.21 195.204 87.282C195.244 87.282 195.282 87.2978 195.31 87.326C195.338 87.3541 195.354 87.3922 195.354 87.432C195.355 87.4525 195.351 87.4729 195.344 87.4919C195.336 87.511 195.325 87.5281 195.31 87.5423C195.295 87.5565 195.278 87.5674 195.258 87.5743C195.239 87.5811 195.218 87.5837 195.198 87.582C193.398 87.522 192.612 89.484 192.6 89.502C192.587 89.5277 192.568 89.5493 192.543 89.5642C192.519 89.5791 192.491 89.5866 192.462 89.586Z" fill="#263238"/>
<path d="M190.584 75.6001C191.484 77.4301 197.088 75.4921 198.636 76.6801C200.184 77.8681 204.066 78.3421 204.066 78.3421C204.066 78.3421 206.16 74.5621 201.762 72.5221C194.004 68.9221 184.842 71.9221 187.644 77.5561C187.644 77.5561 187.146 75.1981 188.844 74.5561C188.844 74.5561 187.23 75.4561 188.772 77.5561L190.584 75.6001Z" fill="#263238"/>
<path d="M201.113 97.686L197.777 99.342L199.445 140.646L209.663 139.452L210.755 100.242L201.113 97.686Z" fill="#8A2BE2"/>
<path opacity="0.6" d="M210.755 100.248L210.479 110.202L210.269 117.57L209.657 139.452L199.445 140.646L197.777 99.348L201.113 97.686L210.755 100.248Z" fill="white"/>
<path d="M197.777 99.3423L201.695 96.2583L204.131 98.2683L201.113 102.132L197.777 99.3423Z" fill="#8A2BE2"/>
<path opacity="0.7" d="M197.777 99.3423L201.695 96.2583L204.131 98.2683L201.113 102.132L197.777 99.3423Z" fill="white"/>
<path d="M190.073 98.2441C188.423 100.53 181.421 140.646 181.421 140.646L176.321 140.046C176.321 140.046 178.679 101.01 181.949 98.3341L190.073 98.2441Z" fill="#8A2BE2"/>
<path opacity="0.6" d="M190.073 98.2441C188.423 100.53 181.421 140.646 181.421 140.646L176.321 140.046C176.321 140.046 178.679 101.01 181.949 98.3341L190.073 98.2441Z" fill="white"/>
<path d="M177.552 123.996C177.552 123.996 177.972 103.83 186.438 98.2441H188.838C188.838 98.2441 179.298 108.6 177.552 123.996Z" fill="#263238"/>
<path d="M191.268 96.2583L187.824 98.2443L187.644 100.512L190.656 98.3883L191.268 96.2583Z" fill="#8A2BE2"/>
<path opacity="0.7" d="M191.268 96.2583L187.824 98.2443L187.644 100.512L190.656 98.3883L191.268 96.2583Z" fill="white"/>
<path d="M210.756 129.492L208.356 131.802C208.356 131.802 206.466 132.822 206.19 133.602C205.542 135.402 207.39 140.118 207.834 140.664C208.434 141.438 213.582 140.664 213.582 140.664C213.582 140.664 212.34 135.654 211.62 134.376C211.352 133.886 211.01 133.441 210.606 133.056L212.868 130.932L210.756 129.492Z" fill="#EBB376"/>
<path opacity="0.2" d="M210.48 110.202L210.27 117.6C208.086 113.676 209.484 107.838 209.484 107.838C209.484 107.838 209.91 108.792 210.48 110.202Z" fill="black"/>
<path d="M211.926 103.374C215.484 103.668 225.282 116.724 224.916 119.574C224.55 122.424 212.154 132.846 212.154 132.846L209.058 130.11C209.058 130.11 219.12 120.264 219.258 119.166C219.396 118.068 210.48 108.546 210.48 108.546L211.926 103.374Z" fill="#8A2BE2"/>
<path d="M210.756 100.248C212.046 100.848 216.018 104.328 221.004 111.156L214.89 116.802L210.372 113.886C210.372 113.886 209.61 111.69 209.436 106.764C209.262 101.838 210.756 100.248 210.756 100.248Z" fill="#8A2BE2"/>
<path opacity="0.6" d="M210.756 100.248C212.046 100.848 216.018 104.328 221.004 111.156L214.89 116.802L210.372 113.886C210.372 113.886 209.61 111.69 209.436 106.764C209.262 101.838 210.756 100.248 210.756 100.248Z" fill="white"/>
</svg>
