<svg width="11" height="19" viewBox="0 0 11 19" fill="none" xmlns="http://www.w3.org/2000/svg">
<path d="M0.25 9.44922C0.25 9.27995 0.279297 9.1237 0.337891 8.98047C0.402995 8.83724 0.500651 8.70052 0.630859 8.57031L8.23828 1.12891C8.45964 0.914062 8.72656 0.806641 9.03906 0.806641C9.25391 0.806641 9.44596 0.858724 9.61523 0.962891C9.79102 1.06055 9.93099 1.19401 10.0352 1.36328C10.1393 1.53255 10.1914 1.72461 10.1914 1.93945C10.1914 2.24544 10.071 2.51888 9.83008 2.75977L2.97461 9.44922L9.83008 16.1387C10.071 16.3796 10.1914 16.6562 10.1914 16.9688C10.1914 17.1771 10.1393 17.3659 10.0352 17.5352C9.93099 17.7109 9.79102 17.8477 9.61523 17.9453C9.44596 18.0495 9.25391 18.1016 9.03906 18.1016C8.72656 18.1016 8.45964 17.9909 8.23828 17.7695L0.630859 10.3281C0.500651 10.1979 0.402995 10.0612 0.337891 9.91797C0.279297 9.77474 0.25 9.61849 0.25 9.44922Z" fill="white"/>
</svg>
