<svg width="78" height="67" viewBox="0 0 78 67" fill="none" xmlns="http://www.w3.org/2000/svg">
<g clip-path="url(#clip0_520_62466)">
<path d="M38.0498 26.4488C38.0498 26.4488 42.723 37.4855 43.8477 38.0696C44.9724 38.6537 77.9449 35.8072 77.9449 35.8072L77.0088 34.7711L76.9645 27.6284L78.1978 27.5744L65.6016 11.0776L37.1395 13.1454C37.1395 13.1454 35.6203 14.1914 35.4088 15.1066C35.1973 16.0218 35.2516 17.3904 35.2516 17.3904L38.0498 26.4488Z" fill="#263238"/>
<path d="M44.9493 38.2088C44.3219 38.2088 43.926 38.1833 43.816 38.1264C42.6813 37.538 38.1753 26.922 37.9852 26.4729V26.4658L35.1799 17.4031V17.3932C35.1799 17.379 35.1356 15.999 35.3385 15.0909C35.5414 14.1828 37.0349 13.1297 37.0992 13.0857L37.1149 13.0757H37.1335L65.6314 11.0037L65.6542 11.0349L78.3362 27.6383L77.0357 27.6965L77.08 34.7441L78.0932 35.8653L77.9503 35.8767C76.7341 35.9819 50.8015 38.2088 44.9493 38.2088ZM38.1181 26.4132C39.7316 30.2234 43.01 37.5423 43.8817 37.9942C44.7535 38.4462 66.3616 36.7223 77.7959 35.736L76.9385 34.7867V34.7597L76.8942 27.5487L78.0589 27.4976L65.5685 11.1515L37.1649 13.2136C37.0034 13.3287 35.6629 14.2993 35.4786 15.1222C35.2871 15.9749 35.3185 17.2539 35.3214 17.379L38.1181 26.4132Z" fill="#263238"/>
<path d="M76.9652 27.6284L44.6244 30.2178C44.1357 30.5384 43.7241 30.9623 43.419 31.4592C43.114 31.9562 42.9229 32.5139 42.8595 33.0928C42.6222 35.1009 43.4383 37.1402 44.0456 37.433C44.4881 37.6212 44.9611 37.7286 45.4419 37.7499L77.0095 34.7655L76.9652 27.6284Z" fill="#E0E0E0"/>
<path d="M45.4481 37.8222C44.9559 37.8016 44.4715 37.6918 44.019 37.4981C43.3659 37.1826 42.557 35.0822 42.7928 33.0926C42.859 32.5035 43.054 31.936 43.3641 31.4298C43.6742 30.9235 44.0918 30.4909 44.5878 30.1621L44.6178 30.1522L77.0357 27.55L77.0815 34.8335L77.0157 34.8406L45.4481 37.8222ZM44.6392 30.29C44.1658 30.6082 43.7673 31.0247 43.4713 31.5107C43.1752 31.9967 42.9886 32.5407 42.9243 33.1053C42.6856 35.1348 43.5359 37.1144 44.0676 37.3688C44.5011 37.5527 44.9644 37.6576 45.4352 37.6786L76.9285 34.7056L76.8842 27.7035L44.6392 30.29Z" fill="#263238"/>
<path d="M44.0533 2.69983L31.0069 20.6135C31.0069 20.6135 30.2924 21.3099 30.3295 23.0167C30.3667 24.7235 30.451 27.5075 30.9612 27.7065C31.4714 27.9054 69.2228 30.7477 69.2228 30.7477L77.9403 10.7279L77.2601 10.4437L77.4945 5.50803L78.0661 3.91065L45.0122 2.37012L44.0533 2.69983Z" fill="#8A2BE2"/>
<path d="M69.2675 30.8188H69.2161C67.674 30.7037 31.4504 27.9665 30.9359 27.7704C30.5229 27.6126 30.32 26.1915 30.2571 23.0195C30.2228 21.3013 30.9259 20.5936 30.9559 20.5637L44.008 2.64011L44.9998 2.29761H45.0141L78.1594 3.84382L77.5649 5.52221L77.3305 10.3911L78.0308 10.6895L78.0022 10.7563L69.2675 30.8188ZM44.0966 2.75948L31.0631 20.6547C31.0488 20.6703 30.3671 21.3652 30.4 23.0152C30.4214 24.1109 30.4886 27.4464 30.9859 27.6368C31.4761 27.7945 56.1483 29.6889 69.176 30.6767L77.8436 10.7648L77.1833 10.4806L77.4263 5.48242L77.9608 3.97315L45.0212 2.44114L44.0966 2.75948Z" fill="#263238"/>
<path d="M32.1799 21.1237C32.1799 21.1237 30.9994 20.7599 30.6636 21.8883C30.3277 23.0167 31.1538 27.1053 31.1538 27.1053C31.1538 27.1053 31.8583 27.3981 32.1827 27.4081C32.5071 27.418 68.8351 29.8027 68.8351 29.8027L77.2569 10.438L77.4941 5.50806L69.4368 22.8604L32.1799 21.1237Z" fill="white"/>
<path d="M68.8807 29.8765H68.8307C68.4677 29.8523 32.4984 27.4904 32.1797 27.4818C31.861 27.4733 31.155 27.1862 31.125 27.1749L31.0907 27.1592L31.0836 27.1223C31.0493 26.9546 30.259 23.0009 30.5963 21.8711C30.6336 21.7178 30.7022 21.5737 30.7979 21.4478C30.8935 21.3219 31.0141 21.2169 31.1522 21.1392C31.4777 20.9884 31.8469 20.9586 32.1926 21.0554L69.3923 22.7906L77.5826 5.14697L77.3225 10.4649L68.8807 29.8765ZM31.2151 27.0541C31.358 27.1123 31.9168 27.3284 32.184 27.3383C32.5027 27.3468 66.7085 29.5937 68.7892 29.7301L77.1867 10.4209L77.4054 5.87318L69.4824 22.9342H69.4338L32.1683 21.1932H32.1583C31.8469 21.1053 31.5142 21.13 31.2194 21.2629C31.0984 21.3323 30.9928 21.4254 30.9091 21.5365C30.8253 21.6477 30.7651 21.7746 30.732 21.9095C30.4233 22.9498 31.135 26.6419 31.2151 27.0541Z" fill="#263238"/>
<path d="M68.6036 22.8221L32.1799 21.1238C32.1799 21.1238 30.9994 20.76 30.6636 21.8884C30.3277 23.0168 31.1538 27.1054 31.1538 27.1054C31.1538 27.1054 31.8583 27.3982 32.1827 27.4081C32.5071 27.4181 68.8351 29.8028 68.8351 29.8028L68.7851 22.9812L68.6036 22.8221Z" fill="#E0E0E0"/>
<path d="M68.9079 29.8779H68.8307C68.4677 29.8537 32.4984 27.4918 32.1797 27.4833C31.861 27.4747 31.155 27.1877 31.125 27.1763L31.0907 27.1606L31.0836 27.1237C31.0493 26.956 30.259 23.0024 30.5963 21.8725C30.6336 21.7192 30.7022 21.5751 30.7979 21.4492C30.8935 21.3233 31.0141 21.2183 31.1522 21.1406C31.4777 20.9898 31.8469 20.96 32.1926 21.0568L68.6349 22.7622L68.8593 22.9526V22.9853L68.9079 29.8779ZM31.2151 27.0541C31.358 27.1123 31.9168 27.3283 32.184 27.3383C32.5013 27.3468 66.4355 29.5752 68.7692 29.7273L68.7192 23.0109L68.5763 22.8929L32.1683 21.1932H32.1583C31.8469 21.1053 31.5142 21.13 31.2194 21.2629C31.0984 21.3323 30.9928 21.4254 30.9091 21.5365C30.8253 21.6477 30.7651 21.7745 30.732 21.9095C30.4233 22.9498 31.135 26.6419 31.2151 27.0541Z" fill="#263238"/>
<path d="M37.0729 57.8209C37.0729 57.8209 38.4077 59.7352 39.8025 59.7053C49.1003 59.5035 65.1349 63.9318 66.9956 63.9318C68.8563 63.9318 70.2397 63.7684 70.2397 63.3747C70.2397 62.9811 63.6958 37.2255 63.6958 37.2255L62.3981 36.8333L66.8541 61.9678C66.8541 61.9678 61.3249 61.1833 50.1549 59.3316C38.985 57.4798 39.4366 55.9208 38.0875 56.1965C36.7385 56.4722 37.0729 57.8209 37.0729 57.8209Z" fill="#8A2BE2"/>
<path d="M66.9953 64C66.4322 64 64.603 63.6035 62.072 63.055C56.1784 61.7759 46.3103 59.6328 39.8036 59.7863H39.765C38.3616 59.7863 37.0654 57.9502 37.0111 57.872L36.9997 57.8478C36.9997 57.8223 36.8454 57.2112 37.1626 56.7109C37.2662 56.559 37.4003 56.43 37.5565 56.3322C37.7127 56.2343 37.8876 56.1697 38.0701 56.1425C38.556 56.043 38.8218 56.168 39.402 56.4437C40.5096 56.9682 42.8133 58.0582 50.1632 59.2775C60.4128 60.9829 65.9749 61.7859 66.7638 61.8996L62.3035 36.7451L63.7512 37.1843L63.7612 37.2226C64.0285 38.2743 70.308 62.9882 70.308 63.3847C70.308 63.7812 69.1961 64 66.9953 64ZM40.4424 59.6314C46.962 59.6314 56.3927 61.6764 62.102 62.9157C64.6244 63.4628 66.4465 63.8579 66.9953 63.8579C69.3347 63.8579 70.1679 63.6078 70.1679 63.3719C70.1479 62.9896 65.892 46.1674 63.6312 37.2837L62.4879 36.937L66.9424 62.0545L66.8438 62.0403C66.7895 62.0317 61.186 61.233 50.1432 59.4026C42.7719 58.1818 40.4567 57.0847 39.3434 56.5603C38.7718 56.2917 38.5403 56.1794 38.103 56.2761C37.9386 56.3002 37.7811 56.358 37.6404 56.4459C37.4997 56.5337 37.3789 56.6496 37.2855 56.7862C37.1172 57.0976 37.0665 57.4585 37.1426 57.8038C37.2541 57.9587 38.5217 59.674 39.805 59.6513C40.0108 59.6328 40.2252 59.6314 40.4424 59.6314Z" fill="#263238"/>
<path d="M68.3222 63.2594C66.4044 63.1471 62.6729 62.1822 53.4595 60.302C44.246 58.4218 37.3477 57.2834 37.3477 57.2834L37.1533 57.9443C37.472 58.3607 38.6124 59.7349 39.7957 59.7094C49.1007 59.5033 65.1353 63.9316 66.996 63.9316C68.8567 63.9316 70.2401 63.7682 70.2401 63.3745C70.2401 63.3404 69.2783 63.3162 68.3222 63.2594Z" fill="#263238"/>
<path d="M66.9952 64.0002C66.4321 64.0002 64.6029 63.6037 62.0719 63.0552C56.1783 61.7761 46.3131 59.6344 39.8035 59.7865C38.583 59.8178 37.4298 58.4208 37.1025 57.993L37.0811 57.9646L37.3026 57.21L37.3654 57.2199C37.434 57.2313 44.3795 58.381 53.4801 60.2384C56.7785 60.9121 59.3609 61.4649 61.4345 61.9097C65.0873 62.6928 67.0995 63.1234 68.3257 63.1888C68.6901 63.2101 69.0574 63.2271 69.3704 63.2413C70.3107 63.2854 70.3107 63.2854 70.3107 63.3721C70.3107 63.7899 69.196 64.0002 66.9952 64.0002ZM40.4423 59.6316C46.9619 59.6316 56.3926 61.6767 62.1019 62.9159C64.6243 63.463 66.4464 63.8581 66.9952 63.8581C69.1546 63.8581 70.0306 63.645 70.1521 63.4318C70.0206 63.4176 69.6991 63.4034 69.3632 63.3877C69.0503 63.3735 68.683 63.3565 68.3171 63.3351C67.0809 63.2627 65.0645 62.8306 61.4045 62.0476C59.3309 61.6027 56.7485 61.0528 53.4515 60.3763C44.8125 58.6126 38.1186 57.4885 37.404 57.3691L37.2383 57.9376C37.5784 58.3767 38.6574 59.643 39.7692 59.643H39.8007C40.0107 59.633 40.2251 59.6316 40.4423 59.6316Z" fill="#263238"/>
<path d="M6.94428 36.2192C6.94428 36.2192 6.26689 36.4438 6.15542 36.9483C6.04395 37.4528 -0.445646 63.3178 0.174588 63.3818C0.794822 63.4457 34.9849 63.666 35.3793 63.2695C35.7737 62.873 37.0728 57.8208 37.0728 57.8208L34.1917 61.6963L4.51623 60.9672L8.07042 36.8417L6.94428 36.2192Z" fill="#8A2BE2"/>
<path d="M21.6018 63.5739C11.7995 63.5739 0.352349 63.4673 0.165136 63.4502C0.15111 63.449 0.137541 63.4447 0.125424 63.4375C0.113306 63.4304 0.102947 63.4207 0.0951084 63.409C-0.00778759 63.2669 -0.322192 62.8264 5.7844 38.1508C5.96161 37.4403 6.07022 36.9997 6.08308 36.9386C6.20313 36.4014 6.89053 36.1669 6.91911 36.1584L6.94912 36.1484L8.14815 36.8036L4.59967 60.8979L34.1594 61.6255L37.2305 57.4913L37.1405 57.8438C37.0076 58.3625 35.8272 62.923 35.4256 63.3181C35.2312 63.5156 28.8674 63.5739 21.6018 63.5739ZM0.208009 63.311C1.34129 63.3422 34.5895 63.5853 35.337 63.2115C35.6228 62.9273 36.496 59.7467 36.909 58.1621L34.228 61.769H34.1908L4.43389 61.0386L4.44532 60.959L7.99237 36.8818L6.93626 36.3048C6.8105 36.3531 6.31174 36.5691 6.2217 36.9713C6.20884 37.0338 6.10166 37.4673 5.92302 38.1864C0.756786 59.0674 0.109401 62.9372 0.208009 63.311Z" fill="#263238"/>
<path d="M35.3794 63.268C35.7752 62.8743 37.0729 57.825 37.0729 57.825L36.8814 58.0808L35.0978 62.6526L0.513361 63.096L0.168945 63.3802C0.794896 63.4357 34.9849 63.6602 35.3794 63.268Z" fill="#263238"/>
<path d="M21.6023 63.5738C11.8 63.5738 0.352847 63.4672 0.165633 63.4501L-0.00585938 63.4345L0.491471 63.0223H0.517193L35.0488 62.5804L36.8238 58.0398L37.231 57.4912L37.141 57.8437C37.0081 58.3624 35.8277 62.9229 35.4261 63.3179C35.2317 63.5155 28.8693 63.5738 21.6023 63.5738ZM0.365708 63.3137C3.08102 63.3549 34.5057 63.5752 35.3332 63.2128C35.619 62.9044 36.4536 59.9001 36.8781 58.2871L35.146 62.7211H35.0988L0.545777 63.1645L0.365708 63.3137Z" fill="#263238"/>
<path d="M7.73502 35.8882L6.94472 36.225L1.47266 62.5377L35.0982 62.65L37.3548 56.8715L5.75999 58.3865L8.69395 35.8328L7.73502 35.8882Z" fill="white"/>
<path d="M35.1455 62.7209H35.097L1.38281 62.6086L6.88203 36.1751L7.72949 35.8184L8.77417 35.7573L8.76417 35.8426L5.84021 58.3111L37.4607 56.7961L35.1455 62.7209ZM1.56145 62.4679L35.0512 62.5788L37.2506 56.9482L5.67729 58.4617L5.68872 58.3779L8.60983 35.908L7.75236 35.9591L7.00779 36.276L1.56145 62.4679Z" fill="#263238"/>
<path d="M3.72922 59.2279L2.19579 61.7646L1.47266 62.5377L35.0982 62.65L37.3548 56.8716L5.75999 58.3865L3.72922 59.2279Z" fill="#E0E0E0"/>
<path d="M35.1461 62.7208H35.0975L1.30762 62.6085L2.13793 61.7203L3.67994 59.1707L5.75644 58.318L37.4613 56.7988L35.1461 62.7208ZM1.63488 62.4678L35.0489 62.5787L37.2483 56.948L5.77502 58.4573L3.77426 59.2844L2.24512 61.8127L1.63488 62.4678Z" fill="#263238"/>
<path d="M37.3547 56.8716V51.71L10.2173 54.683L8.18652 58.2188L37.3547 56.8716Z" fill="#B8B8B8"/>
<path d="M8.05859 58.2957L10.1722 54.6177H10.2094L37.4254 51.6333V56.9399H37.3568L8.05859 58.2957ZM10.2609 54.7499L8.31155 58.1408L37.2825 56.8035V51.7896L10.2609 54.7499Z" fill="#263238"/>
<path d="M8.97454 33.0273L8.18567 33.1395L3.72827 59.2277C3.72827 59.2277 7.39537 58.9434 12.3601 57.7696C17.3248 56.5957 27.4244 54.7951 30.8099 55.301C34.1955 55.8069 37.0723 57.8207 37.0723 57.8207C37.0723 57.8207 41.2967 58.6549 46.0357 59.6085C50.7746 60.5621 57.8273 62.0245 62.5104 62.8076C67.1936 63.5906 68.3212 63.2552 68.3212 63.2552L62.5104 36.3812L61.946 36.2192L65.0485 60.5678C65.0485 60.5678 45.4812 55.1887 42.883 55.1887C40.2849 55.1887 38.8815 52.4388 33.6867 51.4298C28.4919 50.4208 22.6826 52.4388 17.7764 53.2773C14.7004 53.8174 11.6654 54.5677 8.693 55.5227L9.99064 33.0244L8.97454 33.0273Z" fill="#E0E0E0"/>
<path d="M67.3609 63.4045C66.5177 63.4045 65.0243 63.3051 62.5019 62.8816C58.5576 62.2264 52.944 61.0895 48.4338 60.17L46.0214 59.6825C41.3368 58.7403 37.1009 57.9033 37.058 57.8947L37.0309 57.8834C37.0023 57.8635 34.1269 55.8682 30.7985 55.3708C27.3601 54.8577 16.9362 56.7564 12.3773 57.8379C9.53431 58.5262 6.64607 59.0144 3.73404 59.2988L3.64258 59.3059L3.6583 59.2164L8.12427 33.0757L8.98174 32.9563H10.0736L8.77737 55.4248C11.7224 54.4872 14.7274 53.7475 17.7722 53.2106C19.0098 52.9988 20.286 52.716 21.6379 52.4162C25.658 51.5237 29.8139 50.6028 33.7082 51.3603C36.5193 51.9074 38.2328 52.9662 39.6104 53.816C40.7866 54.5436 41.7155 55.1178 42.8902 55.1178C45.3955 55.1178 63.2722 60.0037 64.9714 60.4699L61.8603 36.1184L62.5748 36.3301L62.5834 36.3713L68.4042 63.3093L68.3413 63.3278C68.3198 63.3349 68.0683 63.4045 67.3609 63.4045ZM37.1009 57.7583C37.3782 57.8137 41.5026 58.628 46.05 59.5433L48.4623 60.0307C52.9712 60.9445 58.5833 62.08 62.5219 62.7409C66.5334 63.4145 67.9368 63.2582 68.2384 63.2056L62.4491 36.4424L62.0303 36.3173L65.1329 60.6631L65.03 60.6347C64.8342 60.5807 45.4398 55.2585 42.8788 55.2585C41.6626 55.2585 40.718 54.6744 39.5233 53.9354C38.157 53.0912 36.455 52.0396 33.6639 51.4981C29.8053 50.7463 25.6609 51.6644 21.6594 52.5526C20.306 52.8525 19.0284 53.1367 17.7865 53.3499C14.7142 53.8906 11.6827 54.6394 8.71306 55.591L8.61302 55.6251L9.91494 33.0927H8.98031L8.24717 33.1965L3.81693 59.1439C6.69027 58.8545 9.54036 58.3702 12.3473 57.6943C17.0634 56.5759 27.3201 54.7099 30.8228 55.2244C34.0698 55.7147 36.888 57.6119 37.1009 57.7583Z" fill="#263238"/>
<path d="M5.75904 58.3864L3.72827 59.2278L8.18567 33.1396L9.99063 33.0273L5.75904 58.3864Z" fill="white"/>
<path d="M3.6355 59.3427L8.12433 33.0712L10.0765 32.9504L5.82347 58.4374L3.6355 59.3427ZM8.24581 33.2062L3.81557 59.1125L5.69056 58.3351L9.90072 33.1039L8.24581 33.2062Z" fill="#263238"/>
<path d="M36.6768 29.5483C36.6768 29.5483 37.1855 28.6502 41.8116 29.8326C46.4376 31.015 51.2823 33.9766 55.2323 34.5366C59.1824 35.0965 61.7734 35.6508 61.7734 35.6508L67.134 62.6939C67.134 62.6939 58.3921 61.5158 50.1547 59.3329C41.9173 57.15 38.426 55.689 37.3542 56.8714L36.6768 29.5483Z" fill="white"/>
<path d="M67.2258 62.7833L67.1272 62.7691C67.0401 62.7577 58.2839 61.5653 50.1365 59.4009C48.1758 58.8808 46.5037 58.4061 45.0303 57.9897C40.48 56.7007 38.1935 56.0541 37.4074 56.9196L37.2874 57.0503L36.6057 29.5311L36.6157 29.514C36.6372 29.4742 37.2031 28.5817 41.8291 29.7599C43.9413 30.2985 46.1021 31.2095 48.1915 32.0892C50.7167 33.1536 53.1005 34.1598 55.2427 34.4639C59.1485 35.0182 61.7666 35.5809 61.7924 35.5866L61.8381 35.5966L67.2258 62.7833ZM38.6222 56.3781C39.8655 56.3781 41.8906 56.9466 45.0746 57.8533C46.548 58.2697 48.2187 58.7429 50.1794 59.2645C57.8437 61.301 66.0611 62.4763 67.0472 62.6141L61.7166 35.7159C61.3508 35.6392 58.8412 35.1191 55.2227 34.6046C53.0619 34.2976 50.6696 33.2886 48.1358 32.2213C46.0521 31.3416 43.8956 30.4335 41.7934 29.8977C37.649 28.8404 36.8458 29.4714 36.7501 29.5723L37.4217 56.7164C37.6976 56.4819 38.0863 56.3781 38.6222 56.3781Z" fill="#263238"/>
<path d="M60.3211 39.0617C51.2148 37.0721 50.6675 37.0124 50.6475 37.011V36.8689C50.6589 36.8689 51.0462 36.8916 60.3468 38.9239L60.3211 39.0617Z" fill="#263238"/>
<path d="M60.5216 40.2285C59.3612 39.9741 58.2922 39.7382 57.3332 39.525C56.1199 39.2564 55.0724 39.0247 54.2378 38.8471C51.0852 38.1749 50.755 38.1465 50.7422 38.145L50.7493 38.0029C50.7608 38.0029 51.0566 38.0242 54.2678 38.7135C55.1024 38.8912 56.1499 39.1242 57.3633 39.3928L60.553 40.0949L60.5216 40.2285Z" fill="#263238"/>
<path d="M60.7216 41.3967C59.5125 41.1324 58.3192 40.8623 57.2645 40.6236C56.1398 40.3692 55.1695 40.1503 54.372 39.9798C51.2766 39.3204 50.8521 39.2834 50.835 39.282L50.845 39.1399C50.8607 39.1399 51.2737 39.174 54.402 39.8405C55.1995 40.0111 56.1713 40.2313 57.2974 40.4857C58.3507 40.7231 59.544 40.9931 60.753 41.2574L60.7216 41.3967Z" fill="#263238"/>
<path d="M60.9161 42.5647C59.7728 42.316 58.6081 42.046 57.4776 41.7845C56.3715 41.5301 55.3254 41.2885 54.5022 41.1123C51.4768 40.467 50.9294 40.4201 50.9294 40.4187L50.9394 40.2766C50.9609 40.2766 51.4897 40.3221 54.5394 40.973C55.364 41.1492 56.4101 41.3894 57.5176 41.6452C58.6481 41.9053 59.8171 42.1753 60.9475 42.424L60.9161 42.5647Z" fill="#263238"/>
<path d="M61.1229 43.7329C60.0825 43.5055 58.9106 43.2298 57.7788 42.9641C56.614 42.6912 55.5136 42.4311 54.6419 42.2535C51.6922 41.6239 51.0277 41.5642 51.0205 41.5642L51.0319 41.4221C51.0577 41.4221 51.7036 41.4804 54.6719 42.1142C55.5451 42.3004 56.6455 42.559 57.8159 42.8333C58.9478 43.0991 60.1182 43.3734 61.1572 43.6008L61.1229 43.7329Z" fill="#263238"/>
<path d="M61.3228 44.9014C60.3882 44.6968 59.2321 44.4211 58.1131 44.1539C56.9298 43.8697 55.705 43.5769 54.7775 43.3794C51.9036 42.7654 51.1219 42.6944 51.1133 42.6944L51.1261 42.5522C51.1576 42.5522 51.9193 42.6233 54.8075 43.2401C55.7365 43.439 56.9612 43.7318 58.1474 44.0146C59.2649 44.2818 60.4196 44.5589 61.3529 44.7621L61.3228 44.9014Z" fill="#263238"/>
<path d="M61.5231 46.0694C60.6956 45.8889 59.6138 45.626 58.4676 45.3475C57.2072 45.0405 55.8952 44.7236 54.912 44.5118C52.1181 43.9149 51.2163 43.8325 51.2078 43.8311L51.2192 43.689C51.2278 43.689 52.1353 43.7714 54.942 44.3711C55.9338 44.5843 57.24 44.9012 58.5019 45.2082C59.6452 45.4853 60.7271 45.7482 61.5531 45.9287L61.5231 46.0694Z" fill="#263238"/>
<path d="M61.723 47.2377C61.0085 47.0799 59.9524 46.8213 58.842 46.547C57.4972 46.2144 56.1066 45.8719 55.0477 45.6446C52.3324 45.0647 51.3105 44.9695 51.3005 44.9695L51.3134 44.8274C51.3234 44.8274 52.3509 44.924 55.0777 45.5053C56.1381 45.7327 57.53 46.0737 58.8762 46.4091C59.9867 46.6834 61.0342 46.9421 61.753 47.0984L61.723 47.2377Z" fill="#263238"/>
<path d="M61.923 48.4057C61.3056 48.2706 60.301 48.0191 59.2391 47.7533C57.87 47.4094 56.318 47.02 55.1819 46.777C52.5466 46.2086 51.4047 46.1076 51.3933 46.1062L51.4062 45.9641C51.4176 45.9641 52.5666 46.0735 55.2119 46.6392C56.3552 46.8822 57.9029 47.2716 59.2734 47.6155C60.3353 47.8812 61.3385 48.1328 61.9544 48.2678L61.923 48.4057Z" fill="#263238"/>
<path d="M62.1237 49.5783C61.6064 49.466 60.6946 49.2358 59.6514 48.9686C58.1908 48.5963 56.5359 48.1756 55.3183 47.9141C52.7631 47.3684 51.4997 47.249 51.4883 47.2476L51.5011 47.1055C51.514 47.1055 52.7873 47.2263 55.3483 47.7748C56.5688 48.0363 58.2251 48.457 59.6871 48.8293C60.7346 49.0951 61.6393 49.3267 62.1552 49.439L62.1237 49.5783Z" fill="#263238"/>
<path d="M62.3227 50.7434C61.9025 50.651 61.0608 50.4336 60.0861 50.182C58.6042 49.7997 56.7606 49.3293 55.4515 49.0451C52.9778 48.515 51.5929 48.3828 51.5801 48.3828L51.5929 48.2407C52.9009 48.3938 54.1999 48.6153 55.4844 48.9044C56.7963 49.1886 58.6413 49.6619 60.1247 50.0413C61.098 50.2929 61.9383 50.5103 62.357 50.6013L62.3227 50.7434Z" fill="#263238"/>
<path d="M62.5251 51.9116C62.1949 51.8391 61.4647 51.6472 60.54 51.4056C59.0452 51.0148 56.9973 50.479 55.5882 50.1763C54.296 49.8884 52.9894 49.6687 51.6738 49.5183L51.6881 49.3762C53.0089 49.5278 54.3207 49.7484 55.6182 50.0371C57.0301 50.3398 59.0795 50.877 60.5772 51.2692C61.499 51.5094 62.2278 51.6955 62.5551 51.7723L62.5251 51.9116Z" fill="#263238"/>
<path d="M62.7246 53.0798C62.4802 53.0258 61.8371 52.8553 61.0239 52.6392C59.429 52.2129 57.2454 51.6359 55.7219 51.309C54.4163 51.0221 53.0963 50.8039 51.7676 50.6553L51.7804 50.5132C53.115 50.6618 54.4406 50.8805 55.7519 51.1683C57.2782 51.4966 59.4676 52.0765 61.0611 52.5014C61.8728 52.716 62.5131 52.8865 62.7546 52.9391L62.7246 53.0798Z" fill="#263238"/>
<path d="M62.9259 54.248C62.7601 54.2111 62.2499 54.0746 61.5439 53.8842C60.0377 53.4778 57.5138 52.7984 55.8589 52.4417C54.5373 52.1567 53.2016 51.94 51.8574 51.7923L51.8717 51.6501C53.22 51.7973 54.5595 52.0151 55.8847 52.3025C57.5439 52.6577 60.0691 53.3385 61.5768 53.7449C62.2814 53.9354 62.7901 54.0718 62.9516 54.1073L62.9259 54.248Z" fill="#263238"/>
<path d="M63.1257 55.4159C63.03 55.3946 62.6612 55.2937 62.1039 55.1416C60.6033 54.7295 57.8166 53.9649 55.993 53.5784C54.6589 53.2942 53.3109 53.0793 51.9543 52.9346L51.9686 52.7925C53.3305 52.9382 54.6838 53.1545 56.023 53.4405C57.8437 53.8313 60.639 54.5973 62.141 55.0038C62.677 55.1459 63.0642 55.2568 63.1557 55.2767L63.1257 55.4159Z" fill="#263238"/>
<path d="M63.3256 56.5845C63.2885 56.576 63.0927 56.522 62.7397 56.4239C61.3706 56.0416 58.1665 55.1449 56.1286 54.7086C54.7829 54.4256 53.4235 54.2117 52.0557 54.0677L52.0685 53.9255C53.4444 54.071 54.8119 54.2858 56.1658 54.5693C58.208 55.0085 61.4163 55.9038 62.7854 56.2861C63.1013 56.3742 63.3299 56.4381 63.3642 56.4452L63.3256 56.5845Z" fill="#263238"/>
<path d="M63.5206 57.7511C63.4749 57.7383 58.8646 56.401 56.2622 55.8411C54.27 55.4147 52.1621 55.2072 52.1406 55.2044L52.1549 55.0623C53.5439 55.2059 54.9247 55.4188 56.2922 55.7004C58.8989 56.2688 63.5149 57.6004 63.5606 57.6132L63.5206 57.7511Z" fill="#263238"/>
<path d="M49.197 36.6115C47.4235 35.8 46.1759 35.0923 45.1741 34.5238C44.1323 33.9312 43.3077 33.4651 42.3988 33.1723C41.1108 32.7861 39.7807 32.5561 38.4373 32.4873V32.3452C39.7943 32.4141 41.138 32.6465 42.4388 33.0373C43.3634 33.3343 44.1923 33.8047 45.2427 34.4002C46.2431 34.9687 47.4864 35.6792 49.2542 36.4822L49.197 36.6115Z" fill="#263238"/>
<path d="M49.2929 37.7654C47.7023 37.0378 46.5304 36.3812 45.5886 35.854C44.4896 35.2386 43.6207 34.7526 42.6018 34.4243C40.6268 33.7862 38.6231 33.681 38.4688 33.7052L38.4316 33.5631C38.526 33.5347 40.5753 33.6171 42.6461 34.285C43.6793 34.6176 44.5525 35.1065 45.6586 35.7261C46.6462 36.2789 47.7666 36.9071 49.3529 37.6333L49.2929 37.7654Z" fill="#263238"/>
<path d="M49.3824 38.9194C47.9647 38.2699 46.9171 37.6915 45.9925 37.1799C44.8421 36.5432 43.9332 36.043 42.7999 35.6735C40.5819 34.9544 38.6026 34.8862 38.4811 34.9217L38.4382 34.7796C38.6097 34.7256 40.6591 34.8236 42.8442 35.5328C43.9875 35.9051 44.905 36.4097 46.0625 37.0506C46.9843 37.5594 48.029 38.1378 49.4424 38.7844L49.3824 38.9194Z" fill="#263238"/>
<path d="M49.4738 40.0749C48.219 39.5065 47.2501 38.9721 46.3955 38.5117C45.2522 37.8835 44.2518 37.342 42.9985 36.9328C40.6604 36.171 38.6983 36.0801 38.4882 36.1469L38.4453 36.0118C38.7311 35.9209 40.7533 36.0516 43.0428 36.7977C44.3104 37.2099 45.3079 37.7556 46.4641 38.3866C47.3215 38.8527 48.2833 39.3814 49.5324 39.9499L49.4738 40.0749Z" fill="#263238"/>
<path d="M49.5642 41.2302C48.4652 40.7271 47.5778 40.2482 46.7946 39.8261C45.6056 39.1837 44.5795 38.6309 43.1961 38.1775C40.6923 37.359 38.7659 37.2751 38.4958 37.3604L38.4529 37.2254C38.8002 37.1145 40.8495 37.2609 43.2418 38.0425C44.6366 38.4987 45.6713 39.0558 46.8632 39.701C47.6435 40.1274 48.5295 40.5992 49.6228 41.1009L49.5642 41.2302Z" fill="#263238"/>
<path d="M49.6542 42.3844C48.7024 41.9495 47.9321 41.5388 47.189 41.1409C45.9671 40.49 44.911 39.9272 43.3947 39.4355C40.7465 38.5657 38.8487 38.4762 38.5028 38.5828L38.46 38.4478C38.8958 38.3057 40.9338 38.4748 43.439 39.3005C44.9681 39.8021 46.08 40.3948 47.2561 41.0215C47.9978 41.418 48.7667 41.8273 49.7142 42.2607L49.6542 42.3844Z" fill="#263238"/>
<path d="M49.7449 43.5382C48.9317 43.1672 48.2429 42.8034 47.5784 42.4524C46.3822 41.8228 45.2532 41.2274 43.594 40.6802C40.8687 39.7835 38.9379 39.6627 38.5106 39.7991L38.4678 39.657C38.9794 39.495 40.9773 39.657 43.6383 40.5395C45.3089 41.0909 46.4436 41.6878 47.6398 42.3216C48.3043 42.6712 48.9917 43.0322 49.8006 43.4031L49.7449 43.5382Z" fill="#263238"/>
<path d="M49.8349 44.6936C49.1517 44.381 48.5487 44.0641 47.9584 43.7585C46.7465 43.1261 45.6004 42.5292 43.7911 41.9323C40.8829 40.9702 39.0136 40.8608 38.5177 41.0171L38.4749 40.8821C39.1165 40.6789 41.2145 40.9304 43.8369 41.7973C45.6576 42.3985 46.8609 43.0266 48.0256 43.6335C48.6101 43.9376 49.2146 44.2531 49.8949 44.5643L49.8349 44.6936Z" fill="#263238"/>
<path d="M49.9243 45.8476C49.3613 45.5904 48.8611 45.3317 48.3309 45.0589C46.9415 44.3088 45.4887 43.6811 43.9892 43.183C41.151 42.2422 39.166 42.0332 38.5243 42.2365L38.4814 42.1015C39.1674 41.884 41.1496 42.0929 44.035 43.0479C45.5412 43.5487 47.0006 44.1793 48.3966 44.9324C48.9254 45.2053 49.4241 45.4625 49.9844 45.7183L49.9243 45.8476Z" fill="#263238"/>
<path d="M50.0147 47.0015C49.5631 46.7955 49.1415 46.5752 48.6942 46.3521C47.2519 45.5875 45.7469 44.9461 44.1954 44.4349C41.0442 43.3875 39.1792 43.254 38.539 43.4558L38.4961 43.3208C39.1878 43.1019 41.0599 43.244 44.2411 44.2999C45.8019 44.8131 47.316 45.4573 48.7671 46.2256C49.2116 46.453 49.6332 46.6676 50.0819 46.8736L50.0147 47.0015Z" fill="#263238"/>
<path d="M50.1048 48.1571C49.7546 47.9965 49.4102 47.8217 49.0444 47.6384C47.5482 46.8618 45.9905 46.2087 44.3869 45.6857C40.4097 44.3626 38.972 44.5374 38.539 44.6753L38.4961 44.5332C39.4393 44.2361 41.603 44.6042 44.4312 45.545C46.0421 46.0693 47.6066 46.7252 49.1087 47.5062C49.4731 47.6895 49.8161 47.8629 50.1648 48.0221L50.1048 48.1571Z" fill="#263238"/>
<path d="M50.1977 49.3108C49.9376 49.1915 49.6675 49.0565 49.3816 48.9143C47.8389 48.1292 46.2355 47.4677 44.587 46.9361C40.8313 45.6841 39.2307 45.6784 38.549 45.8944L38.5061 45.7523C39.5065 45.4339 41.6316 45.7949 44.6327 46.7968C46.2876 47.3321 47.8971 47.9974 49.4459 48.7864C49.7318 48.9286 50.0004 49.0621 50.2577 49.1801L50.1977 49.3108Z" fill="#263238"/>
<path d="M50.2842 50.4665C50.1041 50.3826 49.9141 50.2888 49.694 50.1823C48.8194 49.7559 47.4974 49.0979 44.7821 48.1926C41.6752 47.1538 39.5802 46.7928 38.5526 47.1168L38.5098 46.9818C39.5802 46.6436 41.6467 46.9946 44.8279 48.0576C47.5517 48.9686 48.8794 49.6209 49.7569 50.0572C49.977 50.1652 50.1656 50.259 50.3442 50.3414L50.2842 50.4665Z" fill="#263238"/>
<path d="M50.374 51.6203C50.2611 51.5677 50.1339 51.5066 49.9853 51.4341C49.2121 51.0561 47.9174 50.4237 44.9834 49.4445C41.6964 48.3445 39.6542 47.9921 38.5624 48.3374L38.5195 48.1953C39.6414 47.84 41.7093 48.1953 45.0291 49.3038C47.9745 50.2901 49.275 50.9254 50.051 51.3048C50.1939 51.3773 50.3254 51.4384 50.4369 51.4896L50.374 51.6203Z" fill="#263238"/>
<path d="M50.4637 52.7745L50.2464 52.6708C49.6748 52.3979 48.3586 51.757 45.1788 50.6911C41.7032 49.5258 39.7253 49.1847 38.5677 49.5542L38.5234 49.4192C39.7139 49.0426 41.7175 49.3836 45.2245 50.5561C48.4129 51.6262 49.742 52.2686 50.3093 52.5457C50.3951 52.5884 50.4651 52.6225 50.5237 52.648L50.4637 52.7745Z" fill="#263238"/>
<path d="M50.5541 53.9297L50.4712 53.8899C49.3822 53.3669 47.6687 52.7118 45.3764 51.9415C41.7565 50.7264 39.7858 50.3867 38.5753 50.7705L38.531 50.6283C39.7915 50.2304 41.7236 50.5587 45.4222 51.8022C47.7202 52.5739 49.4394 53.2305 50.5327 53.7563L50.6141 53.7947L50.5541 53.9297Z" fill="#263238"/>
<path d="M50.6427 55.082C50.6312 55.082 49.4451 54.4951 45.575 53.1933C41.7593 51.9143 39.8586 51.5832 38.5824 51.9882L38.5381 51.8532C39.8529 51.4368 41.7722 51.7636 45.6208 53.0583C49.5037 54.3644 50.6955 54.9499 50.707 54.9556L50.6427 55.082Z" fill="#263238"/>
<path d="M36.6762 29.5484L37.3536 56.8715C37.3536 56.8715 35.3228 52.7203 29.9065 52.8923C24.4901 53.0642 12.5299 57.2126 10.6135 57.6048C8.69704 57.9971 5.75879 58.3893 5.75879 58.3893L8.97429 32.3012C8.97429 32.3012 23.1868 29.7175 26.1879 28.8193C29.1891 27.9212 31.7743 26.9718 33.6922 27.4167C35.6101 27.8615 36.6762 28.2026 36.6762 29.5484Z" fill="white"/>
<path d="M5.67773 58.4689L5.68917 58.3779L8.91038 32.24L8.96183 32.2301C9.10474 32.2045 23.2101 29.6408 26.1626 28.754C26.5494 28.6374 26.9305 28.5214 27.3059 28.4058C29.834 27.627 32.022 26.9548 33.7055 27.3499C35.5933 27.7918 36.7509 28.1343 36.7509 29.5498L37.4369 57.1984L37.2939 56.9056C37.2739 56.8644 35.2175 52.7956 29.9126 52.9619C25.9339 53.0855 18.4268 55.3608 13.9409 56.7194C12.3145 57.2126 11.1384 57.5721 10.6296 57.673C8.73175 58.0624 5.80207 58.4561 5.77063 58.4604L5.67773 58.4689ZM9.039 32.358L5.84208 58.304C6.3537 58.233 8.89323 57.8777 10.5967 57.5309C11.0998 57.4286 12.3331 57.0548 13.8951 56.5816C18.3882 55.2201 25.8997 52.942 29.9012 52.8169C34.5215 52.6748 36.7209 55.6891 37.2725 56.5901L36.6023 29.5484C36.6023 28.2367 35.5419 27.924 33.6683 27.4863C32.0162 27.0997 29.8511 27.7705 27.3431 28.5394C26.9686 28.6531 26.5885 28.771 26.1998 28.8875C23.3301 29.7488 9.98507 32.186 9.039 32.358Z" fill="#263238"/>
<path d="M22.8473 33.0849L12.2664 35.447L12.2978 35.5863L22.8788 33.2242L22.8473 33.0849Z" fill="#263238"/>
<path d="M11.9709 36.6814L11.9395 36.5392C14.2532 36.0205 18.6563 35.03 18.7806 34.9916C18.9235 34.9461 22.4191 34.173 22.5677 34.1389L22.5978 34.281C21.3416 34.5653 18.9349 35.0954 18.8235 35.1337C18.6663 35.1806 12.2439 36.6203 11.9709 36.6814Z" fill="#263238"/>
<path d="M11.8547 37.8492L11.8232 37.707C11.889 37.6914 18.4157 36.212 18.7201 36.1168C19.0245 36.0216 22.3958 35.2783 22.5401 35.2456L22.5716 35.3877C22.5359 35.3877 19.0445 36.1665 18.763 36.2546C18.4529 36.3612 12.1248 37.7824 11.8547 37.8492Z" fill="#263238"/>
<path d="M11.7409 39.0172L11.708 38.8751C11.7723 38.8609 18.2019 37.3857 18.6621 37.2422C19.0908 37.1086 22.3777 36.3824 22.5135 36.3525L22.545 36.4947C22.5107 36.5032 19.1265 37.2493 18.7049 37.3815C18.2405 37.5264 12.0053 38.9575 11.7409 39.0172Z" fill="#263238"/>
<path d="M11.6249 40.1869L11.592 40.0448C11.6564 40.0306 17.9887 38.5597 18.6018 38.3678C19.1735 38.1902 22.3518 37.4896 22.4876 37.4597L22.5176 37.6018C22.4847 37.6018 19.2078 38.3309 18.6447 38.5071C18.0259 38.7004 11.885 40.1258 11.6249 40.1869Z" fill="#263238"/>
<path d="M11.5085 41.354L11.4756 41.2119C11.5385 41.1977 17.7751 39.7324 18.5425 39.4923C19.2571 39.2706 22.3297 38.5941 22.4597 38.5657L22.4912 38.7078C22.4583 38.7149 19.29 39.4184 18.5854 39.6315C17.8123 39.8731 11.7657 41.2943 11.5085 41.354Z" fill="#263238"/>
<path d="M11.3922 42.5234L11.3594 42.3813C11.4208 42.3671 17.5603 40.9076 18.4821 40.6191C19.3395 40.3519 22.4021 39.6797 22.4321 39.6726L22.4636 39.8147C22.4321 39.8218 19.371 40.4926 18.5249 40.7569C17.5989 41.0511 11.4537 42.5078 11.3922 42.5234Z" fill="#263238"/>
<path d="M11.277 43.6915L11.2441 43.5494C11.3042 43.5352 17.3479 42.0799 18.4226 41.7445C19.4229 41.4333 22.3769 40.7852 22.4069 40.7795L22.4369 40.9217C22.4069 40.9288 19.4544 41.5754 18.4654 41.8838C17.3865 42.2206 11.3385 43.6759 11.277 43.6915Z" fill="#263238"/>
<path d="M11.1608 44.86L11.1279 44.7179C11.1865 44.7022 17.1302 43.2526 18.3635 42.8704C19.4982 42.5151 22.3507 41.8926 22.3793 41.8855L22.4108 42.0276C22.3807 42.0276 19.5354 42.6558 18.4093 43.0082C17.1716 43.3933 11.2208 44.8458 11.1608 44.86Z" fill="#263238"/>
<path d="M11.0474 46.025L11.0117 45.8829C11.0717 45.8687 16.9211 44.4234 18.3002 43.9899C19.5778 43.5906 22.3217 42.9951 22.3489 42.988L22.3803 43.1302C22.3531 43.1302 19.615 43.7313 18.3431 44.125C16.9597 44.5669 11.106 46.0137 11.0474 46.025Z" fill="#263238"/>
<path d="M10.9312 47.1962L10.8955 47.0541C10.9541 47.0399 16.7063 45.5988 18.2454 45.1185C19.6631 44.6751 22.2998 44.1024 22.327 44.0967L22.357 44.2388C22.3312 44.2388 19.7003 44.8158 18.2869 45.2563C16.7463 45.741 10.9884 47.182 10.9312 47.1962Z" fill="#263238"/>
<path d="M10.816 48.3643L10.7803 48.2221C10.8374 48.2079 16.4967 46.7726 18.1859 46.2439C19.7465 45.7564 22.2746 45.2093 22.3003 45.2036L22.3303 45.3457C22.3061 45.3457 19.7822 45.8957 18.2288 46.3818C16.5324 46.9133 10.8732 48.35 10.816 48.3643Z" fill="#263238"/>
<path d="M10.6998 49.5325L10.6641 49.3904C10.7198 49.3762 16.2805 47.9465 18.1254 47.3695C19.8275 46.8366 22.2499 46.315 22.2699 46.3093L22.2999 46.4514C22.2756 46.4514 19.8604 46.9773 18.164 47.5074C16.3191 48.0872 10.7541 49.5183 10.6998 49.5325Z" fill="#263238"/>
<path d="M10.5826 50.7008L10.5469 50.5587C10.6012 50.5445 16.0647 49.119 18.0654 48.4952C19.909 47.9182 22.2227 47.4208 22.2456 47.4165L22.2756 47.5586C22.2527 47.5586 19.9447 48.0589 18.1083 48.633C16.1047 49.2597 10.6383 50.6866 10.5826 50.7008Z" fill="#263238"/>
<path d="M10.4678 51.869L10.4307 51.7269C10.485 51.7112 15.8513 50.2915 18.0049 49.6179C19.99 48.9983 22.1965 48.5264 22.218 48.5208L22.248 48.6629C22.2265 48.6629 20.0271 49.1375 18.0478 49.7572C15.8984 50.4308 10.5221 51.8519 10.4678 51.869Z" fill="#263238"/>
<path d="M10.3526 53.0373L10.3154 52.8952C10.3683 52.881 15.6374 51.4655 17.9454 50.7435C20.0734 50.0784 22.1713 49.6322 22.1928 49.6279L22.2213 49.77C22.2013 49.77 20.1091 50.2191 17.9883 50.8814C15.6775 51.6076 10.4055 53.0231 10.3526 53.0373Z" fill="#263238"/>
<path d="M10.2374 54.2055L10.2002 54.0634C10.2516 54.0492 15.425 52.6422 17.8874 51.8691C20.1554 51.1585 22.1461 50.7322 22.1661 50.7322L22.1961 50.8743C22.1761 50.8743 20.1954 51.3006 17.9303 52.0112C15.4693 52.7801 10.2888 54.1913 10.2374 54.2055Z" fill="#263238"/>
<path d="M24.1254 32.7501L24.0811 32.608C24.4841 32.4801 33.9676 29.4957 35.4068 31.0689L35.301 31.1656C33.9233 29.6648 24.2225 32.7189 24.1254 32.7501Z" fill="#263238"/>
<path d="M24.0941 33.8829L24.0498 33.7479C24.0841 33.7365 27.4239 32.6706 30.3951 32.1149C31.6555 31.8819 34.6681 31.4271 35.4112 32.24L35.3055 32.3366C34.8239 31.808 32.9975 31.7781 30.4208 32.2542C27.4597 32.8085 24.127 33.8715 24.0941 33.8829Z" fill="#263238"/>
<path d="M24.0634 35.0155L24.0205 34.8805C24.0534 34.8692 27.4504 33.7735 30.3843 33.2334C32.9267 32.7758 34.9032 32.8426 35.4162 33.404L35.3105 33.5006C34.8374 32.9819 32.8667 32.9321 30.4101 33.3741C27.489 33.9113 24.0977 35.0042 24.0634 35.0155Z" fill="#263238"/>
<path d="M24.033 36.1484L23.9873 36.0134C24.023 36.002 27.48 34.8694 30.3711 34.3535C32.7878 33.9272 34.9114 34.0124 35.4202 34.5681L35.3144 34.6647C34.8443 34.1503 32.7306 34.0764 30.3969 34.4928C27.5158 35.0072 24.0673 36.1371 24.033 36.1484Z" fill="#263238"/>
<path d="M24.0023 37.2808L23.958 37.1386C23.9923 37.1273 27.5093 35.9633 30.3604 35.4645C32.6942 35.0566 34.9193 35.1703 35.4252 35.7246L35.3194 35.8212C34.9107 35.3736 32.9085 35.1632 30.3847 35.6038C27.5451 36.1083 24.0452 37.2694 24.0023 37.2808Z" fill="#263238"/>
<path d="M23.9725 38.415L23.9268 38.2799C23.9625 38.2672 27.5381 37.072 30.3492 36.5902C32.833 36.1638 34.9809 36.4054 35.4311 36.8957L35.3239 36.9924C34.9666 36.6001 32.9973 36.2818 30.3735 36.7309C27.5738 37.2141 24.0082 38.4022 23.9725 38.415Z" fill="#263238"/>
<path d="M23.9403 39.5476L23.8945 39.4126C23.9303 39.3998 27.5659 38.1733 30.337 37.7072C33.0037 37.2624 35.0487 37.6404 35.4346 38.0668L35.3288 38.1634C35.0044 37.8081 33.0666 37.4031 30.3598 37.8564C27.6016 38.3112 23.976 39.5348 23.9403 39.5476Z" fill="#263238"/>
<path d="M23.9088 40.6804L23.863 40.5454C23.9002 40.5326 27.5959 39.2763 30.324 38.8286C33.0522 38.381 35.0958 38.85 35.4388 39.2237L35.3331 39.3204C35.0172 38.975 32.9722 38.5387 30.3483 38.9679C27.6302 39.4141 23.9459 40.6676 23.9088 40.6804Z" fill="#263238"/>
<path d="M23.8789 41.8129L23.8318 41.6793C23.8689 41.6651 27.6246 40.379 30.3128 39.947C32.9795 39.5206 35.1003 40.0138 35.4433 40.3875L35.3347 40.4827C35.0489 40.1701 33.0024 39.657 30.3328 40.0862C27.6632 40.5154 23.9161 41.8001 23.8789 41.8129Z" fill="#263238"/>
<path d="M23.8477 42.9456L23.8005 42.812C23.8391 42.7978 27.6591 41.4818 30.3016 41.0654C33.0169 40.6391 35.1377 41.2075 35.4464 41.5514L35.3406 41.6481C35.1119 41.398 33.0998 40.7698 30.3216 41.2061C27.6891 41.6197 23.8863 42.9328 23.8477 42.9456Z" fill="#263238"/>
<path d="M23.8164 44.078L23.7693 43.9444C23.8079 43.9302 27.6822 42.5843 30.2903 42.185C33.1128 41.7516 35.205 42.4451 35.4523 42.7151L35.3465 42.8117C35.175 42.6241 33.24 41.8752 30.3118 42.3243C27.7179 42.7236 23.855 44.0652 23.8164 44.078Z" fill="#263238"/>
<path d="M23.7852 45.2122L23.738 45.0772C23.7781 45.0629 27.7124 43.6887 30.2776 43.3036C33.2545 42.8559 35.2724 43.6773 35.4567 43.872L35.351 43.9687C35.1981 43.7995 33.2073 43.0009 30.2991 43.4372C27.7467 43.8265 23.8252 45.198 23.7852 45.2122Z" fill="#263238"/>
<path d="M23.7586 46.3451L23.71 46.21C23.75 46.1973 27.7443 44.7889 30.2696 44.4222C33.225 43.9959 35.3 44.8628 35.4644 45.0433L35.3586 45.1399C35.2686 45.0404 33.335 44.1167 30.291 44.5629C27.7743 44.931 23.7943 46.3308 23.7586 46.3451Z" fill="#263238"/>
<path d="M23.7234 47.4779L23.6748 47.3443C23.7162 47.3287 27.7692 45.8976 30.2487 45.5409C33.1955 45.1145 35.2906 46.0226 35.4592 46.2074L35.3535 46.304C35.2377 46.1889 33.2613 45.2538 30.2687 45.6816C27.8049 46.0354 23.7591 47.4637 23.7234 47.4779Z" fill="#263238"/>
<path d="M23.6917 48.6103L23.6445 48.4767C23.6845 48.4625 27.799 47.0058 30.2413 46.6605C33.331 46.2341 35.3718 47.2644 35.469 47.371L35.3647 47.4677C35.2032 47.3256 33.1996 46.3961 30.2613 46.8011C27.8333 47.1451 23.7331 48.5961 23.6917 48.6103Z" fill="#263238"/>
<path d="M23.6619 49.7431L23.6133 49.6095C23.6547 49.5953 27.8277 48.1088 30.2301 47.7791C33.3112 47.3627 35.3749 48.4257 35.4749 48.5352L35.3691 48.6318C35.3591 48.6318 33.3998 47.4949 30.2501 47.9212C27.862 48.2467 23.7033 49.7289 23.6619 49.7431Z" fill="#263238"/>
<path d="M23.6306 50.8757L23.582 50.7421C23.6249 50.7264 27.8579 49.2115 30.2188 48.8946C33.41 48.4682 35.4436 49.6719 35.4637 49.6833L35.3893 49.8055C35.3693 49.7927 33.3772 48.6203 30.2374 49.0367C27.8922 49.3493 23.6721 50.8572 23.6306 50.8757Z" fill="#263238"/>
<path d="M48.3106 59.5164C48.3106 59.5164 47.8675 59.407 47.1787 59.2635L47.2087 59.1213C47.9004 59.2635 48.342 59.3743 48.352 59.3757L48.3106 59.5164Z" fill="#263238"/>
<path d="M46.6668 59.1595C46.0637 59.0416 45.5621 58.6124 45.0319 58.1647C44.3631 57.5963 43.6714 56.998 42.6996 56.9695C40.7912 56.9341 38.8926 57.2487 37.0989 57.8976L37.0432 57.9189L37.0117 57.8677C36.7929 57.536 36.5518 57.2193 36.29 56.9198L36.3972 56.8274C36.6513 57.1178 36.8867 57.424 37.1018 57.7441C38.8985 57.106 40.7963 56.7955 42.7039 56.8274C43.7257 56.8573 44.4374 57.467 45.1262 58.0567C45.6407 58.4973 46.1266 58.9094 46.6983 59.026L46.6668 59.1595Z" fill="#263238"/>
<path d="M35.9157 56.5078C35.5618 56.1401 35.1795 55.8003 34.7725 55.4917L34.8582 55.3794C35.2709 55.6918 35.658 56.0363 36.0158 56.4097L35.9157 56.5078Z" fill="#263238"/>
<path d="M34.7755 55.4917C34.2003 55.0518 33.5645 54.6962 32.8877 54.4358C29.9494 53.3273 26.6796 54.1601 26.3138 54.2581L26.2766 54.116C26.6439 54.0165 29.9551 53.1738 32.9363 54.2993C33.6255 54.5644 34.2729 54.9267 34.8584 55.3752L34.7755 55.4917Z" fill="#263238"/>
<path d="M17.9914 56.2815L17.96 56.1394C18.04 56.1209 25.9944 54.3544 29.3928 54.434C30.7178 54.4529 32.0309 54.6847 33.2815 55.1204L33.2329 55.254C31.9953 54.8229 30.6955 54.5949 29.3843 54.579C26.0044 54.5008 18.0714 56.2645 17.9914 56.2815Z" fill="#263238"/>
<path d="M34.5192 55.867C34.3098 55.7311 34.0894 55.6128 33.8604 55.5131L33.9189 55.3838C34.1551 55.4883 34.383 55.6104 34.6006 55.749L34.5192 55.867Z" fill="#263238"/>
<path d="M34.0499 58.0445L12.4551 59.0723L12.4619 59.2142L34.0568 58.1865L34.0499 58.0445Z" fill="#263238"/>
<path d="M36.0812 57.9451L34.9021 58.0012L34.9089 58.1432L36.088 58.0871L36.0812 57.9451Z" fill="#263238"/>
<path d="M19.1961 60.0518L17.9375 60.0835L17.9411 60.2256L19.1998 60.1939L19.1961 60.0518Z" fill="#263238"/>
<path d="M17.2156 60.1029L7.23218 60.3542L7.23579 60.4963L17.2192 60.245L17.2156 60.1029Z" fill="#263238"/>
<path d="M32.9606 60.8539L31.8516 60.887L31.8558 61.0291L32.9648 60.996L32.9606 60.8539Z" fill="#263238"/>
<path d="M30.9606 60.9118L16.8982 61.3313L16.9025 61.4734L30.9649 61.0539L30.9606 60.9118Z" fill="#263238"/>
<path d="M27.1463 59.6456L24.2012 59.7458L24.2061 59.8879L27.1512 59.7877L27.1463 59.6456Z" fill="#263238"/>
<path d="M35.2581 59.3701L27.9539 59.6187L27.9587 59.7607L35.2629 59.5121L35.2581 59.3701Z" fill="#263238"/>
<path d="M14.51 61.2518L13.4915 61.2795L13.4954 61.4216L14.5139 61.3938L14.51 61.2518Z" fill="#263238"/>
<path d="M12.8553 61.2969L3.37817 61.5552L3.38209 61.6972L12.8593 61.4389L12.8553 61.2969Z" fill="#263238"/>
<path d="M20.3464 30.2915C20.3464 30.2915 22.4472 27.5444 23.7763 26.4004C25.1054 25.2563 27.3734 23.4529 28.2951 23.4529C29.2169 23.4529 29.4456 24.0213 29.5042 24.2246C29.5628 24.4278 30.3331 27.3156 30.3331 27.4591C30.3331 27.6027 29.5285 27.8315 29.4756 27.6595C29.4227 27.4875 29.0726 25.0261 28.9297 24.5685C28.7868 24.1109 28.8139 23.8579 27.7206 24.3113C26.6274 24.7646 23.4047 28.2024 22.7416 29.0011C22.0785 29.7998 21.4469 30.6326 21.4469 30.6326C21.4469 30.6326 20.6637 30.2915 20.3464 30.2915Z" fill="#263238"/>
<path d="M21.4612 30.7235L21.4097 30.7008C21.4026 30.7008 20.6423 30.3625 20.3451 30.3625H20.2021L20.2893 30.2489C20.3108 30.2219 22.4101 27.4833 23.7192 26.3464C24.7496 25.4553 27.2577 23.3818 28.2838 23.3818C29.2227 23.3818 29.4899 23.9574 29.5614 24.2061C29.6014 24.3482 30.3974 27.2957 30.3974 27.4591C30.3974 27.6226 29.9158 27.7562 29.7872 27.7775C29.56 27.813 29.4285 27.7775 29.3956 27.6823C29.3728 27.6112 29.317 27.2659 29.2198 26.6604C29.0998 25.9015 28.934 24.8613 28.8483 24.5898L28.8168 24.4847C28.7697 24.3226 28.7339 24.2004 28.6439 24.1635C28.5153 24.1024 28.2337 24.1635 27.735 24.3766C26.6746 24.82 23.4877 28.1981 22.7846 29.0494C22.1314 29.841 21.4984 30.6695 21.4912 30.678L21.4612 30.7235ZM20.4794 30.2346C20.8009 30.3089 21.1144 30.4141 21.4155 30.5487C21.5584 30.3654 22.11 29.6477 22.6788 28.9599C23.309 28.1953 26.5503 24.7206 27.6807 24.2459C28.2409 24.0114 28.5296 23.9517 28.7054 24.0356C28.8483 24.1052 28.8997 24.263 28.954 24.4449C28.964 24.4775 28.974 24.5117 28.9855 24.5472C29.0741 24.8314 29.2327 25.8262 29.3613 26.6377C29.4385 27.1195 29.5042 27.5742 29.5314 27.6325C29.6062 27.6531 29.6852 27.6531 29.76 27.6325C29.9393 27.6128 30.1105 27.5477 30.2574 27.4435C30.2474 27.3014 29.4985 24.4989 29.4228 24.2388C29.347 23.9787 29.0955 23.5183 28.2795 23.5183C27.2791 23.5183 24.6024 25.7608 23.8078 26.4487C22.6559 27.4563 20.8724 29.7287 20.4794 30.2346Z" fill="#263238"/>
<path d="M55.905 33.0924C55.8379 32.9958 55.7478 32.8835 55.685 32.8679C55.5835 32.8423 54.9089 33.982 54.7432 34.2634C54.834 34.1494 54.9376 34.0459 55.0518 33.955C55.0518 34.0403 54.706 35.7286 54.3902 36.5302C54.0743 37.3317 54.1587 37.704 54.4759 37.6756C54.7932 37.6472 55.2233 36.2161 55.4763 35.4146C55.7016 34.6578 55.8453 33.8794 55.905 33.0924Z" fill="white"/>
<path d="M54.4427 37.7481C54.396 37.7504 54.3493 37.7412 54.307 37.7214C54.2646 37.7016 54.2278 37.6717 54.1998 37.6344C54.0569 37.4497 54.104 37.0659 54.3227 36.5046C54.5771 35.8608 54.8514 34.6329 54.9458 34.1497L54.7957 34.3117L54.3412 34.7978L54.6785 34.2222C55.536 32.7527 55.636 32.7769 55.6989 32.7925C55.7618 32.8082 55.819 32.8423 55.9604 33.0455L55.9747 33.0668V33.0924C55.9167 33.8852 55.773 34.6695 55.546 35.4316L55.4817 35.6348C55.1044 36.8116 54.7914 37.7126 54.4813 37.741L54.4427 37.7481ZM55.0558 33.8797L55.0772 33.8868L55.123 33.9039V33.955C55.123 34.0545 54.7728 35.7514 54.4556 36.5558C54.1798 37.255 54.2641 37.4823 54.3127 37.5506C54.331 37.5728 54.355 37.5897 54.3821 37.5994C54.4093 37.6092 54.4387 37.6115 54.467 37.606C54.7114 37.5832 55.1415 36.2417 55.3473 35.5979L55.4131 35.3932C55.6324 34.652 55.7722 33.8899 55.8304 33.1194C55.7922 33.0566 55.744 33.0004 55.6875 32.9531C55.4516 33.2442 55.2404 33.5541 55.0558 33.8797Z" fill="#263238"/>
<path d="M55.8873 32.4955C55.7715 31.9797 55.0298 32.6377 54.7068 33.0967C54.3838 33.5557 52.9519 35.0991 52.1459 35.8722C51.3398 36.6453 48.3187 39.2205 48.0014 39.4493C47.6842 39.6781 47.3112 40.0788 47.0811 40.1072C46.851 40.1357 46.2465 40.1072 45.9592 39.9353C45.672 39.7633 45.5305 39.4493 44.1457 38.706C42.7609 37.9627 36.7786 36.2446 36.347 36.219C35.9154 36.1934 35.5696 36.6197 34.9651 36.877C34.3606 37.1342 33.3545 37.191 32.9229 36.8187C32.4913 36.4464 31.9725 35.5027 31.6853 34.8163C31.398 34.1299 30.9364 33.9636 30.5334 33.7291C30.1304 33.4946 25.2972 31.387 24.404 31.0929C23.5108 30.7987 22.6204 30.6068 22.2174 30.5784C21.9569 30.5635 21.6955 30.5826 21.44 30.6353C21.44 30.6353 21.3828 30.7205 21.1542 30.55C20.9255 30.3794 20.1752 30.0625 19.9451 30.5201C19.715 30.9777 19.3735 32.0379 19.5707 32.4387L19.7722 32.8395C19.7722 32.8395 19.5707 35.4146 19.6579 36.3014C19.7451 37.1882 20.4353 38.3336 21.0098 39.0201C21.5843 39.7065 23.8881 40.9941 25.583 41.3948C27.2779 41.7956 28.3169 41.5668 28.777 41.2527C29.2372 40.9386 30.6477 39.364 30.9936 38.9916C31.3394 38.6193 31.3094 38.3905 32.4313 38.7344C33.5531 39.0783 33.9576 39.8784 34.1591 40.4796C34.3606 41.0807 35.108 43.4839 35.7125 44.257C36.4692 45.2727 37.4816 46.0722 38.6479 46.5749C40.1156 47.2045 41.0931 47.6905 42.4751 47.52C43.857 47.3495 44.6044 46.7185 45.036 45.9738C45.4676 45.2291 45.7506 43.7426 45.8935 43.2835C46.012 42.9791 46.2234 42.7192 46.498 42.5403C46.498 42.5403 47.0697 42.283 47.2469 41.8823C47.4241 41.4815 48.7717 40.2508 48.7717 40.2508C48.7717 40.2508 50.9583 38.534 51.7929 37.589C52.6275 36.6439 55.0569 33.8684 55.0569 33.9551C55.0569 34.0418 54.7111 35.7287 54.3953 36.5302C54.0794 37.3317 54.1637 37.7041 54.481 37.6757C54.7983 37.6472 55.2284 36.2161 55.4814 35.4146C55.7343 34.6131 56.0016 33.01 55.8873 32.4955ZM31.4266 37.2138C31.3754 37.387 31.2978 37.5514 31.1965 37.7012C31.0236 37.9585 29.8717 39.7903 29.1529 40.3616C28.434 40.9329 27.5995 41.4204 26.7348 41.3351C25.8702 41.2499 23.6565 40.4199 22.0188 39.1323C20.381 37.8448 20.1481 36.155 20.321 34.525C20.4939 32.8949 21.0698 31.7764 21.933 31.6059C22.7962 31.4354 25.6487 32.1488 27.6023 33.1791C29.5559 34.2095 31.228 35.4686 31.3423 35.8978C31.4566 36.327 31.4266 37.2138 31.4266 37.2138ZM45.2104 43.0831C45.0375 44.5711 44.693 45.4309 44.1743 46.1173C43.6555 46.8037 43.0524 47.1192 41.4404 46.97C39.8283 46.8208 38.6208 46.2253 37.4975 45.4252C36.3742 44.6251 36.0012 43.5649 35.5696 42.563C35.138 41.5611 34.3906 39.5587 34.8222 38.2995C35.2538 37.0404 36.52 37.3559 36.52 37.3559C36.52 37.3559 37.5846 37.5847 37.6632 37.6131C37.7418 37.6415 44.11 39.5018 44.3972 39.931C44.6845 40.3602 45.3833 41.5952 45.2104 43.0831Z" fill="#263238"/>
<path d="M41.924 47.6253C40.8993 47.6253 40.0533 47.2601 38.9472 46.7811L38.6199 46.639C37.4426 46.1322 36.4206 45.3252 35.6574 44.2998C35.1057 43.5892 34.4498 41.5911 34.1682 40.7355C34.1382 40.6417 34.1111 40.5622 34.091 40.501C33.901 39.9326 33.5194 39.1396 32.4118 38.7957C31.4858 38.5114 31.3943 38.6237 31.1714 38.8895C31.1342 38.9349 31.0942 38.9833 31.0456 39.0316L30.8312 39.2646C30.3082 39.8331 29.2178 41.0297 28.8176 41.3026C28.5833 41.4632 27.6543 41.9492 25.5664 41.4561C23.8958 41.061 21.5506 39.7706 20.9532 39.0572C20.333 38.3182 19.667 37.1784 19.5841 36.3001C19.5013 35.4474 19.6785 33.1025 19.697 32.8439L19.5055 32.4616C19.2883 32.0352 19.6485 30.9409 19.88 30.4805C19.9118 30.4148 19.9584 30.3574 20.0161 30.3125C20.0739 30.2677 20.1412 30.2366 20.213 30.2218C20.5702 30.138 21.0375 30.3639 21.1948 30.4847C21.3177 30.5757 21.3734 30.5785 21.3877 30.5771L21.3963 30.5643L21.4234 30.5572C21.6859 30.5026 21.9546 30.483 22.2223 30.499C22.6596 30.5302 23.5857 30.7477 24.426 31.0177C25.3177 31.3019 30.1796 33.4336 30.5711 33.6553L30.7255 33.7406C31.0842 33.9353 31.4915 34.1542 31.753 34.7781C32.0546 35.4986 32.5705 36.4095 32.9706 36.7549C33.3708 37.1002 34.334 37.0576 34.9399 36.8004C35.1524 36.7033 35.3561 36.5883 35.5487 36.4564C35.8346 36.2745 36.0704 36.1196 36.3533 36.1367C36.8135 36.1665 42.8343 37.9089 44.182 38.6351C45.1652 39.1637 45.5211 39.4736 45.754 39.6782C45.8282 39.7478 45.9085 39.8106 45.9941 39.8658C46.2599 40.025 46.8516 40.0562 47.0717 40.0292C47.2046 40.0122 47.4204 39.8274 47.6304 39.6498C47.7391 39.5574 47.8519 39.4608 47.9591 39.384C48.265 39.1623 51.2818 36.5929 52.095 35.8127C52.8796 35.0594 54.3315 33.5033 54.6474 33.0471C54.866 32.7316 55.4148 32.1702 55.7435 32.2328C55.7994 32.2456 55.8499 32.2755 55.8879 32.3183C55.9258 32.3611 55.9493 32.4147 55.955 32.4715C56.0793 33.0272 55.7992 34.6587 55.5506 35.4275L55.4863 35.6307C55.109 36.8075 54.796 37.7085 54.4859 37.7369C54.4326 37.7462 54.3778 37.7407 54.3274 37.7212C54.277 37.7017 54.233 37.6687 54.2001 37.626C54.0571 37.4413 54.1043 37.0576 54.323 36.4962C54.5773 35.8525 54.8517 34.6232 54.9461 34.1414C54.533 34.5777 53.3226 35.9548 52.5552 36.8288L51.8535 37.6403C51.0246 38.5796 48.8438 40.2936 48.8223 40.3106C48.3621 40.7299 47.4504 41.6081 47.3189 41.9137C47.1374 42.34 46.5586 42.5987 46.5343 42.6086C46.276 42.7783 46.0764 43.0229 45.9627 43.3093C45.9269 43.4244 45.8798 43.6134 45.8198 43.8322C45.6583 44.4774 45.4153 45.4524 45.0881 46.0137C44.5607 46.9247 43.7061 47.4349 42.4742 47.594C42.2916 47.6156 42.1079 47.6261 41.924 47.6253ZM31.6187 38.493C31.9036 38.5121 32.1845 38.5705 32.4533 38.6663C33.6252 39.0245 34.0253 39.8601 34.2268 40.457C34.2468 40.5181 34.274 40.5991 34.304 40.6929C34.5827 41.5456 35.2343 43.5352 35.7688 44.2131C36.518 45.2199 37.5212 46.0121 38.6771 46.5097L39.0043 46.6518C40.2905 47.2061 41.2094 47.6068 42.4671 47.4505C43.6504 47.3084 44.4678 46.8096 44.9751 45.9398C45.291 45.3955 45.5325 44.432 45.6897 43.7939C45.7454 43.5736 45.7926 43.3846 45.8326 43.2638C45.9551 42.9423 46.1773 42.668 46.4671 42.4807C46.48 42.4736 47.0274 42.2249 47.1817 41.8554C47.3575 41.4447 48.668 40.2509 48.7237 40.1998C48.7494 40.1799 50.9188 38.4731 51.7406 37.5436L52.4423 36.7464C54.9818 33.8543 54.9961 33.86 55.0704 33.8884L55.1161 33.9055V33.9566C55.1161 34.0561 54.766 35.753 54.4487 36.5573C54.1729 37.2566 54.2572 37.4839 54.3058 37.5522C54.3241 37.5744 54.3481 37.5913 54.3753 37.601C54.4025 37.6108 54.4318 37.613 54.4602 37.6076C54.7045 37.5848 55.1347 36.2433 55.3405 35.5995L55.4062 35.3948C55.6706 34.5777 55.9164 33.0045 55.8078 32.5142C55.7849 32.4104 55.7392 32.3905 55.7078 32.3834C55.4963 32.345 55.0161 32.7643 54.756 33.1395C54.4287 33.6127 52.9853 35.1603 52.1836 35.9263C51.3819 36.6924 48.3393 39.2874 48.032 39.5091C47.9291 39.583 47.8191 39.6782 47.7119 39.7692C47.4761 39.9695 47.2532 40.1585 47.0774 40.1813C46.8673 40.2069 46.2313 40.1927 45.9098 39.9994C45.8166 39.9402 45.729 39.8727 45.6483 39.7976C45.4182 39.5958 45.068 39.2931 44.0991 38.7701C42.7615 38.0496 36.7849 36.32 36.3305 36.2902C36.0947 36.2731 35.8817 36.4124 35.6159 36.5872C35.4164 36.7241 35.205 36.843 34.9842 36.9425C34.3397 37.2168 33.3108 37.2566 32.8663 36.8728C32.4218 36.4891 31.9088 35.5569 31.6101 34.8434C31.3686 34.2664 31.0013 34.0689 30.6455 33.877L30.4897 33.7904C30.1024 33.5701 25.262 31.4483 24.3731 31.1641C23.6678 30.9243 22.9408 30.753 22.2023 30.6524C21.9553 30.6385 21.7075 30.6557 21.4649 30.7036C21.447 30.7161 21.4264 30.7244 21.4048 30.7278C21.2917 30.7299 21.1823 30.6875 21.1004 30.6098C20.9489 30.4961 20.5288 30.3043 20.243 30.3711C20.1918 30.3816 20.1437 30.4037 20.1026 30.4358C20.0614 30.4678 20.0283 30.5089 20.0057 30.5558C19.7771 31.0092 19.4484 32.0452 19.6313 32.4033L19.8414 32.8297V32.8481C19.8414 32.8751 19.6413 35.4275 19.7271 36.2987C19.8085 37.1514 20.4573 38.2556 21.0633 38.979C21.6464 39.6768 23.9529 40.9416 25.5993 41.331C27.6315 41.8099 28.5147 41.3509 28.7433 41.1974C29.1292 40.9345 30.211 39.7507 30.7312 39.1822C30.8227 39.0827 30.8956 39.0017 30.947 38.9477C30.9984 38.8937 31.0313 38.8511 31.067 38.8056C31.2214 38.6123 31.3329 38.493 31.6187 38.493ZM42.1355 47.081C41.9254 47.081 41.6925 47.0696 41.4338 47.0469C40.0161 46.9204 38.7885 46.4401 37.4552 45.4836C36.4148 44.7404 36.0089 43.7782 35.6159 42.8559C35.5787 42.7678 35.5416 42.6797 35.503 42.593C34.9314 41.2784 34.3469 39.4664 34.7527 38.2769C35.2015 36.9723 36.5234 37.2821 36.5363 37.2821C36.6434 37.3049 37.6052 37.5109 37.6924 37.5408L37.8439 37.5863C40.7364 38.4461 44.2334 39.5446 44.4635 39.8871C44.6936 40.2296 45.4639 41.5186 45.281 43.0819C45.1195 44.4703 44.8051 45.3884 44.2306 46.1501C43.7904 46.7428 43.2931 47.081 42.1355 47.081ZM36.1675 37.3944C35.7803 37.3944 35.1672 37.5365 34.8885 38.3281C34.4769 39.5304 35.1743 41.4831 35.6345 42.5404C35.6731 42.6285 35.7102 42.7166 35.7474 42.8047C36.1318 43.7129 36.5305 44.6522 37.5395 45.3728C38.85 46.3093 40.0547 46.7811 41.4467 46.9048C43.0559 47.0469 43.6275 46.7243 44.1163 46.0748C44.675 45.3344 44.9809 44.4376 45.1381 43.0762C45.3139 41.5598 44.575 40.3191 44.3449 39.9752C44.2863 39.8885 43.6418 39.4693 37.8024 37.7312L37.6467 37.6857C37.5866 37.6658 36.9321 37.5223 36.5034 37.4299C36.3932 37.4053 36.2805 37.3934 36.1675 37.3944ZM26.9398 41.4191C26.8687 41.4193 26.7976 41.416 26.7268 41.4092C25.8236 41.3182 23.6099 40.4769 21.9708 39.1907C20.1344 37.7483 20.1129 35.834 20.2458 34.5194C20.4288 32.7998 21.0361 31.714 21.915 31.535C22.7939 31.3559 25.6493 32.0722 27.6315 33.1153C29.5136 34.1101 31.2786 35.3977 31.4086 35.878C31.5244 36.3129 31.4972 37.1784 31.4972 37.2153V37.231C31.4438 37.4113 31.3628 37.5824 31.2571 37.7383C31.2385 37.7667 31.21 37.8122 31.1699 37.8719C30.8441 38.3722 29.8509 39.8985 29.1992 40.4158C28.3446 41.0979 27.6172 41.4191 26.9398 41.4191ZM22.2509 31.6529C22.1474 31.6514 22.044 31.66 21.9422 31.6785C21.1419 31.8377 20.5602 32.905 20.3887 34.535C20.1729 36.5701 20.7031 38.014 22.0594 39.0827C23.6157 40.3049 25.8351 41.1818 26.7411 41.2713C27.4457 41.3424 28.1974 41.0382 29.1077 40.3135C29.7408 39.8104 30.7241 38.2997 31.0485 37.8023L31.1356 37.6687C31.231 37.5278 31.3047 37.3736 31.3543 37.2111C31.3543 37.1215 31.3757 36.3157 31.27 35.9235C31.1642 35.5313 29.5236 34.2807 27.5643 33.2489C25.8008 32.3166 23.3413 31.6529 22.2509 31.6529Z" fill="#263238"/>
<path d="M33.5672 37.7555C33.4418 37.7562 33.3167 37.7428 33.1942 37.7157C32.1681 37.4898 31.7723 36.3869 31.5107 35.6565L31.4736 35.5527C31.2292 34.8777 30.9848 34.7 30.9834 34.7L31.062 34.5835C31.0734 34.5906 31.3478 34.7754 31.6079 35.5044L31.6451 35.6082C31.8966 36.3088 32.2767 37.3675 33.2257 37.5779C34.2146 37.7953 35.2264 36.9426 35.235 36.9341L35.3293 37.0421C35.2907 37.0719 34.4776 37.7555 33.5672 37.7555Z" fill="white"/>
<path d="M46.4513 41.0182C46.1134 41.005 45.7823 40.9192 45.4809 40.7667C45.4479 40.7383 45.4212 40.7035 45.4023 40.6644C45.2694 40.4398 44.8621 39.7605 43.16 38.9974C41.1464 38.0949 36.5418 36.9523 36.4961 36.9409L36.5304 36.7988C36.5761 36.8102 41.1936 37.9556 43.2186 38.8638C44.9607 39.6454 45.3866 40.3531 45.5252 40.5862C45.5409 40.6118 45.5581 40.6402 45.5638 40.6473C45.6224 40.6843 46.4613 41.0509 46.8586 40.7596L46.9443 40.8747C46.7992 40.9727 46.6267 41.0229 46.4513 41.0182Z" fill="white"/>
<path d="M30.7469 34.4385C30.7469 34.4385 30.1753 33.9709 27.7987 32.9036C26.2386 32.2204 24.6219 31.6726 22.9669 31.2665C22.7982 31.2224 22.6653 31.1883 22.571 31.1613C22.0612 31.0361 21.5263 31.0563 21.0276 31.2196C20.5917 31.3418 20.0615 30.8799 20.04 30.86L20.1344 30.7534C20.1344 30.7534 20.6288 31.1798 20.9918 31.0817C21.5159 30.9116 22.0776 30.8919 22.6124 31.0249C22.7068 31.0519 22.8397 31.086 23.0054 31.1286C24.6699 31.5364 26.2957 32.087 27.8644 32.7743C30.2639 33.853 30.8227 34.3106 30.8455 34.3305L30.7469 34.4385Z" fill="white"/>
<path d="M21.2199 38.8739C19.9137 37.7469 20.0138 35.8298 20.0152 35.8113L20.1581 35.8198C20.1581 35.8383 20.0609 37.6872 21.3128 38.7659L21.2199 38.8739Z" fill="white"/>
</g>
<defs>
<clipPath id="clip0_520_62466">
<rect width="78" height="67" fill="white"/>
</clipPath>
</defs>
</svg>
