<svg width="343" height="22" viewBox="0 0 343 22" fill="none" xmlns="http://www.w3.org/2000/svg">
<path d="M116.603 16.098C115.688 16.098 114.848 15.8833 114.083 15.454C113.317 15.0247 112.711 14.432 112.263 13.676C111.815 12.9107 111.591 12.0473 111.591 11.086C111.591 10.134 111.815 9.28 112.263 8.524C112.711 7.75867 113.317 7.16133 114.083 6.732C114.848 6.30267 115.688 6.088 116.603 6.088C117.527 6.088 118.367 6.30267 119.123 6.732C119.888 7.16133 120.49 7.75867 120.929 8.524C121.377 9.28 121.601 10.134 121.601 11.086C121.601 12.0473 121.377 12.9107 120.929 13.676C120.49 14.432 119.888 15.0247 119.123 15.454C118.357 15.8833 117.517 16.098 116.603 16.098ZM116.603 14.348C117.191 14.348 117.709 14.2173 118.157 13.956C118.605 13.6853 118.955 13.3027 119.207 12.808C119.459 12.3133 119.585 11.7393 119.585 11.086C119.585 10.4327 119.459 9.86333 119.207 9.378C118.955 8.88333 118.605 8.50533 118.157 8.244C117.709 7.98267 117.191 7.852 116.603 7.852C116.015 7.852 115.492 7.98267 115.035 8.244C114.587 8.50533 114.237 8.88333 113.985 9.378C113.733 9.86333 113.607 10.4327 113.607 11.086C113.607 11.7393 113.733 12.3133 113.985 12.808C114.237 13.3027 114.587 13.6853 115.035 13.956C115.492 14.2173 116.015 14.348 116.603 14.348ZM125.219 9.448C125.471 9.03733 125.797 8.71533 126.199 8.482C126.609 8.24867 127.076 8.132 127.599 8.132V10.19H127.081C126.465 10.19 125.998 10.3347 125.681 10.624C125.373 10.9133 125.219 11.4173 125.219 12.136V16H123.259V8.244H125.219V9.448ZM132.151 12.122C132.151 11.3193 132.314 10.6193 132.641 10.022C132.968 9.41533 133.42 8.94867 133.999 8.622C134.578 8.286 135.24 8.118 135.987 8.118C136.948 8.118 137.742 8.36067 138.367 8.846C139.002 9.322 139.426 9.994 139.641 10.862H137.527C137.415 10.526 137.224 10.2647 136.953 10.078C136.692 9.882 136.365 9.784 135.973 9.784C135.413 9.784 134.97 9.98933 134.643 10.4C134.316 10.8013 134.153 11.3753 134.153 12.122C134.153 12.8593 134.316 13.4333 134.643 13.844C134.97 14.2453 135.413 14.446 135.973 14.446C136.766 14.446 137.284 14.0913 137.527 13.382H139.641C139.426 14.222 139.002 14.8893 138.367 15.384C137.732 15.8787 136.939 16.126 135.987 16.126C135.24 16.126 134.578 15.9627 133.999 15.636C133.42 15.3 132.968 14.8333 132.641 14.236C132.314 13.6293 132.151 12.9247 132.151 12.122ZM144.721 16.126C143.974 16.126 143.302 15.9627 142.705 15.636C142.107 15.3 141.636 14.8287 141.291 14.222C140.955 13.6153 140.787 12.9153 140.787 12.122C140.787 11.3287 140.959 10.6287 141.305 10.022C141.659 9.41533 142.14 8.94867 142.747 8.622C143.353 8.286 144.03 8.118 144.777 8.118C145.523 8.118 146.2 8.286 146.807 8.622C147.413 8.94867 147.889 9.41533 148.235 10.022C148.589 10.6287 148.767 11.3287 148.767 12.122C148.767 12.9153 148.585 13.6153 148.221 14.222C147.866 14.8287 147.381 15.3 146.765 15.636C146.158 15.9627 145.477 16.126 144.721 16.126ZM144.721 14.418C145.075 14.418 145.407 14.334 145.715 14.166C146.032 13.9887 146.284 13.7273 146.471 13.382C146.657 13.0367 146.751 12.6167 146.751 12.122C146.751 11.3847 146.555 10.82 146.163 10.428C145.78 10.0267 145.309 9.826 144.749 9.826C144.189 9.826 143.717 10.0267 143.335 10.428C142.961 10.82 142.775 11.3847 142.775 12.122C142.775 12.8593 142.957 13.4287 143.321 13.83C143.694 14.222 144.161 14.418 144.721 14.418ZM154.702 8.132C155.626 8.132 156.373 8.426 156.942 9.014C157.512 9.59267 157.796 10.4047 157.796 11.45V16H155.836V11.716C155.836 11.1 155.682 10.6287 155.374 10.302C155.066 9.966 154.646 9.798 154.114 9.798C153.573 9.798 153.144 9.966 152.826 10.302C152.518 10.6287 152.364 11.1 152.364 11.716V16H150.404V8.244H152.364V9.21C152.626 8.874 152.957 8.61267 153.358 8.426C153.769 8.23 154.217 8.132 154.702 8.132ZM162.142 9.854V13.606C162.142 13.8673 162.203 14.0587 162.324 14.18C162.455 14.292 162.67 14.348 162.968 14.348H163.878V16H162.646C160.994 16 160.168 15.1973 160.168 13.592V9.854H159.244V8.244H160.168V6.326H162.142V8.244H163.878V9.854H162.142ZM166.482 7.32C166.137 7.32 165.847 7.21267 165.614 6.998C165.39 6.774 165.278 6.49867 165.278 6.172C165.278 5.84533 165.39 5.57467 165.614 5.36C165.847 5.136 166.137 5.024 166.482 5.024C166.827 5.024 167.112 5.136 167.336 5.36C167.569 5.57467 167.686 5.84533 167.686 6.172C167.686 6.49867 167.569 6.774 167.336 6.998C167.112 7.21267 166.827 7.32 166.482 7.32ZM167.448 8.244V16H165.488V8.244H167.448ZM173.883 8.132C174.807 8.132 175.553 8.426 176.123 9.014C176.692 9.59267 176.977 10.4047 176.977 11.45V16H175.017V11.716C175.017 11.1 174.863 10.6287 174.555 10.302C174.247 9.966 173.827 9.798 173.295 9.798C172.753 9.798 172.324 9.966 172.007 10.302C171.699 10.6287 171.545 11.1 171.545 11.716V16H169.585V8.244H171.545V9.21C171.806 8.874 172.137 8.61267 172.539 8.426C172.949 8.23 173.397 8.132 173.883 8.132ZM186.362 8.244V16H184.388V15.02C184.136 15.356 183.805 15.622 183.394 15.818C182.993 16.0047 182.554 16.098 182.078 16.098C181.472 16.098 180.935 15.972 180.468 15.72C180.002 15.4587 179.633 15.0807 179.362 14.586C179.101 14.082 178.97 13.4847 178.97 12.794V8.244H180.93V12.514C180.93 13.13 181.084 13.606 181.392 13.942C181.7 14.2687 182.12 14.432 182.652 14.432C183.194 14.432 183.618 14.2687 183.926 13.942C184.234 13.606 184.388 13.13 184.388 12.514V8.244H186.362ZM195.706 11.954C195.706 12.234 195.688 12.486 195.65 12.71H189.98C190.027 13.27 190.223 13.7087 190.568 14.026C190.914 14.3433 191.338 14.502 191.842 14.502C192.57 14.502 193.088 14.1893 193.396 13.564H195.51C195.286 14.3107 194.857 14.9267 194.222 15.412C193.588 15.888 192.808 16.126 191.884 16.126C191.138 16.126 190.466 15.9627 189.868 15.636C189.28 15.3 188.818 14.8287 188.482 14.222C188.156 13.6153 187.992 12.9153 187.992 12.122C187.992 11.3193 188.156 10.6147 188.482 10.008C188.809 9.40133 189.266 8.93467 189.854 8.608C190.442 8.28133 191.119 8.118 191.884 8.118C192.622 8.118 193.28 8.27667 193.858 8.594C194.446 8.91133 194.899 9.364 195.216 9.952C195.543 10.5307 195.706 11.198 195.706 11.954ZM193.676 11.394C193.667 10.89 193.485 10.4887 193.13 10.19C192.776 9.882 192.342 9.728 191.828 9.728C191.343 9.728 190.932 9.87733 190.596 10.176C190.27 10.4653 190.069 10.8713 189.994 11.394H193.676ZM211.625 8.244L209.357 16H207.243L205.829 10.582L204.415 16H202.287L200.005 8.244H201.993L203.365 14.152L204.849 8.244H206.921L208.377 14.138L209.749 8.244H211.625ZM213.879 7.32C213.534 7.32 213.245 7.21267 213.011 6.998C212.787 6.774 212.675 6.49867 212.675 6.172C212.675 5.84533 212.787 5.57467 213.011 5.36C213.245 5.136 213.534 5.024 213.879 5.024C214.225 5.024 214.509 5.136 214.733 5.36C214.967 5.57467 215.083 5.84533 215.083 6.172C215.083 6.49867 214.967 6.774 214.733 6.998C214.509 7.21267 214.225 7.32 213.879 7.32ZM214.845 8.244V16H212.885V8.244H214.845ZM219.264 9.854V13.606C219.264 13.8673 219.324 14.0587 219.446 14.18C219.576 14.292 219.791 14.348 220.09 14.348H221V16H219.768C218.116 16 217.29 15.1973 217.29 13.592V9.854H216.366V8.244H217.29V6.326H219.264V8.244H221V9.854H219.264ZM226.978 8.132C227.566 8.132 228.088 8.26267 228.546 8.524C229.003 8.776 229.358 9.154 229.61 9.658C229.871 10.1527 230.002 10.75 230.002 11.45V16H228.042V11.716C228.042 11.1 227.888 10.6287 227.58 10.302C227.272 9.966 226.852 9.798 226.32 9.798C225.778 9.798 225.349 9.966 225.032 10.302C224.724 10.6287 224.57 11.1 224.57 11.716V16H222.61V5.64H224.57V9.21C224.822 8.874 225.158 8.61267 225.578 8.426C225.998 8.23 226.464 8.132 226.978 8.132Z" fill="#8790A9"/>
<line y1="11.5" x2="104" y2="11.5" stroke="#8A2BE2"/>
<line x1="239" y1="11.5" x2="343" y2="11.5" stroke="#8A2BE2"/>
</svg>
