<svg width="300" height="300" viewBox="0 0 300 300" fill="none" xmlns="http://www.w3.org/2000/svg">
<path d="M80.7476 141C114.21 97.6682 117.156 26.4002 176.148 61.6982C206.148 79.6562 233.982 65.8982 240.132 94.4642C244.332 114.066 228.24 154.278 216.012 169.608C197.586 192.696 175.47 190.104 150.612 189.36C122.484 188.514 106.734 205.56 81.0116 210.498C62.2196 214.098 34.0256 197.598 36.3896 173.298C39.2456 143.508 66.4856 159.486 80.7476 141Z" fill="#8A2BE2"/>
<path opacity="0.9" d="M80.7476 141C114.21 97.6682 117.156 26.4002 176.148 61.6982C206.148 79.6562 233.982 65.8982 240.132 94.4642C244.332 114.066 228.24 154.278 216.012 169.608C197.586 192.696 175.47 190.104 150.612 189.36C122.484 188.514 106.734 205.56 81.0116 210.498C62.2196 214.098 34.0256 197.598 36.3896 173.298C39.2456 143.508 66.4856 159.486 80.7476 141Z" fill="white"/>
<path d="M150 256.536C214.249 256.536 266.334 253.495 266.334 249.744C266.334 245.993 214.249 242.952 150 242.952C85.7505 242.952 33.666 245.993 33.666 249.744C33.666 253.495 85.7505 256.536 150 256.536Z" fill="#F5F5F5"/>
<path d="M256.423 69.168H191.089V131.832H256.423V69.168Z" fill="#8A2BE2"/>
<path opacity="0.4" d="M256.423 69.168H191.089V131.832H256.423V69.168Z" fill="white"/>
<path opacity="0.7" d="M256.417 69.168H211.885V131.832H256.417V69.168Z" fill="white"/>
<path d="M254.19 72.3662H214.11V80.1242H254.19V72.3662Z" fill="#8A2BE2"/>
<path d="M254.19 82.0679H214.11V89.8259H254.19V82.0679Z" fill="#8A2BE2"/>
<path d="M254.19 91.77H214.11V99.528H254.19V91.77Z" fill="#8A2BE2"/>
<path d="M254.19 101.466H214.11V109.224H254.19V101.466Z" fill="#8A2BE2"/>
<path d="M254.19 111.168H214.11V118.926H254.19V111.168Z" fill="#8A2BE2"/>
<path d="M254.19 120.87H214.11V128.628H254.19V120.87Z" fill="#8A2BE2"/>
<path d="M209.557 72.3662H193.423V80.1242H209.557V72.3662Z" fill="#8A2BE2"/>
<path d="M209.557 82.0679H193.423V89.8259H209.557V82.0679Z" fill="#8A2BE2"/>
<path d="M209.557 91.77H193.423V99.528H209.557V91.77Z" fill="#8A2BE2"/>
<path d="M209.557 101.466H193.423V109.224H209.557V101.466Z" fill="#8A2BE2"/>
<path d="M209.557 111.168H193.423V118.926H209.557V111.168Z" fill="#8A2BE2"/>
<path d="M209.557 120.87H193.423V128.628H209.557V120.87Z" fill="#8A2BE2"/>
<path opacity="0.4" d="M202.482 73.9199H194.91V78.5759H202.482V73.9199Z" fill="#263238"/>
<path opacity="0.4" d="M202.482 83.6162H194.91V88.2722H202.482V83.6162Z" fill="#263238"/>
<path opacity="0.4" d="M202.482 93.3179H194.91V97.9739H202.482V93.3179Z" fill="#263238"/>
<path opacity="0.4" d="M202.482 103.02H194.91V107.676H202.482V103.02Z" fill="#263238"/>
<path opacity="0.4" d="M202.482 112.722H194.91V117.378H202.482V112.722Z" fill="#263238"/>
<path opacity="0.4" d="M202.482 122.424H194.91V127.08H202.482V122.424Z" fill="#263238"/>
<path opacity="0.7" d="M252.228 73.374H251.292V79.11H252.228V73.374Z" fill="white"/>
<path opacity="0.7" d="M250.428 73.374H249.492V79.11H250.428V73.374Z" fill="white"/>
<path opacity="0.7" d="M248.628 73.374H247.692V79.11H248.628V73.374Z" fill="white"/>
<path opacity="0.7" d="M246.829 73.374H245.893V79.11H246.829V73.374Z" fill="white"/>
<path opacity="0.7" d="M245.029 73.374H244.093V79.11H245.029V73.374Z" fill="white"/>
<path opacity="0.7" d="M252.228 83.0762H251.292V88.8122H252.228V83.0762Z" fill="white"/>
<path opacity="0.7" d="M250.428 83.0762H249.492V88.8122H250.428V83.0762Z" fill="white"/>
<path opacity="0.7" d="M248.628 83.0762H247.692V88.8122H248.628V83.0762Z" fill="white"/>
<path opacity="0.7" d="M246.829 83.0762H245.893V88.8122H246.829V83.0762Z" fill="white"/>
<path opacity="0.7" d="M245.029 83.0762H244.093V88.8122H245.029V83.0762Z" fill="white"/>
<path opacity="0.7" d="M252.228 92.7778H251.292V98.5138H252.228V92.7778Z" fill="white"/>
<path opacity="0.7" d="M250.428 92.7778H249.492V98.5138H250.428V92.7778Z" fill="white"/>
<path opacity="0.7" d="M248.628 92.7778H247.692V98.5138H248.628V92.7778Z" fill="white"/>
<path opacity="0.7" d="M246.829 92.7778H245.893V98.5138H246.829V92.7778Z" fill="white"/>
<path opacity="0.7" d="M245.029 92.7778H244.093V98.5138H245.029V92.7778Z" fill="white"/>
<path opacity="0.7" d="M252.228 102.48H251.292V108.222H252.228V102.48Z" fill="white"/>
<path opacity="0.7" d="M250.428 102.48H249.492V108.222H250.428V102.48Z" fill="white"/>
<path opacity="0.7" d="M248.628 102.48H247.692V108.222H248.628V102.48Z" fill="white"/>
<path opacity="0.7" d="M246.829 102.48H245.893V108.222H246.829V102.48Z" fill="white"/>
<path opacity="0.7" d="M245.029 102.48H244.093V108.222H245.029V102.48Z" fill="white"/>
<path opacity="0.7" d="M252.228 112.182H251.292V117.924H252.228V112.182Z" fill="white"/>
<path opacity="0.7" d="M250.428 112.182H249.492V117.924H250.428V112.182Z" fill="white"/>
<path opacity="0.7" d="M248.628 112.182H247.692V117.924H248.628V112.182Z" fill="white"/>
<path opacity="0.7" d="M246.829 112.182H245.893V117.924H246.829V112.182Z" fill="white"/>
<path opacity="0.7" d="M245.029 112.182H244.093V117.924H245.029V112.182Z" fill="white"/>
<path opacity="0.7" d="M252.228 121.884H251.292V127.62H252.228V121.884Z" fill="white"/>
<path opacity="0.7" d="M250.428 121.884H249.492V127.62H250.428V121.884Z" fill="white"/>
<path opacity="0.7" d="M248.628 121.884H247.692V127.62H248.628V121.884Z" fill="white"/>
<path opacity="0.7" d="M246.829 121.884H245.893V127.62H246.829V121.884Z" fill="white"/>
<path opacity="0.7" d="M245.029 121.884H244.093V127.62H245.029V121.884Z" fill="white"/>
<path opacity="0.2" d="M228.864 124.752C228.864 124.563 228.92 124.379 229.025 124.222C229.13 124.065 229.279 123.943 229.453 123.87C229.628 123.798 229.819 123.779 230.004 123.816C230.189 123.853 230.359 123.944 230.493 124.077C230.626 124.211 230.717 124.381 230.754 124.566C230.791 124.751 230.772 124.943 230.7 125.117C230.627 125.291 230.505 125.44 230.348 125.545C230.191 125.65 230.007 125.706 229.818 125.706C229.565 125.706 229.323 125.605 229.144 125.426C228.965 125.248 228.864 125.005 228.864 124.752Z" fill="white"/>
<path opacity="0.2" d="M222.864 124.752C222.864 124.563 222.92 124.379 223.025 124.222C223.13 124.065 223.279 123.943 223.453 123.87C223.628 123.798 223.819 123.779 224.004 123.816C224.189 123.853 224.359 123.944 224.493 124.077C224.626 124.211 224.717 124.381 224.754 124.566C224.791 124.751 224.772 124.943 224.7 125.117C224.627 125.291 224.505 125.44 224.348 125.545C224.191 125.65 224.007 125.706 223.818 125.706C223.565 125.706 223.323 125.605 223.144 125.426C222.965 125.248 222.864 125.005 222.864 124.752Z" fill="white"/>
<path opacity="0.4" d="M216.864 124.752C216.864 124.563 216.92 124.379 217.025 124.222C217.13 124.065 217.279 123.943 217.453 123.87C217.628 123.798 217.819 123.779 218.004 123.816C218.189 123.853 218.359 123.944 218.493 124.077C218.626 124.211 218.717 124.381 218.754 124.566C218.791 124.751 218.772 124.943 218.7 125.117C218.627 125.291 218.505 125.44 218.348 125.545C218.191 125.65 218.007 125.706 217.818 125.706C217.565 125.706 217.323 125.605 217.144 125.426C216.965 125.248 216.864 125.005 216.864 124.752Z" fill="white"/>
<path opacity="0.4" d="M228.864 115.05C228.864 114.862 228.92 114.677 229.025 114.52C229.13 114.363 229.279 114.241 229.453 114.169C229.628 114.097 229.819 114.078 230.004 114.115C230.189 114.151 230.359 114.242 230.493 114.376C230.626 114.509 230.717 114.679 230.754 114.864C230.791 115.049 230.772 115.241 230.7 115.415C230.627 115.59 230.505 115.739 230.348 115.843C230.191 115.948 230.007 116.004 229.818 116.004C229.565 116.004 229.323 115.904 229.144 115.725C228.965 115.546 228.864 115.303 228.864 115.05Z" fill="white"/>
<path opacity="0.2" d="M222.864 115.05C222.864 114.862 222.92 114.677 223.025 114.52C223.13 114.363 223.279 114.241 223.453 114.169C223.628 114.097 223.819 114.078 224.004 114.115C224.189 114.151 224.359 114.242 224.493 114.376C224.626 114.509 224.717 114.679 224.754 114.864C224.791 115.049 224.772 115.241 224.7 115.415C224.627 115.59 224.505 115.739 224.348 115.843C224.191 115.948 224.007 116.004 223.818 116.004C223.565 116.004 223.323 115.904 223.144 115.725C222.965 115.546 222.864 115.303 222.864 115.05Z" fill="white"/>
<path opacity="0.4" d="M216.864 115.05C216.864 114.862 216.92 114.677 217.025 114.52C217.13 114.363 217.279 114.241 217.453 114.169C217.628 114.097 217.819 114.078 218.004 114.115C218.189 114.151 218.359 114.242 218.493 114.376C218.626 114.509 218.717 114.679 218.754 114.864C218.791 115.049 218.772 115.241 218.7 115.415C218.627 115.59 218.505 115.739 218.348 115.843C218.191 115.948 218.007 116.004 217.818 116.004C217.565 116.004 217.323 115.904 217.144 115.725C216.965 115.546 216.864 115.303 216.864 115.05Z" fill="white"/>
<path opacity="0.2" d="M228.864 105.348C228.864 105.159 228.92 104.975 229.025 104.818C229.13 104.661 229.279 104.539 229.453 104.467C229.628 104.394 229.819 104.376 230.004 104.412C230.189 104.449 230.359 104.54 230.493 104.673C230.626 104.807 230.717 104.977 230.754 105.162C230.791 105.347 230.772 105.539 230.7 105.713C230.627 105.887 230.505 106.036 230.348 106.141C230.191 106.246 230.007 106.302 229.818 106.302C229.565 106.302 229.323 106.202 229.144 106.023C228.965 105.844 228.864 105.601 228.864 105.348Z" fill="white"/>
<path opacity="0.4" d="M222.864 105.348C222.864 105.159 222.92 104.975 223.025 104.818C223.13 104.661 223.279 104.539 223.453 104.467C223.628 104.394 223.819 104.376 224.004 104.412C224.189 104.449 224.359 104.54 224.493 104.673C224.626 104.807 224.717 104.977 224.754 105.162C224.791 105.347 224.772 105.539 224.7 105.713C224.627 105.887 224.505 106.036 224.348 106.141C224.191 106.246 224.007 106.302 223.818 106.302C223.565 106.302 223.323 106.202 223.144 106.023C222.965 105.844 222.864 105.601 222.864 105.348Z" fill="white"/>
<path opacity="0.2" d="M216.864 105.348C216.864 105.159 216.92 104.975 217.025 104.818C217.13 104.661 217.279 104.539 217.453 104.467C217.628 104.394 217.819 104.376 218.004 104.412C218.189 104.449 218.359 104.54 218.493 104.673C218.626 104.807 218.717 104.977 218.754 105.162C218.791 105.347 218.772 105.539 218.7 105.713C218.627 105.887 218.505 106.036 218.348 106.141C218.191 106.246 218.007 106.302 217.818 106.302C217.565 106.302 217.323 106.202 217.144 106.023C216.965 105.844 216.864 105.601 216.864 105.348Z" fill="white"/>
<path opacity="0.4" d="M228.864 95.6462C228.864 95.4568 228.921 95.2716 229.026 95.1144C229.132 94.9571 229.282 94.8349 229.457 94.7632C229.633 94.6916 229.826 94.6738 230.011 94.7121C230.197 94.7504 230.367 94.843 230.499 94.9783C230.632 95.1135 230.721 95.2851 230.756 95.4714C230.791 95.6576 230.769 95.85 230.694 96.0239C230.619 96.1979 230.494 96.3456 230.335 96.4483C230.176 96.5509 229.99 96.6038 229.8 96.6002C229.55 96.5955 229.312 96.4929 229.137 96.3145C228.962 96.1361 228.864 95.8961 228.864 95.6462Z" fill="white"/>
<path opacity="0.2" d="M222.864 95.6462C222.864 95.4568 222.921 95.2716 223.026 95.1144C223.132 94.9571 223.282 94.8349 223.457 94.7632C223.633 94.6916 223.826 94.6738 224.011 94.7121C224.197 94.7504 224.367 94.843 224.499 94.9783C224.632 95.1135 224.721 95.2851 224.756 95.4714C224.791 95.6576 224.769 95.85 224.694 96.0239C224.619 96.1979 224.494 96.3456 224.335 96.4483C224.176 96.5509 223.99 96.6038 223.8 96.6002C223.55 96.5955 223.312 96.4929 223.137 96.3145C222.962 96.1361 222.864 95.8961 222.864 95.6462Z" fill="white"/>
<path opacity="0.2" d="M216.864 95.6462C216.864 95.4568 216.921 95.2716 217.026 95.1144C217.132 94.9571 217.282 94.8349 217.457 94.7632C217.633 94.6916 217.826 94.6738 218.011 94.7121C218.197 94.7504 218.367 94.843 218.499 94.9783C218.632 95.1135 218.721 95.2851 218.756 95.4714C218.791 95.6576 218.769 95.85 218.694 96.0239C218.619 96.1979 218.494 96.3456 218.335 96.4483C218.176 96.5509 217.99 96.6038 217.8 96.6002C217.55 96.5955 217.312 96.4929 217.137 96.3145C216.962 96.1361 216.864 95.8961 216.864 95.6462Z" fill="white"/>
<path opacity="0.2" d="M228.864 85.9437C228.864 85.7551 228.92 85.5706 229.025 85.4137C229.13 85.2568 229.279 85.1346 229.453 85.0624C229.628 84.9902 229.819 84.9713 230.004 85.0081C230.189 85.0449 230.359 85.1357 230.493 85.2692C230.626 85.4026 230.717 85.5726 230.754 85.7576C230.791 85.9427 230.772 86.1345 230.7 86.3088C230.627 86.4831 230.505 86.6321 230.348 86.737C230.191 86.8418 230.007 86.8977 229.818 86.8977C229.565 86.8977 229.323 86.7972 229.144 86.6183C228.965 86.4394 228.864 86.1968 228.864 85.9437Z" fill="white"/>
<path opacity="0.4" d="M222.864 85.9437C222.864 85.7551 222.92 85.5706 223.025 85.4137C223.13 85.2568 223.279 85.1346 223.453 85.0624C223.628 84.9902 223.819 84.9713 224.004 85.0081C224.189 85.0449 224.359 85.1357 224.493 85.2692C224.626 85.4026 224.717 85.5726 224.754 85.7576C224.791 85.9427 224.772 86.1345 224.7 86.3088C224.627 86.4831 224.505 86.6321 224.348 86.737C224.191 86.8418 224.007 86.8977 223.818 86.8977C223.565 86.8977 223.323 86.7972 223.144 86.6183C222.965 86.4394 222.864 86.1968 222.864 85.9437Z" fill="white"/>
<path opacity="0.4" d="M216.864 85.9437C216.864 85.7551 216.92 85.5706 217.025 85.4137C217.13 85.2568 217.279 85.1346 217.453 85.0624C217.628 84.9902 217.819 84.9713 218.004 85.0081C218.189 85.0449 218.359 85.1357 218.493 85.2692C218.626 85.4026 218.717 85.5726 218.754 85.7576C218.791 85.9427 218.772 86.1345 218.7 86.3088C218.627 86.4831 218.505 86.6321 218.348 86.737C218.191 86.8418 218.007 86.8977 217.818 86.8977C217.565 86.8977 217.323 86.7972 217.144 86.6183C216.965 86.4394 216.864 86.1968 216.864 85.9437Z" fill="white"/>
<path opacity="0.4" d="M228.864 76.2481C228.863 76.0592 228.918 75.8741 229.022 75.7164C229.126 75.5588 229.275 75.4356 229.449 75.3624C229.623 75.2893 229.815 75.2696 230.001 75.3057C230.186 75.3418 230.357 75.4322 230.491 75.5654C230.625 75.6986 230.716 75.8685 230.753 76.0538C230.791 76.239 230.772 76.4311 230.7 76.6058C230.628 76.7804 230.506 76.9298 230.349 77.0349C230.192 77.14 230.007 77.1961 229.818 77.1961C229.566 77.1961 229.325 77.0964 229.146 76.9188C228.967 76.7412 228.866 76.5001 228.864 76.2481Z" fill="white"/>
<path opacity="0.2" d="M222.864 76.2481C222.863 76.0592 222.918 75.8741 223.022 75.7164C223.126 75.5588 223.275 75.4356 223.449 75.3624C223.623 75.2893 223.815 75.2696 224.001 75.3057C224.186 75.3418 224.357 75.4322 224.491 75.5654C224.625 75.6986 224.716 75.8685 224.753 76.0538C224.791 76.239 224.772 76.4311 224.7 76.6058C224.628 76.7804 224.506 76.9298 224.349 77.0349C224.192 77.14 224.007 77.1961 223.818 77.1961C223.566 77.1961 223.325 77.0964 223.146 76.9188C222.967 76.7412 222.866 76.5001 222.864 76.2481Z" fill="white"/>
<path opacity="0.4" d="M216.864 76.2481C216.863 76.0592 216.918 75.8741 217.022 75.7164C217.126 75.5588 217.275 75.4356 217.449 75.3624C217.623 75.2893 217.815 75.2696 218.001 75.3057C218.186 75.3418 218.357 75.4322 218.491 75.5654C218.625 75.6986 218.716 75.8685 218.753 76.0538C218.791 76.239 218.772 76.4311 218.7 76.6058C218.628 76.7804 218.506 76.9298 218.349 77.0349C218.192 77.14 218.007 77.1961 217.818 77.1961C217.566 77.1961 217.325 77.0964 217.146 76.9188C216.967 76.7412 216.866 76.5001 216.864 76.2481Z" fill="white"/>
<path d="M135.984 187.074H70.6504V249.738H135.984V187.074Z" fill="#8A2BE2"/>
<path opacity="0.4" d="M135.984 187.074H70.6504V249.738H135.984V187.074Z" fill="white"/>
<path opacity="0.7" d="M135.978 187.074H91.4463V249.738H135.978V187.074Z" fill="white"/>
<path d="M133.753 190.278H93.6729V198.036H133.753V190.278Z" fill="#8A2BE2"/>
<path d="M133.753 199.98H93.6729V207.738H133.753V199.98Z" fill="#8A2BE2"/>
<path d="M133.753 209.676H93.6729V217.434H133.753V209.676Z" fill="#8A2BE2"/>
<path d="M133.753 219.378H93.6729V227.136H133.753V219.378Z" fill="#8A2BE2"/>
<path d="M133.753 229.08H93.6729V236.838H133.753V229.08Z" fill="#8A2BE2"/>
<path d="M133.753 238.782H93.6729V246.54H133.753V238.782Z" fill="#8A2BE2"/>
<path d="M89.1184 190.278H72.9844V198.036H89.1184V190.278Z" fill="#8A2BE2"/>
<path d="M89.1184 199.98H72.9844V207.738H89.1184V199.98Z" fill="#8A2BE2"/>
<path d="M89.1184 209.676H72.9844V217.434H89.1184V209.676Z" fill="#8A2BE2"/>
<path d="M89.1184 219.378H72.9844V227.136H89.1184V219.378Z" fill="#8A2BE2"/>
<path d="M89.1184 229.08H72.9844V236.838H89.1184V229.08Z" fill="#8A2BE2"/>
<path d="M89.1184 238.782H72.9844V246.54H89.1184V238.782Z" fill="#8A2BE2"/>
<path opacity="0.4" d="M82.0447 191.826H74.4727V196.482H82.0447V191.826Z" fill="#263238"/>
<path opacity="0.4" d="M82.0447 201.528H74.4727V206.184H82.0447V201.528Z" fill="#263238"/>
<path opacity="0.4" d="M82.0447 211.23H74.4727V215.886H82.0447V211.23Z" fill="#263238"/>
<path opacity="0.4" d="M82.0447 220.932H74.4727V225.588H82.0447V220.932Z" fill="#263238"/>
<path opacity="0.4" d="M82.0447 230.634H74.4727V235.29H82.0447V230.634Z" fill="#263238"/>
<path opacity="0.4" d="M82.0447 240.336H74.4727V244.992H82.0447V240.336Z" fill="#263238"/>
<path opacity="0.7" d="M131.79 191.286H130.854V197.028H131.79V191.286Z" fill="white"/>
<path opacity="0.7" d="M129.991 191.286H129.055V197.028H129.991V191.286Z" fill="white"/>
<path opacity="0.7" d="M128.19 191.286H127.254V197.028H128.19V191.286Z" fill="white"/>
<path opacity="0.7" d="M126.39 191.286H125.454V197.028H126.39V191.286Z" fill="white"/>
<path opacity="0.7" d="M124.59 191.286H123.654V197.028H124.59V191.286Z" fill="white"/>
<path opacity="0.7" d="M131.79 200.988H130.854V206.724H131.79V200.988Z" fill="white"/>
<path opacity="0.7" d="M129.991 200.988H129.055V206.724H129.991V200.988Z" fill="white"/>
<path opacity="0.7" d="M128.19 200.988H127.254V206.724H128.19V200.988Z" fill="white"/>
<path opacity="0.7" d="M126.39 200.988H125.454V206.724H126.39V200.988Z" fill="white"/>
<path opacity="0.7" d="M124.59 200.988H123.654V206.724H124.59V200.988Z" fill="white"/>
<path opacity="0.7" d="M131.79 210.69H130.854V216.426H131.79V210.69Z" fill="white"/>
<path opacity="0.7" d="M129.991 210.69H129.055V216.426H129.991V210.69Z" fill="white"/>
<path opacity="0.7" d="M128.19 210.69H127.254V216.426H128.19V210.69Z" fill="white"/>
<path opacity="0.7" d="M126.39 210.69H125.454V216.426H126.39V210.69Z" fill="white"/>
<path opacity="0.7" d="M124.59 210.69H123.654V216.426H124.59V210.69Z" fill="white"/>
<path opacity="0.7" d="M131.79 220.392H130.854V226.134H131.79V220.392Z" fill="white"/>
<path opacity="0.7" d="M129.991 220.392H129.055V226.134H129.991V220.392Z" fill="white"/>
<path opacity="0.7" d="M128.19 220.392H127.254V226.134H128.19V220.392Z" fill="white"/>
<path opacity="0.7" d="M126.39 220.392H125.454V226.134H126.39V220.392Z" fill="white"/>
<path opacity="0.7" d="M124.59 220.392H123.654V226.134H124.59V220.392Z" fill="white"/>
<path opacity="0.7" d="M131.79 230.094H130.854V235.83H131.79V230.094Z" fill="white"/>
<path opacity="0.7" d="M129.991 230.094H129.055V235.83H129.991V230.094Z" fill="white"/>
<path opacity="0.7" d="M128.19 230.094H127.254V235.83H128.19V230.094Z" fill="white"/>
<path opacity="0.7" d="M126.39 230.094H125.454V235.83H126.39V230.094Z" fill="white"/>
<path opacity="0.7" d="M124.59 230.094H123.654V235.83H124.59V230.094Z" fill="white"/>
<path opacity="0.7" d="M131.79 239.79H130.854V245.532H131.79V239.79Z" fill="white"/>
<path opacity="0.7" d="M129.991 239.79H129.055V245.532H129.991V239.79Z" fill="white"/>
<path opacity="0.7" d="M128.19 239.79H127.254V245.532H128.19V239.79Z" fill="white"/>
<path opacity="0.7" d="M126.39 239.79H125.454V245.532H126.39V239.79Z" fill="white"/>
<path opacity="0.7" d="M124.59 239.79H123.654V245.532H124.59V239.79Z" fill="white"/>
<path opacity="0.2" d="M98.3348 194.154C98.3348 194.343 98.2788 194.527 98.174 194.684C98.0692 194.841 97.9202 194.963 97.7458 195.036C97.5715 195.108 97.3797 195.127 97.1946 195.09C97.0096 195.053 96.8396 194.962 96.7062 194.829C96.5728 194.695 96.4819 194.525 96.4451 194.34C96.4083 194.155 96.4272 193.963 96.4994 193.789C96.5716 193.615 96.6939 193.466 96.8507 193.361C97.0076 193.256 97.1921 193.2 97.3808 193.2C97.6338 193.2 97.8764 193.301 98.0553 193.48C98.2342 193.659 98.3348 193.901 98.3348 194.154Z" fill="white"/>
<path opacity="0.2" d="M104.335 194.154C104.335 194.343 104.279 194.527 104.174 194.684C104.069 194.841 103.92 194.963 103.746 195.036C103.572 195.108 103.38 195.127 103.195 195.09C103.01 195.053 102.84 194.962 102.706 194.829C102.573 194.695 102.482 194.525 102.445 194.34C102.408 194.155 102.427 193.963 102.499 193.789C102.572 193.615 102.694 193.466 102.851 193.361C103.008 193.256 103.192 193.2 103.381 193.2C103.634 193.2 103.876 193.301 104.055 193.48C104.234 193.659 104.335 193.901 104.335 194.154Z" fill="white"/>
<path opacity="0.4" d="M110.335 194.154C110.335 194.343 110.279 194.527 110.174 194.684C110.069 194.841 109.92 194.963 109.746 195.036C109.572 195.108 109.38 195.127 109.195 195.09C109.01 195.053 108.84 194.962 108.706 194.829C108.573 194.695 108.482 194.525 108.445 194.34C108.408 194.155 108.427 193.963 108.499 193.789C108.572 193.615 108.694 193.466 108.851 193.361C109.008 193.256 109.192 193.2 109.381 193.2C109.634 193.2 109.876 193.301 110.055 193.48C110.234 193.659 110.335 193.901 110.335 194.154Z" fill="white"/>
<path opacity="0.4" d="M98.3348 203.856C98.3348 204.045 98.2788 204.229 98.174 204.386C98.0692 204.543 97.9202 204.665 97.7458 204.737C97.5715 204.809 97.3797 204.828 97.1946 204.792C97.0096 204.755 96.8396 204.664 96.7062 204.53C96.5728 204.397 96.4819 204.227 96.4451 204.042C96.4083 203.857 96.4272 203.665 96.4994 203.491C96.5716 203.316 96.6939 203.167 96.8507 203.063C97.0076 202.958 97.1921 202.902 97.3808 202.902C97.6338 202.902 97.8764 203.002 98.0553 203.181C98.2342 203.36 98.3348 203.603 98.3348 203.856Z" fill="white"/>
<path opacity="0.2" d="M104.335 203.856C104.335 204.045 104.279 204.229 104.174 204.386C104.069 204.543 103.92 204.665 103.746 204.737C103.572 204.809 103.38 204.828 103.195 204.792C103.01 204.755 102.84 204.664 102.706 204.53C102.573 204.397 102.482 204.227 102.445 204.042C102.408 203.857 102.427 203.665 102.499 203.491C102.572 203.316 102.694 203.167 102.851 203.063C103.008 202.958 103.192 202.902 103.381 202.902C103.634 202.902 103.876 203.002 104.055 203.181C104.234 203.36 104.335 203.603 104.335 203.856Z" fill="white"/>
<path opacity="0.4" d="M110.335 203.856C110.335 204.045 110.279 204.229 110.174 204.386C110.069 204.543 109.92 204.665 109.746 204.737C109.572 204.809 109.38 204.828 109.195 204.792C109.01 204.755 108.84 204.664 108.706 204.53C108.573 204.397 108.482 204.227 108.445 204.042C108.408 203.857 108.427 203.665 108.499 203.491C108.572 203.316 108.694 203.167 108.851 203.063C109.008 202.958 109.192 202.902 109.381 202.902C109.634 202.902 109.876 203.002 110.055 203.181C110.234 203.36 110.335 203.603 110.335 203.856Z" fill="white"/>
<path opacity="0.2" d="M98.3348 213.558C98.3348 213.747 98.2788 213.931 98.174 214.088C98.0692 214.245 97.9202 214.367 97.7458 214.439C97.5715 214.512 97.3797 214.53 97.1946 214.494C97.0096 214.457 96.8396 214.366 96.7062 214.233C96.5728 214.099 96.4819 213.929 96.4451 213.744C96.4083 213.559 96.4272 213.367 96.4994 213.193C96.5716 213.019 96.6939 212.87 96.8507 212.765C97.0076 212.66 97.1921 212.604 97.3808 212.604C97.6338 212.604 97.8764 212.705 98.0553 212.883C98.2342 213.062 98.3348 213.305 98.3348 213.558Z" fill="white"/>
<path opacity="0.4" d="M104.335 213.558C104.335 213.747 104.279 213.931 104.174 214.088C104.069 214.245 103.92 214.367 103.746 214.439C103.572 214.512 103.38 214.53 103.195 214.494C103.01 214.457 102.84 214.366 102.706 214.233C102.573 214.099 102.482 213.929 102.445 213.744C102.408 213.559 102.427 213.367 102.499 213.193C102.572 213.019 102.694 212.87 102.851 212.765C103.008 212.66 103.192 212.604 103.381 212.604C103.634 212.604 103.876 212.705 104.055 212.883C104.234 213.062 104.335 213.305 104.335 213.558Z" fill="white"/>
<path opacity="0.2" d="M110.335 213.558C110.335 213.747 110.279 213.931 110.174 214.088C110.069 214.245 109.92 214.367 109.746 214.439C109.572 214.512 109.38 214.53 109.195 214.494C109.01 214.457 108.84 214.366 108.706 214.233C108.573 214.099 108.482 213.929 108.445 213.744C108.408 213.559 108.427 213.367 108.499 213.193C108.572 213.019 108.694 212.87 108.851 212.765C109.008 212.66 109.192 212.604 109.381 212.604C109.634 212.604 109.876 212.705 110.055 212.883C110.234 213.062 110.335 213.305 110.335 213.558Z" fill="white"/>
<path opacity="0.4" d="M98.3348 223.26C98.3348 223.449 98.2788 223.633 98.174 223.79C98.0692 223.947 97.9202 224.069 97.7458 224.142C97.5715 224.214 97.3797 224.233 97.1946 224.196C97.0096 224.159 96.8396 224.068 96.7062 223.935C96.5728 223.801 96.4819 223.631 96.4451 223.446C96.4083 223.261 96.4272 223.069 96.4994 222.895C96.5716 222.721 96.6939 222.572 96.8507 222.467C97.0076 222.362 97.1921 222.306 97.3808 222.306C97.6338 222.306 97.8764 222.407 98.0553 222.586C98.2342 222.764 98.3348 223.007 98.3348 223.26Z" fill="white"/>
<path opacity="0.2" d="M104.335 223.26C104.335 223.449 104.279 223.633 104.174 223.79C104.069 223.947 103.92 224.069 103.746 224.142C103.572 224.214 103.38 224.233 103.195 224.196C103.01 224.159 102.84 224.068 102.706 223.935C102.573 223.801 102.482 223.631 102.445 223.446C102.408 223.261 102.427 223.069 102.499 222.895C102.572 222.721 102.694 222.572 102.851 222.467C103.008 222.362 103.192 222.306 103.381 222.306C103.634 222.306 103.876 222.407 104.055 222.586C104.234 222.764 104.335 223.007 104.335 223.26Z" fill="white"/>
<path opacity="0.2" d="M110.335 223.26C110.335 223.449 110.279 223.633 110.174 223.79C110.069 223.947 109.92 224.069 109.746 224.142C109.572 224.214 109.38 224.233 109.195 224.196C109.01 224.159 108.84 224.068 108.706 223.935C108.573 223.801 108.482 223.631 108.445 223.446C108.408 223.261 108.427 223.069 108.499 222.895C108.572 222.721 108.694 222.572 108.851 222.467C109.008 222.362 109.192 222.306 109.381 222.306C109.634 222.306 109.876 222.407 110.055 222.586C110.234 222.764 110.335 223.007 110.335 223.26Z" fill="white"/>
<path opacity="0.2" d="M98.3348 232.962C98.3348 233.15 98.2788 233.335 98.174 233.492C98.0692 233.649 97.9202 233.771 97.7458 233.843C97.5715 233.915 97.3797 233.934 97.1946 233.897C97.0096 233.861 96.8396 233.77 96.7062 233.636C96.5728 233.503 96.4819 233.333 96.4451 233.148C96.4083 232.963 96.4272 232.771 96.4994 232.597C96.5716 232.422 96.6939 232.273 96.8507 232.169C97.0076 232.064 97.1921 232.008 97.3808 232.008C97.6338 232.008 97.8764 232.108 98.0553 232.287C98.2342 232.466 98.3348 232.709 98.3348 232.962Z" fill="white"/>
<path opacity="0.4" d="M104.335 232.962C104.335 233.15 104.279 233.335 104.174 233.492C104.069 233.649 103.92 233.771 103.746 233.843C103.572 233.915 103.38 233.934 103.195 233.897C103.01 233.861 102.84 233.77 102.706 233.636C102.573 233.503 102.482 233.333 102.445 233.148C102.408 232.963 102.427 232.771 102.499 232.597C102.572 232.422 102.694 232.273 102.851 232.169C103.008 232.064 103.192 232.008 103.381 232.008C103.634 232.008 103.876 232.108 104.055 232.287C104.234 232.466 104.335 232.709 104.335 232.962Z" fill="white"/>
<path opacity="0.4" d="M110.335 232.962C110.335 233.15 110.279 233.335 110.174 233.492C110.069 233.649 109.92 233.771 109.746 233.843C109.572 233.915 109.38 233.934 109.195 233.897C109.01 233.861 108.84 233.77 108.706 233.636C108.573 233.503 108.482 233.333 108.445 233.148C108.408 232.963 108.427 232.771 108.499 232.597C108.572 232.422 108.694 232.273 108.851 232.169C109.008 232.064 109.192 232.008 109.381 232.008C109.634 232.008 109.876 232.108 110.055 232.287C110.234 232.466 110.335 232.709 110.335 232.962Z" fill="white"/>
<path opacity="0.4" d="M98.3348 242.664C98.3348 242.853 98.2788 243.037 98.174 243.194C98.0692 243.351 97.9202 243.473 97.7458 243.545C97.5715 243.618 97.3797 243.636 97.1946 243.6C97.0096 243.563 96.8396 243.472 96.7062 243.339C96.5728 243.205 96.4819 243.035 96.4451 242.85C96.4083 242.665 96.4272 242.473 96.4994 242.299C96.5716 242.125 96.6939 241.976 96.8507 241.871C97.0076 241.766 97.1921 241.71 97.3808 241.71C97.6338 241.71 97.8764 241.81 98.0553 241.989C98.2342 242.168 98.3348 242.411 98.3348 242.664Z" fill="white"/>
<path opacity="0.2" d="M104.335 242.664C104.335 242.853 104.279 243.037 104.174 243.194C104.069 243.351 103.92 243.473 103.746 243.545C103.572 243.618 103.38 243.636 103.195 243.6C103.01 243.563 102.84 243.472 102.706 243.339C102.573 243.205 102.482 243.035 102.445 242.85C102.408 242.665 102.427 242.473 102.499 242.299C102.572 242.125 102.694 241.976 102.851 241.871C103.008 241.766 103.192 241.71 103.381 241.71C103.634 241.71 103.876 241.81 104.055 241.989C104.234 242.168 104.335 242.411 104.335 242.664Z" fill="white"/>
<path opacity="0.4" d="M110.335 242.664C110.335 242.853 110.279 243.037 110.174 243.194C110.069 243.351 109.92 243.473 109.746 243.545C109.572 243.618 109.38 243.636 109.195 243.6C109.01 243.563 108.84 243.472 108.706 243.339C108.573 243.205 108.482 243.035 108.445 242.85C108.408 242.665 108.427 242.473 108.499 242.299C108.572 242.125 108.694 241.976 108.851 241.871C109.008 241.766 109.192 241.71 109.381 241.71C109.634 241.71 109.876 241.81 110.055 241.989C110.234 242.168 110.335 242.411 110.335 242.664Z" fill="white"/>
<path d="M231.906 131.832H230.706V186.804H231.906V131.832Z" fill="#8A2BE2"/>
<path opacity="0.7" d="M196.399 219H189.679V217.8H196.399V219ZM182.479 219H175.279V217.8H182.479V219ZM168.079 219H160.879V217.8H168.079V219ZM153.679 219H146.479V217.8H153.679V219Z" fill="#8A2BE2"/>
<path d="M211.603 184.842L202.945 227.31C202.849 227.775 202.878 228.257 203.028 228.707C203.179 229.157 203.445 229.56 203.8 229.874C204.155 230.189 204.587 230.404 205.052 230.498C205.517 230.593 205.999 230.563 206.449 230.412L247.555 216.672C248.005 216.523 248.407 216.258 248.722 215.904C249.037 215.55 249.253 215.119 249.348 214.654C249.443 214.19 249.414 213.708 249.263 213.259C249.113 212.81 248.846 212.408 248.491 212.094L216.043 183.36C215.688 183.045 215.256 182.829 214.791 182.733C214.326 182.638 213.844 182.667 213.394 182.817C212.944 182.967 212.541 183.234 212.227 183.589C211.912 183.945 211.697 184.377 211.603 184.842Z" fill="#8A2BE2"/>
<path d="M208.039 223.65L214.861 190.2C214.901 190.013 214.99 189.84 215.118 189.698C215.246 189.555 215.409 189.449 215.59 189.388C215.772 189.328 215.966 189.315 216.153 189.353C216.341 189.39 216.516 189.475 216.661 189.6L242.215 212.226C242.359 212.354 242.468 212.518 242.529 212.701C242.59 212.885 242.602 213.081 242.563 213.27C242.524 213.459 242.436 213.635 242.307 213.779C242.179 213.924 242.014 214.032 241.831 214.092L209.461 224.892C209.28 224.951 209.086 224.962 208.9 224.925C208.713 224.887 208.54 224.801 208.396 224.676C208.253 224.55 208.144 224.39 208.082 224.21C208.019 224.03 208.004 223.837 208.039 223.65Z" fill="white"/>
<path d="M216.295 200.196L217.237 203.022L217.291 203.154L220.495 209.886C220.624 210.141 220.84 210.342 221.104 210.452C221.368 210.562 221.662 210.574 221.935 210.486L223.189 210.066C223.458 209.971 223.685 209.782 223.828 209.535C223.971 209.287 224.021 208.997 223.969 208.716L222.505 201.402L222.469 201.264L221.521 198.438C221.417 198.146 221.204 197.905 220.926 197.766C220.649 197.628 220.329 197.602 220.033 197.694L217.033 198.69C216.737 198.795 216.495 199.011 216.357 199.293C216.219 199.574 216.197 199.898 216.295 200.196Z" fill="#263238"/>
<path d="M225.816 213.282C225.949 213.681 225.96 214.109 225.849 214.515C225.738 214.92 225.509 215.283 225.192 215.558C224.875 215.833 224.483 216.008 224.066 216.06C223.649 216.113 223.227 216.04 222.851 215.853C222.475 215.665 222.164 215.37 221.956 215.005C221.748 214.64 221.652 214.222 221.682 213.803C221.712 213.384 221.865 212.983 222.122 212.651C222.38 212.319 222.73 212.071 223.128 211.938C223.393 211.849 223.673 211.813 223.951 211.832C224.23 211.852 224.502 211.926 224.752 212.051C225.002 212.176 225.224 212.349 225.407 212.56C225.59 212.771 225.729 213.017 225.816 213.282Z" fill="#263238"/>
<path d="M100.098 103.464C97.0983 104.334 83.3823 117.336 90.3543 124.068C97.3263 130.8 113.07 131.7 116.976 127.698C120.882 123.696 121.524 113.82 116.976 105.402C114.162 100.2 100.098 97.6681 100.098 103.464Z" fill="#263238"/>
<path opacity="0.5" d="M100.098 103.464C97.0983 104.334 83.3823 117.336 90.3543 124.068C97.3263 130.8 113.07 131.7 116.976 127.698C120.882 123.696 121.524 113.82 116.976 105.402C114.162 100.2 100.098 97.6681 100.098 103.464Z" fill="#13191C"/>
<path d="M120.186 140.256V141.12C120.186 141.45 120.186 141.786 120.186 142.122C120.186 142.794 120.27 143.478 120.354 144.156C120.514 145.508 120.769 146.848 121.116 148.164C121.464 149.462 121.92 150.728 122.478 151.95C122.76 152.55 123.078 153.15 123.408 153.72C123.564 154.008 123.75 154.29 123.924 154.566C124.008 154.71 124.11 154.842 124.206 154.98L124.458 155.352C124.458 155.388 124.392 155.316 124.224 155.262C124.099 155.209 123.961 155.196 123.828 155.226C123.732 155.298 124.146 155.226 124.59 154.998C125.713 154.352 126.746 153.561 127.662 152.646C129.792 150.555 131.795 148.339 133.662 146.01L133.698 145.968C133.983 145.657 134.367 145.455 134.785 145.398C135.203 145.341 135.628 145.433 135.985 145.657C136.342 145.881 136.61 146.224 136.74 146.625C136.87 147.026 136.856 147.461 136.698 147.852C136.024 149.336 135.267 150.78 134.43 152.178C133.587 153.601 132.655 154.97 131.64 156.276C131.105 156.964 130.533 157.621 129.924 158.244C129.261 158.94 128.529 159.567 127.74 160.116C126.681 160.882 125.44 161.358 124.14 161.496C123.225 161.58 122.303 161.427 121.464 161.052C120.679 160.695 119.981 160.171 119.418 159.516L118.956 158.964C118.812 158.79 118.662 158.622 118.53 158.442C118.26 158.088 117.984 157.734 117.732 157.362C117.214 156.632 116.741 155.87 116.316 155.082C115.878 154.302 115.5 153.492 115.116 152.682C114.732 151.872 114.468 151.026 114.198 150.186C113.669 148.507 113.291 146.785 113.07 145.038C112.968 144.168 112.896 143.298 112.86 142.41C112.86 141.972 112.86 141.528 112.86 141.072V140.388V140.028L112.896 139.602C112.943 138.647 113.368 137.75 114.076 137.108C114.784 136.466 115.719 136.132 116.673 136.179C117.628 136.226 118.525 136.65 119.167 137.359C119.809 138.067 120.143 139.001 120.096 139.956L120.186 140.256Z" fill="#7F3E3B"/>
<path d="M142.974 144L141.72 143.496C140.886 143.164 139.955 143.174 139.128 143.526L134.43 145.506L133.23 147.678C134.964 150.444 137.994 149.022 137.994 149.022L140.946 149.238C141.223 149.259 141.5 149.202 141.745 149.072C141.99 148.943 142.194 148.747 142.332 148.506L143.712 146.106C143.819 145.923 143.884 145.718 143.904 145.507C143.924 145.296 143.898 145.084 143.828 144.884C143.757 144.683 143.645 144.501 143.498 144.348C143.35 144.196 143.172 144.077 142.974 144Z" fill="#7F3E3B"/>
<path d="M117.87 134.316C120.054 135.648 122.298 145.164 122.298 145.164L112.86 149.964C112.86 149.964 108.84 139.68 110.718 136.932C112.668 134.058 114.678 132.366 117.87 134.316Z" fill="#263238"/>
<path opacity="0.2" d="M119.694 141.474C120.127 143.126 120.114 144.862 119.658 146.508L112.86 149.958C112.86 149.958 110.514 143.958 110.244 139.896C112.656 137.526 118.2 137.226 119.694 141.474Z" fill="black"/>
<path d="M119.401 138.744C119.083 143.544 117.769 156.114 114.841 163.65C114.007 165.792 117.043 166.932 113.713 169.05L90.0487 167.736C88.0507 166.086 89.8267 163.854 89.6887 162.768C88.4887 153.72 90.2407 150.918 87.8887 131.034C91.3479 130.531 94.839 130.278 98.3347 130.278C102.039 130.235 105.743 130.454 109.417 130.932C111.013 131.178 112.675 131.496 114.181 131.82C115.737 132.156 117.12 133.041 118.078 134.312C119.036 135.583 119.506 137.156 119.401 138.744Z" fill="#263238"/>
<path opacity="0.2" d="M88.8301 140.568C90.1481 141.574 91.182 142.906 91.8301 144.432C92.8501 146.982 90.1861 151.89 89.2141 153.534C89.2501 150.294 89.2861 146.544 88.8301 140.568Z" fill="black"/>
<path d="M107.688 135.6C107.688 135.6 103.656 138.906 103.302 142.416C99.6543 139.62 95.4543 133.5 98.3283 130.278C101.346 129.51 107.688 135.6 107.688 135.6Z" fill="#8A2BE2"/>
<path d="M108.204 136.626C108.204 136.626 111.306 139.284 111.354 142.398C113.394 139.698 113.394 132.948 109.41 130.914C106.386 130.164 108.204 136.626 108.204 136.626Z" fill="#8A2BE2"/>
<path d="M129.33 219.114L134.466 221.82L141.882 209.388L136.746 206.682L129.33 219.114Z" fill="#7F3E3B"/>
<path d="M135.205 220.47L132.205 214.416C132.153 214.307 132.064 214.221 131.953 214.175C131.842 214.128 131.718 214.124 131.605 214.164L126.469 215.856C126.341 215.903 126.224 215.977 126.126 216.072C126.029 216.167 125.953 216.282 125.903 216.409C125.853 216.536 125.831 216.672 125.837 216.809C125.844 216.945 125.879 217.078 125.941 217.2C127.027 219.294 127.657 220.248 128.977 222.912C129.793 224.55 130.891 228.126 132.013 230.388C133.135 232.65 135.439 231.66 135.169 230.616C133.969 225.942 134.821 223.554 135.313 221.538C135.402 221.18 135.363 220.803 135.205 220.47Z" fill="#263238"/>
<g opacity="0.2">
<path d="M136.74 206.688L141.882 209.394L137.454 216.81L132.708 213.444L136.74 206.688Z" fill="black"/>
</g>
<path d="M110.119 169.002C110.119 169.002 146.317 163.914 149.587 174.612C155.731 194.7 140.401 214.614 140.401 214.614L133.357 210.75C133.357 210.75 140.779 194.154 138.127 184.242C131.263 182.328 97.9267 198.042 97.8007 173.25C97.7547 172.743 97.8923 172.236 98.1886 171.822C98.4848 171.408 98.9199 171.114 99.4147 170.994L110.119 169.002Z" fill="#8A2BE2"/>
<g opacity="0.3">
<path d="M110.119 169.002C110.119 169.002 146.317 163.914 149.587 174.612C155.731 194.7 140.401 214.614 140.401 214.614L133.357 210.75C133.357 210.75 140.779 194.154 138.127 184.242C131.263 182.328 97.9267 198.042 97.8007 173.25C97.7547 172.743 97.8923 172.236 98.1886 171.822C98.4848 171.408 98.9199 171.114 99.4147 170.994L110.119 169.002Z" fill="white"/>
</g>
<path d="M131.977 210.792L140.359 216.582L142.735 213.81L133.519 207.312L131.977 210.792Z" fill="#8A2BE2"/>
<path d="M135.906 223.644L135.972 223.674C136.103 223.72 136.244 223.733 136.381 223.711C136.518 223.689 136.648 223.633 136.758 223.548C136.831 223.503 136.891 223.439 136.931 223.363C136.971 223.287 136.99 223.202 136.986 223.116C136.986 222.348 135.09 221.232 134.88 221.106C134.856 221.091 134.828 221.084 134.799 221.085C134.771 221.086 134.743 221.095 134.72 221.112C134.697 221.128 134.679 221.152 134.669 221.178C134.659 221.205 134.657 221.234 134.664 221.262C134.844 222 135.234 223.308 135.906 223.644ZM135.03 221.532C135.762 222 136.686 222.732 136.704 223.122C136.705 223.16 136.695 223.197 136.676 223.23C136.657 223.263 136.629 223.29 136.596 223.308C136.526 223.369 136.44 223.411 136.348 223.427C136.256 223.444 136.162 223.436 136.074 223.404C135.684 223.26 135.306 222.564 135.03 221.532Z" fill="#8A2BE2"/>
<path d="M134.922 221.46C135.588 221.79 136.98 222.06 137.472 221.7C137.557 221.629 137.617 221.532 137.642 221.423C137.667 221.315 137.656 221.201 137.61 221.1C137.576 220.997 137.518 220.903 137.442 220.825C137.367 220.747 137.274 220.687 137.172 220.65C136.362 220.32 134.808 221.082 134.742 221.118C134.72 221.127 134.7 221.143 134.686 221.163C134.672 221.184 134.665 221.208 134.664 221.232C134.661 221.257 134.665 221.283 134.675 221.307C134.686 221.33 134.703 221.35 134.724 221.364C134.788 221.401 134.854 221.433 134.922 221.46ZM137.106 220.92C137.218 220.973 137.304 221.068 137.346 221.184C137.406 221.358 137.346 221.43 137.298 221.472C136.962 221.73 135.786 221.556 135.12 221.244C135.654 221.016 136.584 220.704 137.064 220.902L137.106 220.92Z" fill="#8A2BE2"/>
<path d="M89.7779 166.26L89.0279 168.408C88.9319 168.576 89.1239 168.756 89.4059 168.774L114.522 170.256C114.744 170.256 114.93 170.172 114.954 170.034L115.302 167.862C115.302 167.712 115.14 167.574 114.9 167.556L90.1859 166.104C90.1103 166.093 90.0331 166.102 89.9617 166.129C89.8904 166.157 89.8271 166.202 89.7779 166.26Z" fill="#8A2BE2"/>
<path d="M93.0001 169.2L92.3401 169.164C92.2081 169.164 92.1061 169.08 92.1241 168.996L92.5981 166.176C92.5981 166.098 92.7361 166.032 92.8681 166.044L93.5281 166.08C93.6601 166.08 93.7561 166.164 93.7441 166.248L93.2641 169.068C93.2701 169.2 93.1501 169.236 93.0001 169.2Z" fill="#263238"/>
<path d="M112.651 170.4L111.985 170.364C111.853 170.364 111.757 170.28 111.775 170.196L112.249 167.376C112.272 167.328 112.31 167.289 112.358 167.265C112.406 167.241 112.46 167.233 112.513 167.244L113.179 167.28C113.311 167.28 113.407 167.364 113.389 167.448L112.915 170.268C112.903 170.328 112.801 170.4 112.651 170.4Z" fill="#263238"/>
<path d="M102.876 169.8L102.21 169.764C102.078 169.764 101.982 169.68 102 169.596L102.474 166.776C102.474 166.698 102.606 166.632 102.738 166.644L103.404 166.68C103.536 166.68 103.632 166.764 103.614 166.842L103.14 169.662C103.122 169.752 103.008 169.8 102.876 169.8Z" fill="#263238"/>
<path d="M100.08 119.19C100.572 122.79 100.962 128.028 98.3281 130.26C101.585 132.383 104.451 135.053 106.8 138.15C106.902 138.281 107.033 138.385 107.183 138.455C107.333 138.524 107.498 138.556 107.663 138.548C107.829 138.541 107.99 138.494 108.133 138.411C108.276 138.328 108.397 138.212 108.486 138.072C111.534 133.272 109.404 130.914 109.404 130.914C107.082 130.398 107.364 128.334 108.204 125.604L100.08 119.19Z" fill="#7F3E3B"/>
<path d="M109.92 131.916C110.28 133.026 110.4 135.066 108.492 138.072C108.403 138.212 108.282 138.328 108.139 138.411C107.996 138.494 107.835 138.541 107.669 138.549C107.504 138.556 107.339 138.524 107.189 138.455C107.039 138.385 106.908 138.281 106.806 138.15C104.905 135.696 102.699 133.495 100.242 131.598C102.72 132.3 106.2 135.714 107.688 137.364C108.738 136.554 109.956 133.482 109.92 131.916Z" fill="white"/>
<path opacity="0.2" d="M102.324 121.968L106.836 124.506L108.228 125.604C107.785 126.734 107.58 127.943 107.628 129.156C104.682 128.316 101.304 124.392 102.324 121.968Z" fill="black"/>
<path d="M100.201 110.76C99.2527 116.658 98.7247 119.16 100.993 122.76C104.407 128.244 111.859 128.118 114.547 122.622C116.947 117.672 118.147 108.858 112.939 105.264C111.8 104.466 110.476 103.973 109.092 103.831C107.709 103.69 106.312 103.905 105.035 104.456C103.758 105.007 102.644 105.875 101.798 106.979C100.951 108.082 100.402 109.384 100.201 110.76Z" fill="#7F3E3B"/>
<path d="M116.85 111C116.1 107.802 116.472 102.402 110.436 102.702C104.82 102.978 101.4 102.138 101.436 105.36C95.232 108.396 94.836 111.54 99.198 114.51C102.51 115.302 103.356 111.51 102.978 108.39C105.378 109.788 109.944 107.79 112.086 107.85C114.852 107.952 117.6 114.198 116.85 111Z" fill="#13191C"/>
<path opacity="0.5" d="M116.85 111C116.1 107.802 116.472 102.402 110.436 102.702C104.82 102.978 101.4 102.138 101.436 105.36C95.232 108.396 94.836 111.54 99.198 114.51C102.51 115.302 103.356 111.51 102.978 108.39C105.378 109.788 109.944 107.79 112.086 107.85C114.852 107.952 117.6 114.198 116.85 111Z" fill="#13191C"/>
<path opacity="0.2" d="M107.61 114.078C106.747 114.085 105.9 113.846 105.168 113.388C106.01 113.502 106.833 113.734 107.61 114.078Z" fill="black"/>
<path opacity="0.2" d="M107.754 113.664C107.754 113.664 106.356 113.472 105.792 112.674C106.499 112.887 107.163 113.222 107.754 113.664Z" fill="black"/>
<path d="M109.134 114.384C109.032 114.858 109.194 115.296 109.506 115.368C109.818 115.44 110.154 115.11 110.256 114.636C110.358 114.162 110.202 113.724 109.89 113.652C109.578 113.58 109.242 113.91 109.134 114.384Z" fill="#263238"/>
<path d="M114.492 115.584C114.384 116.058 114.552 116.502 114.858 116.568C115.164 116.634 115.506 116.31 115.614 115.836C115.722 115.362 115.554 114.924 115.248 114.852C114.942 114.78 114.6 115.11 114.492 115.584Z" fill="#263238"/>
<path d="M115.104 114.846L116.304 114.774C116.304 114.774 115.53 115.536 115.104 114.846Z" fill="#263238"/>
<path d="M112.65 116.07C112.83 117.245 113.17 118.389 113.658 119.472C113.379 119.591 113.076 119.647 112.773 119.637C112.469 119.627 112.171 119.55 111.9 119.412L112.65 116.07Z" fill="#630F0F"/>
<path d="M109.482 119.718C109.246 119.673 109.008 119.645 108.768 119.634C108.736 119.641 108.707 119.659 108.686 119.684C108.665 119.71 108.653 119.742 108.653 119.775C108.653 119.808 108.665 119.84 108.686 119.866C108.707 119.892 108.736 119.91 108.768 119.916C109.373 119.933 109.965 120.09 110.497 120.377C111.03 120.664 111.487 121.071 111.834 121.566C111.853 121.598 111.883 121.622 111.919 121.632C111.955 121.642 111.993 121.638 112.026 121.62C112.058 121.599 112.08 121.568 112.09 121.531C112.1 121.495 112.097 121.456 112.08 121.422C111.782 120.98 111.399 120.601 110.953 120.308C110.507 120.016 110.007 119.815 109.482 119.718Z" fill="#263238"/>
<path d="M97.6507 115.05C97.8327 116.192 98.4608 117.215 99.3967 117.894C100.639 118.788 101.797 117.798 101.875 116.352C101.953 115.05 101.407 113.016 99.9487 112.698C99.6284 112.634 99.2973 112.651 98.9853 112.748C98.6733 112.844 98.3904 113.017 98.1622 113.251C97.9339 113.485 97.7676 113.771 97.6783 114.086C97.589 114.4 97.5795 114.731 97.6507 115.05Z" fill="#7F3E3B"/>
<path d="M108.78 110.364C108.829 110.399 108.888 110.418 108.948 110.418C109.008 110.418 109.067 110.399 109.116 110.364C110.202 109.614 111.804 110.184 111.816 110.19C111.887 110.216 111.965 110.213 112.034 110.182C112.103 110.15 112.156 110.093 112.182 110.022C112.208 109.951 112.206 109.873 112.174 109.804C112.142 109.736 112.085 109.682 112.014 109.656C111.936 109.656 110.118 108.978 108.792 109.89C108.731 109.933 108.689 109.999 108.676 110.073C108.662 110.147 108.678 110.224 108.72 110.286C108.734 110.316 108.754 110.343 108.78 110.364Z" fill="#263238"/>
<path d="M115.392 112.92C115.343 112.929 115.296 112.95 115.258 112.981C115.219 113.013 115.189 113.053 115.17 113.1C115.144 113.17 115.147 113.247 115.177 113.316C115.207 113.384 115.263 113.438 115.332 113.466C115.749 113.644 116.203 113.719 116.655 113.684C117.107 113.65 117.545 113.507 117.93 113.268C117.961 113.246 117.987 113.219 118.007 113.187C118.027 113.155 118.041 113.12 118.047 113.083C118.054 113.046 118.053 113.008 118.044 112.971C118.036 112.934 118.021 112.9 117.999 112.869C117.977 112.838 117.95 112.812 117.918 112.792C117.886 112.772 117.851 112.758 117.814 112.752C117.777 112.745 117.739 112.746 117.702 112.755C117.665 112.763 117.631 112.778 117.6 112.8C117.292 112.983 116.945 113.09 116.587 113.113C116.229 113.136 115.871 113.074 115.542 112.932C115.494 112.916 115.442 112.912 115.392 112.92Z" fill="#263238"/>
<path d="M137.412 238.752L142.944 237.006L139.332 222.99L133.794 224.736L137.412 238.752Z" fill="#7F3E3B"/>
<path d="M142.507 235.53L136.087 233.4C135.975 233.357 135.851 233.358 135.739 233.402C135.628 233.447 135.538 233.532 135.487 233.64L133.087 238.482C133.03 238.607 133.002 238.742 133.002 238.879C133.002 239.016 133.032 239.151 133.089 239.275C133.145 239.4 133.228 239.51 133.331 239.6C133.435 239.69 133.556 239.757 133.687 239.796C135.937 240.498 137.059 240.726 139.885 241.656C141.619 242.256 144.937 243.966 147.331 244.758C149.725 245.55 150.643 243.222 149.731 242.676C145.567 240.234 144.463 237.954 143.371 236.19C143.17 235.875 142.864 235.641 142.507 235.53Z" fill="#263238"/>
<g opacity="0.2">
<path d="M133.794 224.736L139.332 222.99L141.486 231.354L135.756 232.362L133.794 224.736Z" fill="black"/>
</g>
<path d="M101.874 168.468C101.874 168.468 135.318 170.76 135.924 181.932C137.052 202.902 141.984 227.736 141.984 227.736L134.286 230.022C134.286 230.022 124.254 204.822 122.454 188.52C116.25 185.01 85.8542 197.232 88.8542 169.626C88.9073 169.112 89.1564 168.638 89.5497 168.303C89.943 167.968 90.4502 167.797 90.9662 167.826L101.874 168.468Z" fill="#8A2BE2"/>
<g opacity="0.4">
<path d="M101.874 168.468C101.874 168.468 135.318 170.76 135.924 181.932C137.052 202.902 141.984 227.736 141.984 227.736L134.286 230.022C134.286 230.022 124.254 204.822 122.454 188.52C116.25 185.01 85.8542 197.232 88.8542 169.626C88.9073 169.112 89.1564 168.638 89.5497 168.303C89.943 167.968 90.4502 167.797 90.9662 167.826L101.874 168.468Z" fill="white"/>
</g>
<path d="M133.357 231.012L143.371 229.134L143.071 225.492L131.971 227.466L133.357 231.012Z" fill="#8A2BE2"/>
<path d="M145.254 237.264L145.32 237.234C145.446 237.177 145.555 237.087 145.636 236.975C145.717 236.862 145.768 236.73 145.782 236.592C145.803 236.508 145.8 236.419 145.775 236.336C145.75 236.252 145.702 236.177 145.638 236.118C145.074 235.602 142.968 236.148 142.728 236.208C142.701 236.216 142.677 236.231 142.658 236.252C142.64 236.274 142.629 236.3 142.626 236.328C142.623 236.356 142.627 236.384 142.639 236.41C142.65 236.435 142.669 236.457 142.692 236.472C143.352 236.874 144.546 237.504 145.254 237.264ZM143.142 236.4C143.988 236.208 145.152 236.058 145.446 236.328C145.474 236.355 145.494 236.388 145.505 236.425C145.515 236.462 145.516 236.501 145.506 236.538C145.498 236.631 145.466 236.72 145.414 236.797C145.361 236.873 145.29 236.935 145.206 236.976C144.828 237.15 144.072 236.928 143.142 236.4Z" fill="#8A2BE2"/>
<path d="M143.01 236.43C143.718 236.184 144.9 235.398 144.972 234.78C144.985 234.668 144.96 234.554 144.9 234.458C144.84 234.362 144.749 234.29 144.642 234.252C144.548 234.21 144.446 234.189 144.342 234.189C144.239 234.189 144.137 234.21 144.042 234.252C143.238 234.594 142.686 236.238 142.662 236.31C142.654 236.334 142.652 236.359 142.657 236.383C142.663 236.408 142.675 236.43 142.692 236.448C142.709 236.466 142.729 236.48 142.752 236.489C142.775 236.497 142.8 236.5 142.824 236.496C142.887 236.477 142.949 236.455 143.01 236.43ZM144.162 234.492C144.219 234.468 144.281 234.456 144.342 234.456C144.404 234.456 144.465 234.468 144.522 234.492C144.684 234.57 144.696 234.66 144.69 234.732C144.642 235.146 143.682 235.86 142.998 236.112C143.208 235.578 143.646 234.696 144.12 234.492H144.162Z" fill="#8A2BE2"/>
<path d="M109.746 113.646L110.946 113.574C110.946 113.574 110.178 114.336 109.746 113.646Z" fill="#263238"/>
<path d="M91.0263 139.848C90.4263 141.606 89.8263 143.484 89.2683 145.326C88.7103 147.168 88.1763 149.04 87.6603 150.9C87.1443 152.76 86.7002 154.632 86.2743 156.498C85.8482 158.364 85.5002 160.23 85.2242 162.09C85.0056 163.859 84.9473 165.645 85.0503 167.424C85.1403 169.314 85.2663 171.246 85.4643 173.184C85.8423 177.054 86.3162 180.984 86.8082 184.884V184.914C86.8471 185.347 86.7281 185.779 86.4732 186.131C86.2183 186.483 85.8447 186.731 85.4213 186.829C84.998 186.927 84.5535 186.868 84.1699 186.664C83.7863 186.46 83.4895 186.124 83.3343 185.718C82.0347 181.882 80.953 177.976 80.0943 174.018C79.6743 172.032 79.2843 170.016 79.0203 167.952C78.6978 165.778 78.6053 163.576 78.7443 161.382C79.0959 157.261 79.7619 153.174 80.7363 149.154C81.2043 147.154 81.7303 145.182 82.3143 143.238C82.9143 141.276 83.5143 139.368 84.2523 137.382C84.4098 136.936 84.6537 136.526 84.97 136.174C85.2862 135.822 85.6687 135.536 86.0954 135.332C86.5222 135.128 86.985 135.011 87.4573 134.986C87.9296 134.96 88.4023 135.029 88.8483 135.186C89.2942 135.344 89.7048 135.588 90.0565 135.904C90.4082 136.22 90.6942 136.603 90.8981 137.029C91.102 137.456 91.2199 137.919 91.245 138.391C91.27 138.864 91.2018 139.336 91.0443 139.782L91.0263 139.848Z" fill="#7F3E3B"/>
<path d="M87.882 131.016C85.392 131.616 81.96 139.866 81.96 139.866L89.658 146.844C89.658 146.844 94.92 140.4 94.08 137.16C93.204 133.8 90.72 130.332 87.882 131.016Z" fill="#263238"/>
<path d="M92.1539 189.234L92.1239 189.066C92.0258 188.498 91.7977 187.96 91.4573 187.495C91.117 187.03 90.6736 186.65 90.1619 186.384L86.0339 184.242L83.5919 184.698C83.1359 187.158 86.1479 189.576 86.1479 189.576L86.8079 190.968C87.0271 191.437 87.4123 191.807 87.889 192.008C88.3656 192.208 88.8997 192.225 89.3879 192.054L90.7859 191.562C91.2513 191.397 91.6435 191.073 91.8937 190.647C92.1439 190.221 92.236 189.721 92.1539 189.234Z" fill="#7F3E3B"/>
<path d="M132.787 147.72C133.285 148.248 134.359 148.05 135.187 147.27C136.015 146.49 136.273 145.434 135.787 144.906C135.301 144.378 134.215 144.582 133.387 145.356C132.559 146.13 132.283 147.192 132.787 147.72Z" fill="#8A2BE2"/>
<path d="M135.996 150H135.906C135.798 150 133.266 149.568 133.83 145.452C133.841 145.373 133.867 145.297 133.907 145.229C133.947 145.16 134 145.1 134.063 145.052C134.126 145.003 134.198 144.968 134.275 144.948C134.352 144.928 134.432 144.923 134.511 144.933C134.59 144.944 134.666 144.97 134.734 145.01C134.803 145.05 134.863 145.103 134.911 145.166C134.96 145.229 134.995 145.302 135.015 145.378C135.036 145.455 135.041 145.535 135.03 145.614C134.628 148.518 136.068 148.812 136.086 148.812C136.242 148.836 136.383 148.92 136.477 149.047C136.572 149.174 136.612 149.334 136.59 149.49C136.568 149.632 136.497 149.762 136.388 149.855C136.279 149.949 136.14 150 135.996 150Z" fill="#8A2BE2"/>
<path d="M133.009 147.144C133.303 147.456 134.041 147.24 134.647 146.664C135.253 146.088 135.517 145.368 135.247 145.056C134.977 144.744 134.215 144.954 133.609 145.53C133.003 146.106 132.715 146.826 133.009 147.144Z" fill="white"/>
</svg>
