<svg width="77" height="75" viewBox="0 0 77 75" fill="none" xmlns="http://www.w3.org/2000/svg">
<path d="M23.0609 46.3711H6.50781V67.6771H23.0609V46.3711Z" fill="white" stroke="#263238" stroke-width="0.3" stroke-miterlimit="10"/>
<path d="M23.0609 46.3711H6.50781V48.1051H23.0609V46.3711Z" fill="#263238" stroke="#263238" stroke-width="0.3" stroke-miterlimit="10"/>
<path d="M23.4863 46.3711H6.08228V47.7481H23.4863V46.3711Z" fill="white" stroke="#263238" stroke-width="0.3" stroke-miterlimit="10"/>
<path d="M22.5367 48.5356H7.16235V53.1331H22.5367V48.5356Z" fill="white" stroke="#263238" stroke-width="0.3" stroke-miterlimit="10"/>
<path d="M16.2124 50.5935H13.4854V51.0735H16.2124V50.5935Z" fill="#263238" stroke="#263238" stroke-width="0.3" stroke-miterlimit="10"/>
<path d="M22.5367 54.3438H7.16235V58.9412H22.5367V54.3438Z" fill="white" stroke="#263238" stroke-width="0.3" stroke-miterlimit="10"/>
<path d="M16.2124 56.4016H13.4854V56.8816H16.2124V56.4016Z" fill="#263238" stroke="#263238" stroke-width="0.3" stroke-miterlimit="10"/>
<path d="M22.5367 60.1501H7.16235V64.7476H22.5367V60.1501Z" fill="white" stroke="#263238" stroke-width="0.3" stroke-miterlimit="10"/>
<path d="M16.2124 62.208H13.4854V62.688H16.2124V62.208Z" fill="#263238" stroke="#263238" stroke-width="0.3" stroke-miterlimit="10"/>
<path d="M19.839 40.023L19.6616 39.5115C19.5961 39.3233 19.5663 39.1243 19.5737 38.925V38.904C19.579 38.7467 19.5302 38.5924 19.4354 38.4672C19.3406 38.342 19.2057 38.2536 19.0536 38.217L18.5589 38.094C18.4071 38.0565 18.247 38.0727 18.1057 38.1398C17.9643 38.207 17.8502 38.3211 17.7825 38.463L17.7736 38.4825C17.6882 38.6622 17.5705 38.8245 17.4263 38.961L17.0344 39.3315" stroke="#263238" stroke-width="0.3" stroke-miterlimit="10"/>
<path d="M17.1278 41.0476L16.7926 41.1091L16.3842 38.8396C16.3799 38.8176 16.3801 38.795 16.3846 38.773C16.3891 38.7511 16.398 38.7303 16.4106 38.7118C16.4232 38.6934 16.4394 38.6777 16.4582 38.6656C16.4769 38.6535 16.4979 38.6454 16.5198 38.6416C16.5641 38.6333 16.6098 38.643 16.647 38.6685C16.6842 38.6941 16.7097 38.7335 16.718 38.7781L17.1278 41.0476Z" fill="white" stroke="#263238" stroke-width="0.3" stroke-miterlimit="10"/>
<path d="M16.0654 39.3314L17.1885 39.126C17.3239 39.1012 17.4634 39.1316 17.5765 39.2104C17.6896 39.2892 17.7669 39.41 17.7915 39.5462L17.8506 39.8739L15.7056 40.2663L15.6475 39.9445C15.6345 39.8766 15.6349 39.8068 15.6489 39.739C15.6629 39.6713 15.6902 39.607 15.7291 39.55C15.7679 39.4929 15.8177 39.4442 15.8755 39.4067C15.9332 39.3692 15.9978 39.3436 16.0654 39.3314Z" fill="#8A2BE2" stroke="#263238" stroke-width="0.3" stroke-miterlimit="10"/>
<path d="M18.8308 41.4675L19.099 41.6775L20.5043 39.855C20.5182 39.8374 20.5285 39.8171 20.5345 39.7954C20.5405 39.7738 20.5422 39.7511 20.5394 39.7287C20.5366 39.7064 20.5295 39.6848 20.5183 39.6653C20.5072 39.6458 20.4923 39.6287 20.4745 39.615C20.4388 39.5876 20.3938 39.5753 20.3492 39.5809C20.3046 39.5865 20.264 39.6096 20.2361 39.645L18.8308 41.4675Z" stroke="#263238" stroke-width="0.3" stroke-miterlimit="10"/>
<path d="M20.4473 41.436L18.726 40.0916L18.9288 39.8285C19.0131 39.7192 19.1372 39.648 19.2736 39.6307C19.4101 39.6133 19.5478 39.6513 19.6565 39.7361L20.5583 40.4405C20.6669 40.5254 20.7377 40.6503 20.7549 40.7876C20.7721 40.925 20.7344 41.0636 20.6501 41.1729L20.4473 41.436Z" fill="#8A2BE2" stroke="#263238" stroke-width="0.3" stroke-miterlimit="10"/>
<path d="M16.0032 44.4136L15.4861 45.2251" stroke="#263238" stroke-width="0.3" stroke-miterlimit="10" stroke-linecap="round"/>
<path d="M18.4487 45.0166L18.5361 45.9766" stroke="#263238" stroke-width="0.3" stroke-miterlimit="10" stroke-linecap="round"/>
<path d="M20.0005 43.5509C20.116 43.075 20.0888 42.5753 19.9222 42.115C19.7557 41.6547 19.4574 41.2544 19.0649 40.9646C18.6725 40.6749 18.2035 40.5088 17.7173 40.4873C17.231 40.4657 16.7494 40.5897 16.3332 40.8436C15.9169 41.0975 15.5848 41.4699 15.3787 41.9137C15.1727 42.3575 15.102 42.8529 15.1755 43.3372C15.249 43.8214 15.4634 44.2729 15.7918 44.6345C16.1201 44.9962 16.5475 45.2517 17.0201 45.3689C17.3344 45.4469 17.6609 45.4616 17.9809 45.4124C18.3009 45.3632 18.6081 45.251 18.8849 45.0821C19.1617 44.9132 19.4027 44.6911 19.5942 44.4283C19.7856 44.1656 19.9237 43.8674 20.0005 43.5509Z" fill="#8A2BE2" stroke="#263238" stroke-width="0.3" stroke-miterlimit="10"/>
<path d="M19.4393 43.413C19.5279 43.0484 19.5072 42.6656 19.3797 42.3129C19.2522 41.9602 19.0237 41.6535 18.723 41.4315C18.4223 41.2096 18.0629 41.0824 17.6904 41.066C17.3179 41.0497 16.9489 41.1449 16.6302 41.3396C16.3114 41.5343 16.0572 41.8199 15.8997 42.16C15.7421 42.5002 15.6883 42.8798 15.7451 43.2507C15.8019 43.6217 15.9667 43.9673 16.2187 44.244C16.4707 44.5207 16.7985 44.7159 17.1607 44.805C17.6463 44.9244 18.159 44.8449 18.5863 44.5838C19.0136 44.3228 19.3204 43.9016 19.4393 43.413Z" fill="white" stroke="#263238" stroke-width="0.3" stroke-miterlimit="10"/>
<path d="M17.3989 43.8196L17.6076 42.9631L18.8727 43.2736" stroke="#263238" stroke-width="0.3" stroke-miterlimit="10"/>
<path d="M17.7258 42.9916C17.7303 42.9759 17.7315 42.9595 17.7295 42.9433C17.7274 42.9272 17.7221 42.9116 17.7139 42.8976C17.7057 42.8835 17.6947 42.8713 17.6816 42.8617C17.6686 42.8521 17.6537 42.8452 17.6379 42.8416C17.6223 42.8375 17.6061 42.8366 17.5902 42.8388C17.5743 42.8411 17.559 42.8465 17.5452 42.8547C17.5313 42.8629 17.5192 42.8738 17.5096 42.8868C17.4999 42.8997 17.4929 42.9144 17.4889 42.9301C17.4812 42.9615 17.4862 42.9947 17.5028 43.0224C17.5194 43.0501 17.5463 43.0701 17.5776 43.0778C17.6088 43.0856 17.6418 43.0805 17.6693 43.0638C17.6968 43.0471 17.7166 43.02 17.7243 42.9886L17.7258 42.9916Z" stroke="#263238" stroke-width="0.3" stroke-miterlimit="10"/>
<path d="M14.1524 42.75C14.1136 43.2701 14.2232 43.7905 14.4684 44.25" stroke="#263238" stroke-width="0.3" stroke-miterlimit="10"/>
<path d="M20.8127 42.249C20.8127 42.249 21.0838 42.699 20.8127 43.569" stroke="#263238" stroke-width="0.3" stroke-miterlimit="10"/>
<path d="M32.6586 38.0759H31.9045V48.4799H32.6586V38.0759Z" fill="#ABABAB" stroke="#263238" stroke-width="0.3" stroke-miterlimit="10"/>
<path d="M34.5993 38.0759H33.8452V48.4799H34.5993V38.0759Z" fill="#ABABAB" stroke="#263238" stroke-width="0.3" stroke-miterlimit="10"/>
<path d="M36.5375 38.0759H35.7834V48.4799H36.5375V38.0759Z" fill="#ABABAB" stroke="#263238" stroke-width="0.3" stroke-miterlimit="10"/>
<path d="M38.4765 38.0759H37.7224V48.4799H38.4765V38.0759Z" fill="#ABABAB" stroke="#263238" stroke-width="0.3" stroke-miterlimit="10"/>
<path d="M40.4152 38.0759H39.6611V48.4799H40.4152V38.0759Z" fill="#ABABAB" stroke="#263238" stroke-width="0.3" stroke-miterlimit="10"/>
<path d="M42.3549 38.0759H41.6008V48.4799H42.3549V38.0759Z" fill="#ABABAB" stroke="#263238" stroke-width="0.3" stroke-miterlimit="10"/>
<path d="M44.2946 38.0759H43.5405V48.4799H44.2946V38.0759Z" fill="#ABABAB" stroke="#263238" stroke-width="0.3" stroke-miterlimit="10"/>
<path d="M46.2333 38.0759H45.4792V48.4799H46.2333V38.0759Z" fill="#ABABAB" stroke="#263238" stroke-width="0.3" stroke-miterlimit="10"/>
<path d="M48.173 38.0759H47.4189V48.4799H48.173V38.0759Z" fill="#ABABAB" stroke="#263238" stroke-width="0.3" stroke-miterlimit="10"/>
<path d="M50.1117 38.0759H49.3577V48.4799H50.1117V38.0759Z" fill="#ABABAB" stroke="#263238" stroke-width="0.3" stroke-miterlimit="10"/>
<path d="M52.0502 38.0759H51.2961V48.4799H52.0502V38.0759Z" fill="#ABABAB" stroke="#263238" stroke-width="0.3" stroke-miterlimit="10"/>
<path d="M53.9909 38.0759H53.2368V48.4799H53.9909V38.0759Z" fill="#ABABAB" stroke="#263238" stroke-width="0.3" stroke-miterlimit="10"/>
<path d="M55.9296 38.0759H55.1755V48.4799H55.9296V38.0759Z" fill="#ABABAB" stroke="#263238" stroke-width="0.3" stroke-miterlimit="10"/>
<path d="M57.8683 38.0759H57.1143V48.4799H57.8683V38.0759Z" fill="#ABABAB" stroke="#263238" stroke-width="0.3" stroke-miterlimit="10"/>
<path d="M59.807 38.0759H59.053V48.4799H59.807V38.0759Z" fill="#ABABAB" stroke="#263238" stroke-width="0.3" stroke-miterlimit="10"/>
<path d="M61.5305 37.1685H30.0188V38.5995H61.5305V37.1685Z" fill="#ABABAB" stroke="#263238" stroke-width="0.3" stroke-miterlimit="10"/>
<path d="M30.8376 36.396H29.6514V48.3555H30.8376V36.396Z" fill="#ABABAB" stroke="#263238" stroke-width="0.3" stroke-miterlimit="10"/>
<path d="M62.0795 36.396H60.8933V48.3555H62.0795V36.396Z" fill="#ABABAB" stroke="#263238" stroke-width="0.3" stroke-miterlimit="10"/>
<path d="M24.2505 58.7265L22.5442 67.5675C23.093 67.7828 23.6276 68.0333 24.1447 68.3175C25.2221 68.8845 28.5959 68.9175 31.2127 68.499C33.8294 68.0805 35.576 67.8375 38.2434 68.8305C40.9109 69.8235 44.6602 69.7305 46.353 69.2085C48.0459 68.6865 50.8236 69.351 52.6655 69.351C54.5074 69.351 58.3625 69.162 60.3132 68.4045C62.2639 67.647 63.9567 67.932 65.5989 68.31C67.2411 68.688 69.5509 68.4045 70.2185 68.073C70.8861 67.7415 71.1931 67.554 71.1931 67.554L68.8848 56.5875C68.8848 56.5875 68.3483 50.352 67.6032 48.921C66.6063 46.998 64.9358 46.4265 62.3175 46.332C59.6992 46.2375 56.3642 46.782 51.6939 47.451C47.0236 48.12 40.7097 47.79 34.7563 46.4325C29.493 45.2325 26.8404 47.5635 26.1028 48.921C25.24 50.5065 24.2505 58.7265 24.2505 58.7265Z" fill="#8A2BE2" stroke="#263238" stroke-width="0.3" stroke-miterlimit="10"/>
<path d="M30.9684 61.794L30.1682 52.1145" stroke="#263238" stroke-width="0.3" stroke-miterlimit="10"/>
<path d="M31.2233 64.8855L31.1018 63.3975" stroke="#263238" stroke-width="0.3" stroke-miterlimit="10"/>
<path d="M60.1955 52.2209L59.4548 58.7129" stroke="#263238" stroke-width="0.3" stroke-miterlimit="10"/>
<path d="M28.1339 51.3794C28.1339 51.3794 27.517 51.2384 27.3635 52.3724C27.21 53.5064 25.8733 59.3729 25.8733 59.3729" stroke="#263238" stroke-width="0.3" stroke-miterlimit="10"/>
<path d="M27.4103 59.2439L27.2607 60.7454" stroke="#263238" stroke-width="0.3" stroke-miterlimit="10"/>
<path d="M28.1342 51.9944L27.5083 58.2749" stroke="#263238" stroke-width="0.3" stroke-miterlimit="10"/>
<path d="M64.772 51.1499C64.772 51.1499 65.1311 53.8919 65.5424 57.3449" stroke="#263238" stroke-width="0.3" stroke-miterlimit="10"/>
<path d="M64.1757 58.3936L64.1624 59.4676" stroke="#263238" stroke-width="0.3" stroke-miterlimit="10"/>
<path d="M64.265 51.2849L64.1909 57.2249" stroke="#263238" stroke-width="0.3" stroke-miterlimit="10"/>
<path d="M32.9638 14.712C32.9382 14.6933 32.9089 14.6804 32.8779 14.6741C32.8468 14.6678 32.8148 14.6683 32.784 14.6755C32.7532 14.6828 32.7243 14.6966 32.6993 14.7161C32.6742 14.7356 32.6537 14.7603 32.639 14.7885C32.4899 15.0015 31.8864 15.699 31.946 15.8805C32.0056 16.062 32.7895 16.851 32.7895 16.851L33.7849 15.669L33.2052 14.8245L32.9638 14.712Z" fill="white" stroke="#263238" stroke-width="0.3" stroke-miterlimit="10"/>
<path d="M40.4084 26.4254C40.4084 26.4254 39.6186 24.9059 38.7617 23.9399C37.9048 22.9739 33.9245 18.9674 33.7189 18.7259C33.5132 18.4844 33.2718 17.9654 33.2718 17.8259C33.2718 17.6864 34.4714 16.3064 34.4714 15.9959C34.4714 15.6854 33.4089 14.9609 33.2033 14.8229C33.1335 14.7655 33.0505 14.7268 32.9619 14.7104C32.9395 14.6969 32.8471 14.6714 32.6832 14.9999C32.4939 15.3809 32.1467 15.5999 32.3047 15.7949C32.4626 15.9899 32.8262 16.4099 32.8262 16.4099C32.5506 16.6529 31.728 17.4809 31.7965 18.1019C31.8072 18.2702 31.8738 18.43 31.9858 18.5554C32.0977 18.6809 32.2484 18.7647 32.4135 18.7934C32.4135 18.7934 36.9764 25.5599 37.5248 26.2934C38.0732 27.0269 38.7602 27.7439 38.8288 27.8474C38.8973 27.9509 40.6468 29.9879 40.6468 29.9879L41.6408 27.7784L40.4084 26.4254Z" fill="white"/>
<path d="M32.8262 16.4099C32.8262 16.4099 32.4626 15.9899 32.3047 15.7949C32.1467 15.5999 32.4939 15.3809 32.6832 14.9999C32.8471 14.6714 32.9395 14.6969 32.9619 14.7104C33.0505 14.7268 33.1335 14.7655 33.2033 14.8229C33.4089 14.9609 34.4714 15.6854 34.4714 15.9959C34.4714 16.3064 33.2718 17.6864 33.2718 17.8259C33.2718 17.9654 33.5132 18.4844 33.7189 18.7259C33.9245 18.9674 37.9048 22.9739 38.7617 23.9399C39.6186 24.9059 40.4084 26.4254 40.4084 26.4254L41.6408 27.7784L40.6468 29.9879C40.6468 29.9879 38.8973 27.9509 38.8288 27.8474C38.7602 27.7439 38.0732 27.0269 37.5248 26.2934C36.9764 25.5599 32.4135 18.7934 32.4135 18.7934C32.2484 18.7647 32.0977 18.6809 31.9858 18.5554C31.8738 18.43 31.8072 18.2702 31.7965 18.1019C31.728 17.4809 32.5506 16.6529 32.8262 16.4099ZM32.8262 16.4099L32.8754 16.3619" stroke="#263238" stroke-width="0.3" stroke-miterlimit="10"/>
<path d="M32.3811 17.0999C32.5308 16.7945 32.6348 16.4685 32.6896 16.1324C32.7939 15.5459 33.3766 14.9939 33.6165 14.8559C33.8564 14.7179 33.8221 14.9594 33.6507 15.2354C33.5233 15.4492 33.4307 15.6822 33.3766 15.9254C33.3423 16.0634 33.3765 16.6514 33.308 16.7894" fill="white"/>
<path d="M32.3811 17.0999C32.5308 16.7945 32.6348 16.4685 32.6896 16.1324C32.7939 15.5459 33.3766 14.9939 33.6165 14.8559C33.8564 14.7179 33.8221 14.9594 33.6507 15.2354C33.5233 15.4492 33.4307 15.6822 33.3766 15.9254C33.3423 16.0634 33.3765 16.6514 33.308 16.7894" stroke="#263238" stroke-width="0.3" stroke-miterlimit="10"/>
<path d="M57.5211 14.469C57.5211 14.469 57.8832 14.331 58.0605 14.439C58.2379 14.547 58.8429 15.339 58.8429 15.477C58.8429 15.615 58.4882 15.6915 58.4882 15.6915C58.4882 15.6915 58.8429 15.978 58.7013 16.086C58.5597 16.194 57.8474 16.3365 57.8474 16.3365L57.1724 15.048L57.5211 14.469Z" fill="white" stroke="#263238" stroke-width="0.3" stroke-miterlimit="10"/>
<path d="M59.2744 17.586C59.2267 16.962 58.264 16.3035 57.9496 16.1175C57.796 16.0083 57.6736 15.8603 57.5949 15.6885L57.7305 15.7485L57.8512 15.18C57.8512 15.18 58.2551 15.5055 58.416 15.342C58.577 15.1785 58.1344 14.892 57.969 14.694C57.852 14.5635 57.6943 14.4772 57.5219 14.4495L57.513 14.469C57.4519 14.469 57.3639 14.538 57.2775 14.628C57.1017 14.802 56.1912 15.714 56.2478 16.02C56.3044 16.326 57.738 17.4555 57.7678 17.592C57.7976 17.7285 57.653 18.282 57.4951 18.558C57.3371 18.834 53.7443 23.979 53.0811 25.089C52.418 26.199 51.9247 27.8415 51.9247 27.8415L50.968 29.4L52.3554 31.3845C52.3554 31.3845 53.6966 29.055 53.7443 28.9395C53.7919 28.824 54.3329 27.984 54.7367 27.168C55.1406 26.352 58.6619 18.519 58.6619 18.519C58.6619 18.519 59.3221 18.21 59.2744 17.586Z" fill="white" stroke="#263238" stroke-width="0.3" stroke-miterlimit="10"/>
<path d="M58.5124 16.7116C58.3089 16.4401 58.1462 16.1399 58.0296 15.8206C57.821 15.2626 57.1444 14.8291 56.8836 14.7391C56.6229 14.6491 56.7003 14.8801 56.9209 15.1186C57.0873 15.3058 57.2223 15.5191 57.3203 15.7501C57.3799 15.8791 57.4559 16.4626 57.5483 16.5856" fill="white"/>
<path d="M58.5124 16.7116C58.3089 16.4401 58.1462 16.1399 58.0296 15.8206C57.821 15.2626 57.1444 14.8291 56.8836 14.7391C56.6229 14.6491 56.7003 14.8801 56.9209 15.1186C57.0873 15.3058 57.2223 15.5191 57.3203 15.7501C57.3799 15.8791 57.4559 16.4626 57.5483 16.5856" stroke="#263238" stroke-width="0.3" stroke-miterlimit="10"/>
<path d="M51.2114 33.4349L52.411 31.7429L51.0698 29.0834H46.48L46.033 29.9834C46.033 29.9834 45.0718 29.9834 44.9004 29.9144C44.7291 29.8454 41.8828 27.8774 41.8828 27.8774L40.5789 30.6389L41.6742 32.5364L42.5683 38.7869L42.2702 40.0499C42.2702 40.0499 40.6564 44.9999 40.7309 45.3659C40.8054 45.7319 42.0512 47.0729 44.2507 47.3684C46.4502 47.6639 49.8985 47.1464 50.4127 46.9184C50.9268 46.6904 52.0996 46.8449 52.8327 45.7379C53.5659 44.6309 50.9804 38.7764 50.9804 38.7764L51.2114 33.4349Z" fill="white" stroke="#263238" stroke-width="0.3" stroke-miterlimit="10"/>
<path d="M50.6987 29.5679L52.3454 33.1934L52.9981 32.4674L51.4617 28.6514L50.6987 29.5679Z" fill="#8A2BE2" stroke="#263238" stroke-width="0.3" stroke-miterlimit="10"/>
<path d="M49.9534 22.6679C49.9534 22.6679 48.8447 21.8384 47.5691 21.9809C46.2935 22.1234 43.474 24.3284 43.3325 24.7859C43.1909 25.2434 43.8436 25.1294 43.8436 25.1294C43.8436 25.1294 42.9912 25.7024 43.2475 26.1899C43.5038 26.6774 43.7885 26.5904 43.7885 26.5904C43.7885 26.5904 42.9346 26.7614 43.3414 27.6209C43.7482 28.4804 44.2504 28.2509 44.2504 28.2509C44.2504 28.2509 43.8525 29.6249 44.3994 29.8244C44.9463 30.0239 45.3085 29.3954 45.3085 29.3954C45.3085 29.3954 45.5365 29.9114 45.8211 29.9114C46.0175 29.8929 46.1999 29.8008 46.3322 29.6534L47.1861 28.7369C47.1861 28.7369 48.4379 30.2549 49.0056 30.2549C49.5734 30.2549 50.314 29.2814 50.8833 28.7084C51.4525 28.1354 51.5375 27.8789 51.5375 27.8789L51.8221 26.9624C51.8221 26.9624 51.8504 28.1624 52.22 28.0784C52.3882 28.0344 52.5364 27.9338 52.64 27.7932C52.7435 27.6527 52.7962 27.4808 52.7892 27.3059C52.7638 26.9499 52.714 26.5961 52.6402 26.2469C52.6402 26.2469 53.1245 27.3629 53.4941 26.9624C53.8637 26.5619 53.892 26.1599 53.664 25.7879C53.436 25.4159 52.527 24.6149 52.527 24.6149C52.527 24.6149 53.4941 24.4424 53.1529 23.6984C52.8116 22.9544 50.8207 22.8119 50.8207 22.8119C50.8207 22.8119 51.4168 21.4094 50.7641 21.7229C50.1114 22.0364 49.8968 21.9809 49.9534 22.6679Z" fill="#263238" stroke="#263238" stroke-width="0.3" stroke-miterlimit="10"/>
<path d="M46.8251 26.619C46.8251 26.619 46.8817 26.7615 47.1946 26.361C47.5076 25.9605 48.1618 26.247 48.1051 25.3875C48.0485 24.528 49.1572 24.1575 50.1243 24.3855C51.0915 24.6135 52.0288 25.788 52.1152 26.562C52.2017 27.336 51.4611 28.3365 51.4611 28.6515C51.4611 28.9665 51.5177 29.31 51.2614 29.739C51.0051 30.168 49.8963 30.912 49.3241 30.939C48.7519 30.966 48.1871 30.537 48.1871 30.537C48.1871 30.537 47.8741 31.482 47.8741 31.5975C47.8741 31.713 48.1588 32.1405 47.3049 32.4555C46.451 32.7705 45.77 32.226 45.6552 31.5675C45.5841 31.121 45.5462 30.6697 45.542 30.2175C45.542 30.2175 45.8832 29.961 46.1962 28.8675C46.379 28.2635 46.4841 27.6384 46.5091 27.0075L46.8251 26.619Z" fill="white" stroke="#263238" stroke-width="0.3" stroke-miterlimit="10"/>
<path d="M47.1947 26.9341C47.1947 26.9341 46.8251 25.9036 46.3989 26.2186C45.9727 26.5336 45.9996 27.3631 46.1993 27.6496C46.3989 27.9361 46.7685 27.7636 46.7685 27.7636" stroke="#263238" stroke-width="0.3" stroke-miterlimit="10"/>
<path d="M49.0146 26.418C49.0146 26.418 49.6972 26.103 50.2664 26.568" stroke="#263238" stroke-width="0.3" stroke-miterlimit="10"/>
<path d="M51.6881 27.6494C51.6877 27.4978 51.6278 27.3525 51.5215 27.2452C51.4151 27.1379 51.271 27.0772 51.1204 27.0764" stroke="#263238" stroke-width="0.3" stroke-miterlimit="10"/>
<path d="M50.9772 27.3C50.9772 27.3 50.7209 27.558 50.7507 27.7575C50.7805 27.957 50.864 28.7025 50.864 28.7025L50.1189 28.8165" stroke="#263238" stroke-width="0.3" stroke-miterlimit="10"/>
<path d="M50.2664 29.4809C50.2664 29.4809 49.5556 29.3669 49.2993 29.1089C49.135 28.9157 49.0354 28.6753 49.0146 28.4219" stroke="#263238" stroke-width="0.3" stroke-miterlimit="10"/>
<path d="M49.125 27.0764C49.125 27.0764 49.4946 27.4769 49.9774 27.3059" stroke="#263238" stroke-width="0.3" stroke-miterlimit="10"/>
<path d="M50.9485 27.8206C50.9793 27.9222 51.0448 28.0095 51.1334 28.0672C51.2221 28.1248 51.3281 28.149 51.4328 28.1356" stroke="#263238" stroke-width="0.3" stroke-miterlimit="10"/>
<path d="M48.1908 30.5401L47.2803 29.7676L47.8778 31.5991L48.1908 30.5401Z" fill="#263238" stroke="#263238" stroke-width="0.3" stroke-miterlimit="10"/>
<path d="M41.5397 27.219L40.0659 31.191L40.7514 31.812L42.3295 27.7035L41.5397 27.219Z" fill="#8A2BE2" stroke="#263238" stroke-width="0.3" stroke-miterlimit="10"/>
<path d="M45.548 30.2251C45.1902 31.1207 45.1812 32.1191 45.5227 33.0211" stroke="#263238" stroke-width="0.3" stroke-miterlimit="10"/>
<path d="M48.5383 31.1565C48.7331 31.9718 48.6733 32.8277 48.3669 33.6075" stroke="#263238" stroke-width="0.3" stroke-miterlimit="10"/>
<path d="M44.9017 29.9131C44.6086 30.5165 44.4451 31.1753 44.4219 31.8466" stroke="#263238" stroke-width="0.3" stroke-miterlimit="10"/>
<path d="M58.3148 41.7751C58.3148 41.7751 56.8544 43.8556 55.7815 45.0961C54.7085 46.3366 53.2631 47.2216 50.7685 47.6686C48.2739 48.1156 43.2966 47.6491 41.4652 47.2381C39.6337 46.8271 37.1838 45.4696 37.1838 45.4696L41.3758 42.9886C41.3758 42.9886 45.2369 45.6346 51.974 42.9061C51.9755 42.9001 56.85 39.8161 58.3148 41.7751Z" fill="#6B6B6B" stroke="#263238" stroke-width="0.3" stroke-miterlimit="10"/>
<path d="M43.0149 42.4094C43.0149 42.4094 45.666 43.0439 47.6971 43.2359" stroke="#263238" stroke-width="0.3" stroke-miterlimit="10"/>
<path d="M49.5803 42.1965C48.4065 42.5127 47.1904 42.6402 45.9771 42.5745" stroke="#263238" stroke-width="0.3" stroke-miterlimit="10"/>
<path d="M51.07 41.6655C50.8566 41.7667 50.6383 41.8569 50.4158 41.9355" stroke="#263238" stroke-width="0.3" stroke-miterlimit="10"/>
<path d="M47.1793 46.0499C47.1793 46.0499 42.9322 45.7964 41.3854 43.8344C39.8386 41.8724 35.967 39.0254 34.7197 39.5414C33.4724 40.0574 32.9315 40.6604 34.1162 43.2749C35.3009 45.8894 42.6565 47.0879 44.2942 47.4554C45.932 47.8229 49.8199 47.8214 50.7736 47.6744C51.7273 47.5274 54.1474 47.4524 54.441 46.4189C54.7346 45.3854 54.292 44.9429 53.0477 44.9429C51.8033 44.9429 50.9942 45.6809 49.8199 45.8279C48.9456 45.961 48.0634 46.0351 47.1793 46.0499Z" fill="white" stroke="#263238" stroke-width="0.3" stroke-miterlimit="10"/>
<path d="M45.1988 46.4131C45.3534 46.2409 45.4743 46.0409 45.555 45.8236C44.1855 45.5596 42.3064 44.9971 41.3825 43.8286C39.8341 41.8666 35.9641 39.0196 34.7168 39.5356C33.4695 40.0516 32.9286 40.6546 34.1133 43.2691C35.1698 45.5926 41.0889 46.7971 43.5462 47.2951C44.1214 47.1571 44.7741 46.8991 45.1988 46.4131Z" fill="#6B6B6B" stroke="#263238" stroke-width="0.3" stroke-miterlimit="10"/>
<path d="M53.0476 44.937C51.8003 44.937 50.9941 45.675 49.8198 45.822C48.9456 45.957 48.0635 46.0332 47.1792 46.05C47.1792 46.05 47.8617 46.875 47.5726 47.7525C48.9495 47.7885 50.2699 47.7525 50.7736 47.6745C51.7273 47.5245 54.1474 47.4525 54.4409 46.419C54.7345 45.3855 54.2949 44.937 53.0476 44.937Z" fill="white" stroke="#263238" stroke-width="0.3" stroke-miterlimit="10"/>
<path d="M45.6243 45.9434C45.6243 45.9434 49.8192 45.2324 51.1485 43.1159C52.4777 40.9994 56.0229 37.7474 57.3179 38.1269C58.6129 38.5064 59.2194 39.0449 58.3148 41.7749C57.4103 44.5049 50.2305 46.4879 48.642 47.0249C47.0534 47.5619 43.775 47.8064 42.8108 47.7629C41.8467 47.7194 38.8394 47.7194 38.4371 46.7234C38.0347 45.7274 38.4371 45.6059 39.671 45.4724C40.9049 45.3389 41.7915 45.9839 42.9747 46.0034C43.8583 46.0427 44.7434 46.0226 45.6243 45.9434Z" fill="white" stroke="#263238" stroke-width="0.3" stroke-miterlimit="10"/>
<path d="M47.6358 46.0964C47.4635 45.9421 47.3219 45.7564 47.2185 45.5489C48.5522 45.1394 50.3613 44.3774 51.1526 43.1159C52.4819 40.9979 56.0271 37.7474 57.322 38.1269C58.617 38.5064 59.2235 39.0449 58.319 41.7749C57.5158 44.1989 51.7621 46.0349 49.3703 46.7954C48.7832 46.7204 48.1067 46.5344 47.6358 46.0964Z" fill="#6B6B6B" stroke="#263238" stroke-width="0.3" stroke-miterlimit="10"/>
<path d="M39.6706 45.477C40.9104 45.342 41.7911 45.9885 42.9744 46.008C43.858 46.0458 44.7431 46.0242 45.6239 45.9435C45.6239 45.9435 45.0278 46.8435 45.4138 47.679C44.5517 47.8031 43.6788 47.8328 42.8104 47.7675C41.8463 47.7225 38.8391 47.724 38.4367 46.728C38.0343 45.732 38.4307 45.6105 39.6706 45.477Z" fill="white" stroke="#263238" stroke-width="0.3" stroke-miterlimit="10"/>
<path d="M69.3916 47.754C68.6584 46.065 67.1935 45.165 66.4603 44.94C66.4603 44.4555 63.085 43.3005 61.6917 42.375C60.2984 41.4495 60.811 39.309 58.0735 38.076C55.3912 36.867 52.065 40.083 51.9369 40.209C51.7417 40.3995 49.2217 39.861 48.7896 39.8505C46.8478 39.8059 44.9066 39.9643 42.9972 40.323C42.4443 40.4265 40.0943 41.292 39.6308 41.007L36.1602 38.883C35.6651 38.66 35.1187 38.5778 34.5804 38.6452C34.0421 38.7126 33.5325 38.9271 33.1068 39.2655C31.5838 40.4745 29.5303 42.897 29.0832 42.9705C28.4112 43.083 25.9076 46.515 25.541 46.9095C25.1745 47.304 22.5547 48.4845 22.6158 49.5C22.6769 50.5155 23.3445 52.536 23.3445 52.536C23.3445 52.536 20.5981 56.307 21.4519 57.036C22.3058 57.765 24.4443 58.7235 24.4443 58.7235C24.4443 58.7235 25.5425 52.9275 26.2146 51.915C26.8867 50.9025 30.7329 50.508 31.7105 50.451C32.688 50.394 39.0527 51.6855 42.7007 52.083C48.3798 52.7025 53.4479 52.083 58.5146 50.958C63.5813 49.833 65.5811 50.508 66.1742 50.844C67.2263 51.444 68.101 53.04 68.101 53.04L69.0786 56.5845C69.0786 56.5845 70.7879 55.7415 71.2155 55.347C71.6432 54.9525 70.1188 49.4415 69.3916 47.754Z" fill="white" stroke="#263238" stroke-width="0.3" stroke-miterlimit="10"/>
<path d="M51.4364 40.9231C51.4364 40.9231 48.1342 42.4036 44.8542 42.6211" stroke="#263238" stroke-width="0.3" stroke-miterlimit="10"/>
<path d="M55.261 44.0326C56.4412 43.5496 57.4188 43.1326 57.4188 43.1326" stroke="#263238" stroke-width="0.3" stroke-miterlimit="10"/>
<path d="M36.7202 43.65L40.4457 43.4805C40.4457 43.4805 50.579 45.6765 51.2526 45.564C51.5685 45.51 52.9484 44.973 54.3239 44.418" stroke="#263238" stroke-width="0.3" stroke-miterlimit="10"/>
<path d="M62.5371 45.231C63.0781 45.111 63.3984 45.0525 63.3984 45.0525" stroke="#263238" stroke-width="0.3" stroke-miterlimit="10"/>
<path d="M40.8245 48.2414C41.7007 48.3464 42.8839 48.4814 44.474 48.6539C49.6643 49.2164 52.3511 48.8219 55.8933 47.3039C57.751 46.5342 59.6664 45.9142 61.6216 45.45" stroke="#263238" stroke-width="0.3" stroke-miterlimit="10"/>
<path d="M38.4299 47.9219C38.4299 47.9219 38.6088 47.9579 39.2987 48.0494" stroke="#263238" stroke-width="0.3" stroke-miterlimit="10"/>
<path d="M25.546 46.9094C25.546 46.9094 23.8368 49.7234 23.5924 50.1164C23.348 50.5094 23.7757 51.2429 24.3255 51.5234" stroke="#263238" stroke-width="0.3" stroke-miterlimit="10"/>
<path d="M31.2242 50.229C31.2242 50.229 27.378 49.836 26.5226 50.1735C25.6673 50.511 26.4004 50.736 27.2558 50.6235" stroke="#263238" stroke-width="0.3" stroke-miterlimit="10"/>
<path d="M31.959 44.7149C30.7353 44.4645 29.4634 44.6429 28.3542 45.2204C27.0131 45.9524 25.6719 47.2469 25.6719 47.2469" stroke="#263238" stroke-width="0.3" stroke-miterlimit="10"/>
<path d="M36.9648 47.3594C36.9648 47.3594 34.0946 45.4499 32.7505 44.9399" stroke="#263238" stroke-width="0.3" stroke-miterlimit="10"/>
<path d="M68.5322 53.325C68.5322 53.325 69.7542 54.168 69.632 54.732C69.5098 55.296 69.1432 55.0125 68.8377 54.393" stroke="#263238" stroke-width="0.3" stroke-miterlimit="10"/>
</svg>
