<svg width="24" height="24" viewBox="0 0 24 24" fill="none" xmlns="http://www.w3.org/2000/svg">
<path d="M23.25 7.50015C23.2503 7.08901 23.1541 6.68354 22.9691 6.3164C22.784 5.94926 22.5153 5.63072 22.1846 5.38644C21.8539 5.14216 21.4705 4.97898 21.0652 4.91003C20.6599 4.84108 20.244 4.8683 19.8512 4.9895C19.4583 5.11069 19.0994 5.32247 18.8034 5.60778C18.5073 5.89308 18.2824 6.24393 18.1468 6.63206C18.0112 7.02019 17.9687 7.43474 18.0227 7.84232C18.0766 8.2499 18.2255 8.6391 18.4575 8.97858L15.9459 12.0723L13.6875 6.8814C14.0994 6.53473 14.3947 6.06979 14.5335 5.54961C14.6722 5.02943 14.6477 4.47917 14.4632 3.97341C14.2787 3.46764 13.9431 3.03084 13.502 2.72221C13.0609 2.41358 12.5355 2.24805 11.9971 2.24805C11.4588 2.24805 10.9334 2.41358 10.4923 2.72221C10.0512 3.03084 9.71563 3.46764 9.53112 3.97341C9.34661 4.47917 9.32207 5.02943 9.46083 5.54961C9.59959 6.06979 9.89493 6.53473 10.3068 6.8814L8.05402 12.0695L5.54245 8.97577C5.86509 8.50303 6.02437 7.9378 5.99606 7.36617C5.96774 6.79453 5.75337 6.24781 5.3856 5.80927C5.01782 5.37073 4.5168 5.06441 3.95883 4.93695C3.40086 4.8095 2.81653 4.8679 2.29482 5.10326C1.77311 5.33861 1.34262 5.73803 1.06891 6.24068C0.795197 6.74333 0.693266 7.32166 0.778638 7.8876C0.864011 8.45353 1.13201 8.97606 1.54182 9.3756C1.95162 9.77513 2.48078 10.0298 3.0487 10.1008L4.4062 18.2467C4.46456 18.5969 4.64526 18.9151 4.91614 19.1446C5.18702 19.3741 5.53054 19.5001 5.88558 19.5001H18.1143C18.4694 19.5001 18.8129 19.3741 19.0838 19.1446C19.3547 18.9151 19.5353 18.5969 19.5937 18.2467L20.9503 10.1045C21.5851 10.0252 22.1692 9.71682 22.5926 9.23724C23.0161 8.75766 23.2499 8.13993 23.25 7.50015ZM12 3.75015C12.2225 3.75015 12.44 3.81613 12.625 3.93974C12.81 4.06336 12.9542 4.23906 13.0393 4.44463C13.1245 4.65019 13.1467 4.87639 13.1033 5.09462C13.0599 5.31285 12.9528 5.51331 12.7954 5.67064C12.6381 5.82798 12.4377 5.93512 12.2194 5.97853C12.0012 6.02194 11.775 5.99966 11.5694 5.91451C11.3639 5.82936 11.1882 5.68517 11.0646 5.50016C10.9409 5.31516 10.875 5.09765 10.875 4.87515C10.875 4.57678 10.9935 4.29063 11.2045 4.07965C11.4154 3.86867 11.7016 3.75015 12 3.75015ZM2.24995 7.50015C2.24995 7.27764 2.31593 7.06014 2.43955 6.87513C2.56317 6.69013 2.73887 6.54593 2.94444 6.46078C3.15 6.37563 3.3762 6.35335 3.59443 6.39676C3.81266 6.44017 4.01312 6.54732 4.17045 6.70465C4.32778 6.86199 4.43493 7.06244 4.47834 7.28067C4.52175 7.4989 4.49947 7.7251 4.41432 7.93067C4.32917 8.13623 4.18498 8.31193 3.99997 8.43555C3.81497 8.55917 3.59746 8.62515 3.37495 8.62515C3.07659 8.62515 2.79044 8.50662 2.57946 8.29564C2.36848 8.08466 2.24995 7.79852 2.24995 7.50015ZM18.1143 18.0001H5.88558L4.58058 10.1739L7.66777 13.9689C7.73769 14.0562 7.82626 14.1268 7.927 14.1755C8.02773 14.2241 8.13808 14.2497 8.24995 14.2501C8.28382 14.2503 8.31765 14.2481 8.3512 14.2436C8.47898 14.2262 8.60011 14.1762 8.70291 14.0984C8.80571 14.0205 8.88671 13.9175 8.93808 13.7992L11.685 7.48046C11.8941 7.50669 12.1058 7.50669 12.315 7.48046L15.0618 13.7992C15.1132 13.9175 15.1942 14.0205 15.297 14.0984C15.3998 14.1762 15.5209 14.2262 15.6487 14.2436C15.6823 14.2481 15.7161 14.2503 15.75 14.2501C15.8618 14.2497 15.9722 14.2241 16.0729 14.1755C16.1736 14.1268 16.2622 14.0562 16.3321 13.9689L19.4193 10.1701L18.1143 18.0001ZM20.625 8.62515C20.4025 8.62515 20.1849 8.55917 19.9999 8.43555C19.8149 8.31193 19.6707 8.13623 19.5856 7.93067C19.5004 7.7251 19.4782 7.4989 19.5216 7.28067C19.565 7.06244 19.6721 6.86199 19.8295 6.70465C19.9868 6.54732 20.1873 6.44017 20.4055 6.39676C20.6237 6.35335 20.8499 6.37563 21.0555 6.46078C21.261 6.54593 21.4367 6.69013 21.5604 6.87513C21.684 7.06014 21.75 7.27764 21.75 7.50015C21.75 7.79852 21.6314 8.08466 21.4204 8.29564C21.2095 8.50662 20.9233 8.62515 20.625 8.62515Z" fill="white"/>
</svg>
