<svg width="25" height="24" viewBox="0 0 25 24" fill="none" xmlns="http://www.w3.org/2000/svg">
<path d="M20.75 4.5H4.25C4.05109 4.5 3.86032 4.57902 3.71967 4.71967C3.57902 4.86032 3.5 5.05109 3.5 5.25V19.5C3.5 19.8978 3.65804 20.2794 3.93934 20.5607C4.22064 20.842 4.60218 21 5 21H8.75C9.14782 21 9.52936 20.842 9.81066 20.5607C10.092 20.2794 10.25 19.8978 10.25 19.5V15H14.75V16.5C14.75 16.8978 14.908 17.2794 15.1893 17.5607C15.4706 17.842 15.8522 18 16.25 18H20C20.3978 18 20.7794 17.842 21.0607 17.5607C21.342 17.2794 21.5 16.8978 21.5 16.5V5.25C21.5 5.05109 21.421 4.86032 21.2803 4.71967C21.1397 4.57902 20.9489 4.5 20.75 4.5ZM8.75 19.5H5V12H8.75V19.5ZM8.75 10.5H5V6H8.75V10.5ZM14.75 13.5H10.25V6H14.75V13.5ZM20 16.5H16.25V12H20V16.5ZM20 10.5H16.25V6H20V10.5Z" fill="#9DB2CE"/>
</svg>
