<svg width="25" height="24" viewBox="0 0 25 24" fill="none" xmlns="http://www.w3.org/2000/svg">
<path d="M15.5 5.25V14.25C15.5 14.4489 15.421 14.6397 15.2803 14.7803C15.1397 14.921 14.9489 15 14.75 15H11C10.8011 15 10.6103 14.921 10.4697 14.7803C10.329 14.6397 10.25 14.4489 10.25 14.25V5.25C10.25 5.05109 10.329 4.86032 10.4697 4.71967C10.6103 4.57902 10.8011 4.5 11 4.5H14.75C14.9489 4.5 15.1397 4.57902 15.2803 4.71967C15.421 4.86032 15.5 5.05109 15.5 5.25ZM21.5 4.5H17.75C17.5511 4.5 17.3603 4.57902 17.2197 4.71967C17.079 4.86032 17 5.05109 17 5.25V10.125C17 10.2245 17.0395 10.3198 17.1098 10.3902C17.1802 10.4605 17.2755 10.5 17.375 10.5H21.875C21.9745 10.5 22.0698 10.4605 22.1402 10.3902C22.2105 10.3198 22.25 10.2245 22.25 10.125V5.25C22.25 5.05109 22.171 4.86032 22.0303 4.71967C21.8897 4.57902 21.6989 4.5 21.5 4.5ZM21.875 12H17.375C17.2755 12 17.1802 12.0395 17.1098 12.1098C17.0395 12.1802 17 12.2755 17 12.375V16.5C17 16.8978 17.158 17.2794 17.4393 17.5607C17.7206 17.842 18.1022 18 18.5 18H20.75C21.1478 18 21.5294 17.842 21.8107 17.5607C22.092 17.2794 22.25 16.8978 22.25 16.5V12.375C22.25 12.2755 22.2105 12.1802 22.1402 12.1098C22.0698 12.0395 21.9745 12 21.875 12ZM8 4.5H4.25C4.05109 4.5 3.86032 4.57902 3.71967 4.71967C3.57902 4.86032 3.5 5.05109 3.5 5.25V10.125C3.5 10.2245 3.53951 10.3198 3.60984 10.3902C3.68016 10.4605 3.77554 10.5 3.875 10.5H8.375C8.47446 10.5 8.56984 10.4605 8.64017 10.3902C8.71049 10.3198 8.75 10.2245 8.75 10.125V5.25C8.75 5.05109 8.67098 4.86032 8.53033 4.71967C8.38968 4.57902 8.19891 4.5 8 4.5ZM8.375 12H3.875C3.77554 12 3.68016 12.0395 3.60984 12.1098C3.53951 12.1802 3.5 12.2755 3.5 12.375V19.5C3.5 19.8978 3.65804 20.2794 3.93934 20.5607C4.22064 20.842 4.60218 21 5 21H7.25C7.64782 21 8.02936 20.842 8.31066 20.5607C8.59196 20.2794 8.75 19.8978 8.75 19.5V12.375C8.75 12.2755 8.71049 12.1802 8.64017 12.1098C8.56984 12.0395 8.47446 12 8.375 12Z" fill="#8A2BE2"/>
</svg>
