<svg width="25" height="24" viewBox="0 0 25 24" fill="none" xmlns="http://www.w3.org/2000/svg">
<path d="M17.0001 21.75C17.0001 21.9489 16.9211 22.1397 16.7805 22.2803C16.6398 22.421 16.449 22.5 16.2501 22.5H8.75012C8.55121 22.5 8.36044 22.421 8.21979 22.2803C8.07914 22.1397 8.00012 21.9489 8.00012 21.75C8.00012 21.5511 8.07914 21.3603 8.21979 21.2197C8.36044 21.079 8.55121 21 8.75012 21H16.2501C16.449 21 16.6398 21.079 16.7805 21.2197C16.9211 21.3603 17.0001 21.5511 17.0001 21.75ZM20.7501 9.75001C20.7534 11.0003 20.4709 12.2348 19.9243 13.3593C19.3778 14.4838 18.5815 15.4686 17.5964 16.2385C17.4122 16.3796 17.2627 16.5611 17.1593 16.7689C17.056 16.9767 17.0015 17.2054 17.0001 17.4375V18C17.0001 18.3978 16.8421 18.7794 16.5608 19.0607C16.2795 19.342 15.8979 19.5 15.5001 19.5H9.50012C9.1023 19.5 8.72077 19.342 8.43946 19.0607C8.15816 18.7794 8.00012 18.3978 8.00012 18V17.4375C7.99997 17.2082 7.94724 16.982 7.84599 16.7762C7.74474 16.5705 7.59766 16.3907 7.41606 16.2506C6.43337 15.4853 5.63767 14.5065 5.08916 13.3882C4.54066 12.2699 4.25374 11.0415 4.25012 9.79595C4.22575 5.32783 7.837 1.60689 12.3014 1.50001C13.4014 1.47351 14.4956 1.66731 15.5196 2.07003C16.5436 2.47275 17.4767 3.07624 18.2639 3.84497C19.0512 4.61371 19.6767 5.53217 20.1037 6.54628C20.5306 7.5604 20.7504 8.64968 20.7501 9.75001ZM17.7398 8.87439C17.5453 7.7881 17.0227 6.78748 16.2423 6.00723C15.4619 5.22698 14.4611 4.70457 13.3748 4.51033C13.2777 4.49395 13.1783 4.49687 13.0823 4.51892C12.9862 4.54096 12.8955 4.5817 12.8153 4.63881C12.735 4.69592 12.6668 4.76827 12.6145 4.85175C12.5622 4.93523 12.5268 5.02819 12.5104 5.12533C12.4941 5.22246 12.497 5.32187 12.519 5.41788C12.5411 5.51389 12.5818 5.60462 12.6389 5.68489C12.696 5.76515 12.7684 5.83338 12.8519 5.88568C12.9353 5.93798 13.0283 5.97333 13.1254 5.9897C14.6789 6.25126 15.997 7.56939 16.2604 9.12564C16.2901 9.30032 16.3807 9.45885 16.5161 9.57313C16.6515 9.68742 16.8229 9.75008 17.0001 9.75001C17.0425 9.74976 17.0848 9.74631 17.1267 9.7397C17.3227 9.70623 17.4974 9.59627 17.6124 9.434C17.7274 9.27173 17.7732 9.07044 17.7398 8.87439Z" fill="#8A2BE2"/>
</svg>
