<svg width="16" height="16" viewBox="0 0 16 16" fill="none" xmlns="http://www.w3.org/2000/svg">
<path d="M1.3335 8.00016C1.3335 11.682 4.31826 14.6668 8.00016 14.6668C11.682 14.6668 14.6668 11.682 14.6668 8.00016C14.6668 4.31826 11.682 1.3335 8.00016 1.3335C4.31826 1.3335 1.3335 4.31826 1.3335 8.00016ZM13.3335 8.00016C13.3335 10.9457 10.9457 13.3335 8.00016 13.3335C5.05464 13.3335 2.66683 10.9457 2.66683 8.00016C2.66683 5.05464 5.05464 2.66683 8.00016 2.66683C10.9457 2.66683 13.3335 5.05464 13.3335 8.00016ZM8.00016 8.00016V4.00016C9.10476 4.00016 10.1048 4.44788 10.8286 5.17174L8.00016 8.00016Z" fill="rgba(138, 43, 226, 1)"/>
</svg>
